<?xml version="1.0" encoding="utf-8"?>
<!-- Generator: Adobe Illustrator 15.1.0, SVG Export Plug-In . SVG Version: 6.00 Build 0)  -->
<!DOCTYPE svg PUBLIC "-//W3C//DTD SVG 1.1//EN" "http://www.w3.org/Graphics/SVG/1.1/DTD/svg11.dtd">
<svg version="1.1" id="Layer_1" xmlns="http://www.w3.org/2000/svg" xmlns:xlink="http://www.w3.org/1999/xlink" x="0px" y="0px"
	 width="114.244px" height="114.305px" viewBox="0 0 114.244 114.305" enable-background="new 0 0 114.244 114.305"
	 xml:space="preserve">
<g>
	<circle fill="#FFFFFF" cx="55.807" cy="55.695" r="52"/>
	<ellipse fill="#FFFFFF" cx="57.123" cy="57.152" rx="57.123" ry="57.152"/>
	<g>
		<g>
			<path fill="#7C7C7C" d="M57.123,0C25.573,0,0,25.589,0,57.152c0,31.566,25.573,57.152,57.123,57.152
				c31.551,0,57.121-25.586,57.121-57.152C114.244,25.589,88.674,0,57.123,0z M60.436,43.734c14.467,0,24.57,11.027,24.57,26.817
				c0,7.638-2.992,14.774-8.426,20.096c-5.541,5.421-12.887,8.316-20.633,8.15c-13.069,0-26.32-6.5-28.687-20.884h20.804
				c1.621,2.425,4.291,3.854,7.574,3.854c6.359,0,9.789-5.779,9.789-11.217c0-5.379-3.025-10.809-9.789-10.809
				c-4.049,0-6.287,1.18-8.857,4.675l-0.613,0.829H27.937l9.374-46.557h48.676l-3.367,16.972l-30.688,0.002
				c0,0-1.451,6.643-2.121,10.438C52.863,44.502,56.34,43.734,60.436,43.734z"/>
		</g>
	</g>
</g>
</svg>
