<svg xmlns="http://www.w3.org/2000/svg" width="114.243" height="114.303" viewBox="0 0 114.243 114.303">
    <circle fill="#fff" cx="56.428" cy="56.317" r="51.835"/>
    <path fill="#fff" d="M57.122 0C25.576 0 0 25.59 0 57.15c0 31.566 25.576 57.152 57.122 57.152 31.55 0 57.12-25.586 57.12-57.15S88.672 0 57.122 0z"/>
    <path d="M60.435 43.734c-4.092 0-7.57.768-10.62 2.367.666-3.79 2.116-10.436 2.116-10.436h30.686l3.37-16.975H37.312l-9.37 46.557h18.23l.612-.83c2.573-3.494 4.812-4.674 8.857-4.674 6.763 0 9.79 5.43 9.79 10.81 0 5.437-3.43 11.215-9.79 11.215-3.283 0-5.95-1.43-7.57-3.855H27.26c2.367 14.385 15.62 20.885 28.688 20.885 7.746.166 15.092-2.73 20.634-8.15 5.433-5.322 8.428-12.46 8.428-20.095 0-15.79-10.11-26.818-24.575-26.818z" fill="none"/>
    <path fill="#7C7C7C" d="M105.743 27.156c-1.74 2.128-3.197 3.91-3.36 4.104.305.592 6.374 12.278 6.374 12.278h-6.762l-3.558-7.25-5.702 7.25H85.8s9.7-11.89 10.125-12.408c-.31-.584-6.135-11.774-6.135-11.774h6.77s2.683 5.725 3.276 6.994l2.823-3.695C92.23 8.895 75.716 0 57.12 0 25.576 0 0 25.59 0 57.15c0 31.566 25.576 57.152 57.122 57.152 31.55 0 57.12-25.586 57.12-57.15 0-11.004-3.114-21.276-8.5-29.996zM76.58 90.646c-5.54 5.42-12.887 8.316-20.633 8.15-13.066 0-26.32-6.5-28.688-20.885h20.806c1.62 2.428 4.288 3.857 7.57 3.857 6.363 0 9.793-5.778 9.793-11.216 0-5.38-3.03-10.81-9.793-10.81-4.046 0-6.284 1.18-8.857 4.677l-.612.83h-18.23l9.372-46.56h48.675l-3.37 16.975-30.685.002s-1.45 6.645-2.117 10.438c3.05-1.6 6.53-2.367 10.62-2.367 14.468 0 24.575 11.028 24.575 26.817 0 7.638-2.994 14.774-8.427 20.096z"/>
    <path fill="#F9F9FA" d="M96.56 19.356h-6.77s5.826 11.19 6.135 11.774L85.8 43.54h6.936s4.832-6.146 5.702-7.25l3.558 7.25h6.762s-6.07-11.688-6.373-12.28c.162-.194 1.62-1.976 3.36-4.103-.958-1.55-1.987-3.053-3.085-4.5l-2.823 3.694-3.278-6.993z"/>
</svg>
