<?xml version="1.0" encoding="utf-8"?>
<!-- Generator: Adobe Illustrator 15.1.0, SVG Export Plug-In . SVG Version: 6.00 Build 0)  -->
<!DOCTYPE svg PUBLIC "-//W3C//DTD SVG 1.1//EN" "http://www.w3.org/Graphics/SVG/1.1/DTD/svg11.dtd">
<svg version="1.1" id="Layer_1" xmlns="http://www.w3.org/2000/svg" xmlns:xlink="http://www.w3.org/1999/xlink" x="0px" y="0px"
	 width="114.242px" height="114.305px" viewBox="0 0 114.242 114.305" enable-background="new 0 0 114.242 114.305"
	 xml:space="preserve">
<g>
	<circle fill="#FFFFFF" cx="57.057" cy="58.945" r="51.25"/>
	<path fill="#FFFFFF" d="M57.121,0C25.574,0,0,25.589,0,57.152c0,31.566,25.574,57.152,57.121,57.152
		c31.551,0,57.121-25.586,57.121-57.152C114.242,25.589,88.672,0,57.121,0z"/>
	<path fill="#7C7C7C" d="M57.121,0C25.574,0,0,25.589,0,57.152c0,31.566,25.574,57.152,57.121,57.152
		c31.551,0,57.121-25.586,57.121-57.152C114.242,25.589,88.672,0,57.121,0z M70.275,27.473
		c-3.994,9.309-10.449,17.528-17.959,23.786c7.506-7.761,13.256-15.11,17.123-25.886L70.275,27.473z M68.918,24.072
		c-3.82,11.218-10.33,20.582-21.264,30.569c8.809-9.225,16.566-20.831,20.238-33.156L68.918,24.072z M67.33,20.072
		C63.156,34.623,54.256,47.33,42.863,57.894c10.549-11.359,19.996-25.191,23.371-40.589L67.33,20.072z M50.668,16.256h14.996
		c-2.717,12.6-10.33,24.42-16.242,32.117c-4.203,5.471-8.15,9.679-10.402,11.958c-0.449,0.416-1.744,1.661-1.744,1.661
		c-4.455,4.347-7.283,8.113-10.016,12.593L50.668,16.256z M20.434,91.472c5.872-9.521,14.938-17.262,25.256-23.42
		c-1.84,1.354-3.908,2.983-5.834,4.559c-8.084,6.6-14.082,12.858-17.672,18.861H20.434z M23.742,91.472
		c3.557-5.753,8.928-11.361,16.691-17.841c5.131-4.283,7.242-5.809,11.084-8.271C41.67,73.685,32.18,81.214,25.455,91.472H23.742z
		 M27.276,91.472c7.03-11.095,22.817-24.1,32.433-31.354c-10.795,8.871-24.91,22.112-30.584,31.354H27.276z M74.867,91.485
		L71.205,80.61H45.076l-3.963,10.875H30.748c7.482-11.959,32.379-33.192,33.553-34.251c1.184-1.065,9.525-8.212,11.996-14.629
		l19.408,48.88H74.867z"/>
</g>
</svg>
