<svg xmlns="http://www.w3.org/2000/svg" width="114.244" height="114.302" viewBox="0 0 114.244 114.302"><circle fill="#fff" cx="57.279" cy="56.993" r="48.5"/><ellipse fill="#fff" cx="56.277" cy="57.265" rx="53.44" ry="53.466"/><path fill="#7C7C7C" d="M57.123 0C25.576 0 0 25.59 0 57.152c0 31.566 25.576 57.15 57.123 57.15 31.55 0 57.12-25.584 57.12-57.15C114.244 25.59 88.674 0 57.124 0zm-12.43 19.01c11.28-6.39 32.464-2.18 33.226 13.246.666 13.586-16.118 22.754-26.213 28.292-.28-.275-2.23-2.205-2.642-2.613 9.058-6.845 19.188-19.067 14.712-31.205-3.087-8.362-16.95-8.188-20.583-.383 3.47-1.203 8.412-1.382 11.075 1.62 2.79 3.152 1.14 8.07-2.34 9.863-5.428 2.8-14.974.41-15.423-6.662-.138-5.33 3.583-9.866 8.187-12.158zm34.01 73.125c-10.493 8.096-30.788 9.675-41.654 1.763-4.556-3.316-8.442-7.24-8.302-12.63.393-14.337 24.388-8.25 18.62 2.525-2.365 3.783-8.086 3.774-11.803 2.363 6.44 9.357 23.862 9.13 31.22.927 3.692-4.114 4.13-9.58 3.672-14.965-.55-6.458-3.667-10.52-7.588-15.24 2.42-1.734 3.85-2.698 6.166-4.576 16.984 4.112 26.36 26.962 9.666 39.833zM84.84 42.89c-4.892 0-4.904-7.483 0-7.483 4.804 0 4.788 7.482 0 7.482zm0-12.667c-4.892 0-4.904-7.48 0-7.48 4.804 0 4.788 7.48 0 7.48z"/></svg>