<?xml version="1.0" encoding="utf-8"?>
<!-- Generator: Adobe Illustrator 15.1.0, SVG Export Plug-In . SVG Version: 6.00 Build 0)  -->
<!DOCTYPE svg PUBLIC "-//W3C//DTD SVG 1.1//EN" "http://www.w3.org/Graphics/SVG/1.1/DTD/svg11.dtd">
<svg version="1.1" id="Layer_1" xmlns="http://www.w3.org/2000/svg" xmlns:xlink="http://www.w3.org/1999/xlink" x="0px" y="0px"
	  viewBox="0 0 114.244 114.303" enable-background="new 0 0 114.244 114.303"
	 xml:space="preserve">
<g>
	<circle fill="#FFFFFF" cx="58.896" cy="56.424" r="54.896"/>
	<ellipse fill="#FFFFFF" cx="57.123" cy="57.151" rx="57.123" ry="57.151"/>
	<path fill="#7C7C7C" d="M57.123,0C25.576,0,0,25.589,0,57.152c0,31.566,25.576,57.15,57.123,57.15
		c31.551,0,57.121-25.584,57.121-57.15C114.244,25.589,88.674,0,57.123,0z M88.123,79.86l-11.625-0.004l0.033,14.72l-20.812,0.028
		l-0.029-13.24c0,0-0.021-1.467-1.766-1.529l-29.768,0.024l0.006-12.216c0.008-1.779,0.883-4.4,1.949-5.826l31.828-42.677
		c1.062-1.424,3.387-2.592,5.166-2.59l13.436,0.01L76.51,62.731l11.621-0.029L88.123,79.86z"/>
	<path fill="#7C7C7C" d="M57.473,49.826c-4.518,0.094-8.117,3.842-8.021,8.358c0.105,3.922,3.039,7.146,6.867,7.829l2.941,0.525
		c-0.758,5.213-2.705,9.108-7.088,12.329c5.91-2.617,10.436-8.275,12.527-14.264C66.795,58.605,65.605,49.662,57.473,49.826z"/>
</g>
<path fill="#FFFFFF" d="M89.531,32.793c0.836,3.104,3.303,5.029,6.355,5.029c2.168,0,4.285-0.938,5.371-2.959h6.947
	c-1.479,5.176-5.961,8.676-12.27,8.676c-7.143,0-13.008-5.914-13.008-13.26c0-7.344,5.865-13.357,13.008-13.357
	c7.488,0,13.699,5.816,12.762,15.871H89.531z M102.244,27.469c-0.787-2.956-3.254-4.828-6.357-4.828
	c-2.953,0-5.32,1.872-6.258,4.828H102.244z"/>
</svg>
