<svg xmlns="http://www.w3.org/2000/svg" width="114.244" height="114.303" viewBox="0 0 114.244 114.303"><circle fill="#fff" cx="58.896" cy="56.424" r="54.896"/><ellipse fill="#fff" cx="57.123" cy="57.151" rx="57.123" ry="57.151"/><path fill="#7C7C7C" d="M57.123 0C25.576 0 0 25.59 0 57.152c0 31.566 25.576 57.15 57.123 57.15 31.55 0 57.12-25.584 57.12-57.15C114.244 25.59 88.674 0 57.124 0zm31 79.86l-11.625-.004.033 14.72-20.81.028-.03-13.24s-.02-1.467-1.766-1.53l-29.768.025.006-12.217c.008-1.78.883-4.4 1.95-5.826L57.938 19.14c1.06-1.424 3.386-2.592 5.165-2.59l13.436.01-.03 46.17 11.62-.028-.007 17.158zM57.473 49.826c-4.518.094-8.117 3.842-8.02 8.358.104 3.922 3.038 7.146 6.866 7.83l2.94.524c-.758 5.213-2.705 9.108-7.088 12.33 5.91-2.618 10.436-8.276 12.527-14.265 2.095-5.998.905-14.94-7.227-14.777z"/><path fill="#fff" d="M89.53 32.793c.837 3.104 3.304 5.03 6.356 5.03 2.168 0 4.285-.94 5.37-2.96h6.948c-1.48 5.176-5.96 8.676-12.27 8.676-7.143 0-13.008-5.915-13.008-13.26S88.79 16.92 95.934 16.92c7.488 0 13.7 5.816 12.762 15.87H89.53zm12.714-5.324c-.787-2.957-3.254-4.83-6.357-4.83-2.953 0-5.32 1.873-6.258 4.83h12.614z"/></svg>