<?xml version="1.0" encoding="utf-8"?>
<!-- Generator: Adobe Illustrator 15.1.0, SVG Export Plug-In . SVG Version: 6.00 Build 0)  -->
<!DOCTYPE svg PUBLIC "-//W3C//DTD SVG 1.1//EN" "http://www.w3.org/Graphics/SVG/1.1/DTD/svg11.dtd">
<svg version="1.1" id="Layer_1" xmlns="http://www.w3.org/2000/svg" xmlns:xlink="http://www.w3.org/1999/xlink" x="0px" y="0px"
	  viewBox="0 0 114.242 114.304" enable-background="new 0 0 114.242 114.304"
	 xml:space="preserve">
<g>
	<circle fill-rule="evenodd" clip-rule="evenodd" fill="#FFFFFF" cx="55.871" cy="60.707" r="47.5"/>
	<g>
		<path fill="#7C7C7C" d="M57.121,0C25.576,0,0,25.588,0,57.151c0,31.566,25.576,57.152,57.121,57.152
			c31.551,0,57.121-25.586,57.121-57.152C114.242,25.588,88.672,0,57.121,0z M87.781,92.851H24.705l32.559-38.228
			c4.637-5.238,7.15-8.799,7.15-12.605c0-3.426-2.346-7.121-6.139-7.121c-4.541,0-6.832,4.488-7.004,7.676l-0.166,3.008H30.21
			l0.179-3.352c0.309-5.887,1.298-9.123,4.064-13.322c5.599-8.521,13.443-12.66,23.986-12.66c17.754,0,28.783,9.365,28.783,24.443
			c0,6.359-2.189,11.496-7.234,17.086L67.037,72.571h20.744V92.851z"/>
	</g>
</g>
</svg>
