<svg xmlns="http://www.w3.org/2000/svg" viewBox="0 0 114.242 114.304" enable-background="new 0 0 114.242 114.304">
    <circle fill-rule="evenodd" clip-rule="evenodd" fill="#fff" cx="55.871" cy="60.707" r="47.5"/>
    <path fill="#7C7C7C" d="M57.12 0C25.577 0 0 25.588 0 57.15c0 31.567 25.576 57.153 57.12 57.153 31.552 0 57.122-25.586 57.122-57.152C114.242 25.59 88.672 0 57.122 0zm30.66 92.85H24.706l32.56-38.227c4.636-5.238 7.15-8.8 7.15-12.605 0-3.426-2.347-7.12-6.14-7.12-4.54 0-6.832 4.487-7.004 7.675l-.165 3.008H30.21l.18-3.35c.308-5.888 1.297-9.124 4.063-13.323 5.6-8.52 13.443-12.66 23.986-12.66 17.753 0 28.782 9.365 28.782 24.443 0 6.36-2.19 11.496-7.234 17.086L67.038 72.57H87.78v20.28z"/>
</svg>
