<svg xmlns="http://www.w3.org/2000/svg" viewBox="0 0 114.243 114.305" enable-background="new 0 0 114.243 114.305">
    <circle fill="#fff" cx="56.927" cy="57.67" r="48.045"/>
    <g fill="#7C7C7C">
        <path d="M57.122 0C25.575 0 0 25.588 0 57.152c0 31.566 25.575 57.152 57.122 57.152 31.55 0 57.12-25.586 57.12-57.152C114.243 25.588 88.673 0 57.123 0zm31 79.86l-11.625-.005.033 14.72-20.812.026-.03-13.235s-.02-1.467-1.765-1.53l-29.768.024.005-12.216c.008-1.78.885-4.4 1.95-5.826L57.937 19.14c1.062-1.425 3.387-2.592 5.166-2.59l13.434.01-.03 46.17 11.622-.028-.008 17.16zM57.472 49.826c-4.518.092-8.117 3.842-8.02 8.36.104 3.92 3.038 7.145 6.866 7.827l2.94.525c-.757 5.213-2.706 9.11-7.087 12.33 5.91-2.617 10.435-8.275 12.526-14.268 2.096-5.995.908-14.94-7.224-14.774z"/>
    </g>
</svg>
