<?xml version="1.0" encoding="UTF-8" standalone="no"?>
<svg  viewBox="0 0 192 115" version="1.1" xmlns="http://www.w3.org/2000/svg" xmlns:xlink="http://www.w3.org/1999/xlink" xmlns:sketch="http://www.bohemiancoding.com/sketch/ns">
    <title>Slice 1</title>
    <description>Created with Sketch (http://www.bohemiancoding.com/sketch)</description>
    <defs></defs>
    <g id="Page 1" fill="#D8D8D8" fill-rule="evenodd">
        <g id="Layer_1" fill="#000000">
            <g id="Group">
                <path d="M55.8059998,107.695999 C84.5248082,107.695999 107.806,84.4148076 107.806,55.6959991 C107.806,26.9771907 84.5248082,3.69599915 55.8059998,3.69599915 C27.0871913,3.69599915 3.80599976,26.9771907 3.80599976,55.6959991 C3.80599976,84.4148076 27.0871913,107.695999 55.8059998,107.695999 Z M55.8059998,107.695999" id="Oval" fill="#FFFFFF"></path>
                <path d="M57.123,0 C25.573,0 0,25.589 0,57.152 C0,88.718 25.572,114.305 57.123,114.305 C88.674,114.305 114.243,88.719 114.243,57.152 C114.242,25.589 88.672,0 57.123,0 L57.123,0 Z M57.123,0" id="Shape" fill="#FFFFFF"></path>
                <g>
                    <path d="M57.123,0 C25.573,0 0,25.589 0,57.152 C0,88.718 25.572,114.305 57.123,114.305 C88.674,114.305 114.243,88.719 114.243,57.152 C114.242,25.589 88.672,0 57.123,0 L57.123,0 Z M60.434,43.734 C74.901,43.734 85.005,54.761 85.005,70.552 C85.005,78.19 82.013,85.324 76.579,90.648 C71.038,96.069 63.691,98.964 55.945,98.798 C42.876,98.798 29.626,92.298 27.258,77.912 L48.062,77.912 C49.682,80.339 52.353,81.766 55.635,81.766 C61.994,81.766 65.424,75.987 65.424,70.549 C65.424,65.168 62.399,59.738 55.635,59.738 C51.586,59.738 49.349,60.918 46.779,64.414 L46.167,65.242 L27.935,65.242 L37.309,18.685 L85.984,18.685 L82.617,35.66 L51.929,35.66 C51.929,35.66 50.479,42.305 49.808,46.098 C52.863,44.502 56.34,43.734 60.434,43.734 L60.434,43.734 Z M60.434,43.734" id="Shape" fill="#00AFD8"></path>
                    <g>
                        <path d="M141.051,35.761 L133.832,35.761 L133.059,40.984 L140.281,40.984 L141.051,35.761 Z M141.051,35.761" id="Shape" fill="#00AFD8"></path>
                        <g>
                            <path d="M136.039,74.269 L139.867,45.037 L132.65,45.037 L128.822,74.269 L136.039,74.269 Z M136.039,74.269" id="Shape" fill="#00AFD8"></path>
                            <path d="M154.881,74.269 L169.436,45.037 L161.7,45.037 C161.7,45.037 155.016,59.369 153.46,62.715 C152.731,59.156 149.851,45.037 149.851,45.037 L142.255,45.037 L149.148,74.269 L154.881,74.269 L154.881,74.269 Z M154.881,74.269" id="Shape" fill="#00AFD8"></path>
                            <path d="M188.855,48.219 C186.867,45.956 183.939,44.708 180.605,44.708 C174.759,44.708 167.992,48.626 166.554,59.626 C165.884,64.727 166.687,68.612 168.943,71.179 C170.9,73.412 173.961,74.593 177.775,74.593 C181.998,74.593 185.845,72.968 188.9,69.888 L189.498,69.292 L184.756,64.747 L184.182,65.268 C182.52,66.777 180.289,67.718 178.354,67.718 C176.635,67.718 175.286,67.21 174.446,66.251 C173.758,65.468 173.403,64.358 173.403,63.009 C173.403,62.867 173.424,62.718 173.432,62.571 L190.578,62.571 L191.269,57.282 C191.353,56.652 191.394,56.034 191.394,55.43 C191.393,52.629 190.514,50.111 188.855,48.219 L188.855,48.219 Z M184.109,56.349 L174.289,56.349 C175.076,53.391 177.156,51.585 179.918,51.585 C181.23,51.585 182.303,51.997 183.02,52.782 C183.745,53.575 184.12,54.757 184.12,56.223 C184.117,56.261 184.109,56.307 184.109,56.349 L184.109,56.349 Z M184.109,56.349" id="Shape" fill="#00AFD8"></path>
                            <path d="M129.131,35.761 L121.914,35.761 L116.846,74.24 L124.064,74.24 L129.131,35.761 Z M129.131,35.761" id="Shape" fill="#00AFD8"></path>
                        </g>
                    </g>
                </g>
            </g>
        </g>
    </g>
</svg>
