<?xml version="1.0" encoding="UTF-8" standalone="no"?>
<!-- Created with Inkscape (http://www.inkscape.org/) -->

<svg
   xmlns:dc="http://purl.org/dc/elements/1.1/"
   xmlns:cc="http://creativecommons.org/ns#"
   xmlns:rdf="http://www.w3.org/1999/02/22-rdf-syntax-ns#"
   xmlns:svg="http://www.w3.org/2000/svg"
   xmlns="http://www.w3.org/2000/svg"
   version="1.1"
   width="315.73749"
   height="58.299999"
   id="svg3547"
   xml:space="preserve"><metadata
     id="metadata3553"><rdf:RDF><cc:Work
         rdf:about=""><dc:format>image/svg+xml</dc:format><dc:type
           rdf:resource="http://purl.org/dc/dcmitype/StillImage" /><dc:title></dc:title></cc:Work></rdf:RDF></metadata><defs
     id="defs3551"><clipPath
       id="clipPath3563"><path
         d="m 0,0 2525.93,0 0,466 L 0,466 0,0 z"
         id="path3565" /></clipPath></defs><g
     transform="matrix(1.25,0,0,-1.25,0,58.3)"
     id="g3555"><g
       transform="scale(0.1,0.1)"
       id="g3557"><g
         id="g3559"><g
           clip-path="url(#clipPath3563)"
           id="g3561"><path
             d="m 615.824,341.883 -3.172,-1.942 c -15.347,-9.367 -32.039,-14.39 -47.199,-14.386 -32.445,0.125 -53.82,19.351 -53.91,47.343 0.039,27.375 22.359,47.637 53.09,47.715 15.648,-0.011 29.832,-4.062 46.676,-13.289 l 3.093,-1.703 0,24.992 -1.32,0.52 c -19,7.504 -33.711,10.844 -48.242,10.836 -22.469,0.008 -41.957,-7.414 -55.848,-20.008 -13.887,-12.586 -22.133,-30.371 -22.121,-50.781 0.008,-14.223 5.883,-30.899 18.441,-44.121 12.536,-13.231 31.836,-22.879 58.309,-22.864 0.031,0 0.063,0 0.09,0 21.957,0 37.187,4.895 50.945,11.668 l 1.168,0.571 0,25.449 z m 39.364,124.512 0,-186.485 -198.168,0 0,186.485 198.168,0"
             id="path3567"
             style="fill:#696566;fill-opacity:1;fill-rule:nonzero;stroke:none" /><path
             d="m 379.766,342.754 c 0.058,16.949 -11.231,29.82 -29.282,34.769 4.868,2.493 8.727,5.532 11.547,9.25 3.781,4.973 5.582,11.079 5.563,18.188 0.019,8.734 -3.418,17.641 -10.801,24.305 -7.379,6.66 -18.59,10.988 -33.879,10.984 l -42.246,0 0,-134.309 49.574,0 c 17.688,0 30.106,4.786 38.098,11.891 8,7.078 11.433,16.367 11.426,24.922 z m 47.082,123.641 0,-186.485 -198.164,0 0,186.485 198.164,0"
             id="path3569"
             style="fill:#696566;fill-opacity:1;fill-rule:nonzero;stroke:none" /><path
             d="m 355.105,345.434 c -0.015,-4.438 -1.378,-8.895 -5.355,-12.383 -3.957,-3.485 -10.812,-6.133 -22.168,-6.133 l -22.859,0 0,36.656 21.839,0 c 10.192,0 17.418,-2.066 21.946,-5.293 4.515,-3.246 6.558,-7.511 6.597,-12.847"
             id="path3571"
             style="fill:#696566;fill-opacity:1;fill-rule:nonzero;stroke:none" /><path
             d="m 336.586,389.332 c 4.258,3.07 6.309,7.395 6.34,13.91 -0.02,4.461 -1.293,8.289 -4.508,11.141 -3.223,2.859 -8.695,4.89 -17.523,4.89 l -16.172,0 0,-34.734 11.101,0 c 9.602,-0.008 16.485,1.711 20.762,4.793"
             id="path3573"
             style="fill:#696566;fill-opacity:1;fill-rule:nonzero;stroke:none" /><path
             d="m 151.438,342.754 c 0.054,16.949 -11.239,29.82 -29.286,34.769 4.868,2.493 8.715,5.532 11.543,9.25 3.782,4.973 5.578,11.079 5.567,18.188 0.011,8.734 -3.422,17.641 -10.793,24.305 -7.383,6.66 -18.598,10.988 -33.887,10.984 l -42.2461,0 0,-134.309 49.5431,0 c 0.019,0 0.031,0 0.031,0 17.695,0 30.102,4.786 38.094,11.891 7.992,7.078 11.441,16.367 11.434,24.922 z m 47.082,123.641 0,-186.485 -198.164531,0 0,186.485 198.164531,0"
             id="path3575"
             style="fill:#696566;fill-opacity:1;fill-rule:nonzero;stroke:none" /><path
             d="m 108.254,389.332 c 4.246,3.07 6.312,7.395 6.348,13.91 -0.012,4.461 -1.301,8.289 -4.52,11.141 -3.227,2.859 -8.695,4.89 -17.5273,4.89 l -16.1563,0 0,-34.734 11.0899,0 c 9.6015,-0.008 16.4887,1.711 20.7657,4.793"
             id="path3577"
             style="fill:#696566;fill-opacity:1;fill-rule:nonzero;stroke:none" /><path
             d="m 120.176,358.281 c -4.531,3.227 -11.762,5.293 -21.9377,5.293 l -21.8399,0 0,-36.656 22.8555,0 c 11.3511,0 18.1951,2.648 22.1721,6.133 3.961,3.488 5.332,7.945 5.351,12.383 -0.043,5.336 -2.082,9.601 -6.601,12.847"
             id="path3579"
             style="fill:#696566;fill-opacity:1;fill-rule:nonzero;stroke:none" /><path
             d="m 1123.7,2.46875 -142.407,0 0,186.76925 46.567,0 0,-152.531 95.84,0 0,-34.23825"
             id="path3581"
             style="fill:#696566;fill-opacity:1;fill-rule:nonzero;stroke:none" /><path
             d="m 1290.17,2.46875 -137.76,0 0,186.76925 135.85,0 0,-34.238 -89.29,0 0,-39.172 85.18,0 0,-34.2069 -85.18,0 0,-44.9141 91.2,0 0,-34.23825"
             id="path3583"
             style="fill:#696566;fill-opacity:1;fill-rule:nonzero;stroke:none" /><path
             d="m 1335.86,2.46875 46.5703,0 0,186.77 -46.5703,0 0,-186.77 z"
             id="path3585"
             style="fill:#696566;fill-opacity:1;fill-rule:nonzero;stroke:none" /><path
             d="M 1602.61,18.6328 C 1576.59,5.21484 1556.87,0 1529.2,0 c -72.57,0 -108.73,47.1094 -108.73,95.293 0,49.852 40.8,96.414 112.3,96.414 26.02,0 49.31,-5.488 67.65,-16.445 l 0,-41.621 c -20.54,11.504 -41.35,19.16 -64.36,19.16 -39.73,0 -67.66,-23.555 -67.66,-56.6877 0,-33.3789 27.66,-57.2188 66.57,-57.2188 24.37,0 40.8,7.668 67.64,20.5469 l 0,-40.8086"
             id="path3587"
             style="fill:#696566;fill-opacity:1;fill-rule:nonzero;stroke:none" /><path
             d="m 1778.94,2.46875 -137.76,0 0,186.76925 135.85,0 0,-34.238 -89.29,0 0,-39.172 85.18,0 0,-34.2069 -85.18,0 0,-44.9141 91.2,0 0,-34.23825"
             id="path3589"
             style="fill:#696566;fill-opacity:1;fill-rule:nonzero;stroke:none" /><path
             d="m 1951.45,140.75 c -27.11,12.051 -43.28,16.719 -59.16,16.719 -16.71,0 -27.39,-6.035 -27.39,-15.34 0,-28.215 95.05,-20.266 95.05,-85.4298 C 1959.95,20.8203 1929.81,0 1888.18,0 c -32.59,0 -48.75,8.49609 -67.37,18.0859 l 0,40.2539 c 26.83,-17.7929 43.27,-24.1015 63.8,-24.1015 17.82,0 27.41,6.3086 27.41,17.2656 0,30.6641 -95.05,19.4336 -95.05,86.5121 0,32.324 27.94,53.691 71.21,53.691 20.82,0 39.72,-4.395 63.27,-14.519 l 0,-36.438"
             id="path3591"
             style="fill:#696566;fill-opacity:1;fill-rule:nonzero;stroke:none" /><path
             d="m 2156.56,155 -67.66,0 0,-152.53125 -46.56,0 0,152.53125 -67.65,0 0,34.238 181.87,0 0,-34.238"
             id="path3593"
             style="fill:#696566;fill-opacity:1;fill-rule:nonzero;stroke:none" /><path
             d="m 2318.65,2.46875 -137.78,0 0,186.76925 135.86,0 0,-34.238 -89.29,0 0,-39.172 85.17,0 0,-34.2069 -85.17,0 0,-44.9141 91.21,0 0,-34.23825"
             id="path3595"
             style="fill:#696566;fill-opacity:1;fill-rule:nonzero;stroke:none" /><path
             d="m 2408.71,112.547 24.65,0 c 12.88,0 25.47,5.48 25.47,21.367 0,13.965 -9.03,21.086 -26.57,21.086 l -23.55,0 0,-42.453 z m 36.98,76.691 c 38.35,0 61.08,-25.754 61.08,-53.683 0,-20.547 -10.68,-35.8792 -32.05,-45.7425 19.17,-9.5586 24.92,-32.5664 51.21,-87.34375 l -51.21,0 c -20,39.99215 -27.39,75.87105 -52.59,75.87105 l -13.42,0 0,-75.87105 -46.57,0 0,186.76925 83.55,0"
             id="path3597"
             style="fill:#696566;fill-opacity:1;fill-rule:nonzero;stroke:none" /><path
             d="m 45.7812,110.727 24.2305,0 c 12.6485,0 25.0352,5.375 25.0352,20.996 0,13.742 -8.8867,20.726 -26.1172,20.726 l -23.1485,0 0,-41.722 z m 36.3477,75.394 c 37.6991,0 60.0511,-25.32 60.0511,-52.781 0,-20.195 -10.504,-35.2697 -31.504,-44.965 18.851,-9.4219 24.496,-32.0469 50.347,-85.90625 l -50.347,0 C 91.0195,41.7773 83.7461,77.0703 58.9688,77.0703 l -13.1876,0 0,-74.60155 -45.7812,0 0,183.65225 82.1289,0"
             id="path3599"
             style="fill:#696566;fill-opacity:1;fill-rule:nonzero;stroke:none" /><path
             d="m 266.605,142.23 -26.925,-71.3511 56.55,0 -29.625,71.3511 z m 107.45,-139.76125 -49.285,0 -15.082,36.35935 -82.129,0 -13.731,-36.35935 -48.461,0 74.047,183.65225 53.047,0 81.594,-183.65225"
             id="path3601"
             style="fill:#696566;fill-opacity:1;fill-rule:nonzero;stroke:none" /><path
             d="m 443.555,36.1211 29.879,0 c 46.074,0 59.785,31.25 59.785,58.1758 0,31.5041 -16.946,58.1521 -60.293,58.1521 l -29.371,0 0,-116.3279 z m 35.269,149.9999 c 67.067,0 101.528,-41.726 101.528,-92.0937 0,-52.7695 -33.399,-91.55855 -106.622,-91.55855 l -75.941,0 0,183.65225 81.035,0"
             id="path3603"
             style="fill:#696566;fill-opacity:1;fill-rule:nonzero;stroke:none" /><path
             d="m 618.367,2.46875 45.7773,0 0,183.652 -45.7773,0 0,-183.652 z"
             id="path3605"
             style="fill:#696566;fill-opacity:1;fill-rule:nonzero;stroke:none" /><path
             d="m 806.594,150.316 c -35,0 -58.18,-22.351 -58.18,-56.0191 0,-33.6524 23.18,-56.0078 58.18,-56.0078 34.73,0 57.886,22.3554 57.886,56.0078 0,33.6681 -23.156,56.0191 -57.886,56.0191 z m 0,-150.269125 c -67.336,0 -105.289,47.394525 -105.289,94.250025 0,44.4331 36.09,94.2461 105.289,94.2461 69.191,0 105.023,-50.098 105.023,-94.2461 0,-47.1289 -39.055,-94.250025 -105.023,-94.250025"
             id="path3607"
             style="fill:#696566;fill-opacity:1;fill-rule:nonzero;stroke:none" /></g></g></g></g></svg>