<?xml version="1.0" encoding="UTF-8" standalone="no"?>
<!-- Created with Inkscape (http://www.inkscape.org/) -->

<svg
   xmlns:dc="http://purl.org/dc/elements/1.1/"
   xmlns:cc="http://creativecommons.org/ns#"
   xmlns:rdf="http://www.w3.org/1999/02/22-rdf-syntax-ns#"
   xmlns:svg="http://www.w3.org/2000/svg"
   xmlns="http://www.w3.org/2000/svg"
   version="1.1"
   width="449.125"
   height="58.325001"
   id="svg3965"
   xml:space="preserve"><metadata
     id="metadata3971"><rdf:RDF><cc:Work
         rdf:about=""><dc:format>image/svg+xml</dc:format><dc:type
           rdf:resource="http://purl.org/dc/dcmitype/StillImage" /><dc:title></dc:title></cc:Work></rdf:RDF></metadata><defs
     id="defs3969"><clipPath
       id="clipPath3981"><path
         d="m 0,0 3593,0 0,466.602 -3593,0 L 0,0 z"
         id="path3983" /></clipPath></defs><g
     transform="matrix(1.25,0,0,-1.25,0,58.325)"
     id="g3973"><g
       transform="scale(0.1,0.1)"
       id="g3975"><g
         id="g3977"><g
           clip-path="url(#clipPath3981)"
           id="g3979"><path
             d="m 615.824,342.09 -3.172,-1.942 c -15.347,-9.367 -32.039,-14.39 -47.199,-14.386 -32.445,0.121 -53.82,19.351 -53.91,47.343 0.039,27.375 22.359,47.637 53.09,47.715 15.648,-0.015 29.832,-4.062 46.676,-13.289 l 3.093,-1.707 0,24.996 -1.32,0.52 c -19,7.504 -33.711,10.844 -48.242,10.832 -22.469,0.012 -41.957,-7.41 -55.848,-20.004 -13.887,-12.586 -22.133,-30.371 -22.121,-50.781 0.008,-14.223 5.883,-30.899 18.441,-44.121 12.536,-13.231 31.836,-22.879 58.309,-22.868 0.031,0 0.063,0 0.09,0 21.957,0 37.187,4.899 50.945,11.672 l 1.168,0.571 0,25.449 z m 39.364,124.512 0,-186.485 -198.168,0 0,186.485 198.168,0"
             id="path3985"
             style="fill:#696566;fill-opacity:1;fill-rule:nonzero;stroke:none" /><path
             d="m 379.766,342.961 c 0.058,16.945 -11.231,29.816 -29.282,34.769 4.868,2.489 8.727,5.532 11.547,9.247 3.781,4.976 5.582,11.082 5.563,18.191 0.019,8.734 -3.418,17.641 -10.801,24.305 -7.379,6.66 -18.59,10.988 -33.879,10.98 l -42.246,0 0,-134.305 49.574,0 c 17.688,0 30.106,4.786 38.098,11.891 8,7.078 11.433,16.367 11.426,24.922 z m 47.082,123.641 0,-186.485 -198.164,0 0,186.485 198.164,0"
             id="path3987"
             style="fill:#696566;fill-opacity:1;fill-rule:nonzero;stroke:none" /><path
             d="m 355.105,345.641 c -0.015,-4.438 -1.378,-8.899 -5.355,-12.383 -3.957,-3.488 -10.812,-6.133 -22.168,-6.133 l -22.859,0 0,36.656 21.839,0 c 10.192,0 17.418,-2.066 21.946,-5.293 4.515,-3.25 6.558,-7.511 6.597,-12.847"
             id="path3989"
             style="fill:#696566;fill-opacity:1;fill-rule:nonzero;stroke:none" /><path
             d="m 336.586,389.535 c 4.258,3.074 6.309,7.399 6.34,13.914 -0.02,4.461 -1.293,8.289 -4.508,11.141 -3.223,2.855 -8.695,4.887 -17.523,4.887 l -16.172,0 0,-34.731 11.101,0 c 9.602,-0.008 16.485,1.711 20.762,4.789"
             id="path3991"
             style="fill:#696566;fill-opacity:1;fill-rule:nonzero;stroke:none" /><path
             d="m 151.438,342.961 c 0.054,16.945 -11.239,29.816 -29.286,34.769 4.868,2.489 8.715,5.532 11.543,9.247 3.782,4.976 5.578,11.082 5.567,18.191 0.011,8.734 -3.422,17.641 -10.793,24.305 -7.383,6.66 -18.598,10.988 -33.887,10.98 l -42.2461,0 0,-134.305 49.5431,0 c 0.019,0 0.031,0 0.031,0 17.695,0 30.102,4.786 38.094,11.891 7.992,7.078 11.441,16.367 11.434,24.922 z m 47.082,123.641 0,-186.485 -198.164531,0 0,186.485 198.164531,0"
             id="path3993"
             style="fill:#696566;fill-opacity:1;fill-rule:nonzero;stroke:none" /><path
             d="m 108.254,389.535 c 4.246,3.074 6.312,7.399 6.348,13.914 -0.012,4.461 -1.301,8.289 -4.52,11.141 -3.227,2.855 -8.695,4.887 -17.5273,4.887 l -16.1563,0 0,-34.731 11.0899,0 c 9.6015,-0.008 16.4887,1.711 20.7657,4.789"
             id="path3995"
             style="fill:#696566;fill-opacity:1;fill-rule:nonzero;stroke:none" /><path
             d="m 120.176,358.488 c -4.531,3.227 -11.762,5.293 -21.9377,5.293 l -21.8399,0 0,-36.656 22.8555,0 c 11.3511,0 18.1951,2.645 22.1721,6.133 3.961,3.484 5.332,7.945 5.351,12.383 -0.043,5.336 -2.082,9.597 -6.601,12.847"
             id="path3997"
             style="fill:#696566;fill-opacity:1;fill-rule:nonzero;stroke:none" /><path
             d="M 1163.15,18.6328 C 1137.13,5.21484 1117.41,0 1089.75,0 1017.23,0 981.07,47.1094 981.07,95.3164 c 0,49.8556 40.81,96.4176 112.24,96.4176 26.02,0 49.3,-5.488 67.65,-16.445 l 0,-41.621 c -20.54,11.504 -41.36,19.16 -64.36,19.16 -39.72,0 -67.6,-23.555 -67.6,-56.6913 0,-33.4023 27.61,-57.2305 66.5,-57.2305 24.38,0 40.81,7.6563 67.65,20.5469 l 0,-40.8203"
             id="path3999"
             style="fill:#696566;fill-opacity:1;fill-rule:nonzero;stroke:none" /><path
             d="m 1282.52,144.625 -27.4,-72.5742 57.52,0 -30.12,72.5742 z M 1391.8,2.48047 l -50.12,0 -15.34,36.97263 -83.54,0 -13.97,-36.97263 -49.29,0 75.31,186.78153 53.96,0 82.99,-186.78153"
             id="path4001"
             style="fill:#696566;fill-opacity:1;fill-rule:nonzero;stroke:none" /><path
             d="m 1574.7,189.262 40.54,0 0,-186.78153 -46.56,0 0,116.66453 -50.39,-58.5981 -7.13,0 -50.39,58.5981 0,-116.66453 -46.57,0 0,186.78153 40.53,0 59.99,-69.297 59.98,69.297"
             id="path4003"
             style="fill:#696566;fill-opacity:1;fill-rule:nonzero;stroke:none" /><path
             d="m 1706.38,36.7188 26.3,0 c 25.74,0 34.79,6.8359 34.79,23.0078 0,13.6914 -12.05,21.0742 -28.5,21.0742 l -32.59,0 0,-44.082 z m 0,78.3162 24.38,0 c 16.98,0 23.83,10.41 23.83,20.274 0,9.589 -6.85,19.714 -23.83,19.714 l -24.38,0 0,-39.988 z m 34.24,74.227 c 44.09,0 61.9,-26.024 61.9,-46.836 0,-15.614 -9.86,-29.578 -25.47,-37.254 26.57,-6.8361 39.71,-26.0118 39.71,-47.9259 0,-21.3672 -11.5,-54.76563 -66.01,-54.76563 l -90.93,0 0,186.78153 80.8,0"
             id="path4005"
             style="fill:#696566;fill-opacity:1;fill-rule:nonzero;stroke:none" /><path
             d="m 1899.98,112.574 24.65,0 c 12.87,0 25.47,5.477 25.47,21.367 0,13.965 -9.04,21.082 -26.57,21.082 l -23.55,0 0,-42.449 z m 36.98,76.688 c 38.34,0 61.07,-25.75 61.07,-53.68 0,-20.547 -10.68,-35.8789 -32.05,-45.7422 19.18,-9.5859 24.92,-32.5937 51.22,-87.35933 l -51.22,0 C 1945.99,42.4609 1938.6,78.3398 1913.4,78.3398 l -13.42,0 0,-75.85933 -46.57,0 0,186.78153 83.55,0"
             id="path4007"
             style="fill:#696566;fill-opacity:1;fill-rule:nonzero;stroke:none" /><path
             d="m 2046.45,2.48047 46.5625,0 0,186.781 -46.5625,0 0,-186.781 z"
             id="path4009"
             style="fill:#696566;fill-opacity:1;fill-rule:nonzero;stroke:none" /><path
             d="m 2186.94,36.7188 30.39,0 c 46.84,0 60.82,31.7578 60.82,59.1445 0,32.0427 -17.27,59.1597 -61.37,59.1597 l -29.84,0 0,-118.3042 z m 35.88,152.5432 c 68.2,0 103.26,-42.45 103.26,-93.6722 0,-53.6757 -33.97,-93.10933 -108.48,-93.10933 l -77.22,0 0,186.78153 82.44,0"
             id="path4011"
             style="fill:#696566;fill-opacity:1;fill-rule:nonzero;stroke:none" /><path
             d="m 2533.62,135.582 c -23.83,11.504 -46.84,17.246 -69.85,17.246 -50.66,0 -68.45,-31.211 -68.45,-58.8866 0,-33.1211 26.01,-55.0352 64.63,-55.0352 11.5,0 17.26,1.0938 30.95,6.5626 l 0,21.914 -27.13,0 0,34.2342 73.7,0 0,-76.4022 C 2523.5,10.6836 2488.99,0 2458.85,0 c -65.19,0 -111.48,39.7266 -111.48,95.5898 0,56.9652 46.01,96.1442 112.58,96.1442 27.95,0 55.05,-6.308 73.67,-15.343 l 0,-40.809"
             id="path4013"
             style="fill:#696566;fill-opacity:1;fill-rule:nonzero;stroke:none" /><path
             d="m 2717.08,2.48047 -137.78,0 0,186.78153 135.86,0 0,-34.239 -89.3,0 0,-39.168 85.2,0 0,-34.2339 -85.2,0 0,-44.9023 91.22,0 0,-34.23833"
             id="path4015"
             style="fill:#696566;fill-opacity:1;fill-rule:nonzero;stroke:none" /><path
             d="m 2885.47,140.777 c -27.11,12.051 -43.28,16.719 -59.16,16.719 -16.7,0 -27.38,-6.035 -27.38,-15.344 0,-28.211 95.04,-20.261 95.04,-85.4528 C 2893.97,20.8203 2863.83,0 2822.21,0 c -32.6,0 -48.75,8.49609 -67.38,18.0859 l 0,40.2539 c 26.84,-17.7929 43.28,-24.1015 63.81,-24.1015 17.81,0 27.4,6.3086 27.4,17.2656 0,30.6641 -95.04,19.4336 -95.04,86.5391 0,32.324 27.93,53.691 71.21,53.691 20.82,0 39.71,-4.394 63.26,-14.523 l 0,-36.434"
             id="path4017"
             style="fill:#696566;fill-opacity:1;fill-rule:nonzero;stroke:none" /><path
             d="m 3119.61,2.48047 -46.56,0 0,75.58593 -93.12,0 0,-75.58593 -46.57,0 0,186.78153 46.57,0 0,-75.047 93.12,0 0,75.047 46.56,0 0,-186.78153"
             id="path4019"
             style="fill:#696566;fill-opacity:1;fill-rule:nonzero;stroke:none" /><path
             d="m 3170.49,2.48047 46.5664,0 0,186.781 -46.5664,0 0,-186.781 z"
             id="path4021"
             style="fill:#696566;fill-opacity:1;fill-rule:nonzero;stroke:none" /><path
             d="m 3313.99,112.574 24.65,0 c 12.87,0 25.47,5.477 25.47,21.367 0,13.965 -9.05,21.082 -26.57,21.082 l -23.55,0 0,-42.449 z m 36.97,76.688 c 38.34,0 61.08,-25.75 61.08,-53.68 0,-20.547 -10.69,-35.8789 -32.05,-45.7422 19.18,-9.5859 24.92,-32.5937 51.23,-87.35933 l -51.23,0 C 3360,42.4609 3352.6,78.3398 3327.41,78.3398 l -13.42,0 0,-75.85933 -46.56,0 0,186.78153 83.53,0"
             id="path4023"
             style="fill:#696566;fill-opacity:1;fill-rule:nonzero;stroke:none" /><path
             d="m 3593.03,2.48047 -137.77,0 0,186.78153 135.86,0 0,-34.239 -89.3,0 0,-39.168 85.18,0 0,-34.2339 -85.18,0 0,-44.9023 91.21,0 0,-34.23833"
             id="path4025"
             style="fill:#696566;fill-opacity:1;fill-rule:nonzero;stroke:none" /><path
             d="m 45.7812,110.934 24.2305,0 c 12.6485,0 25.0352,5.375 25.0352,20.996 0,13.738 -8.8867,20.726 -26.1172,20.726 l -23.1485,0 0,-41.722 z m 36.3477,75.394 c 37.6991,0 60.0511,-25.32 60.0511,-52.781 0,-20.195 -10.504,-35.2697 -31.504,-44.9689 18.851,-9.4179 24.496,-32.0429 50.347,-85.90232 l -50.347,0 C 91.0195,41.9844 83.7461,77.2773 58.9688,77.2773 l -13.1876,0 0,-74.60152 -45.7812,0 0,183.65222 82.1289,0"
             id="path4027"
             style="fill:#696566;fill-opacity:1;fill-rule:nonzero;stroke:none" /><path
             d="m 266.605,142.438 -26.925,-71.3521 56.55,0 -29.625,71.3521 z m 107.45,-139.76222 -49.285,0 -15.082,36.35942 -82.129,0 -13.731,-36.35942 -48.461,0 74.047,183.65222 53.047,0 81.594,-183.65222"
             id="path4029"
             style="fill:#696566;fill-opacity:1;fill-rule:nonzero;stroke:none" /><path
             d="m 443.555,36.3281 29.879,0 c 46.074,0 59.785,31.25 59.785,58.1758 0,31.5041 -16.946,58.1521 -60.293,58.1521 l -29.371,0 0,-116.3279 z m 35.269,149.9999 c 67.067,0 101.528,-41.726 101.528,-92.0936 0,-52.7696 -33.399,-91.55862 -106.622,-91.55862 l -75.941,0 0,183.65222 81.035,0"
             id="path4031"
             style="fill:#696566;fill-opacity:1;fill-rule:nonzero;stroke:none" /><path
             d="m 618.367,2.67578 45.7773,0 0,183.652 -45.7773,0 0,-183.652 z"
             id="path4033"
             style="fill:#696566;fill-opacity:1;fill-rule:nonzero;stroke:none" /><path
             d="m 806.594,150.523 c -35,0 -58.18,-22.355 -58.18,-56.0191 0,-33.6523 23.18,-56.0078 58.18,-56.0078 34.73,0 57.886,22.3555 57.886,56.0078 0,33.6641 -23.156,56.0191 -57.886,56.0191 z m 0,-150.269094 c -67.336,0 -105.289,47.394494 -105.289,94.249994 0,44.4341 36.09,94.2461 105.289,94.2461 69.191,0 105.023,-50.098 105.023,-94.2461 0,-47.1328 -39.055,-94.249994 -105.023,-94.249994"
             id="path4035"
             style="fill:#696566;fill-opacity:1;fill-rule:nonzero;stroke:none" /></g></g></g></g></svg>
