<?xml version="1.0" encoding="UTF-8" standalone="no"?>
<!-- Created with Inkscape (http://www.inkscape.org/) -->

<svg
   xmlns:dc="http://purl.org/dc/elements/1.1/"
   xmlns:cc="http://creativecommons.org/ns#"
   xmlns:rdf="http://www.w3.org/1999/02/22-rdf-syntax-ns#"
   xmlns:svg="http://www.w3.org/2000/svg"
   xmlns="http://www.w3.org/2000/svg"
   version="1.1"
   width="224.41251"
   height="58.612499"
   id="svg3797"
   xml:space="preserve"><metadata
     id="metadata3803"><rdf:RDF><cc:Work
         rdf:about=""><dc:format>image/svg+xml</dc:format><dc:type
           rdf:resource="http://purl.org/dc/dcmitype/StillImage" /><dc:title></dc:title></cc:Work></rdf:RDF></metadata><defs
     id="defs3801"><clipPath
       id="clipPath3813"><path
         d="m 0,0 1795,0 0,468.945 -1795,0 L 0,0 z"
         id="path3815" /></clipPath></defs><g
     transform="matrix(1.25,0,0,-1.25,0,58.6125)"
     id="g3805"><g
       transform="scale(0.1,0.1)"
       id="g3807"><g
         id="g3809"><g
           clip-path="url(#clipPath3813)"
           id="g3811"><path
             d="m 615.469,344.434 -3.172,-1.946 c -15.348,-9.363 -32.039,-14.386 -47.199,-14.383 -32.446,0.122 -53.825,19.352 -53.91,47.344 0.039,27.371 22.359,47.637 53.089,47.715 15.649,-0.016 29.828,-4.062 46.676,-13.293 l 3.094,-1.703 0,24.996 -1.32,0.516 c -19,7.508 -33.711,10.847 -48.247,10.836 -22.464,0.011 -41.957,-7.411 -55.843,-20.004 -13.887,-12.59 -22.133,-30.371 -22.121,-50.782 0.007,-14.222 5.882,-30.898 18.441,-44.121 12.531,-13.23 31.836,-22.882 58.309,-22.867 0.031,0 0.058,0 0.089,0 21.957,0 37.188,4.899 50.946,11.672 l 1.168,0.57 0,25.45 z m 39.359,124.511 0,-186.484 -198.164,0 0,186.484 198.164,0"
             id="path3817"
             style="fill:#696566;fill-opacity:1;fill-rule:nonzero;stroke:none" /><path
             d="m 379.41,345.301 c 0.059,16.949 -11.23,29.82 -29.281,34.773 4.867,2.488 8.723,5.531 11.547,9.246 3.777,4.977 5.582,11.078 5.558,18.188 0.024,8.738 -3.418,17.644 -10.796,24.308 -7.379,6.661 -18.59,10.985 -33.879,10.981 l -42.247,0 0,-134.305 49.575,0 c 17.687,0 30.101,4.785 38.097,11.891 7.996,7.078 11.434,16.363 11.426,24.918 z m 47.078,123.644 0,-186.484 -198.164,0 0,186.484 198.164,0"
             id="path3819"
             style="fill:#696566;fill-opacity:1;fill-rule:nonzero;stroke:none" /><path
             d="m 354.75,347.984 c -0.02,-4.437 -1.383,-8.898 -5.355,-12.382 -3.961,-3.489 -10.817,-6.133 -22.168,-6.133 l -22.864,0 0,36.652 21.844,0 c 10.188,0 17.414,-2.062 21.941,-5.293 4.52,-3.246 6.563,-7.508 6.602,-12.844"
             id="path3821"
             style="fill:#696566;fill-opacity:1;fill-rule:nonzero;stroke:none" /><path
             d="m 336.23,391.879 c 4.258,3.07 6.309,7.398 6.336,13.91 -0.015,4.465 -1.293,8.293 -4.504,11.145 -3.222,2.855 -8.699,4.886 -17.527,4.886 l -16.172,0 0,-34.73 11.106,0 c 9.597,-0.012 16.484,1.707 20.761,4.789"
             id="path3823"
             style="fill:#696566;fill-opacity:1;fill-rule:nonzero;stroke:none" /><path
             d="m 151.078,345.301 c 0.059,16.949 -11.234,29.82 -29.281,34.773 4.867,2.488 8.715,5.531 11.543,9.246 3.777,4.977 5.574,11.078 5.566,18.188 0.008,8.738 -3.422,17.644 -10.797,24.308 -7.382,6.661 -18.593,10.985 -33.8863,10.981 l -42.2461,0 0,-134.305 49.5464,0 c 0.02,0 0.032,0 0.032,0 17.691,0 30.101,4.785 38.093,11.891 7.993,7.078 11.442,16.363 11.43,24.918 z m 47.086,123.644 0,-186.484 -198.164,0 0,186.484 198.164,0"
             id="path3825"
             style="fill:#696566;fill-opacity:1;fill-rule:nonzero;stroke:none" /><path
             d="m 107.895,391.879 c 4.25,3.07 6.316,7.398 6.347,13.91 -0.008,4.465 -1.297,8.293 -4.515,11.145 -3.227,2.855 -8.696,4.886 -17.5278,4.886 l -16.1601,0 0,-34.73 11.0937,0 c 9.6016,-0.012 16.4842,1.707 20.7622,4.789"
             id="path3827"
             style="fill:#696566;fill-opacity:1;fill-rule:nonzero;stroke:none" /><path
             d="m 119.82,360.828 c -4.531,3.231 -11.761,5.293 -21.9372,5.293 l -21.8437,0 0,-36.652 22.8593,0 c 11.3516,0 18.1956,2.644 22.1716,6.133 3.957,3.484 5.332,7.945 5.352,12.382 -0.043,5.336 -2.082,9.598 -6.602,12.844"
             id="path3829"
             style="fill:#696566;fill-opacity:1;fill-rule:nonzero;stroke:none" /><path
             d="m 189.098,2.46875 -39.164,0 -103.266,119.69525 0,-119.69525 -46.558625,0 0,186.79725 42.726525,0 99.6991,-114.2074 0,114.2074 46.563,0 0,-186.79725"
             id="path3831"
             style="fill:#696566;fill-opacity:1;fill-rule:nonzero;stroke:none" /><path
             d="m 381.582,2.46875 -137.77,0 0,186.79725 135.856,0 0,-34.239 -89.293,0 0,-39.164 85.184,0 0,-34.2419 -85.184,0 0,-44.9102 91.207,0 0,-34.24215"
             id="path3833"
             style="fill:#696566;fill-opacity:1;fill-rule:nonzero;stroke:none" /><path
             d="m 496.301,0 -19.996,0 -82.168,189.266 49.301,0 44.097,-103.2504 47.93,103.2504 37.523,0 47.934,-103.2504 43.824,103.2504 49.297,0 L 632.148,0 612.156,0 554.094,121.891 496.301,0"
             id="path3835"
             style="fill:#696566;fill-opacity:1;fill-rule:nonzero;stroke:none" /><path
             d="M 893.09,18.6328 C 867.07,5.21484 847.348,0 819.688,0 747.105,0 710.945,47.1094 710.945,95.3203 c 0,49.8517 40.813,96.4137 112.301,96.4137 26.024,0 49.305,-5.48 67.652,-16.437 l 0,-41.629 c -20.543,11.504 -41.355,19.168 -64.367,19.168 -39.715,0 -67.648,-23.555 -67.648,-56.6954 0,-33.4062 27.66,-57.2461 66.555,-57.2461 24.374,0 40.812,7.668 67.652,20.5469 l 0,-40.8086"
             id="path3837"
             style="fill:#696566;fill-opacity:1;fill-rule:nonzero;stroke:none" /><path
             d="m 1009.72,144.625 -27.396,-72.582 57.516,0 -30.12,72.582 z M 1119,2.46875 l -50.12,0 -15.34,36.98435 -83.54,0 -13.969,-36.98435 -49.301,0 75.321,186.79725 53.959,0 L 1119,2.46875"
             id="path3839"
             style="fill:#696566;fill-opacity:1;fill-rule:nonzero;stroke:none" /><path
             d="m 1264.1,140.785 c -27.11,12.051 -43.27,16.711 -59.16,16.711 -16.7,0 -27.38,-6.027 -27.38,-15.34 0,-28.211 95.04,-20.265 95.04,-85.4568 C 1272.6,20.8203 1242.47,0 1200.84,0 c -32.6,0 -48.75,8.49609 -67.38,18.0859 l 0,40.2539 c 26.84,-17.7929 43.28,-24.1015 63.82,-24.1015 17.8,0 27.39,6.3086 27.39,17.2656 0,30.6641 -95.04,19.4336 -95.04,86.5431 0,32.32 27.93,53.687 71.21,53.687 20.82,0 39.71,-4.386 63.26,-14.519 l 0,-36.43"
             id="path3841"
             style="fill:#696566;fill-opacity:1;fill-rule:nonzero;stroke:none" /><path
             d="m 1467.83,155.027 -67.64,0 0,-152.55825 -46.57,0 0,152.55825 -67.64,0 0,34.239 181.85,0 0,-34.239"
             id="path3843"
             style="fill:#696566;fill-opacity:1;fill-rule:nonzero;stroke:none" /><path
             d="m 1632.95,2.46875 -142.42,0 0,186.79725 46.56,0 0,-152.5551 95.86,0 0,-34.24215"
             id="path3845"
             style="fill:#696566;fill-opacity:1;fill-rule:nonzero;stroke:none" /><path
             d="m 1795.31,2.46875 -137.76,0 0,186.79725 135.85,0 0,-34.239 -89.29,0 0,-39.164 85.19,0 0,-34.2419 -85.19,0 0,-44.9102 91.2,0 0,-34.24215"
             id="path3847"
             style="fill:#696566;fill-opacity:1;fill-rule:nonzero;stroke:none" /></g></g></g></g></svg>
