<?xml version="1.0" encoding="UTF-8" standalone="no"?>
<!-- Created with Inkscape (http://www.inkscape.org/) -->

<svg
   xmlns:dc="http://purl.org/dc/elements/1.1/"
   xmlns:cc="http://creativecommons.org/ns#"
   xmlns:rdf="http://www.w3.org/1999/02/22-rdf-syntax-ns#"
   xmlns:svg="http://www.w3.org/2000/svg"
   xmlns="http://www.w3.org/2000/svg"
   version="1.1"
   width="322.48749"
   height="58.362499"
   id="svg2"
   xml:space="preserve"><metadata
     id="metadata8"><rdf:RDF><cc:Work
         rdf:about=""><dc:format>image/svg+xml</dc:format><dc:type
           rdf:resource="http://purl.org/dc/dcmitype/StillImage" /><dc:title></dc:title></cc:Work></rdf:RDF></metadata><defs
     id="defs6"><clipPath
       id="clipPath18"><path
         d="M 0,466.934 0,0 l 2579.89,0 0,466.934 -2579.89,0 z"
         id="path20" /></clipPath></defs><g
     transform="matrix(1.25,0,0,-1.25,0,58.3625)"
     id="g10"><g
       transform="scale(0.1,0.1)"
       id="g12"><g
         id="g14"><g
           clip-path="url(#clipPath18)"
           id="g16"><path
             d="m 616.461,342.422 -3.176,-1.942 c -15.347,-9.367 -32.035,-14.39 -47.195,-14.386 -32.445,0.121 -53.824,19.351 -53.91,47.344 0.039,27.374 22.355,47.636 53.09,47.714 15.648,-0.015 29.828,-4.062 46.671,-13.289 l 3.098,-1.707 0,24.996 -1.324,0.52 c -18.996,7.504 -33.711,10.844 -48.242,10.832 -22.465,0.012 -41.957,-7.41 -55.844,-20.004 -13.887,-12.586 -22.133,-30.371 -22.125,-50.781 0.012,-14.223 5.887,-30.899 18.441,-44.121 12.535,-13.231 31.836,-22.879 58.313,-22.868 0.027,0 0.058,0 0.09,0 21.957,0 37.183,4.899 50.945,11.672 l 1.168,0.571 0,25.449 z m 39.359,124.512 0,-186.485 -198.164,0 0,186.485 198.164,0"
             id="path22"
             style="fill:#696566;fill-opacity:1;fill-rule:nonzero;stroke:none" /><path
             d="m 380.398,343.293 c 0.063,16.945 -11.226,29.816 -29.281,34.769 4.867,2.489 8.727,5.532 11.551,9.247 3.777,4.976 5.578,11.082 5.559,18.191 0.019,8.734 -3.418,17.641 -10.801,24.305 -7.375,6.66 -18.586,10.988 -33.875,10.98 l -42.246,0 0,-134.305 49.574,0 c 17.683,0 30.101,4.786 38.098,11.891 7.996,7.078 11.433,16.367 11.421,24.922 z m 47.082,123.641 0,-186.485 -198.164,0 0,186.485 198.164,0"
             id="path24"
             style="fill:#696566;fill-opacity:1;fill-rule:nonzero;stroke:none" /><path
             d="m 355.742,345.973 c -0.019,-4.438 -1.383,-8.899 -5.355,-12.383 -3.961,-3.488 -10.817,-6.133 -22.168,-6.133 l -22.864,0 0,36.656 21.84,0 c 10.192,0 17.418,-2.066 21.946,-5.293 4.515,-3.25 6.562,-7.511 6.601,-12.847"
             id="path26"
             style="fill:#696566;fill-opacity:1;fill-rule:nonzero;stroke:none" /><path
             d="m 337.223,389.867 c 4.257,3.074 6.308,7.399 6.336,13.914 -0.02,4.461 -1.293,8.289 -4.504,11.141 -3.227,2.855 -8.7,4.887 -17.528,4.887 l -16.172,0 0,-34.731 11.106,0 c 9.598,-0.008 16.484,1.711 20.762,4.789"
             id="path28"
             style="fill:#696566;fill-opacity:1;fill-rule:nonzero;stroke:none" /><path
             d="m 152.07,343.293 c 0.059,16.945 -11.234,29.816 -29.281,34.769 4.867,2.489 8.715,5.532 11.543,9.247 3.777,4.976 5.574,11.082 5.566,18.191 0.008,8.734 -3.421,17.641 -10.796,24.305 -7.383,6.66 -18.594,10.988 -33.8872,10.98 l -42.246,0 0,-134.305 49.5472,0 c 0.019,0 0.027,0 0.027,0 17.695,0 30.102,4.786 38.098,11.891 7.992,7.078 11.437,16.367 11.429,24.922 z m 47.086,123.641 0,-186.485 -198.163812,0 0,186.485 198.163812,0"
             id="path30"
             style="fill:#696566;fill-opacity:1;fill-rule:nonzero;stroke:none" /><path
             d="m 108.887,389.867 c 4.25,3.074 6.312,7.399 6.347,13.914 -0.007,4.461 -1.296,8.289 -4.515,11.141 -3.231,2.855 -8.699,4.887 -17.5315,4.887 l -16.1563,0 0,-34.731 11.0938,0 c 9.5977,-0.008 16.484,1.711 20.762,4.789"
             id="path32"
             style="fill:#696566;fill-opacity:1;fill-rule:nonzero;stroke:none" /><path
             d="m 120.812,358.82 c -4.535,3.227 -11.765,5.293 -21.9409,5.293 l -21.8399,0 0,-36.656 22.8555,0 c 11.3513,0 18.1993,2.645 22.1753,6.133 3.958,3.484 5.333,7.945 5.348,12.383 -0.043,5.336 -2.078,9.597 -6.598,12.847"
             id="path34"
             style="fill:#696566;fill-opacity:1;fill-rule:nonzero;stroke:none" /><path
             d="m 46.4141,111.266 24.2304,0 c 12.6524,0 25.0391,5.375 25.0391,20.996 0,13.738 -8.8867,20.726 -26.1172,20.726 l -23.1523,0 0,-41.722 z m 36.3515,75.394 c 37.6994,0 60.0464,-25.32 60.0464,-52.781 0,-20.195 -10.503,-35.2696 -31.503,-44.9688 18.851,-9.418 24.496,-32.043 50.351,-85.90239 l -50.351,0 C 91.6562,42.3164 84.3789,77.6094 59.6055,77.6094 l -13.1914,0 0,-74.60159 -45.777381,0 0,183.65219 82.128881,0"
             id="path36"
             style="fill:#696566;fill-opacity:1;fill-rule:nonzero;stroke:none" /><path
             d="m 267.242,142.77 -26.93,-71.352 56.551,0 -29.621,71.352 z M 374.688,3.00781 l -49.282,0 -15.086,36.35939 -82.129,0 -13.726,-36.35939 -48.465,0 74.051,183.65219 53.047,0 81.59,-183.65219"
             id="path38"
             style="fill:#696566;fill-opacity:1;fill-rule:nonzero;stroke:none" /><path
             d="m 444.188,36.6602 29.878,0 c 46.075,0 59.786,31.25 59.786,58.1757 0,31.5041 -16.942,58.1521 -60.293,58.1521 l -29.371,0 0,-116.3278 z M 479.457,186.66 c 67.066,0 101.527,-41.726 101.527,-92.0936 0,-52.7695 -33.394,-91.55859 -106.621,-91.55859 l -75.941,0 0,183.65219 81.035,0"
             id="path40"
             style="fill:#696566;fill-opacity:1;fill-rule:nonzero;stroke:none" /><path
             d="m 619.004,3.00781 45.7773,0 0,183.652 -45.7773,0 0,-183.652 z"
             id="path42"
             style="fill:#696566;fill-opacity:1;fill-rule:nonzero;stroke:none" /><path
             d="m 807.227,150.855 c -35,0 -58.18,-22.355 -58.18,-56.0191 0,-33.6523 23.18,-56.0078 58.18,-56.0078 34.73,0 57.89,22.3555 57.89,56.0078 0,33.6641 -23.16,56.0191 -57.89,56.0191 z m 0,-150.269062 c -67.332,0 -105.289,47.394562 -105.289,94.249962 0,44.4341 36.089,94.2461 105.289,94.2461 69.195,0 105.023,-50.098 105.023,-94.2461 0,-47.1328 -39.051,-94.249962 -105.023,-94.249962"
             id="path44"
             style="fill:#696566;fill-opacity:1;fill-rule:nonzero;stroke:none" /><path
             d="m 1027.26,36.5547 25.81,0 c 25.27,0 34.15,6.7265 34.15,22.5859 0,13.4571 -11.82,20.7032 -27.97,20.7032 l -31.99,0 0,-43.2891 z m 0,76.9063 23.92,0 c 16.69,0 23.4,10.211 23.4,19.891 0,9.414 -6.71,19.375 -23.4,19.375 l -23.92,0 0,-39.266 z m 33.61,72.863 c 43.28,0 60.77,-25.539 60.77,-45.976 0,-15.328 -9.69,-29.036 -25.02,-36.563 26.09,-6.7303 39,-25.5506 39,-47.0662 0,-20.9649 -11.3,-53.76958 -64.8,-53.76958 l -89.277,0 0,183.37478 79.327,0"
             id="path46"
             style="fill:#696566;fill-opacity:1;fill-rule:nonzero;stroke:none" /><path
             d="m 1313.32,2.94922 -135.24,0 0,183.37478 133.35,0 0,-33.597 -87.64,0 0,-38.465 83.61,0 0,-33.5979 -83.61,0 0,-44.1094 89.53,0 0,-33.60548"
             id="path48"
             style="fill:#696566;fill-opacity:1;fill-rule:nonzero;stroke:none" /><path
             d="m 1405.87,111.047 24.2,0 c 12.63,0 25.01,5.363 25.01,20.957 0,13.723 -8.87,20.723 -26.09,20.723 l -23.12,0 0,-41.68 z m 36.3,75.277 c 37.65,0 59.95,-25.269 59.95,-52.691 0,-20.172 -10.47,-35.2307 -31.45,-44.9103 18.83,-9.4063 24.47,-32.0039 50.28,-85.77348 l -50.28,0 c -19.62,39.26958 -26.89,74.48438 -51.62,74.48438 l -13.18,0 0,-74.48438 -45.71,0 0,183.37478 82.01,0"
             id="path50"
             style="fill:#696566;fill-opacity:1;fill-rule:nonzero;stroke:none" /><path
             d="m 1648.45,100.285 80.93,-97.33578 -57.28,0 -72.59,86.03908 0,-86.03908 -45.7,0 0,183.37478 45.7,0 0,-83.078 0.54,0 57.82,83.078 50.27,0 -59.69,-86.039"
             id="path52"
             style="fill:#696566;fill-opacity:1;fill-rule:nonzero;stroke:none" /><path
             d="m 1869.54,138.73 c -26.62,11.832 -42.48,16.399 -58.07,16.399 -16.41,0 -26.89,-5.906 -26.89,-15.059 0,-27.691 93.29,-19.894 93.29,-83.8786 0,-35.2344 -29.57,-55.652338 -70.43,-55.652338 -32.01,0 -47.86,8.328128 -66.16,17.734338 l 0,39.5313 c 26.36,-17.4922 42.48,-23.6524 62.66,-23.6524 17.47,0 26.89,6.1602 26.89,16.9219 0,30.1172 -93.31,19.0938 -93.31,84.9608 0,31.735 27.43,52.707 69.92,52.707 20.43,0 38.98,-4.297 62.1,-14.258 l 0,-35.754"
             id="path54"
             style="fill:#696566;fill-opacity:1;fill-rule:nonzero;stroke:none" /><path
             d="m 2102.74,2.94922 -45.7,0 0,74.21098 -91.42,0 0,-74.21098 -45.71,0 0,183.37478 45.71,0 0,-73.676 91.42,0 0,73.676 45.7,0 0,-183.37478"
             id="path56"
             style="fill:#696566;fill-opacity:1;fill-rule:nonzero;stroke:none" /><path
             d="m 2155.5,2.94922 45.7109,0 0,183.375 -45.7109,0 0,-183.375 z"
             id="path58"
             style="fill:#696566;fill-opacity:1;fill-rule:nonzero;stroke:none" /><path
             d="m 2300.47,111.047 24.19,0 c 12.65,0 25.01,5.363 25.01,20.957 0,13.723 -8.86,20.723 -26.07,20.723 l -23.13,0 0,-41.68 z m 36.3,75.277 c 37.64,0 59.95,-25.269 59.95,-52.691 0,-20.172 -10.48,-35.2307 -31.46,-44.9103 18.83,-9.4063 24.47,-32.0039 50.29,-85.77348 l -50.29,0 c -19.62,39.26958 -26.89,74.48438 -51.62,74.48438 l -13.17,0 0,-74.48438 -45.71,0 0,183.37478 82.01,0"
             id="path60"
             style="fill:#696566;fill-opacity:1;fill-rule:nonzero;stroke:none" /><path
             d="m 2579.89,2.94922 -135.25,0 0,183.37478 133.36,0 0,-33.597 -87.65,0 0,-38.465 83.62,0 0,-33.5979 -83.62,0 0,-44.1094 89.54,0 0,-33.60548"
             id="path62"
             style="fill:#696566;fill-opacity:1;fill-rule:nonzero;stroke:none" /><path
             d="m 45.8164,110.777 24.2578,0 c 12.668,0 25.0586,5.368 25.0586,21.016 0,13.75 -8.8945,20.742 -26.1406,20.742 l -23.1758,0 0,-41.758 z M 82.207,186.23 c 37.731,0 60.102,-25.335 60.102,-52.835 0,-20.215 -10.516,-35.2973 -31.532,-44.9927 18.864,-9.4492 24.512,-32.0937 50.383,-85.99996 l -50.383,0 C 91.0977,41.7578 83.8086,77.0781 59.0195,77.0781 l -13.2031,0 0,-74.67576 -45.8164,0 0,183.82766 82.207,0"
             id="path64"
             style="fill:#696566;fill-opacity:1;fill-rule:nonzero;stroke:none" /><path
             d="m 266.836,142.309 -26.938,-71.4184 56.602,0 -29.664,71.4184 z M 374.387,2.40234 l -49.321,0 -15.109,36.39846 -82.191,0 -13.743,-36.39846 -48.511,0 74.117,183.82766 53.082,0 81.676,-183.82766"
             id="path66"
             style="fill:#696566;fill-opacity:1;fill-rule:nonzero;stroke:none" /><path
             d="m 443.949,36.0938 29.899,0 c 46.109,0 59.836,31.2695 59.836,58.2382 0,31.531 -16.954,58.203 -60.344,58.203 l -29.391,0 0,-116.4412 z M 479.242,186.23 c 67.121,0 101.617,-41.757 101.617,-92.1675 0,-52.8398 -33.425,-91.66016 -106.718,-91.66016 l -75.993,0 0,183.82766 81.094,0"
             id="path68"
             style="fill:#696566;fill-opacity:1;fill-rule:nonzero;stroke:none" /><path
             d="m 618.906,2.40234 45.8203,0 0,183.828 -45.8203,0 0,-183.828 z"
             id="path70"
             style="fill:#696566;fill-opacity:1;fill-rule:nonzero;stroke:none" /><path
             d="m 807.301,150.402 c -35.031,0 -58.235,-22.375 -58.235,-56.07 0,-33.6953 23.204,-56.0703 58.235,-56.0703 34.765,0 57.937,22.375 57.937,56.0703 0,33.695 -23.172,56.07 -57.937,56.07 z M 807.301,0 C 739.91,0 701.918,47.4219 701.918,94.332 c 0,44.453 36.125,94.332 105.383,94.332 69.261,0 105.117,-50.144 105.117,-94.332 C 912.418,47.1484 873.328,0 807.301,0"
             id="path72"
             style="fill:#696566;fill-opacity:1;fill-rule:nonzero;stroke:none" /></g></g></g></g></svg>
