<?xml version="1.0" encoding="UTF-8" standalone="no"?>
<!-- Created with Inkscape (http://www.inkscape.org/) -->

<svg
   xmlns:dc="http://purl.org/dc/elements/1.1/"
   xmlns:cc="http://creativecommons.org/ns#"
   xmlns:rdf="http://www.w3.org/1999/02/22-rdf-syntax-ns#"
   xmlns:svg="http://www.w3.org/2000/svg"
   xmlns="http://www.w3.org/2000/svg"
   version="1.1"
   width="318.47501"
   height="58.287498"
   id="svg4147"
   xml:space="preserve"><metadata
     id="metadata4153"><rdf:RDF><cc:Work
         rdf:about=""><dc:format>image/svg+xml</dc:format><dc:type
           rdf:resource="http://purl.org/dc/dcmitype/StillImage" /><dc:title></dc:title></cc:Work></rdf:RDF></metadata><defs
     id="defs4151"><clipPath
       id="clipPath4163"><path
         d="m 0,0 2547.8,0 0,466 L 0,466 0,0 z"
         id="path4165" /></clipPath></defs><g
     transform="matrix(1.25,0,0,-1.25,0,58.2875)"
     id="g4155"><g
       transform="scale(0.1,0.1)"
       id="g4157"><g
         id="g4159"><g
           clip-path="url(#clipPath4163)"
           id="g4161"><path
             d="m 615.824,341.836 -3.172,-1.941 c -15.347,-9.368 -32.039,-14.391 -47.199,-14.387 -32.445,0.121 -53.82,19.351 -53.91,47.344 0.039,27.375 22.359,47.636 53.09,47.714 15.648,-0.015 29.832,-4.062 46.676,-13.289 l 3.093,-1.707 0,24.996 -1.32,0.52 c -19,7.504 -33.711,10.844 -48.242,10.832 -22.469,0.012 -41.957,-7.41 -55.848,-20.004 -13.887,-12.586 -22.133,-30.371 -22.121,-50.781 0.008,-14.223 5.883,-30.899 18.441,-44.121 12.536,-13.231 31.836,-22.879 58.309,-22.867 0.031,0 0.063,0 0.09,0 21.957,0 37.187,4.898 50.945,11.671 l 1.168,0.571 0,25.449 z m 39.364,124.512 0,-186.485 -198.168,0 0,186.485 198.168,0"
             id="path4167"
             style="fill:#696566;fill-opacity:1;fill-rule:nonzero;stroke:none" /><path
             d="m 379.766,342.703 c 0.058,16.949 -11.231,29.82 -29.282,34.774 4.868,2.488 8.727,5.531 11.547,9.246 3.781,4.976 5.582,11.082 5.563,18.191 0.019,8.734 -3.418,17.641 -10.801,24.305 -7.379,6.66 -18.59,10.988 -33.879,10.98 l -42.246,0 0,-134.304 49.574,0 c 17.688,0 30.106,4.785 38.098,11.89 8,7.078 11.433,16.367 11.426,24.918 z m 47.082,123.645 0,-186.485 -198.164,0 0,186.485 198.164,0"
             id="path4169"
             style="fill:#696566;fill-opacity:1;fill-rule:nonzero;stroke:none" /><path
             d="m 355.105,345.387 c -0.015,-4.438 -1.378,-8.899 -5.355,-12.383 -3.957,-3.488 -10.812,-6.133 -22.168,-6.133 l -22.859,0 0,36.656 21.839,0 c 10.192,0 17.418,-2.066 21.946,-5.293 4.515,-3.25 6.558,-7.511 6.597,-12.847"
             id="path4171"
             style="fill:#696566;fill-opacity:1;fill-rule:nonzero;stroke:none" /><path
             d="m 336.586,389.281 c 4.258,3.074 6.309,7.399 6.34,13.914 -0.02,4.461 -1.293,8.289 -4.508,11.141 -3.223,2.855 -8.695,4.887 -17.523,4.887 l -16.172,0 0,-34.731 11.101,0 c 9.602,-0.008 16.485,1.711 20.762,4.789"
             id="path4173"
             style="fill:#696566;fill-opacity:1;fill-rule:nonzero;stroke:none" /><path
             d="m 151.438,342.703 c 0.054,16.949 -11.239,29.82 -29.286,34.774 4.868,2.488 8.715,5.531 11.543,9.246 3.782,4.976 5.578,11.082 5.567,18.191 0.011,8.734 -3.422,17.641 -10.793,24.305 -7.383,6.66 -18.598,10.988 -33.887,10.98 l -42.2461,0 0,-134.304 49.5431,0 c 0.019,0 0.031,0 0.031,0 17.695,0 30.102,4.785 38.094,11.89 7.992,7.078 11.441,16.367 11.434,24.918 z m 47.082,123.645 0,-186.485 -198.164531,0 0,186.485 198.164531,0"
             id="path4175"
             style="fill:#696566;fill-opacity:1;fill-rule:nonzero;stroke:none" /><path
             d="m 108.254,389.281 c 4.246,3.074 6.312,7.399 6.348,13.914 -0.012,4.461 -1.301,8.289 -4.52,11.141 -3.227,2.855 -8.695,4.887 -17.5273,4.887 l -16.1563,0 0,-34.731 11.0899,0 c 9.6015,-0.008 16.4887,1.711 20.7657,4.789"
             id="path4177"
             style="fill:#696566;fill-opacity:1;fill-rule:nonzero;stroke:none" /><path
             d="m 120.176,358.234 c -4.531,3.227 -11.762,5.293 -21.9377,5.293 l -21.8399,0 0,-36.656 22.8555,0 c 11.3511,0 18.1951,2.645 22.1721,6.133 3.961,3.484 5.332,7.945 5.351,12.383 -0.043,5.336 -2.082,9.597 -6.601,12.847"
             id="path4179"
             style="fill:#696566;fill-opacity:1;fill-rule:nonzero;stroke:none" /><path
             d="m 1112.13,140.777 c -27.11,12.051 -43.28,16.707 -59.16,16.707 -16.7,0 -27.38,-6.023 -27.38,-15.339 0,-28.204 95.04,-20.266 95.04,-85.4145 0,-35.8789 -30.14,-56.69925 -71.77,-56.69925 -32.59,0 -48.74,8.49609 -67.372,18.08595 l 0,40.25 c 26.842,-17.7891 43.282,-24.0977 63.812,-24.0977 17.81,0 27.4,6.3086 27.4,17.2657 0,30.664 -95.044,19.4336 -95.044,86.5078 0,32.312 27.944,53.68 71.204,53.68 20.82,0 39.72,-4.383 63.27,-14.52 l 0,-36.426"
             id="path4181"
             style="fill:#696566;fill-opacity:1;fill-rule:nonzero;stroke:none" /><path
             d="m 1347.64,2.49219 -46.56,0 0,75.60551 -93.13,0 0,-75.60551 -46.56,0 0,186.76181 46.56,0 0,-75.039 93.13,0 0,75.039 46.56,0 0,-186.76181"
             id="path4183"
             style="fill:#696566;fill-opacity:1;fill-rule:nonzero;stroke:none" /><path
             d="m 1538.75,2.49219 -137.77,0 0,186.76181 135.86,0 0,-34.238 -89.3,0 0,-39.161 85.18,0 0,-34.2027 -85.18,0 0,-44.9218 91.21,0 0,-34.23831"
             id="path4185"
             style="fill:#696566;fill-opacity:1;fill-rule:nonzero;stroke:none" /><path
             d="m 1712.35,155.016 -82.17,0 0,-41.621 82.17,0 0,-34.2036 -82.17,0 0,-76.69921 -46.56,0 0,186.76181 128.73,0 0,-34.238"
             id="path4187"
             style="fill:#696566;fill-opacity:1;fill-rule:nonzero;stroke:none" /><path
             d="m 1878.56,155.016 -82.17,0 0,-41.621 82.17,0 0,-34.2036 -82.17,0 0,-76.69921 -46.56,0 0,186.76181 128.73,0 0,-34.238"
             id="path4189"
             style="fill:#696566;fill-opacity:1;fill-rule:nonzero;stroke:none" /><path
             d="m 1915.77,2.49219 46.5625,0 0,186.762 -46.5625,0 0,-186.762 z"
             id="path4191"
             style="fill:#696566;fill-opacity:1;fill-rule:nonzero;stroke:none" /><path
             d="m 2153.47,2.49219 -137.76,0 0,186.76181 135.85,0 0,-34.238 -89.29,0 0,-39.161 85.18,0 0,-34.2027 -85.18,0 0,-44.9218 91.2,0 0,-34.23831"
             id="path4193"
             style="fill:#696566;fill-opacity:1;fill-rule:nonzero;stroke:none" /><path
             d="m 2340.77,2.49219 -142.43,0 0,186.76181 46.57,0 0,-152.5235 95.86,0 0,-34.23831"
             id="path4195"
             style="fill:#696566;fill-opacity:1;fill-rule:nonzero;stroke:none" /><path
             d="m 2408.66,36.7305 30.39,0 c 46.83,0 60.81,31.7773 60.81,59.125 0,32.0505 -17.26,59.1605 -61.36,59.1605 l -29.84,0 0,-118.2855 z m 35.88,152.5235 c 68.2,0 103.26,-42.453 103.26,-93.672 0,-53.6367 -33.97,-93.08981 -108.48,-93.08981 l -77.23,0 0,186.76181 82.45,0"
             id="path4197"
             style="fill:#696566;fill-opacity:1;fill-rule:nonzero;stroke:none" /><path
             d="m 45.7812,110.68 24.2305,0 c 12.6485,0 25.0352,5.375 25.0352,20.996 0,13.738 -8.8867,20.726 -26.1172,20.726 l -23.1485,0 0,-41.722 z m 36.3477,75.394 c 37.6991,0 60.0511,-25.32 60.0511,-52.781 0,-20.195 -10.504,-35.2696 -31.504,-44.9688 18.851,-9.418 24.496,-32.043 50.347,-85.90232 l -50.347,0 C 91.0195,41.7305 83.7461,77.0234 58.9688,77.0234 l -13.1876,0 0,-74.60152 -45.7812,0 0,183.65212 82.1289,0"
             id="path4199"
             style="fill:#696566;fill-opacity:1;fill-rule:nonzero;stroke:none" /><path
             d="m 266.605,142.184 -26.925,-71.3559 56.55,0 -29.625,71.3559 z m 107.45,-139.76212 -49.285,0 -15.082,36.35932 -82.129,0 -13.731,-36.35932 -48.461,0 74.047,183.65212 53.047,0 81.594,-183.65212"
             id="path4201"
             style="fill:#696566;fill-opacity:1;fill-rule:nonzero;stroke:none" /><path
             d="m 443.555,36.0742 29.879,0 c 46.074,0 59.785,31.25 59.785,58.1719 0,31.5079 -16.946,58.1559 -60.293,58.1559 l -29.371,0 0,-116.3278 z m 35.269,149.9998 c 67.067,0 101.528,-41.726 101.528,-92.0935 0,-52.7696 -33.399,-91.55862 -106.622,-91.55862 l -75.941,0 0,183.65212 81.035,0"
             id="path4203"
             style="fill:#696566;fill-opacity:1;fill-rule:nonzero;stroke:none" /><path
             d="m 618.367,2.42188 45.7773,0 0,183.652 -45.7773,0 0,-183.652 z"
             id="path4205"
             style="fill:#696566;fill-opacity:1;fill-rule:nonzero;stroke:none" /><path
             d="m 806.594,150.27 c -35,0 -58.18,-22.356 -58.18,-56.0239 0,-33.6484 23.18,-56.0039 58.18,-56.0039 34.73,0 57.886,22.3555 57.886,56.0039 0,33.6679 -23.156,56.0239 -57.886,56.0239 z m 0,-150.27 c -67.336,0 -105.289,47.3945 -105.289,94.2461 0,44.4379 36.09,94.2499 105.289,94.2499 69.191,0 105.023,-50.098 105.023,-94.2499 C 911.617,47.1172 872.562,0 806.594,0"
             id="path4207"
             style="fill:#696566;fill-opacity:1;fill-rule:nonzero;stroke:none" /></g></g></g></g></svg>