<?xml version="1.0" encoding="UTF-8" standalone="no"?>
<svg width="184px" height="115px" viewBox="0 0 184 115" version="1.1" xmlns="http://www.w3.org/2000/svg" xmlns:xlink="http://www.w3.org/1999/xlink" xmlns:sketch="http://www.bohemiancoding.com/sketch/ns">
    <title>Slice 1</title>
    <description>Created with Sketch (http://www.bohemiancoding.com/sketch)</description>
    <defs></defs>
    <g id="Page 1" fill="#D8D8D8" fill-rule="evenodd">
        <g id="Layer_1" fill="#000000">
            <g id="Group">
                <path d="M57.8810005,112.766998 C88.4068844,112.766998 113.153,88.0208828 113.153,57.4949989 C113.153,26.9691151 88.4068844,2.22299957 57.8810005,2.22299957 C27.3551167,2.22299957 2.60900116,26.9691151 2.60900116,57.4949989 C2.60900116,88.0208828 27.3551167,112.766998 57.8810005,112.766998 Z M57.8810005,112.766998" id="Oval" fill="#FFFFFF"></path>
                <g>
                    <g>
                        <path d="M132.676,75.353 C132.645,76.347 132.61,77.265 131.438,77.974 C130.624,78.431 129.881,78.431 129.561,78.431 C128.467,78.431 127.717,77.937 127.407,77.517 C126.977,76.945 126.977,76.13 126.977,75.318 L126.977,63.838 L121.489,63.838 L121.489,75.457 C121.489,78.467 121.667,79.561 122.62,80.909 C123.899,82.68 126.126,82.858 127.333,82.858 C128.536,82.858 129.743,82.571 130.841,82.01 C131.831,81.512 132.153,81.159 132.679,80.553 L132.679,82.326 L138.136,82.326 L138.136,63.836 L132.679,63.836 L132.676,75.353 L132.676,75.353 Z M132.676,75.353" id="Shape" fill="#477F80"></path>
                        <path d="M149.641,70.246 C147.87,69.931 146.7,69.719 146.7,68.651 C146.7,68.126 147.2,67.27 149.321,67.27 C150.598,67.27 152.227,67.768 153.962,69.112 L157.327,66.001 C156.056,65.11 153.431,63.235 149.077,63.235 C143.907,63.235 141.282,66.385 141.282,69.432 C141.282,70.815 141.852,72.089 142.667,72.903 C143.479,73.717 144.614,74.178 145.745,74.501 C146.557,74.749 147.413,74.925 148.224,75.067 C149.286,75.245 150.562,75.348 151.376,75.774 C151.696,75.955 152.081,76.2 152.081,76.836 C152.081,78.215 150.099,78.643 148.796,78.643 C146.737,78.643 144.896,77.545 143.405,76.09 L139.973,79.207 C141.141,80.307 143.795,82.786 148.934,82.786 C153.289,82.786 157.676,80.661 157.676,76.308 C157.678,71.913 153.359,70.922 149.641,70.246" id="Shape" fill="#477F80"></path>
                        <path d="M159.210999,63.8079987 L159.210999,82.3289986 L164.597999,82.3289986 L164.597999,63.8079987 L159.210999,63.8079987 Z M159.210999,63.8079987" id="Rectangle" fill="#477F80"></path>
                        <path d="M159.210999,57.2869987 L159.210999,61.4989986 L164.597999,61.4989986 L164.597999,57.2869987 L159.210999,57.2869987 Z M159.210999,57.2869987" id="Rectangle" fill="#477F80"></path>
                        <path d="M179.105,77.334 C177.968,78.606 176.625,78.606 176.339,78.606 C173.435,78.606 172.234,75.524 172.234,73.083 C172.234,70.854 173.222,67.487 176.166,67.487 C177.018,67.487 177.686,67.768 178.217,68.126 C179.108,68.765 179.459,69.399 179.778,70.071 L183.819,67.768 C181.479,63.907 177.971,63.338 175.919,63.338 C169.755,63.338 166.64,67.872 166.64,73.258 C166.64,80.803 172.271,82.928 175.814,82.928 C177.906,82.928 179.709,82.251 181.126,81.264 C182.614,80.201 183.355,79.034 184.03,77.971 L179.925,75.842 C179.74,76.375 179.559,76.8 179.105,77.334" id="Shape" fill="#477F80"></path>
                        <path d="M108.168,66.522 C107.176,65.496 106.98,63.376 103.295,63.376 C100.107,63.376 98.69,65.039 98.051,65.782 L98.051,63.871 L92.669,63.871 L92.669,82.326 L98.051,82.326 L98.051,71.804 C98.051,70.533 98.086,69.04 99.292,68.232 C99.79,67.91 100.352,67.804 100.777,67.804 C101.668,67.804 102.48,68.195 102.906,68.761 C103.398,69.468 103.433,70.57 103.433,71.382 L103.433,82.327 L108.82,82.327 L108.82,72.265 C108.82,70.244 108.82,69.187 109.847,68.372 C110.374,67.942 111.085,67.804 111.617,67.804 C112.039,67.804 113.494,67.908 113.99,69.468 C114.203,70.173 114.203,71.56 114.203,72.622 L114.203,82.327 L119.586,82.327 L119.586,70.278 C119.586,68.299 119.553,67.026 119.09,66.035 C118.524,64.897 116.965,63.427 113.922,63.377 C109.998,63.321 109.23,65.64 108.168,66.522" id="Shape" fill="#477F80"></path>
                    </g>
                    <path d="M63.191,49.098 C69.849,52.938 72.125,61.446 68.291,68.104 C64.444,74.764 55.934,77.047 49.281,73.201 C42.62,69.362 40.338,60.85 44.183,54.189 C48.022,47.535 56.537,45.254 63.191,49.098 M57.17,114.335 C76.973,114.335 95.096,104.278 105.644,87.44 C105.646,87.436 105.652,87.432 105.658,87.428 L105.658,87.428 L105.658,87.426 C105.717,87.334 105.738,87.237 105.738,87.135 C105.738,86.954 105.646,86.778 105.486,86.676 C105.228,86.514 104.894,86.586 104.734,86.844 C95.29,101.706 76.62,111.315 57.171,111.315 C27.314,111.315 3.022,87.024 3.022,57.168 C3.022,28.972 24.689,5.751 52.243,3.254 L27.143,46.752 C19.583,61.991 25.046,80.667 39.983,89.296 C55.532,98.273 75.397,92.944 84.378,77.4 C93.356,61.855 88.024,41.979 72.482,33.002 C67.711,30.253 62.54,28.863 57.402,28.682 L71.168,4.812 C94.628,10.923 112.973,32.01 112.973,57.017 C112.973,57.318 113.215,57.564 113.518,57.564 C113.823,57.564 114.063,57.318 114.063,57.017 L114.063,56.693 C114.062,24.901 88.516,0 57.17,0 C25.648,0 0,25.646 0,57.17 C0,88.688 25.648,114.335 57.17,114.335" id="Shape" fill="#477F80"></path>
                </g>
            </g>
        </g>
    </g>
</svg>