<?xml version="1.0" encoding="UTF-8" standalone="no"?>
<!-- Created with Inkscape (http://www.inkscape.org/) -->

<svg
   xmlns:dc="http://purl.org/dc/elements/1.1/"
   xmlns:cc="http://creativecommons.org/ns#"
   xmlns:rdf="http://www.w3.org/1999/02/22-rdf-syntax-ns#"
   xmlns:svg="http://www.w3.org/2000/svg"
   xmlns="http://www.w3.org/2000/svg"
   version="1.1"
   width="301.58749"
   height="58.299999"
   id="svg3849"
   xml:space="preserve"><metadata
     id="metadata3855"><rdf:RDF><cc:Work
         rdf:about=""><dc:format>image/svg+xml</dc:format><dc:type
           rdf:resource="http://purl.org/dc/dcmitype/StillImage" /><dc:title></dc:title></cc:Work></rdf:RDF></metadata><defs
     id="defs3853"><clipPath
       id="clipPath3865"><path
         d="m 0,0 2412.71,0 0,466 L 0,466 0,0 z"
         id="path3867" /></clipPath></defs><g
     transform="matrix(1.25,0,0,-1.25,0,58.3)"
     id="g3857"><g
       transform="scale(0.1,0.1)"
       id="g3859"><g
         id="g3861"><g
           clip-path="url(#clipPath3865)"
           id="g3863"><path
             d="m 615.824,341.926 -3.172,-1.946 c -15.347,-9.363 -32.039,-14.39 -47.199,-14.382 -32.445,0.121 -53.82,19.347 -53.91,47.343 0.039,27.371 22.359,47.637 53.09,47.715 15.648,-0.015 29.832,-4.062 46.676,-13.293 l 3.093,-1.703 0,24.996 -1.32,0.516 c -19,7.504 -33.711,10.844 -48.242,10.836 -22.469,0.008 -41.957,-7.414 -55.848,-20.004 -13.887,-12.59 -22.133,-30.371 -22.121,-50.781 0.008,-14.227 5.883,-30.899 18.441,-44.121 12.536,-13.235 31.836,-22.883 58.309,-22.868 0.031,0 0.063,0 0.09,0 21.957,0 37.187,4.899 50.945,11.668 l 1.168,0.575 0,25.449 z m 39.364,124.512 0,-186.485 -198.168,0 0,186.485 198.168,0"
             id="path3869"
             style="fill:#696566;fill-opacity:1;fill-rule:nonzero;stroke:none" /><path
             d="m 379.766,342.793 c 0.058,16.949 -11.231,29.82 -29.282,34.769 4.868,2.493 8.727,5.536 11.547,9.25 3.781,4.977 5.582,11.079 5.563,18.188 0.019,8.734 -3.418,17.641 -10.801,24.309 -7.379,6.66 -18.59,10.984 -33.879,10.98 l -42.246,0 0,-134.309 49.574,0 c 17.688,0 30.106,4.786 38.098,11.891 8,7.082 11.433,16.367 11.426,24.922 z m 47.082,123.645 0,-186.485 -198.164,0 0,186.485 198.164,0"
             id="path3871"
             style="fill:#696566;fill-opacity:1;fill-rule:nonzero;stroke:none" /><path
             d="m 355.105,345.473 c -0.015,-4.438 -1.378,-8.895 -5.355,-12.383 -3.957,-3.485 -10.812,-6.133 -22.168,-6.133 l -22.859,0 0,36.656 21.839,0 c 10.192,0 17.418,-2.066 21.946,-5.293 4.515,-3.246 6.558,-7.508 6.597,-12.847"
             id="path3873"
             style="fill:#696566;fill-opacity:1;fill-rule:nonzero;stroke:none" /><path
             d="m 336.586,389.371 c 4.258,3.07 6.309,7.399 6.34,13.91 -0.02,4.465 -1.293,8.293 -4.508,11.145 -3.223,2.855 -8.695,4.886 -17.523,4.886 l -16.172,0 0,-34.73 11.101,0 c 9.602,-0.012 16.485,1.707 20.762,4.789"
             id="path3875"
             style="fill:#696566;fill-opacity:1;fill-rule:nonzero;stroke:none" /><path
             d="m 151.438,342.793 c 0.054,16.949 -11.239,29.82 -29.286,34.769 4.868,2.493 8.715,5.536 11.543,9.25 3.782,4.977 5.578,11.079 5.567,18.188 0.011,8.734 -3.422,17.641 -10.793,24.309 -7.383,6.66 -18.598,10.984 -33.887,10.98 l -42.2461,0 0,-134.309 49.5431,0 c 0.019,0 0.031,0 0.031,0 17.695,0 30.102,4.786 38.094,11.891 7.992,7.082 11.441,16.367 11.434,24.922 z m 47.082,123.645 0,-186.485 -198.164531,0 0,186.485 198.164531,0"
             id="path3877"
             style="fill:#696566;fill-opacity:1;fill-rule:nonzero;stroke:none" /><path
             d="m 108.254,389.371 c 4.246,3.07 6.312,7.399 6.348,13.91 -0.012,4.465 -1.301,8.293 -4.52,11.145 -3.227,2.855 -8.695,4.886 -17.5273,4.886 l -16.1563,0 0,-34.73 11.0899,0 c 9.6015,-0.012 16.4887,1.707 20.7657,4.789"
             id="path3879"
             style="fill:#696566;fill-opacity:1;fill-rule:nonzero;stroke:none" /><path
             d="m 120.176,358.32 c -4.531,3.227 -11.762,5.293 -21.9377,5.293 l -21.8399,0 0,-36.656 22.8555,0 c 11.3511,0 18.1951,2.648 22.1721,6.133 3.961,3.488 5.332,7.945 5.351,12.383 -0.043,5.339 -2.082,9.601 -6.601,12.847"
             id="path3881"
             style="fill:#696566;fill-opacity:1;fill-rule:nonzero;stroke:none" /><path
             d="m 1170.39,2.47266 -39.17,0 -103.27,119.69934 0,-119.69934 -46.563,0 0,186.80034 42.733,0 99.7,-114.2144 0,114.2144 46.57,0 0,-186.80034"
             id="path3883"
             style="fill:#696566;fill-opacity:1;fill-rule:nonzero;stroke:none" /><path
             d="m 1316.3,152.836 c -35.6,0 -59.16,-22.723 -59.16,-56.961 0,-34.2422 23.56,-56.9766 59.16,-56.9766 35.34,0 58.89,22.7344 58.89,56.9766 0,34.238 -23.55,56.961 -58.89,56.961 z M 1316.3,0 c -68.47,0 -107.09,48.2148 -107.09,95.875 0,45.184 36.7,95.867 107.09,95.867 70.39,0 106.82,-50.957 106.82,-95.867 C 1423.12,47.9414 1383.41,0 1316.3,0"
             id="path3885"
             style="fill:#696566;fill-opacity:1;fill-rule:nonzero;stroke:none" /><path
             d="m 1507.14,112.582 24.66,0 c 12.87,0 25.47,5.48 25.47,21.367 0,13.965 -9.03,21.086 -26.57,21.086 l -23.56,0 0,-42.453 z m 36.99,76.691 c 38.35,0 61.08,-25.753 61.08,-53.683 0,-20.547 -10.68,-35.8791 -32.05,-45.7423 19.17,-9.5938 24.92,-32.6016 51.21,-87.37504 l -51.21,0 c -20,39.98824 -27.39,75.86714 -52.59,75.86714 l -13.43,0 0,-75.86714 -46.56,0 0,186.80034 83.55,0"
             id="path3887"
             style="fill:#696566;fill-opacity:1;fill-rule:nonzero;stroke:none" /><path
             d="m 1790.57,155.035 -82.17,0 0,-41.633 82.17,0 0,-34.2418 -82.17,0 0,-76.68754 -46.56,0 0,186.80034 128.73,0 0,-34.238"
             id="path3889"
             style="fill:#696566;fill-opacity:1;fill-rule:nonzero;stroke:none" /><path
             d="m 1921.72,152.836 c -35.6,0 -59.16,-22.723 -59.16,-56.961 0,-34.2422 23.56,-56.9766 59.16,-56.9766 35.34,0 58.89,22.7344 58.89,56.9766 0,34.238 -23.55,56.961 -58.89,56.961 z M 1921.72,0 c -68.46,0 -107.1,48.2148 -107.1,95.875 0,45.184 36.71,95.867 107.1,95.867 70.39,0 106.83,-50.957 106.83,-95.867 C 2028.55,47.9414 1988.82,0 1921.72,0"
             id="path3891"
             style="fill:#696566;fill-opacity:1;fill-rule:nonzero;stroke:none" /><path
             d="m 2207.06,2.47266 -142.44,0 0,186.80034 46.57,0 0,-152.5621 95.87,0 0,-34.23824"
             id="path3893"
             style="fill:#696566;fill-opacity:1;fill-rule:nonzero;stroke:none" /><path
             d="m 2330.27,101.625 82.44,-99.15234 -58.34,0 -73.95,87.64844 0,-87.64844 -46.57,0 0,186.80034 46.57,0 0,-84.64 0.54,0 58.89,84.64 51.22,0 -60.8,-87.648"
             id="path3895"
             style="fill:#696566;fill-opacity:1;fill-rule:nonzero;stroke:none" /><path
             d="m 45.7812,110.766 24.2305,0 c 12.6485,0 25.0352,5.379 25.0352,20.996 0,13.742 -8.8867,20.73 -26.1172,20.73 l -23.1485,0 0,-41.726 z m 36.3477,75.398 c 37.6991,0 60.0511,-25.324 60.0511,-52.785 0,-20.195 -10.504,-35.2696 -31.504,-44.9649 18.851,-9.418 24.496,-32.0469 50.347,-85.90238 l -50.347,0 C 91.0195,41.8164 83.7461,77.1094 58.9688,77.1094 l -13.1876,0 0,-74.59768 -45.7812,0 0,183.65228 82.1289,0"
             id="path3897"
             style="fill:#696566;fill-opacity:1;fill-rule:nonzero;stroke:none" /><path
             d="m 266.605,142.27 -26.925,-71.352 56.55,0 -29.625,71.352 z m 107.45,-139.75828 -49.285,0 -15.082,36.35548 -82.129,0 -13.731,-36.35548 -48.461,0 74.047,183.65228 53.047,0 81.594,-183.65228"
             id="path3899"
             style="fill:#696566;fill-opacity:1;fill-rule:nonzero;stroke:none" /><path
             d="m 443.555,36.1641 29.879,0 c 46.074,0 59.785,31.25 59.785,58.1718 0,31.5041 -16.946,58.1561 -60.293,58.1561 l -29.371,0 0,-116.3279 z m 35.269,149.9999 c 67.067,0 101.528,-41.73 101.528,-92.0976 0,-52.7656 -33.399,-91.55468 -106.622,-91.55468 l -75.941,0 0,183.65228 81.035,0"
             id="path3901"
             style="fill:#696566;fill-opacity:1;fill-rule:nonzero;stroke:none" /><path
             d="m 618.367,2.51172 45.7773,0 0,183.652 -45.7773,0 0,-183.652 z"
             id="path3903"
             style="fill:#696566;fill-opacity:1;fill-rule:nonzero;stroke:none" /><path
             d="m 806.594,150.355 c -35,0 -58.18,-22.351 -58.18,-56.0191 0,-33.6523 23.18,-56.0039 58.18,-56.0039 34.73,0 57.886,22.3516 57.886,56.0039 0,33.6681 -23.156,56.0191 -57.886,56.0191 z m 0,-150.2651562 c -67.336,0 -105.289,47.3906562 -105.289,94.2460562 0,44.4341 36.09,94.2501 105.289,94.2501 69.191,0 105.023,-50.098 105.023,-94.2501 0,-47.1289 -39.055,-94.2460562 -105.023,-94.2460562"
             id="path3905"
             style="fill:#696566;fill-opacity:1;fill-rule:nonzero;stroke:none" /></g></g></g></g></svg>