<?xml version="1.0" encoding="UTF-8" standalone="no"?>
<svg  viewBox="0 0 115 115" version="1.1" xmlns="http://www.w3.org/2000/svg" xmlns:xlink="http://www.w3.org/1999/xlink" xmlns:sketch="http://www.bohemiancoding.com/sketch/ns">
    <title>Slice 1</title>
    <description>Created with Sketch (http://www.bohemiancoding.com/sketch)</description>
    <defs></defs>
    <g id="Page 1" fill="#D8D8D8" fill-rule="evenodd">
        <g id="Layer_1" fill="#000000">
            <g id="Group">
                <path d="M57.8860016,114.772003 C89.3032743,114.772003 114.772003,89.3032743 114.772003,57.8860016 C114.772003,26.4687289 89.3032743,1 57.8860016,1 C26.4687289,1 1,26.4687289 1,57.8860016 C1,89.3032743 26.4687289,114.772003 57.8860016,114.772003 Z M57.8860016,114.772003" id="Oval" stroke="rgb(30,30,32)" stroke-width="0.3251" fill="#BF311A"></path>
                <g>
                    <path d="M17.1669998,27.3460007 L17.1669998,88.4260025 L98.6060028,88.4260025 L98.6060028,27.3460007 L17.1669998,27.3460007 Z M17.1669998,27.3460007" id="Rectangle" fill="#BF311A"></path>
                    <path d="M42.245,51.47 L43.953,51.47 L39.117,63.482 L38.74,63.482 L34.831,53.756 L30.88,63.482 L30.513,63.482 L25.693,51.47 L27.42,51.47 L30.716,59.713 L34.032,51.47 L35.65,51.47 L38.984,59.713 L42.245,51.47 L42.245,51.47 Z M42.245,51.47" id="Shape" fill="#FFFFFF"></path>
                    <path d="M50.622,51.299 C52.47,51.299 54.009,51.884 55.236,53.054 C56.465,54.224 57.081,55.691 57.081,57.452 C57.081,59.217 56.46,60.676 55.22,61.831 C53.98,62.985 52.415,63.563 50.529,63.563 C48.726,63.563 47.224,62.985 46.025,61.831 C44.824,60.676 44.223,59.227 44.223,57.486 C44.223,55.7 44.827,54.222 46.036,53.052 C47.245,51.884 48.774,51.299 50.622,51.299 L50.622,51.299 Z M50.69,52.926 C49.321,52.926 48.197,53.354 47.316,54.21 C46.434,55.065 45.996,56.158 45.996,57.488 C45.996,58.779 46.436,59.851 47.321,60.706 C48.205,61.561 49.31,61.991 50.638,61.991 C51.973,61.991 53.085,61.553 53.979,60.68 C54.873,59.807 55.317,58.719 55.317,57.418 C55.317,56.15 54.873,55.084 53.979,54.22 C53.085,53.357 51.991,52.926 50.69,52.926 L50.69,52.926 Z M50.69,52.926" id="Shape" fill="#FFFFFF"></path>
                    <path d="M59.063,63.43 L59.063,51.47 L62.059,51.47 C63.268,51.47 64.229,51.77 64.94,52.368 C65.651,52.969 66.005,53.778 66.005,54.799 C66.005,55.496 65.828,56.099 65.483,56.607 C65.134,57.115 64.634,57.495 63.985,57.747 C64.368,57.997 64.741,58.341 65.106,58.775 C65.47,59.209 65.985,59.963 66.647,61.043 C67.064,61.723 67.399,62.232 67.649,62.574 L68.282,63.43 L66.247,63.43 L65.726,62.642 C65.708,62.615 65.675,62.566 65.622,62.496 L65.29,62.023 L64.759,61.15 L64.187,60.216 C63.833,59.725 63.509,59.333 63.216,59.042 C62.921,58.753 62.654,58.542 62.419,58.415 C62.181,58.286 61.78,58.223 61.224,58.223 L60.779,58.223 L60.779,63.427 L59.066,63.427 L59.066,63.43 L59.063,63.43 L59.063,63.43 Z M61.288,52.926 L60.774,52.926 L60.774,56.7 L61.424,56.7 C62.291,56.7 62.885,56.627 63.207,56.477 C63.529,56.329 63.781,56.104 63.961,55.806 C64.142,55.505 64.232,55.165 64.232,54.783 C64.232,54.406 64.13,54.065 63.932,53.761 C63.732,53.456 63.451,53.24 63.087,53.115 C62.727,52.99 62.128,52.926 61.288,52.926 L61.288,52.926 Z M61.288,52.926" id="Shape" fill="#FFFFFF"></path>
                    <path d="M69.952,51.47 L71.665,51.47 L71.665,61.87 L77.049,61.87 L77.049,63.43 L69.952,63.43 L69.952,51.47 L69.952,51.47 Z M69.952,51.47" id="Shape" fill="#FFFFFF"></path>
                    <path d="M79.089,63.411 L79.089,51.471 L83.119,51.471 C84.746,51.471 86.033,51.715 86.98,52.202 C87.927,52.689 88.68,53.407 89.24,54.355 C89.802,55.302 90.08,56.335 90.08,57.454 C90.08,58.254 89.927,59.018 89.617,59.747 C89.308,60.477 88.869,61.12 88.3,61.674 C87.718,62.245 87.041,62.676 86.272,62.967 C85.823,63.146 85.409,63.264 85.032,63.321 C84.655,63.383 83.935,63.411 82.876,63.411 L79.089,63.411 L79.089,63.411 Z M82.942,52.993 L80.8,52.993 L80.8,61.889 L82.99,61.889 C83.847,61.889 84.511,61.829 84.986,61.713 C85.46,61.596 85.853,61.446 86.173,61.268 C86.49,61.088 86.777,60.869 87.041,60.604 C87.886,59.75 88.309,58.666 88.309,57.36 C88.309,56.076 87.873,55.029 87.007,54.219 C86.69,53.917 86.32,53.668 85.906,53.474 C85.492,53.281 85.099,53.152 84.728,53.089 C84.36,53.026 83.763,52.993 82.942,52.993 L82.942,52.993 Z M82.942,52.993" id="Shape" fill="#FFFFFF"></path>
                    <g>
                        <path d="M59.462,42.301 C59.462,42.557 59.384,42.814 59.152,43.014 C58.923,43.215 58.529,43.368 57.875,43.368 L56.56,43.368 L56.56,41.256 L57.818,41.256 C58.406,41.256 58.822,41.375 59.084,41.561 C59.341,41.748 59.46,41.993 59.462,42.301 L59.462,42.301 Z M59.462,42.301" id="Shape" fill="#FFFFFF"></path>
                        <path d="M58.395,39.771 C58.641,39.595 58.757,39.344 58.759,38.969 C58.759,38.712 58.686,38.49 58.498,38.326 C58.312,38.163 57.997,38.046 57.489,38.046 L56.557,38.046 L56.557,40.048 L57.196,40.048 C57.751,40.048 58.149,39.948 58.395,39.771 L58.395,39.771 Z M58.395,39.771" id="Shape" fill="#FFFFFF"></path>
                        <path d="M63.595,35.331 L63.595,46.076 L52.175,46.076 L52.175,35.331 L63.595,35.331 L63.595,35.331 Z M60.882,42.456 C60.886,41.479 60.236,40.737 59.194,40.452 C59.475,40.308 59.696,40.134 59.86,39.92 C60.077,39.633 60.181,39.281 60.18,38.871 C60.181,38.368 59.983,37.854 59.557,37.471 C59.131,37.088 58.487,36.838 57.605,36.839 L55.17,36.839 L55.17,44.577 L58.024,44.577 L58.026,44.577 C59.045,44.577 59.759,44.302 60.221,43.891 C60.686,43.484 60.882,42.948 60.882,42.456 L60.882,42.456 Z M60.882,42.456" id="Shape" fill="#FFFFFF"></path>
                    </g>
                    <g>
                        <path d="M45.237,39.771 C45.481,39.595 45.6,39.344 45.603,38.969 C45.602,38.712 45.528,38.49 45.341,38.326 C45.155,38.163 44.841,38.046 44.332,38.046 L43.399,38.046 L43.399,40.048 L44.039,40.048 C44.593,40.048 44.991,39.948 45.237,39.771 L45.237,39.771 Z M45.237,39.771" id="Shape" fill="#FFFFFF"></path>
                        <path d="M45.923,41.561 C45.661,41.375 45.245,41.256 44.658,41.256 L43.399,41.256 L43.399,43.367 L44.715,43.367 C45.369,43.367 45.765,43.215 45.994,43.013 C46.222,42.813 46.301,42.555 46.301,42.3 C46.3,41.993 46.184,41.748 45.923,41.561 L45.923,41.561 Z M45.923,41.561" id="Shape" fill="#FFFFFF"></path>
                        <path d="M50.438,35.331 L50.438,46.076 L39.019,46.076 L39.019,35.331 L50.438,35.331 L50.438,35.331 Z M47.725,42.456 C47.729,41.479 47.079,40.737 46.037,40.452 C46.318,40.308 46.541,40.134 46.703,39.92 C46.92,39.633 47.024,39.281 47.023,38.871 C47.024,38.368 46.826,37.854 46.4,37.471 C45.976,37.087 45.33,36.838 44.449,36.839 L42.013,36.839 L42.013,44.577 L44.867,44.577 L44.87,44.577 C45.89,44.577 46.603,44.302 47.064,43.891 C47.528,43.484 47.726,42.948 47.725,42.456 L47.725,42.456 Z M47.725,42.456" id="Shape" fill="#FFFFFF"></path>
                    </g>
                    <path d="M76.753,35.331 L76.753,46.076 L65.335,46.076 L65.335,35.331 L76.753,35.331 L76.753,35.331 Z M74.487,42.506 L74.302,42.617 C73.416,43.157 72.455,43.447 71.582,43.446 C69.712,43.439 68.479,42.332 68.477,40.718 C68.479,39.14 69.765,37.972 71.538,37.968 C72.438,37.968 73.257,38.201 74.226,38.734 L74.405,38.833 L74.405,37.393 L74.331,37.363 C73.233,36.931 72.388,36.738 71.55,36.739 C70.255,36.739 69.132,37.167 68.333,37.891 C67.53,38.617 67.058,39.641 67.058,40.817 C67.058,41.637 67.397,42.597 68.12,43.359 C68.844,44.123 69.954,44.677 71.479,44.677 L71.485,44.677 C72.751,44.677 73.629,44.395 74.422,44.004 L74.489,43.971 L74.489,42.506 L74.487,42.506 L74.487,42.506 Z M74.487,42.506" id="Shape" fill="#FFFFFF"></path>
                    <path d="M33.421,70.377 C32.403,69.411 31.423,69.131 30.615,69.131 C29.511,69.131 28.722,69.709 28.722,70.551 C28.722,72.849 33.892,72.814 33.892,76.614 C33.892,78.491 32.472,79.856 30.544,79.856 C29.247,79.856 28.195,79.506 27.195,78.752 L27.195,76.578 C28.072,77.699 29.175,78.311 30.35,78.311 C31.682,78.311 32.295,77.47 32.295,76.804 C32.295,74.332 27.125,74.051 27.125,70.775 C27.125,68.83 28.562,67.586 30.753,67.586 C31.664,67.586 32.574,67.865 33.417,68.428 L33.417,70.375 L33.421,70.377 L33.421,70.377 Z M33.421,70.377" id="Shape" fill="#FFFFFF"></path>
                    <path d="M42.551,69.288 L37.485,69.288 L37.485,72.899 L42.377,72.899 L42.377,74.44 L37.485,74.44 L37.485,78.157 L42.71,78.157 L42.71,79.7 L35.77,79.7 L35.77,67.745 L42.553,67.745 L42.551,69.288 L42.551,69.288 Z M42.551,69.288" id="Shape" fill="#FFFFFF"></path>
                    <path d="M47.581,67.745 C49.999,67.745 51.507,69.026 51.507,71.094 C51.507,72.48 50.788,73.514 49.509,74.023 C50.595,74.742 51.261,75.844 52.173,77.335 C52.682,78.159 52.98,78.563 53.804,79.7 L51.753,79.7 L50.175,77.247 C48.598,74.794 47.88,74.513 47.003,74.513 L46.283,74.513 L46.283,79.7 L44.565,79.7 L44.565,67.745 L47.581,67.745 L47.581,67.745 Z M46.283,72.969 L47.387,72.969 C49.228,72.969 49.754,72.025 49.737,71.025 C49.719,69.904 49.053,69.219 47.387,69.219 L46.283,69.219 L46.283,72.969 L46.283,72.969 Z M46.283,72.969" id="Shape" fill="#FFFFFF"></path>
                    <path d="M57.923,79.805 L57.571,79.805 L52.401,67.745 L54.12,67.745 L57.712,76.141 L61.287,67.745 L62.986,67.745 L57.923,79.805 L57.923,79.805 Z M57.923,79.805" id="Shape" fill="#FFFFFF"></path>
                    <path d="M66.038,79.7 L64.319,79.7 L64.319,67.745 L66.038,67.745 L66.038,79.7 L66.038,79.7 Z M66.038,79.7" id="Shape" fill="#FFFFFF"></path>
                    <path d="M78.866,70.411 C77.394,69.553 76.133,69.165 74.747,69.165 C72.016,69.165 69.98,71.11 69.98,73.741 C69.98,76.422 71.944,78.28 74.817,78.28 C76.167,78.28 77.639,77.805 78.989,76.928 L78.989,78.805 C77.814,79.418 76.536,79.856 74.661,79.856 C70.174,79.856 68.21,76.403 68.21,73.897 C68.21,70.251 70.963,67.586 74.768,67.586 C75.996,67.586 77.24,67.885 78.869,68.566 L78.866,70.411 L78.866,70.411 Z M78.866,70.411" id="Shape" fill="#FFFFFF"></path>
                    <path d="M87.874,69.288 L82.81,69.288 L82.81,72.899 L87.702,72.899 L87.702,74.44 L82.81,74.44 L82.81,78.157 L88.034,78.157 L88.034,79.7 L81.095,79.7 L81.095,67.745 L87.878,67.745 L87.878,69.288 L87.874,69.288 L87.874,69.288 Z M87.874,69.288" id="Shape" fill="#FFFFFF"></path>
                </g>
            </g>
        </g>
    </g>
</svg>
