<?xml version="1.0" encoding="UTF-8" standalone="no"?>
<!-- Created with Inkscape (http://www.inkscape.org/) -->

<svg
   xmlns:dc="http://purl.org/dc/elements/1.1/"
   xmlns:cc="http://creativecommons.org/ns#"
   xmlns:rdf="http://www.w3.org/1999/02/22-rdf-syntax-ns#"
   xmlns:svg="http://www.w3.org/2000/svg"
   xmlns="http://www.w3.org/2000/svg"
   version="1.1"
   width="82.775002"
   height="58.612499"
   id="svg4715"
   xml:space="preserve"><metadata
     id="metadata4721"><rdf:RDF><cc:Work
         rdf:about=""><dc:format>image/svg+xml</dc:format><dc:type
           rdf:resource="http://purl.org/dc/dcmitype/StillImage" /><dc:title></dc:title></cc:Work></rdf:RDF></metadata><defs
     id="defs4719"><clipPath
       id="clipPath4731"><path
         d="m 0,0 662,0 0,468.945 -662,0 L 0,0 z"
         id="path4733" /></clipPath></defs><g
     transform="matrix(1.25,0,0,-1.25,0,58.6125)"
     id="g4723"><g
       transform="scale(0.1,0.1)"
       id="g4725"><g
         id="g4727"><g
           clip-path="url(#clipPath4731)"
           id="g4729"><path
             d="m 622.848,344.434 -3.176,-1.946 c -15.348,-9.363 -32.035,-14.386 -47.195,-14.383 -32.45,0.122 -53.825,19.352 -53.915,47.344 0.043,27.371 22.36,47.637 53.094,47.715 15.649,-0.016 29.828,-4.062 46.672,-13.293 l 3.098,-1.703 0,24.996 -1.324,0.516 c -18.997,7.508 -33.711,10.847 -48.243,10.836 -22.464,0.011 -41.957,-7.411 -55.843,-20.004 -13.887,-12.59 -22.133,-30.371 -22.125,-50.782 0.011,-14.222 5.882,-30.898 18.445,-44.121 12.531,-13.23 31.836,-22.882 58.309,-22.867 0.031,0 0.058,0 0.085,0 21.961,0 37.192,4.899 50.95,11.672 l 1.168,0.57 0,25.45 z m 39.359,124.511 0,-186.484 -198.164,0 0,186.484 198.164,0"
             id="path4735"
             style="fill:#696566;fill-opacity:1;fill-rule:nonzero;stroke:none" /><path
             d="m 386.785,345.301 c 0.063,16.949 -11.226,29.82 -29.281,34.773 4.867,2.488 8.726,5.531 11.551,9.246 3.777,4.977 5.578,11.078 5.558,18.188 0.02,8.738 -3.418,17.644 -10.801,24.308 -7.374,6.661 -18.585,10.985 -33.874,10.981 l -42.247,0 0,-134.305 49.575,0 c 17.683,0 30.101,4.785 38.093,11.891 8,7.078 11.438,16.363 11.426,24.918 z m 47.082,123.644 0,-186.484 -198.164,0 0,186.484 198.164,0"
             id="path4737"
             style="fill:#696566;fill-opacity:1;fill-rule:nonzero;stroke:none" /><path
             d="m 362.129,347.984 c -0.02,-4.437 -1.383,-8.898 -5.356,-12.382 -3.961,-3.489 -10.816,-6.133 -22.168,-6.133 l -22.863,0 0,36.652 21.844,0 c 10.187,0 17.414,-2.062 21.941,-5.293 4.516,-3.246 6.563,-7.508 6.602,-12.844"
             id="path4739"
             style="fill:#696566;fill-opacity:1;fill-rule:nonzero;stroke:none" /><path
             d="m 343.609,391.879 c 4.258,3.07 6.309,7.398 6.336,13.91 -0.019,4.465 -1.293,8.293 -4.507,11.145 -3.219,2.855 -8.696,4.886 -17.524,4.886 l -16.172,0 0,-34.73 11.106,0 c 9.597,-0.012 16.484,1.707 20.761,4.789"
             id="path4741"
             style="fill:#696566;fill-opacity:1;fill-rule:nonzero;stroke:none" /><path
             d="m 158.457,345.301 c 0.059,16.949 -11.234,29.82 -29.281,34.773 4.867,2.488 8.715,5.531 11.543,9.246 3.777,4.977 5.574,11.078 5.566,18.188 0.008,8.738 -3.426,17.644 -10.797,24.308 -7.383,6.661 -18.593,10.985 -33.886,10.981 l -42.2465,0 0,-134.305 49.5465,0 c 0.02,0 0.028,0 0.028,0 17.695,0 30.101,4.785 38.097,11.891 7.993,7.078 11.442,16.363 11.43,24.918 z m 47.086,123.644 0,-186.484 -198.16409,0 0,186.484 198.16409,0"
             id="path4743"
             style="fill:#696566;fill-opacity:1;fill-rule:nonzero;stroke:none" /><path
             d="m 115.273,391.879 c 4.247,3.07 6.313,7.398 6.348,13.91 -0.012,4.465 -1.301,8.293 -4.516,11.145 -3.226,2.855 -8.699,4.886 -17.5308,4.886 l -16.1562,0 0,-34.73 11.0937,0 c 9.5973,-0.012 16.4843,1.707 20.7613,4.789"
             id="path4745"
             style="fill:#696566;fill-opacity:1;fill-rule:nonzero;stroke:none" /><path
             d="m 127.195,360.828 c -4.531,3.231 -11.761,5.293 -21.937,5.293 l -21.84,0 0,-36.652 22.855,0 c 11.356,0 18.2,2.644 22.172,6.133 3.961,3.484 5.332,7.945 5.356,12.382 -0.047,5.336 -2.082,9.598 -6.606,12.844"
             id="path4747"
             style="fill:#696566;fill-opacity:1;fill-rule:nonzero;stroke:none" /><path
             d="M 102.164,0 82.168,0 0,189.266 l 49.3008,0 44.0976,-103.2504 47.9296,103.2504 37.524,0 47.933,-103.2504 43.824,103.2504 49.297,0 L 238.012,0 218.023,0 159.957,121.891 102.164,0"
             id="path4749"
             style="fill:#696566;fill-opacity:1;fill-rule:nonzero;stroke:none" /><path
             d="m 509.574,189.266 40.539,0 0,-186.79725 -46.562,0 0,116.67925 -50.399,-58.6128 -7.121,0 -50.394,58.6128 0,-116.67925 -46.567,0 0,186.79725 40.539,0 59.985,-69.297 59.98,69.297"
             id="path4751"
             style="fill:#696566;fill-opacity:1;fill-rule:nonzero;stroke:none" /></g></g></g></g></svg>
