<?xml version="1.0" encoding="UTF-8" standalone="no"?>
<!-- Created with Inkscape (http://www.inkscape.org/) -->

<svg
   xmlns:dc="http://purl.org/dc/elements/1.1/"
   xmlns:cc="http://creativecommons.org/ns#"
   xmlns:rdf="http://www.w3.org/1999/02/22-rdf-syntax-ns#"
   xmlns:svg="http://www.w3.org/2000/svg"
   xmlns="http://www.w3.org/2000/svg"
   version="1.1"
   width="241.2"
   height="58.337502"
   id="svg4363"
   xml:space="preserve"><metadata
     id="metadata4369"><rdf:RDF><cc:Work
         rdf:about=""><dc:format>image/svg+xml</dc:format><dc:type
           rdf:resource="http://purl.org/dc/dcmitype/StillImage" /><dc:title></dc:title></cc:Work></rdf:RDF></metadata><defs
     id="defs4367"><clipPath
       id="clipPath4379"><path
         d="M 0,466.672 0,0 l 1929.61,0 0,466.672 -1929.61,0 z"
         id="path4381" /></clipPath></defs><g
     transform="matrix(1.25,0,0,-1.25,0,58.3375)"
     id="g4371"><g
       transform="scale(0.1,0.1)"
       id="g4373"><g
         id="g4375"><g
           clip-path="url(#clipPath4379)"
           id="g4377"><path
             d="m 615.824,342.156 -3.172,-1.941 c -15.347,-9.363 -32.039,-14.391 -47.199,-14.387 -32.445,0.125 -53.82,19.352 -53.91,47.348 0.039,27.371 22.359,47.636 53.09,47.715 15.648,-0.016 29.832,-4.063 46.676,-13.293 l 3.093,-1.703 0,24.996 -1.32,0.515 c -19,7.504 -33.711,10.844 -48.242,10.836 -22.469,0.008 -41.957,-7.414 -55.848,-20.004 -13.887,-12.59 -22.133,-30.371 -22.121,-50.781 0.008,-14.227 5.883,-30.898 18.441,-44.121 12.536,-13.234 31.836,-22.883 58.309,-22.867 0.031,0 0.063,0 0.09,0 21.957,0 37.187,4.894 50.945,11.668 l 1.168,0.574 0,25.445 z m 39.364,124.516 0,-186.484 -198.168,0 0,186.484 198.168,0"
             id="path4383"
             style="fill:#696566;fill-opacity:1;fill-rule:nonzero;stroke:none" /><path
             d="m 379.766,343.027 c 0.058,16.95 -11.231,29.821 -29.282,34.77 4.868,2.492 8.727,5.535 11.547,9.25 3.781,4.976 5.582,11.078 5.563,18.187 0.019,8.735 -3.418,17.641 -10.801,24.309 -7.379,6.66 -18.59,10.984 -33.879,10.98 l -42.246,0 0,-134.308 49.574,0 c 17.688,0 30.106,4.785 38.098,11.89 8,7.083 11.433,16.368 11.426,24.922 z m 47.082,123.645 0,-186.484 -198.164,0 0,186.484 198.164,0"
             id="path4385"
             style="fill:#696566;fill-opacity:1;fill-rule:nonzero;stroke:none" /><path
             d="m 355.105,345.707 c -0.015,-4.437 -1.378,-8.895 -5.355,-12.383 -3.957,-3.484 -10.812,-6.133 -22.168,-6.133 l -22.859,0 0,36.657 21.839,0 c 10.192,0 17.418,-2.067 21.946,-5.293 4.515,-3.246 6.558,-7.508 6.597,-12.848"
             id="path4387"
             style="fill:#696566;fill-opacity:1;fill-rule:nonzero;stroke:none" /><path
             d="m 336.586,389.605 c 4.258,3.071 6.309,7.399 6.34,13.911 -0.02,4.464 -1.293,8.293 -4.508,11.144 -3.223,2.856 -8.695,4.887 -17.523,4.887 l -16.172,0 0,-34.731 11.101,0 c 9.602,-0.011 16.485,1.707 20.762,4.789"
             id="path4389"
             style="fill:#696566;fill-opacity:1;fill-rule:nonzero;stroke:none" /><path
             d="m 151.438,343.027 c 0.054,16.95 -11.239,29.821 -29.286,34.77 4.868,2.492 8.715,5.535 11.543,9.25 3.782,4.976 5.578,11.078 5.567,18.187 0.011,8.735 -3.422,17.641 -10.793,24.309 -7.383,6.66 -18.598,10.984 -33.887,10.98 l -42.2461,0 0,-134.308 49.5431,0 c 0.019,0 0.031,0 0.031,0 17.695,0 30.102,4.785 38.094,11.89 7.992,7.083 11.441,16.368 11.434,24.922 z m 47.082,123.645 0,-186.484 -198.164531,0 0,186.484 198.164531,0"
             id="path4391"
             style="fill:#696566;fill-opacity:1;fill-rule:nonzero;stroke:none" /><path
             d="m 108.254,389.605 c 4.246,3.071 6.312,7.399 6.348,13.911 -0.012,4.464 -1.301,8.293 -4.52,11.144 -3.227,2.856 -8.695,4.887 -17.5273,4.887 l -16.1563,0 0,-34.731 11.0899,0 c 9.6015,-0.011 16.4887,1.707 20.7657,4.789"
             id="path4393"
             style="fill:#696566;fill-opacity:1;fill-rule:nonzero;stroke:none" /><path
             d="m 120.176,358.555 c -4.531,3.226 -11.762,5.293 -21.9377,5.293 l -21.8399,0 0,-36.657 22.8555,0 c 11.3511,0 18.1951,2.649 22.1721,6.133 3.961,3.488 5.332,7.946 5.351,12.383 -0.043,5.34 -2.082,9.602 -6.601,12.848"
             id="path4395"
             style="fill:#696566;fill-opacity:1;fill-rule:nonzero;stroke:none" /><path
             d="m 1111.98,140.781 c -27.11,12.051 -43.28,16.719 -59.16,16.719 -16.71,0 -27.4,-6.035 -27.4,-15.344 0,-28.211 95.05,-20.261 95.05,-85.4568 C 1120.47,20.8203 1090.34,0 1048.71,0 c -32.6,0 -48.753,8.49609 -67.382,18.0859 l 0,40.2539 c 26.842,-17.7929 43.272,-24.1015 63.812,-24.1015 17.81,0 27.4,6.3086 27.4,17.2656 0,30.6641 -95.044,19.4336 -95.044,86.5431 0,32.324 27.934,53.691 71.214,53.691 20.82,0 39.71,-4.394 63.27,-14.519 l 0,-36.438"
             id="path4397"
             style="fill:#696566;fill-opacity:1;fill-rule:nonzero;stroke:none" /><path
             d="m 1321.19,155.027 -67.65,0 0,-152.55434 -46.56,0 0,152.55434 -67.66,0 0,34.243 181.87,0 0,-34.243"
             id="path4399"
             style="fill:#696566;fill-opacity:1;fill-rule:nonzero;stroke:none" /><path
             d="m 1435.63,152.832 c -35.61,0 -59.16,-22.727 -59.16,-56.9648 0,-34.2344 23.55,-56.9688 59.16,-56.9688 35.33,0 58.89,22.7344 58.89,56.9688 0,34.2378 -23.56,56.9648 -58.89,56.9648 z M 1435.63,0 c -68.48,0 -107.1,48.2148 -107.1,95.8672 0,45.1878 36.71,95.8708 107.1,95.8708 70.39,0 106.82,-50.957 106.82,-95.8708 C 1542.45,47.9414 1502.73,0 1435.63,0"
             id="path4401"
             style="fill:#696566;fill-opacity:1;fill-rule:nonzero;stroke:none" /><path
             d="m 1682.9,101.621 82.44,-99.14834 -58.34,0 -73.96,87.64454 0,-87.64454 -46.56,0 0,186.79734 46.56,0 0,-84.641 0.55,0 58.89,84.641 51.22,0 -60.8,-87.649"
             id="path4403"
             style="fill:#696566;fill-opacity:1;fill-rule:nonzero;stroke:none" /><path
             d="m 1929.61,2.47266 -137.77,0 0,186.79734 135.86,0 0,-34.243 -89.3,0 0,-39.168 85.19,0 0,-34.2379 -85.19,0 0,-44.9102 91.21,0 0,-34.23824"
             id="path4405"
             style="fill:#696566;fill-opacity:1;fill-rule:nonzero;stroke:none" /><path
             d="m 45.7812,110.859 24.2305,0 c 12.6485,0 25.0352,5.375 25.0352,20.996 0,13.743 -8.8867,20.727 -26.1172,20.727 l -23.1485,0 0,-41.723 z m 36.3477,75.395 c 37.6991,0 60.0511,-25.32 60.0511,-52.781 0,-20.196 -10.504,-35.2699 -31.504,-44.9652 18.851,-9.4258 24.496,-32.0547 50.347,-85.91014 l -50.347,0 C 91.0195,41.9023 83.7461,77.1953 58.9688,77.1953 l -13.1876,0 0,-74.59764 -45.7812,0 0,183.65634 82.1289,0"
             id="path4407"
             style="fill:#696566;fill-opacity:1;fill-rule:nonzero;stroke:none" /><path
             d="m 266.605,142.363 -26.925,-71.3552 56.55,0 -29.625,71.3552 z m 107.45,-139.76534 -49.285,0 -15.082,36.35544 -82.129,0 -13.731,-36.35544 -48.461,0 74.047,183.65634 53.047,0 81.594,-183.65634"
             id="path4409"
             style="fill:#696566;fill-opacity:1;fill-rule:nonzero;stroke:none" /><path
             d="m 443.555,36.25 29.879,0 c 46.074,0 59.785,31.25 59.785,58.1797 0,31.5043 -16.946,58.1523 -60.293,58.1523 l -29.371,0 0,-116.332 z m 35.269,150.004 c 67.067,0 101.528,-41.727 101.528,-92.0938 0,-52.7735 -33.399,-91.56254 -106.622,-91.56254 l -75.941,0 0,183.65634 81.035,0"
             id="path4411"
             style="fill:#696566;fill-opacity:1;fill-rule:nonzero;stroke:none" /><path
             d="m 618.367,2.59766 45.7773,0 0,183.656 -45.7773,0 0,-183.656 z"
             id="path4413"
             style="fill:#696566;fill-opacity:1;fill-rule:nonzero;stroke:none" /><path
             d="m 806.594,150.449 c -35,0 -58.18,-22.351 -58.18,-56.0193 0,-33.6563 23.18,-56.0117 58.18,-56.0117 34.73,0 57.886,22.3554 57.886,56.0117 0,33.6683 -23.156,56.0193 -57.886,56.0193 z m 0,-150.273219 c -67.336,0 -105.289,47.390619 -105.289,94.253919 0,44.4333 36.09,94.2463 105.289,94.2463 69.191,0 105.023,-50.098 105.023,-94.2463 0,-47.1328 -39.055,-94.253919 -105.023,-94.253919"
             id="path4415"
             style="fill:#696566;fill-opacity:1;fill-rule:nonzero;stroke:none" /></g></g></g></g></svg>
