<?xml version="1.0" encoding="UTF-8" standalone="no"?>
<svg  viewBox="0 0 182 116" version="1.1" xmlns="http://www.w3.org/2000/svg" xmlns:xlink="http://www.w3.org/1999/xlink" xmlns:sketch="http://www.bohemiancoding.com/sketch/ns">
    <title>Slice 1</title>
    <description>Created with Sketch (http://www.bohemiancoding.com/sketch)</description>
    <defs></defs>
    <g id="Page 1" fill="#D8D8D8" fill-rule="evenodd">
        <g id="Layer_1" fill="#000000">
            <g id="Group">
                <path d="M59.0279999,112.168003 C89.345673,112.168003 113.923,87.5906757 113.923,57.2730026 C113.923,26.9553295 89.345673,2.37800217 59.0279999,2.37800217 C28.7103268,2.37800217 4.13299942,26.9553295 4.13299942,57.2730026 C4.13299942,87.5906757 28.7103268,112.168003 59.0279999,112.168003 Z M59.0279999,112.168003" id="Oval" fill="#FFFFFF"></path>
                <path d="M57.254,0.849 C25.708,0.849 0.131,26.438 0.131,58.001 C0.131,89.566 25.707,115.15 57.253,115.15 C88.804,115.15 114.375,89.566 114.375,58.001 C114.375,26.438 88.804,0.849 57.254,0.849 L57.254,0.849 Z M57.254,0.849" id="Shape" fill="#FFFFFF"></path>
                <path d="M57.254,0.849 C25.708,0.849 0.131,26.438 0.131,58.001 C0.131,89.566 25.707,115.15 57.253,115.15 C88.804,115.15 114.375,89.566 114.375,58.001 C114.375,26.438 88.804,0.849 57.254,0.849 L57.254,0.849 Z M88.254,80.709 L76.629,80.705 L76.663,95.426 L55.85,95.453 L55.823,82.213 C55.823,82.213 55.802,80.746 54.055,80.684 L24.288,80.709 L24.293,68.492 C24.301,66.713 25.177,64.092 26.242,62.666 L58.07,19.989 C59.132,18.565 61.458,17.397 63.236,17.399 L76.672,17.409 L76.643,63.58 L88.263,63.551 L88.254,80.709 L88.254,80.709 Z M88.254,80.709" id="Shape" fill="#813F97"></path>
                <path d="M57.604,50.675 C53.086,50.769 49.487,54.517 49.583,59.033 C49.687,62.955 52.62,66.179 56.45,66.863 L59.39,67.386 C58.632,72.599 56.686,76.495 52.302,79.716 C58.211,77.099 62.737,71.441 64.828,65.452 C66.925,59.455 65.737,50.511 57.604,50.675 L57.604,50.675 Z M57.604,50.675" id="Shape" fill="#813F97"></path>
                <path d="M136.738,33.148 L136.738,24.178 L141.32,24.178 L141.32,18.412 L136.738,18.412 L136.738,11.956 L130.232,11.956 L130.232,18.412 L127.179,18.412 L127.177,18.412 L119.788,18.412 L115.104,26.149 L110.375,18.412 L99.561,18.412 L108.811,30.684 L100.811,43.792 L109.788,43.792 L115.106,35.169 L120.379,43.792 L127.721,43.792 L118.852,30.684 L127.176,18.414 L127.176,24.177 L130.231,24.177 L130.231,33.098 C130.231,40.048 134.172,44.536 141.614,43.745 L141.614,37.831 C138.361,38.029 136.738,36.699 136.738,33.148 L136.738,33.148 Z M136.738,33.148" id="Shape" fill="#813F97"></path>
                <path d="M157.416,17.919 C154.363,17.425 151.307,18.362 149.238,20.925 L149.238,18.412 L143.027,18.412 L143.027,43.794 L149.535,43.794 L149.535,31.325 C149.535,29.304 149.781,27.234 151.158,25.805 C152.637,24.226 154.806,23.932 157.416,24.226 L157.416,17.919 L157.416,17.919 Z M157.416,17.919" id="Shape" fill="#813F97"></path>
                <path d="M181.127,39.656 L181.127,26.447 C181.127,24.426 180.338,17.771 170.041,17.771 C163.389,17.771 158.758,21.372 158.115,26.199 L164.619,26.199 C165.211,24.031 167.873,22.996 170.189,22.996 C173.091,22.996 174.818,24.081 174.818,25.412 C174.818,27.482 171.814,27.973 167.578,28.369 C161.961,28.861 157.182,30.34 157.182,36.057 C157.182,41.578 162.108,44.288 167.481,44.288 C171.026,44.288 173.588,43.204 175.262,41.431 C175.41,42.369 175.61,43.156 175.905,43.794 L181.87,43.794 C181.52,42.81 181.127,40.888 181.127,39.656 L181.127,39.656 Z M175.068,33.939 C175.068,37.193 171.916,38.522 168.021,38.522 C165.408,38.522 163.732,37.537 163.732,36.109 C163.732,34.234 165.707,33.545 168.906,33.199 C171.568,32.902 173.687,32.461 175.068,31.571 L175.068,33.939 L175.068,33.939 Z M175.068,33.939" id="Shape" fill="#813F97"></path>
                <path d="M90.664,33.642 C91.5,36.746 93.965,38.671 97.018,38.671 C99.186,38.671 101.303,37.733 102.389,35.712 L109.336,35.712 C107.857,40.888 103.375,44.388 97.066,44.388 C89.924,44.388 84.058,38.474 84.058,31.128 C84.058,23.784 89.924,17.771 97.066,17.771 C104.554,17.771 110.765,23.587 109.828,33.642 L90.664,33.642 L90.664,33.642 L90.664,33.642 Z M103.375,28.318 C102.588,25.362 100.121,23.49 97.018,23.49 C94.065,23.49 91.698,25.362 90.762,28.318 L103.375,28.318 L103.375,28.318 Z M103.375,28.318" id="Shape" fill="#FFFFFF"></path>
            </g>
        </g>
    </g>
</svg>
