<?xml version="1.0" encoding="UTF-8" standalone="no"?>
<svg  viewBox="0 0 194 115" version="1.1" xmlns="http://www.w3.org/2000/svg" xmlns:xlink="http://www.w3.org/1999/xlink" xmlns:sketch="http://www.bohemiancoding.com/sketch/ns">
    <title>Slice 1</title>
    <description>Created with Sketch (http://www.bohemiancoding.com/sketch)</description>
    <defs></defs>
    <g id="Page 1" fill="#D8D8D8" fill-rule="evenodd">
        <g id="Layer_1" fill="#000000">
            <g id="Group">
                <path d="M56.4280014,108.152 C85.0556823,108.152 108.263,84.9446823 108.263,56.3170013 C108.263,27.6893204 85.0556823,4.48200226 56.4280014,4.48200226 C27.8003205,4.48200226 4.59300232,27.6893204 4.59300232,56.3170013 C4.59300232,84.9446823 27.8003205,108.152 56.4280014,108.152 Z M56.4280014,108.152" id="Oval" fill="#FFFFFF"></path>
                <path d="M57.121,0 C25.575,0 0,25.589 0,57.15 C0,88.715 25.575,114.301 57.121,114.301 C88.672,114.301 114.242,88.716 114.242,57.15 C114.242,25.589 88.672,0 57.121,0 L57.121,0 Z M57.121,0" id="Shape" fill="#FFFFFF"></path>
                <path d="M57.121,0 C25.575,0 0,25.589 0,57.15 C0,88.715 25.575,114.301 57.121,114.301 C88.672,114.301 114.242,88.716 114.242,57.15 C114.242,25.589 88.672,0 57.121,0 L57.121,0 Z M60.433,43.733 C74.9,43.733 85.007,54.761 85.007,70.549 C85.007,78.187 82.012,85.322 76.579,90.646 C71.036,96.066 63.69,98.961 55.944,98.795 C42.878,98.795 29.624,92.295 27.256,77.91 L48.064,77.91 C49.685,80.336 52.352,81.764 55.635,81.764 C61.996,81.764 65.426,75.987 65.426,70.547 C65.426,65.168 62.398,59.737 55.635,59.737 C51.588,59.737 49.351,60.918 46.778,64.414 L46.165,65.241 L27.937,65.241 L37.308,18.684 L85.983,18.684 L82.612,35.66 L51.927,35.661 C51.927,35.661 50.478,42.307 49.811,46.099 C52.863,44.502 56.342,43.733 60.433,43.733 L60.433,43.733 Z M60.433,43.733" id="Shape" fill="#5B8F22"></path>
                <path d="M138.088,57.281 L141.922,28.05 L134.699,28.05 L130.871,57.281 L138.088,57.281 Z M138.088,57.281" id="Shape" fill="#5B8F22"></path>
                <path d="M143.104,18.774 L135.883,18.774 L135.113,23.997 L142.334,23.997 L143.104,18.774 Z M143.104,18.774" id="Shape" fill="#5B8F22"></path>
                <path d="M156.934,57.281 L171.485,28.051 L163.753,28.051 C163.753,28.051 157.067,42.381 155.511,45.731 C154.781,42.169 151.9,28.051 151.9,28.051 L144.304,28.051 L151.199,57.281 L156.934,57.281 L156.934,57.281 L156.934,57.281 Z M156.934,57.281" id="Shape" fill="#5B8F22"></path>
                <path d="M190.908,31.232 C188.924,28.968 185.992,27.721 182.658,27.721 C176.812,27.721 170.049,31.638 168.607,42.642 C167.937,47.742 168.738,51.628 170.996,54.192 C172.955,56.428 176.012,57.609 179.826,57.609 C184.053,57.609 187.896,55.983 190.955,52.904 L191.549,52.305 L186.807,47.763 L186.237,48.281 C184.575,49.793 182.344,50.732 180.407,50.732 C178.692,50.732 177.339,50.225 176.497,49.266 C175.808,48.483 175.454,47.374 175.454,46.024 C175.454,45.883 175.479,45.73 175.487,45.584 L192.63,45.584 L193.325,40.297 C193.407,39.668 193.448,39.05 193.448,38.446 C193.445,35.642 192.566,33.127 190.908,31.232 L190.908,31.232 Z M186.164,39.364 L176.344,39.364 C177.129,36.406 179.209,34.597 181.973,34.597 C183.285,34.597 184.356,35.012 185.073,35.796 C185.802,36.588 186.177,37.771 186.177,39.238 C186.172,39.275 186.164,39.321 186.164,39.364 L186.164,39.364 Z M186.164,39.364" id="Shape" fill="#5B8F22"></path>
                <path d="M131.184,18.774 L123.967,18.774 L118.896,57.252 L126.117,57.252 L131.184,18.774 Z M131.184,18.774" id="Shape" fill="#5B8F22"></path>
                <path d="M121.225,73.726 C119.629,73.726 118.536,73.254 117.567,72.15 L117.335,71.879 L114.651,74.189 L114.905,74.46 C116.426,76.117 118.358,76.958 120.643,76.958 C124.112,76.958 126.705,75.193 127.092,72.572 C127.281,71.303 127.059,70.238 126.449,69.484 C125.83,68.713 124.842,68.279 123.508,68.189 L121.338,68.031 C120.625,67.971 120.328,67.781 120.205,67.628 C120.111,67.511 120.08,67.367 120.103,67.193 C120.154,66.872 120.292,65.906 122.257,65.906 C123.427,65.906 124.366,66.253 125.403,67.053 L125.653,67.254 L128.069,64.832 L127.807,64.578 C126.453,63.279 124.807,62.674 122.623,62.674 C119.435,62.674 117.119,64.396 116.723,67.053 C116.561,68.156 116.778,69.119 117.354,69.842 C117.987,70.646 119.006,71.123 120.307,71.234 L122.623,71.443 C123.156,71.488 123.484,71.601 123.637,71.79 C123.733,71.915 123.762,72.095 123.723,72.339 C123.604,73.206 122.668,73.726 121.225,73.726 L121.225,73.726 Z M121.225,73.726" id="Shape" fill="#5B8F22"></path>
                <path d="M130.945,62.831 L128.482,79.399 L131.877,79.399 C132.098,77.932 132.334,76.32 132.418,75.76 C133.311,76.553 134.256,76.953 135.357,76.953 C137.336,76.953 138.662,75.951 139.427,75.109 C140.398,74.064 140.732,73.084 141.204,69.88 C141.686,66.63 141.643,65.638 140.968,64.568 C140.441,63.701 139.382,62.672 137.363,62.672 C136.279,62.672 135.168,63.062 134.205,63.732 C134.234,63.506 134.34,62.829 134.34,62.829 L130.945,62.829 L130.945,62.831 L130.945,62.831 Z M136.16,66.062 C136.846,66.062 137.312,66.226 137.599,66.553 C138.154,67.199 138.017,68.5 137.824,69.775 C137.512,71.924 137.095,73.568 134.933,73.568 C134.285,73.568 133.829,73.41 133.544,73.081 C132.97,72.415 133.11,71.081 133.286,69.886 C133.588,67.867 134.035,66.062 136.16,66.062 L136.16,66.062 Z M136.16,66.062" id="Shape" fill="#5B8F22"></path>
                <path d="M148.217,76.958 C149.967,76.958 151.49,76.351 152.74,75.16 C154.074,73.895 154.633,72.608 155.041,69.854 C155.449,67.104 155.27,65.803 154.287,64.516 C153.365,63.289 152,62.674 150.228,62.674 C148.482,62.674 146.957,63.278 145.705,64.471 C144.371,65.738 143.812,67.02 143.412,69.746 C143.269,70.654 143.199,71.406 143.199,72.053 C143.199,73.373 143.5,74.242 144.158,75.115 C145.08,76.338 146.445,76.958 148.217,76.958 L148.217,76.958 Z M146.789,69.855 C147.074,67.933 147.297,67.521 147.824,66.9 C148.258,66.4 149.066,66.062 149.834,66.062 C150.566,66.062 151.26,66.383 151.522,66.844 C151.717,67.197 151.833,67.484 151.833,68.064 C151.833,68.461 151.776,68.992 151.661,69.775 C151.374,71.697 151.151,72.113 150.628,72.73 C150.194,73.23 149.388,73.568 148.62,73.568 C147.888,73.568 147.19,73.247 146.932,72.785 C146.6,72.193 146.502,71.785 146.789,69.855 L146.789,69.855 Z M146.789,69.855" id="Shape" fill="#5B8F22"></path>
                <path d="M165.158,62.674 C163.941,62.674 162.846,63.049 161.918,63.748 C161.949,63.517 162.053,62.828 162.053,62.828 L158.658,62.828 L156.584,76.799 L159.98,76.799 L161.207,68.521 C161.478,66.709 162.801,66.062 163.853,66.062 C164.425,66.062 164.757,66.197 165.271,66.629 L165.529,66.846 L168.304,64.034 L168.015,63.784 C167.158,63.04 166.229,62.674 165.158,62.674 L165.158,62.674 Z M165.158,62.674" id="Shape" fill="#5B8F22"></path>
                <path d="M183.213,65.906 C184.387,65.906 185.324,66.253 186.361,67.053 L186.611,67.254 L189.033,64.832 L188.765,64.578 C187.41,63.279 185.765,62.674 183.579,62.674 C180.391,62.674 178.075,64.396 177.681,67.053 C177.519,68.156 177.74,69.119 178.312,69.842 C178.945,70.646 179.966,71.123 181.265,71.234 L183.579,71.443 C184.112,71.488 184.44,71.601 184.595,71.79 C184.691,71.915 184.724,72.095 184.687,72.339 C184.556,73.206 183.621,73.729 182.177,73.729 C180.579,73.729 179.486,73.257 178.519,72.154 L178.287,71.883 L175.607,74.193 L175.857,74.464 C177.377,76.122 179.306,76.962 181.599,76.962 C185.064,76.962 187.658,75.198 188.042,72.577 C188.231,71.307 188.011,70.243 187.399,69.484 C186.784,68.715 185.792,68.284 184.458,68.193 L182.292,68.036 C181.575,67.976 181.28,67.786 181.155,67.632 C181.061,67.515 181.03,67.372 181.057,67.198 C181.104,66.872 181.252,65.906 183.213,65.906 L183.213,65.906 Z M183.213,65.906" id="Shape" fill="#5B8F22"></path>
                <path d="M123.146,92.838 L121.011,90.758 L120.8,90.948 C119.962,91.698 118.845,92.161 117.882,92.161 C117.025,92.161 116.353,91.907 115.933,91.426 C115.603,91.041 115.433,90.504 115.433,89.86 C115.433,89.741 115.454,89.61 115.466,89.479 L123.782,89.479 L124.143,87.004 C124.198,86.661 124.223,86.33 124.223,86.008 C124.223,84.709 123.827,83.551 123.073,82.672 C122.139,81.596 120.757,81.004 119.171,81.004 C116.378,81.004 113.11,82.883 112.329,88.153 C111.97,90.597 112.317,92.465 113.374,93.685 C114.29,94.747 115.739,95.31 117.562,95.31 C119.58,95.31 121.437,94.532 122.925,93.056 L123.146,92.838 L123.146,92.838 Z M118.793,84.154 C119.459,84.154 119.996,84.363 120.354,84.758 C120.702,85.152 120.881,85.717 120.881,86.414 C120.881,86.49 120.871,86.572 120.867,86.648 L115.929,86.648 C116.324,85.117 117.379,84.154 118.793,84.154 L118.793,84.154 Z M118.793,84.154" id="Shape" fill="#5B8F22"></path>
                <path d="M133.785,81.162 C133.785,81.162 131.195,84.552 130.691,85.21 C130.349,84.476 128.796,81.162 128.796,81.162 L124.876,81.162 C124.876,81.162 128.247,87.638 128.429,87.974 C128.183,88.275 122.57,95.155 122.57,95.155 L126.584,95.155 C126.584,95.155 129.381,91.599 129.885,90.96 C130.235,91.675 131.944,95.155 131.944,95.155 L135.856,95.155 C135.856,95.155 132.344,88.392 132.168,88.051 C132.412,87.752 137.801,81.16 137.801,81.16 L133.785,81.162 L133.785,81.162 Z M133.785,81.162" id="Shape" fill="#5B8F22"></path>
                <path d="M141.58,91.896 C141.539,91.844 141.514,91.75 141.514,91.613 C141.514,91.537 141.522,91.453 141.537,91.353 C141.537,91.353 142.455,85.158 142.65,83.832 L144.603,83.832 L144.998,81.16 L143.047,81.16 C143.082,80.906 143.197,80.109 143.322,79.281 L140.011,79.281 C139.886,80.135 139.767,80.961 139.734,81.16 L138.386,81.16 L137.993,83.832 L139.341,83.832 C139.243,84.474 138.196,91.502 138.196,91.502 C138.163,91.738 138.145,91.969 138.145,92.19 C138.145,92.987 138.372,93.657 138.813,94.169 C139.368,94.811 140.209,95.151 141.254,95.151 L142.916,95.151 L143.383,92.005 L142.028,92.005 C141.871,92.006 141.662,91.988 141.58,91.896 L141.58,91.896 Z M141.58,91.896" id="Shape" fill="#5B8F22"></path>
                <path d="M160.883,81.004 C158.676,81.004 157.074,81.661 155.854,83.063 L155.655,83.299 L158.009,85.317 L158.2,85.063 C158.725,84.379 159.341,84.155 160.647,84.155 C161.751,84.155 162.393,84.305 162.672,84.626 C162.754,84.724 162.854,84.882 162.854,85.208 C162.854,85.298 162.846,85.397 162.827,85.519 C162.827,85.519 162.716,86.308 162.665,86.655 L159.206,86.655 C156.017,86.655 154.276,88.771 153.966,90.877 C153.929,91.114 153.911,91.348 153.911,91.575 C153.911,92.482 154.192,93.284 154.743,93.922 C155.526,94.836 156.786,95.318 158.384,95.318 C159.79,95.318 160.775,95.06 161.497,94.488 C161.479,94.613 161.401,95.161 161.401,95.161 L164.71,95.161 L166.105,85.771 C166.316,84.359 166.076,83.249 165.396,82.459 C164.551,81.478 163.074,81.004 160.883,81.004 L160.883,81.004 Z M162.146,90.103 C161.875,91.961 161.283,92.162 159.099,92.162 C158.238,92.162 157.624,91.978 157.32,91.63 C157.175,91.464 157.103,91.259 157.103,91.024 C157.103,90.962 157.109,90.897 157.121,90.832 C157.283,89.717 158.441,89.481 159.381,89.481 L162.242,89.481 C162.199,89.767 162.146,90.103 162.146,90.103 L162.146,90.103 Z M162.146,90.103" id="Shape" fill="#5B8F22"></path>
                <path d="M153.18,81.004 C151.912,81.004 150.776,81.422 149.83,82.178 C149.879,81.846 149.978,81.161 149.978,81.161 L146.666,81.161 L144.592,95.153 L147.904,95.153 L149.133,86.841 C149.412,84.974 150.776,84.308 151.86,84.308 C152.335,84.308 152.665,84.412 153.051,84.687 L155.805,81.933 C155.012,81.312 154.154,81.004 153.18,81.004 L153.18,81.004 Z M153.18,81.004" id="Shape" fill="#5B8F22"></path>
                <path d="M172.566,73.543 C172.521,73.487 172.496,73.397 172.496,73.26 C172.496,73.184 172.508,73.102 172.521,73.002 C172.521,73.002 173.437,66.805 173.636,65.481 L175.587,65.481 L175.982,62.809 L174.033,62.809 C174.066,62.555 174.187,61.756 174.312,60.93 L171,60.93 C170.871,61.784 170.75,62.61 170.723,62.809 L169.371,62.809 L168.978,65.481 L170.324,65.481 C170.228,66.122 169.181,73.147 169.181,73.147 C169.148,73.389 169.132,73.618 169.132,73.838 C169.132,74.635 169.357,75.305 169.798,75.817 C170.353,76.46 171.196,76.801 172.239,76.801 L173.905,76.801 L174.368,73.655 L173.014,73.655 C172.854,73.656 172.645,73.633 172.566,73.543 L172.566,73.543 Z M172.566,73.543" id="Shape" fill="#5B8F22"></path>
            </g>
        </g>
    </g>
</svg>
