<?xml version="1.0" encoding="UTF-8" standalone="no"?>
<!-- Created with Inkscape (http://www.inkscape.org/) -->

<svg
   xmlns:dc="http://purl.org/dc/elements/1.1/"
   xmlns:cc="http://creativecommons.org/ns#"
   xmlns:rdf="http://www.w3.org/1999/02/22-rdf-syntax-ns#"
   xmlns:svg="http://www.w3.org/2000/svg"
   xmlns="http://www.w3.org/2000/svg"
   version="1.1"
   width="274.63751"
   height="58.412498"
   id="svg2"
   xml:space="preserve"><metadata
     id="metadata8"><rdf:RDF><cc:Work
         rdf:about=""><dc:format>image/svg+xml</dc:format><dc:type
           rdf:resource="http://purl.org/dc/dcmitype/StillImage" /><dc:title></dc:title></cc:Work></rdf:RDF></metadata><defs
     id="defs6" /><g
     transform="matrix(1.25,0,0,-1.25,0,58.4125)"
     id="g10"><g
       transform="scale(0.1,0.1)"
       id="g12"><path
         d="m 615.824,342.762 -3.172,-1.942 c -15.347,-9.367 -32.039,-14.39 -47.199,-14.386 -32.445,0.125 -53.82,19.351 -53.91,47.343 0.039,27.375 22.359,47.637 53.09,47.715 15.648,-0.012 29.832,-4.062 46.676,-13.289 l 3.093,-1.703 0,24.992 -1.32,0.52 c -19,7.504 -33.711,10.843 -48.242,10.836 -22.469,0.007 -41.957,-7.414 -55.848,-20.008 -13.887,-12.586 -22.133,-30.371 -22.121,-50.781 0.008,-14.223 5.883,-30.899 18.441,-44.121 12.536,-13.231 31.836,-22.879 58.309,-22.864 0.031,0 0.063,0 0.09,0 21.957,0 37.187,4.895 50.945,11.668 l 1.168,0.57 0,25.45 z m 39.364,124.511 0,-186.48 -198.168,0 0,186.48 198.168,0"
         id="path14"
         style="fill:#696566;fill-opacity:1;fill-rule:nonzero;stroke:none" /><path
         d="m 379.766,343.633 c 0.058,16.949 -11.231,29.82 -29.282,34.769 4.868,2.493 8.727,5.532 11.547,9.25 3.781,4.973 5.582,11.078 5.563,18.188 0.019,8.734 -3.418,17.64 -10.801,24.305 -7.379,6.66 -18.59,10.988 -33.879,10.984 l -42.246,0 0,-134.309 49.574,0 c 17.688,0 30.106,4.785 38.098,11.891 8,7.082 11.433,16.367 11.426,24.922 z m 47.082,123.64 0,-186.48 -198.164,0 0,186.48 198.164,0"
         id="path16"
         style="fill:#696566;fill-opacity:1;fill-rule:nonzero;stroke:none" /><path
         d="m 355.105,346.312 c -0.015,-4.437 -1.378,-8.894 -5.355,-12.382 -3.957,-3.485 -10.812,-6.133 -22.168,-6.133 l -22.859,0 0,36.656 21.839,0 c 10.192,0 17.418,-2.066 21.946,-5.293 4.515,-3.246 6.558,-7.512 6.597,-12.848"
         id="path18"
         style="fill:#696566;fill-opacity:1;fill-rule:nonzero;stroke:none" /><path
         d="m 336.586,390.211 c 4.258,3.07 6.309,7.394 6.34,13.91 -0.02,4.461 -1.293,8.289 -4.508,11.141 -3.223,2.859 -8.695,4.89 -17.523,4.89 l -16.172,0 0,-34.734 11.101,0 c 9.602,-0.008 16.485,1.711 20.762,4.793"
         id="path20"
         style="fill:#696566;fill-opacity:1;fill-rule:nonzero;stroke:none" /><path
         d="m 151.438,343.633 c 0.054,16.949 -11.239,29.82 -29.286,34.769 4.868,2.493 8.715,5.532 11.543,9.25 3.782,4.973 5.578,11.078 5.567,18.188 0.011,8.734 -3.422,17.64 -10.793,24.305 -7.383,6.66 -18.598,10.988 -33.887,10.984 l -42.2461,0 0,-134.309 49.5431,0 c 0.019,0 0.031,0 0.031,0 17.695,0 30.102,4.785 38.094,11.891 7.992,7.082 11.441,16.367 11.434,24.922 z m 47.082,123.64 0,-186.48 -198.164531,0 0,186.48 198.164531,0"
         id="path22"
         style="fill:#696566;fill-opacity:1;fill-rule:nonzero;stroke:none" /><path
         d="m 108.254,390.211 c 4.246,3.07 6.312,7.394 6.348,13.91 -0.012,4.461 -1.301,8.289 -4.52,11.141 -3.227,2.859 -8.695,4.89 -17.5273,4.89 l -16.1563,0 0,-34.734 11.0899,0 c 9.6015,-0.008 16.4887,1.711 20.7657,4.793"
         id="path24"
         style="fill:#696566;fill-opacity:1;fill-rule:nonzero;stroke:none" /><path
         d="m 120.176,359.16 c -4.531,3.227 -11.762,5.293 -21.9377,5.293 l -21.8399,0 0,-36.656 22.8555,0 c 11.3511,0 18.1951,2.648 22.1721,6.133 3.961,3.488 5.332,7.945 5.351,12.382 -0.043,5.336 -2.082,9.602 -6.601,12.848"
         id="path26"
         style="fill:#696566;fill-opacity:1;fill-rule:nonzero;stroke:none" /><path
         d="m 1028.41,36.7188 26.3,0 c 25.74,0 34.79,6.8359 34.79,23.0078 0,13.6914 -12.05,21.0742 -28.5,21.0742 l -32.59,0 0,-44.082 z m 0,78.3282 24.38,0 c 16.98,0 23.84,10.402 23.84,20.265 0,9.59 -6.86,19.727 -23.84,19.727 l -24.38,0 0,-39.992 z m 34.24,74.23 c 44.09,0 61.91,-26.023 61.91,-46.836 0,-15.617 -9.87,-29.589 -25.48,-37.257 26.57,-6.8442 39.71,-26.0238 39.71,-47.9379 0,-21.3672 -11.5,-54.76563 -66.01,-54.76563 l -90.928,0 0,186.79653 80.798,0"
         id="path28"
         style="fill:#696566;fill-opacity:1;fill-rule:nonzero;stroke:none" /><path
         d="m 1224.75,112.578 24.65,0 c 12.87,0 25.47,5.488 25.47,21.367 0,13.965 -9.04,21.094 -26.56,21.094 l -23.56,0 0,-42.461 z m 36.97,76.699 c 38.34,0 61.08,-25.754 61.08,-53.691 0,-20.539 -10.69,-35.879 -32.04,-45.7422 19.17,-9.5899 24.92,-32.5977 51.22,-87.36333 l -51.22,0 c -19.99,39.98043 -27.4,75.85933 -52.59,75.85933 l -13.42,0 0,-75.85933 -46.56,0 0,186.79653 83.53,0"
         id="path30"
         style="fill:#696566;fill-opacity:1;fill-rule:nonzero;stroke:none" /><path
         d="m 1376.7,2.48047 46.5703,0 0,186.797 -46.5703,0 0,-186.797 z"
         id="path32"
         style="fill:#696566;fill-opacity:1;fill-rule:nonzero;stroke:none" /><path
         d="m 1604.56,140.793 c -27.11,12.047 -43.29,16.707 -59.16,16.707 -16.71,0 -27.4,-6.027 -27.4,-15.332 0,-28.223 95.05,-20.273 95.05,-85.4688 C 1613.05,20.8203 1582.92,0 1541.28,0 c -32.58,0 -48.75,8.49609 -67.37,18.0859 l 0,40.2539 c 26.84,-17.7929 43.27,-24.1015 63.81,-24.1015 17.81,0 27.4,6.3086 27.4,17.2656 0,30.6641 -95.05,19.4336 -95.05,86.5431 0,32.324 27.94,53.691 71.21,53.691 20.82,0 39.72,-4.386 63.28,-14.511 l 0,-36.434"
         id="path34"
         style="fill:#696566;fill-opacity:1;fill-rule:nonzero;stroke:none" /><path
         d="m 1804.18,155.039 -67.65,0 0,-152.55853 -46.56,0 0,152.55853 -67.66,0 0,34.238 181.87,0 0,-34.238"
         id="path36"
         style="fill:#696566;fill-opacity:1;fill-rule:nonzero;stroke:none" /><path
         d="m 1910.41,152.84 c -35.61,0 -59.16,-22.723 -59.16,-56.9611 0,-34.2383 23.55,-56.9727 59.16,-56.9727 35.33,0 58.88,22.7344 58.88,56.9727 0,34.2381 -23.55,56.9611 -58.88,56.9611 z m 0,-152.84 c -68.47,0 -107.1,48.2227 -107.1,95.8789 0,45.1831 36.7,95.8591 107.1,95.8591 70.39,0 106.82,-50.945 106.82,-95.8591 C 2017.23,47.9492 1977.5,0 1910.41,0"
         id="path38"
         style="fill:#696566;fill-opacity:1;fill-rule:nonzero;stroke:none" /><path
         d="m 2197.11,2.48047 -142.43,0 0,186.79653 46.57,0 0,-152.5582 95.86,0 0,-34.23833"
         id="path40"
         style="fill:#696566;fill-opacity:1;fill-rule:nonzero;stroke:none" /><path
         d="m 45.7812,111.605 24.2305,0 c 12.6485,0 25.0352,5.375 25.0352,20.997 0,13.742 -8.8867,20.726 -26.1172,20.726 l -23.1485,0 0,-41.723 z m 36.3477,75.399 c 37.6991,0 60.0511,-25.324 60.0511,-52.785 0,-20.196 -10.504,-35.2698 -31.504,-44.9651 18.851,-9.418 24.496,-32.0469 50.347,-85.90624 l -50.347,0 C 91.0195,42.6562 83.7461,77.9492 58.9688,77.9492 l -13.1876,0 0,-74.60154 -45.7812,0 0,183.65634 82.1289,0"
         id="path42"
         style="fill:#696566;fill-opacity:1;fill-rule:nonzero;stroke:none" /><path
         d="m 266.605,143.109 -26.925,-71.3512 56.55,0 -29.625,71.3512 z m 107.45,-139.76134 -49.285,0 -15.082,36.35934 -82.129,0 -13.731,-36.35934 -48.461,0 74.047,183.65634 53.047,0 81.594,-183.65634"
         id="path44"
         style="fill:#696566;fill-opacity:1;fill-rule:nonzero;stroke:none" /><path
         d="m 443.555,37.0039 29.879,0 c 46.074,0 59.785,31.25 59.785,58.1719 0,31.5042 -16.946,58.1522 -60.293,58.1522 l -29.371,0 0,-116.3241 z m 35.269,150.0001 c 67.067,0 101.528,-41.731 101.528,-92.0978 0,-52.7695 -33.399,-91.55854 -106.622,-91.55854 l -75.941,0 0,183.65634 81.035,0"
         id="path46"
         style="fill:#696566;fill-opacity:1;fill-rule:nonzero;stroke:none" /><path
         d="m 618.367,3.34766 45.7773,0 0,183.656 -45.7773,0 0,-183.656 z"
         id="path48"
         style="fill:#696566;fill-opacity:1;fill-rule:nonzero;stroke:none" /><path
         d="m 806.594,151.195 c -35,0 -58.18,-22.351 -58.18,-56.0192 0,-33.6524 23.18,-56.0039 58.18,-56.0039 34.73,0 57.886,22.3515 57.886,56.0039 0,33.6682 -23.156,56.0192 -57.886,56.0192 z m 0,-150.269219 c -67.336,0 -105.289,47.394519 -105.289,94.250019 0,44.4332 36.09,94.2462 105.289,94.2462 69.191,0 105.023,-50.098 105.023,-94.2462 0,-47.1289 -39.055,-94.250019 -105.023,-94.250019"
         id="path50"
         style="fill:#696566;fill-opacity:1;fill-rule:nonzero;stroke:none" /></g></g></svg>
