<?xml version="1.0" encoding="UTF-8" standalone="no"?>
<!-- Created with Inkscape (http://www.inkscape.org/) -->

<svg
   xmlns:dc="http://purl.org/dc/elements/1.1/"
   xmlns:cc="http://creativecommons.org/ns#"
   xmlns:rdf="http://www.w3.org/1999/02/22-rdf-syntax-ns#"
   xmlns:svg="http://www.w3.org/2000/svg"
   xmlns="http://www.w3.org/2000/svg"
   version="1.1"
   width="228.3875"
   height="23.3125"
   id="svg3269"
   xml:space="preserve"><metadata
     id="metadata3275"><rdf:RDF><cc:Work
         rdf:about=""><dc:format>image/svg+xml</dc:format><dc:type
           rdf:resource="http://purl.org/dc/dcmitype/StillImage" /><dc:title></dc:title></cc:Work></rdf:RDF></metadata><defs
     id="defs3273" /><g
     transform="matrix(1.25,0,0,-1.25,0,23.3125)"
     id="g3277"><g
       transform="scale(0.1,0.1)"
       id="g3279"><path
         d="m 615.469,61.9727 -3.172,-1.9454 c -15.348,-9.3632 -32.039,-14.3867 -47.199,-14.3828 -32.446,0.1211 -53.825,19.3516 -53.91,47.3438 0.039,27.3707 22.359,47.6367 53.089,47.7147 15.649,-0.015 29.828,-4.062 46.676,-13.293 l 3.094,-1.703 0,24.996 -1.32,0.516 c -19,7.508 -33.711,10.847 -48.247,10.836 -22.464,0.011 -41.957,-7.41 -55.843,-20.004 -13.887,-12.59 -22.133,-30.371 -22.121,-50.7815 0.007,-14.2226 5.882,-30.8984 18.441,-44.1211 12.531,-13.2343 31.836,-22.8828 58.309,-22.8672 0.031,0 0.058,0 0.089,0 21.957,0 37.188,4.8985 50.946,11.6719 l 1.168,0.5703 0,25.4493 z m 39.359,124.5113 0,-186.484 -198.164,0 0,186.484 198.164,0"
         id="path3281"
         style="fill:#696566;fill-opacity:1;fill-rule:nonzero;stroke:none" /><path
         d="m 379.41,62.8398 c 0.059,16.9493 -11.23,29.8204 -29.281,34.7735 4.867,2.4887 8.723,5.5317 11.547,9.2457 3.777,4.977 5.582,11.079 5.558,18.188 0.024,8.738 -3.418,17.644 -10.796,24.308 -7.379,6.661 -18.59,10.985 -33.879,10.981 l -42.247,0 0,-134.3048 49.575,0 c 17.687,0 30.101,4.7852 38.097,11.8907 7.996,7.0781 11.434,16.3633 11.426,24.9179 z m 47.078,123.6442 0,-186.484 -198.164,0 0,186.484 198.164,0"
         id="path3283"
         style="fill:#696566;fill-opacity:1;fill-rule:nonzero;stroke:none" /><path
         d="m 354.75,65.5234 c -0.02,-4.4375 -1.383,-8.8984 -5.355,-12.3828 -3.961,-3.4883 -10.817,-6.1328 -22.168,-6.1328 l -22.864,0 0,36.6524 21.844,0 c 10.188,0 17.414,-2.0625 21.941,-5.293 4.52,-3.2461 6.563,-7.5078 6.602,-12.8438"
         id="path3285"
         style="fill:#696566;fill-opacity:1;fill-rule:nonzero;stroke:none" /><path
         d="m 336.23,109.418 c 4.258,3.07 6.309,7.398 6.336,13.91 -0.015,4.465 -1.293,8.293 -4.504,11.145 -3.222,2.855 -8.699,4.886 -17.527,4.886 l -16.172,0 0,-34.73 11.106,0 c 9.597,-0.012 16.484,1.707 20.761,4.789"
         id="path3287"
         style="fill:#696566;fill-opacity:1;fill-rule:nonzero;stroke:none" /><path
         d="m 151.078,62.8398 c 0.059,16.9493 -11.234,29.8204 -29.281,34.7735 4.867,2.4887 8.715,5.5317 11.543,9.2457 3.777,4.977 5.574,11.079 5.566,18.188 0.008,8.738 -3.422,17.644 -10.797,24.308 -7.382,6.661 -18.593,10.985 -33.8863,10.981 l -42.2461,0 0,-134.3048 49.5464,0 c 0.02,0 0.032,0 0.032,0 17.691,0 30.101,4.7852 38.093,11.8907 7.993,7.0781 11.442,16.3633 11.43,24.9179 z M 198.164,186.484 198.164,0 0,0 l 0,186.484 198.164,0"
         id="path3289"
         style="fill:#696566;fill-opacity:1;fill-rule:nonzero;stroke:none" /><path
         d="m 107.895,109.418 c 4.25,3.07 6.316,7.398 6.347,13.91 -0.008,4.465 -1.297,8.293 -4.515,11.145 -3.227,2.855 -8.696,4.886 -17.5278,4.886 l -16.1601,0 0,-34.73 11.0937,0 c 9.6016,-0.012 16.4842,1.707 20.7622,4.789"
         id="path3291"
         style="fill:#696566;fill-opacity:1;fill-rule:nonzero;stroke:none" /><path
         d="m 119.82,78.3672 c -4.531,3.2305 -11.761,5.293 -21.9372,5.293 l -21.8437,0 0,-36.6524 22.8593,0 c 11.3516,0 18.1956,2.6445 22.1716,6.1328 3.957,3.4844 5.332,7.9453 5.352,12.3828 -0.043,5.336 -2.082,9.5977 -6.602,12.8438"
         id="path3293"
         style="fill:#696566;fill-opacity:1;fill-rule:nonzero;stroke:none" /><path
         d="m 835.938,121.598 c -17.11,8.254 -33.633,12.386 -50.153,12.386 -36.387,0 -49.176,-22.422 -49.176,-42.2848 0,-23.8008 18.688,-39.5351 46.422,-39.5351 8.262,0 12.395,0.789 22.227,4.7187 l 0,15.7383 -19.473,0 0,24.5859 52.906,0 0,-54.8789 C 828.66,31.9023 803.883,24.2344 782.246,24.2344 c -46.812,0 -80.055,28.5195 -80.055,68.6445 0,40.9101 33.043,69.0351 80.84,69.0351 20.059,0 39.531,-4.523 52.907,-11.012 l 0,-29.304"
         id="path3295"
         style="fill:#696566;fill-opacity:1;fill-rule:nonzero;stroke:none" /><path
         d="m 999.828,160.145 0,-76.1177 c 0,-44.4531 -30.285,-59.7929 -67.062,-59.7929 -38.95,0 -67.075,18.0937 -67.075,59.5976 l 0,76.313 33.434,0 0,-77.0981 c 0,-19.2774 13.965,-30.8828 33.242,-30.8828 17.699,0 34.028,9.2461 34.028,33.2421 l 0,74.7388 33.433,0"
         id="path3297"
         style="fill:#696566;fill-opacity:1;fill-rule:nonzero;stroke:none" /><path
         d="m 1128.13,26.0039 -98.94,0 0,134.1411 97.55,0 0,-24.583 -64.12,0 0,-28.132 61.17,0 0,-24.5823 -61.17,0 0,-32.2579 65.51,0 0,-24.5859"
         id="path3299"
         style="fill:#696566;fill-opacity:1;fill-rule:nonzero;stroke:none" /><path
         d="m 1187.95,105.074 17.69,0 c 9.26,0 18.31,3.934 18.31,15.34 0,10.031 -6.49,15.148 -19.09,15.148 l -16.91,0 0,-30.488 z m 26.56,55.071 c 27.52,0 43.85,-18.489 43.85,-38.547 0,-14.754 -7.68,-25.7699 -23.01,-32.848 13.77,-6.8867 17.89,-23.4102 36.78,-62.7461 l -36.78,0 c -14.35,28.7188 -19.67,54.4844 -37.77,54.4844 l -9.63,0 0,-54.4844 -33.44,0 0,134.1411 60,0"
         id="path3301"
         style="fill:#696566;fill-opacity:1;fill-rule:nonzero;stroke:none" /><path
         d="m 1428.14,26.0039 -28.12,0 -74.16,85.9531 0,-85.9531 -33.44,0 0,134.1411 30.69,0 71.6,-82.0161 0,82.0161 33.43,0 0,-134.1411"
         id="path3303"
         style="fill:#696566;fill-opacity:1;fill-rule:nonzero;stroke:none" /><path
         d="m 1551.52,125.332 c -19.47,8.652 -31.07,11.996 -42.48,11.996 -12.01,0 -19.66,-4.324 -19.66,-11.016 0,-20.257 68.24,-14.55 68.24,-61.3628 0,-25.7656 -21.64,-40.7148 -51.53,-40.7148 -23.41,0 -35.02,6.0976 -48.39,12.9804 l 0,28.9141 c 19.27,-12.7851 31.07,-17.3047 45.84,-17.3047 12.77,0 19.66,4.5196 19.66,12.3867 0,22.0313 -68.26,13.9649 -68.26,62.1521 0,23.207 20.06,38.551 51.15,38.551 14.95,0 28.52,-3.144 45.43,-10.426 l 0,-26.156"
         id="path3305"
         style="fill:#696566;fill-opacity:1;fill-rule:nonzero;stroke:none" /><path
         d="m 1680,26.0039 -98.95,0 0,134.1411 97.56,0 0,-24.583 -64.12,0 0,-28.132 61.17,0 0,-24.5823 -61.17,0 0,-32.2579 65.51,0 0,-24.5859"
         id="path3307"
         style="fill:#696566;fill-opacity:1;fill-rule:nonzero;stroke:none" /><path
         d="m 1740.8,88.75 -52.91,71.395 40.53,0 29.1,-42.09 29.32,42.09 40.31,0 -52.91,-71.395 0,-62.7461 -33.44,0 0,62.7461"
         id="path3309"
         style="fill:#696566;fill-opacity:1;fill-rule:nonzero;stroke:none" /></g></g></svg>
