<?xml version="1.0" encoding="UTF-8" standalone="no"?>
<svg width="181px" height="115px" viewBox="0 0 181 115" version="1.1" xmlns="http://www.w3.org/2000/svg" xmlns:xlink="http://www.w3.org/1999/xlink" xmlns:sketch="http://www.bohemiancoding.com/sketch/ns">
    <title>Slice 1</title>
    <description>Created with Sketch (http://www.bohemiancoding.com/sketch)</description>
    <defs></defs>
    <g id="Page 1" fill="#D8D8D8" fill-rule="evenodd">
        <g id="Layer_1" fill="#000000">
            <g id="Group">
                <path d="M58.375,111.695 C88.9351257,111.695 113.709,86.9211257 113.709,56.3610001 C113.709,25.8008744 88.9351257,1.02700043 58.375,1.02700043 C27.8148743,1.02700043 3.04100037,25.8008744 3.04100037,56.3610001 C3.04100037,86.9211257 27.8148743,111.695 58.375,111.695 Z M58.375,111.695" id="Oval" fill="#FFFFFF"></path>
                <path d="M107.795,30.906 C111.854,38.756 114.16,47.66 114.16,57.107 C114.16,57.517 114.139,57.919 114.129,58.326 C110.287,52.443 103.121,41.474 101.983,39.734 C102.627,38.755 105.107,34.988 107.795,30.906 L107.795,30.906 Z M94.845,50.652 C92.4,54.394 87.402,62.05 87.402,62.05 L73.064,62.05 C73.064,62.05 86.13,42.131 87.705,39.732 C86.143,37.361 73.859,18.693 73.859,18.693 L88.142,18.693 C88.142,18.693 92.542,25.381 94.845,28.883 C96.478,26.4 99.158,22.321 100.584,20.154 C90.115,7.829 74.517,0 57.082,0 C25.557,0 0,25.568 0,57.107 C0,88.65 25.557,114.218 57.082,114.218 C86.943,114.218 111.43,91.279 113.936,62.05 L102.291,62.05 C102.289,62.051 97.289,54.395 94.845,50.652 L94.845,50.652 Z M67.584,95.398 L47.481,95.398 L47.481,40.755 L38.884,40.755 L50.749,18.736 L67.583,18.736 L67.584,95.398 L67.584,95.398 Z M149.984,30.333 L147.546,37.123 C146.946,36.82 146.058,36.465 145.222,36.465 C142.96,36.465 141.171,39.086 140.992,43.735 C140.935,45.464 140.935,47.428 140.935,49.155 L140.935,61.964 L133.011,61.964 L133.011,30.334 L139.863,30.334 L139.863,34.322 C141.353,31.045 143.91,29.499 146.531,29.499 C148.199,29.497 149.215,29.975 149.984,30.333 L149.984,30.333 Z M172.627,30.333 L172.627,33.783 C169.768,30.929 166.49,29.499 162.678,29.499 C154.459,29.499 147.789,36.287 147.789,46.174 C147.789,55.887 154.814,62.795 162.855,62.795 C166.843,62.795 169.826,61.365 172.626,58.625 L172.626,61.961 L180.55,61.961 L180.55,30.334 L172.627,30.333 L172.627,30.333 Z M164.289,55.527 C159.344,55.527 155.768,51.538 155.768,46.117 C155.768,40.937 159.045,36.765 164.289,36.765 C169.291,36.765 172.98,40.517 172.98,46.056 C172.982,51.834 169.172,55.527 164.289,55.527 L164.289,55.527 Z M125.584,30.334 L130.287,30.334 L130.287,37.123 L125.584,37.123 L125.584,61.963 L117.662,61.963 L117.662,37.123 L113.611,37.123 L113.611,30.334 L117.662,30.334 L117.662,18.654 L125.584,18.654 L125.584,30.334 L125.584,30.334 Z M125.584,30.334" id="Shape"></path>
            </g>
        </g>
    </g>
</svg>