<?xml version="1.0" encoding="UTF-8" standalone="no"?>
<!-- Created with Inkscape (http://www.inkscape.org/) -->

<svg
   xmlns:dc="http://purl.org/dc/elements/1.1/"
   xmlns:cc="http://creativecommons.org/ns#"
   xmlns:rdf="http://www.w3.org/1999/02/22-rdf-syntax-ns#"
   xmlns:svg="http://www.w3.org/2000/svg"
   xmlns="http://www.w3.org/2000/svg"
   version="1.1"
   width="386.25"
   height="23.3125"
   id="svg3907"
   xml:space="preserve"><metadata
     id="metadata3913"><rdf:RDF><cc:Work
         rdf:about=""><dc:format>image/svg+xml</dc:format><dc:type
           rdf:resource="http://purl.org/dc/dcmitype/StillImage" /><dc:title></dc:title></cc:Work></rdf:RDF></metadata><defs
     id="defs3911" /><g
     transform="matrix(1.25,0,0,-1.25,0,23.3125)"
     id="g3915"><g
       transform="scale(0.1,0.1)"
       id="g3917"><path
         d="m 615.469,61.9727 -3.172,-1.9454 c -15.348,-9.3632 -32.039,-14.3867 -47.199,-14.3828 -32.446,0.1211 -53.825,19.3516 -53.91,47.3438 0.039,27.3707 22.359,47.6367 53.089,47.7147 15.649,-0.015 29.828,-4.062 46.676,-13.293 l 3.094,-1.703 0,24.996 -1.32,0.516 c -19,7.508 -33.711,10.847 -48.247,10.836 -22.464,0.011 -41.957,-7.41 -55.843,-20.004 -13.887,-12.59 -22.133,-30.371 -22.121,-50.7815 0.007,-14.2226 5.882,-30.8984 18.441,-44.1211 12.531,-13.2343 31.836,-22.8828 58.309,-22.8672 0.031,0 0.058,0 0.089,0 21.957,0 37.188,4.8985 50.946,11.6719 l 1.168,0.5703 0,25.4493 z m 39.359,124.5113 0,-186.484 -198.164,0 0,186.484 198.164,0"
         id="path3919"
         style="fill:#696566;fill-opacity:1;fill-rule:nonzero;stroke:none" /><path
         d="m 379.41,62.8398 c 0.059,16.9493 -11.23,29.8204 -29.281,34.7735 4.867,2.4887 8.723,5.5317 11.547,9.2457 3.777,4.977 5.582,11.079 5.558,18.188 0.024,8.738 -3.418,17.644 -10.796,24.308 -7.379,6.661 -18.59,10.985 -33.879,10.981 l -42.247,0 0,-134.3048 49.575,0 c 17.687,0 30.101,4.7852 38.097,11.8907 7.996,7.0781 11.434,16.3633 11.426,24.9179 z m 47.078,123.6442 0,-186.484 -198.164,0 0,186.484 198.164,0"
         id="path3921"
         style="fill:#696566;fill-opacity:1;fill-rule:nonzero;stroke:none" /><path
         d="m 354.75,65.5234 c -0.02,-4.4375 -1.383,-8.8984 -5.355,-12.3828 -3.961,-3.4883 -10.817,-6.1328 -22.168,-6.1328 l -22.864,0 0,36.6524 21.844,0 c 10.188,0 17.414,-2.0625 21.941,-5.293 4.52,-3.2461 6.563,-7.5078 6.602,-12.8438"
         id="path3923"
         style="fill:#696566;fill-opacity:1;fill-rule:nonzero;stroke:none" /><path
         d="m 336.23,109.418 c 4.258,3.07 6.309,7.398 6.336,13.91 -0.015,4.465 -1.293,8.293 -4.504,11.145 -3.222,2.855 -8.699,4.886 -17.527,4.886 l -16.172,0 0,-34.73 11.106,0 c 9.597,-0.012 16.484,1.707 20.761,4.789"
         id="path3925"
         style="fill:#696566;fill-opacity:1;fill-rule:nonzero;stroke:none" /><path
         d="m 151.078,62.8398 c 0.059,16.9493 -11.234,29.8204 -29.281,34.7735 4.867,2.4887 8.715,5.5317 11.543,9.2457 3.777,4.977 5.574,11.079 5.566,18.188 0.008,8.738 -3.422,17.644 -10.797,24.308 -7.382,6.661 -18.593,10.985 -33.8863,10.981 l -42.2461,0 0,-134.3048 49.5464,0 c 0.02,0 0.032,0 0.032,0 17.691,0 30.101,4.7852 38.093,11.8907 7.993,7.0781 11.442,16.3633 11.43,24.9179 z M 198.164,186.484 198.164,0 0,0 l 0,186.484 198.164,0"
         id="path3927"
         style="fill:#696566;fill-opacity:1;fill-rule:nonzero;stroke:none" /><path
         d="m 107.895,109.418 c 4.25,3.07 6.316,7.398 6.347,13.91 -0.008,4.465 -1.297,8.293 -4.515,11.145 -3.227,2.855 -8.696,4.886 -17.5278,4.886 l -16.1601,0 0,-34.73 11.0937,0 c 9.6016,-0.012 16.4842,1.707 20.7622,4.789"
         id="path3929"
         style="fill:#696566;fill-opacity:1;fill-rule:nonzero;stroke:none" /><path
         d="m 119.82,78.3672 c -4.531,3.2305 -11.761,5.293 -21.9372,5.293 l -21.8437,0 0,-36.6524 22.8593,0 c 11.3516,0 18.1956,2.6445 22.1716,6.1328 3.957,3.4844 5.332,7.9453 5.352,12.3828 -0.043,5.336 -2.082,9.5977 -6.602,12.8438"
         id="path3931"
         style="fill:#696566;fill-opacity:1;fill-rule:nonzero;stroke:none" /><path
         d="m 1561.07,26.0039 -28.13,0 -74.15,85.9531 0,-85.9531 -33.44,0 0,134.1411 30.69,0 71.6,-82.0161 0,82.0161 33.43,0 0,-134.1411"
         id="path3933"
         style="fill:#696566;fill-opacity:1;fill-rule:nonzero;stroke:none" /><path
         d="m 1663.98,133.984 c -25.56,0 -42.48,-16.324 -42.48,-40.9098 0,-24.582 16.92,-40.9101 42.48,-40.9101 25.38,0 42.29,16.3281 42.29,40.9101 0,24.5858 -16.91,40.9098 -42.29,40.9098 z m 0,-109.7496 c -49.17,0 -76.9,34.6172 -76.9,68.8398 0,32.4528 26.36,68.8398 76.9,68.8398 50.55,0 76.71,-36.582 76.71,-68.8398 0,-34.418 -28.52,-68.8398 -76.71,-68.8398"
         id="path3935"
         style="fill:#696566;fill-opacity:1;fill-rule:nonzero;stroke:none" /><path
         d="m 1800.16,105.074 17.69,0 c 9.25,0 18.29,3.934 18.29,15.34 0,10.031 -6.48,15.148 -19.07,15.148 l -16.91,0 0,-30.488 z m 26.55,55.071 c 27.53,0 43.86,-18.489 43.86,-38.547 0,-14.754 -7.68,-25.7699 -23.02,-32.848 13.77,-6.8867 17.9,-23.4102 36.79,-62.7461 l -36.79,0 c -14.36,28.7188 -19.67,54.4844 -37.76,54.4844 l -9.63,0 0,-54.4844 -33.44,0 0,134.1411 59.99,0"
         id="path3937"
         style="fill:#696566;fill-opacity:1;fill-rule:nonzero;stroke:none" /><path
         d="m 2016.35,135.562 -48.58,0 0,-109.5581 -33.43,0 0,109.5581 -48.59,0 0,24.583 130.6,0 0,-24.583"
         id="path3939"
         style="fill:#696566;fill-opacity:1;fill-rule:nonzero;stroke:none" /><path
         d="m 2166.46,26.0039 -33.42,0 0,54.2891 -66.88,0 0,-54.2891 -33.44,0 0,134.1411 33.44,0 0,-53.891 66.88,0 0,53.891 33.42,0 0,-134.1411"
         id="path3941"
         style="fill:#696566;fill-opacity:1;fill-rule:nonzero;stroke:none" /><path
         d="m 2257.58,128.086 -19.67,-52.1251 41.31,0 -21.64,52.1251 z m 78.47,-102.0821 -35.98,0 -11.02,26.5547 -59.99,0 -10.03,-26.5547 -35.41,0 54.09,134.1411 38.75,0 59.59,-134.1411"
         id="path3943"
         style="fill:#696566;fill-opacity:1;fill-rule:nonzero;stroke:none" /><path
         d="m 2466.51,160.145 29.12,0 0,-134.1411 -33.44,0 0,83.7891 -36.19,-42.0899 -5.12,0 -36.18,42.0899 0,-83.7891 -33.44,0 0,134.1411 29.11,0 43.07,-49.758 43.07,49.758"
         id="path3945"
         style="fill:#696566;fill-opacity:1;fill-rule:nonzero;stroke:none" /><path
         d="m 2567.67,104.48 15.53,0 c 15.34,0 20.85,5.508 20.85,15.54 0,11.41 -6.49,15.542 -24.59,15.542 l -11.79,0 0,-31.082 z m 26.34,55.665 c 30.69,0 44.46,-21.438 44.46,-39.731 0,-18.883 -13.37,-40.5156 -44.25,-40.5156 l -26.55,0 0,-53.8945 -33.44,0 0,134.1411 59.78,0"
         id="path3947"
         style="fill:#696566;fill-opacity:1;fill-rule:nonzero;stroke:none" /><path
         d="m 2776.18,135.562 -48.57,0 0,-109.5581 -33.44,0 0,109.5581 -48.58,0 0,24.583 130.59,0 0,-24.583"
         id="path3949"
         style="fill:#696566;fill-opacity:1;fill-rule:nonzero;stroke:none" /><path
         d="m 2852.55,133.984 c -25.58,0 -42.49,-16.324 -42.49,-40.9098 0,-24.582 16.91,-40.9101 42.49,-40.9101 25.37,0 42.28,16.3281 42.28,40.9101 0,24.5858 -16.91,40.9098 -42.28,40.9098 z m 0,-109.7496 c -49.18,0 -76.91,34.6172 -76.91,68.8398 0,32.4528 26.35,68.8398 76.91,68.8398 50.55,0 76.7,-36.582 76.7,-68.8398 0,-34.418 -28.52,-68.8398 -76.7,-68.8398"
         id="path3951"
         style="fill:#696566;fill-opacity:1;fill-rule:nonzero;stroke:none" /><path
         d="m 3090,26.0039 -28.12,0 -74.16,85.9531 0,-85.9531 -33.43,0 0,134.1411 30.68,0 71.59,-82.0161 0,82.0161 33.44,0 0,-134.1411"
         id="path3953"
         style="fill:#696566;fill-opacity:1;fill-rule:nonzero;stroke:none" /><path
         d="m 741.148,104.879 17.743,0 c 9.269,0 18.332,3.933 18.332,15.371 0,10.059 -6.504,15.176 -19.121,15.176 l -16.954,0 0,-30.547 z m 26.622,55.195 c 27.597,0 43.964,-18.535 43.964,-38.644 0,-14.785 -7.695,-25.8206 -23.066,-32.9183 13.797,-6.9062 17.93,-23.4687 36.855,-62.9023 l -36.855,0 c -14.395,28.789 -19.727,54.6211 -37.863,54.6211 l -9.657,0 0,-54.6211 -33.515,0 0,134.4646 60.137,0"
         id="path3955"
         style="fill:#696566;fill-opacity:1;fill-rule:nonzero;stroke:none" /><path
         d="m 902.828,127.945 -19.707,-52.2458 41.406,0 -21.699,52.2458 z M 981.5,25.6094 l -36.074,0 -11.055,26.6211 -60.129,0 -10.047,-26.6211 -35.488,0 54.219,134.4646 38.828,0 L 981.5,25.6094"
         id="path3957"
         style="fill:#696566;fill-opacity:1;fill-rule:nonzero;stroke:none" /><path
         d="m 1032.39,50.2578 21.87,0 c 33.73,0 43.77,22.8711 43.77,42.5899 0,23.0663 -12.4,42.5783 -44.14,42.5783 l -21.5,0 0,-85.1682 z m 25.81,109.8162 c 49.1,0 74.34,-30.547 74.34,-67.4217 0,-38.6445 -24.45,-67.0429 -78.07,-67.0429 l -55.587,0 0,134.4646 59.317,0"
         id="path3959"
         style="fill:#696566;fill-opacity:1;fill-rule:nonzero;stroke:none" /><path
         d="m 1160.37,25.6094 33.5195,0 0,134.465 -33.5195,0 0,-134.465 z"
         id="path3961"
         style="fill:#696566;fill-opacity:1;fill-rule:nonzero;stroke:none" /><path
         d="m 1298.18,133.863 c -25.62,0 -42.59,-16.367 -42.59,-41.0153 0,-24.6407 16.97,-41.0079 42.59,-41.0079 25.43,0 42.39,16.3672 42.39,41.0079 0,24.6483 -16.96,41.0153 -42.39,41.0153 z m 0,-110.0192 c -49.29,0 -77.09,34.6953 -77.09,69.0039 0,32.5273 26.43,69.0043 77.09,69.0043 50.67,0 76.9,-36.68 76.9,-69.0043 0,-34.5039 -28.6,-69.0039 -76.9,-69.0039"
         id="path3963"
         style="fill:#696566;fill-opacity:1;fill-rule:nonzero;stroke:none" /></g></g></svg>
