<?xml version="1.0" encoding="UTF-8" standalone="no"?>
<svg  viewBox="0 0 115 115" version="1.1" xmlns="http://www.w3.org/2000/svg" xmlns:xlink="http://www.w3.org/1999/xlink" xmlns:sketch="http://www.bohemiancoding.com/sketch/ns">
    <title>Slice 1</title>
    <description>Created with Sketch (http://www.bohemiancoding.com/sketch)</description>
    <defs></defs>
    <g id="Page 1" fill="#D8D8D8" fill-rule="evenodd">
        <g id="Slice 1" fill="#000000">
            <g id="Page 1" fill="#D8D8D8">
                <g id="Layer_1" fill="#000000">
                    <g id="Group">
                        <path d="M56.9279938,105.889999 C83.4625149,105.889999 104.972992,84.3795223 104.972992,57.8450012 C104.972992,31.3104801 83.4625149,9.80000305 56.9279938,9.80000305 C30.3934727,9.80000305 8.88299561,31.3104801 8.88299561,57.8450012 C8.88299561,84.3795223 30.3934727,105.889999 56.9279938,105.889999 L56.9279938,105.889999 Z M56.9279938,105.889999" id="Oval" fill="#FFFFFF"></path>
                        <g>
                            <path d="M57.123,0.174 C25.576,0.174 0,25.762 0,57.326 C0,88.892 25.576,114.478 57.123,114.478 C88.674,114.478 114.244,88.892 114.244,57.326 C114.244,25.763 88.674,0.174 57.123,0.174 L57.123,0.174 L57.123,0.174 Z M88.123,80.035 L76.498,80.029 L76.531,94.75 L55.719,94.775 L55.69,81.539 C55.69,81.539 55.669,80.072 53.924,80.01 L24.156,80.033 L24.161,67.818 C24.169,66.039 25.046,63.418 26.111,61.992 L57.94,19.314 C59.002,17.889 61.327,16.722 63.106,16.725 L76.54,16.735 L76.511,62.905 L88.132,62.876 L88.123,80.035 L88.123,80.035 Z M88.123,80.035" id="Shape" fill="#002C5F"></path>
                            <path d="M57.473,50 C52.955,50.093 49.356,53.842 49.452,58.359 C49.557,62.279 52.491,65.505 56.319,66.187 L59.26,66.712 C58.502,71.925 56.553,75.821 52.172,79.042 C58.082,76.425 62.606,70.767 64.697,64.774 C66.793,58.779 65.605,49.834 57.473,50 L57.473,50 L57.473,50 Z M57.473,50" id="Shape" fill="#002C5F"></path>
                        </g>
                    </g>
                </g>
            </g>
        </g>
    </g>
</svg>
