<?xml version="1.0" encoding="UTF-8" standalone="no"?>
<!-- Created with Inkscape (http://www.inkscape.org/) -->

<svg
   xmlns:dc="http://purl.org/dc/elements/1.1/"
   xmlns:cc="http://creativecommons.org/ns#"
   xmlns:rdf="http://www.w3.org/1999/02/22-rdf-syntax-ns#"
   xmlns:svg="http://www.w3.org/2000/svg"
   xmlns="http://www.w3.org/2000/svg"
   version="1.1"
   width="377.51251"
   height="58.275002"
   id="svg3677"
   xml:space="preserve"><metadata
     id="metadata3683"><rdf:RDF><cc:Work
         rdf:about=""><dc:format>image/svg+xml</dc:format><dc:type
           rdf:resource="http://purl.org/dc/dcmitype/StillImage" /><dc:title></dc:title></cc:Work></rdf:RDF></metadata><defs
     id="defs3681" /><g
     transform="matrix(1.25,0,0,-1.25,0,58.275)"
     id="g3685"><g
       transform="scale(0.1,0.1)"
       id="g3687"><path
         d="m 615.824,341.66 -3.172,-1.941 c -15.347,-9.367 -32.039,-14.391 -47.199,-14.387 -32.445,0.121 -53.82,19.352 -53.91,47.344 0.039,27.375 22.359,47.636 53.09,47.715 15.648,-0.016 29.832,-4.063 46.676,-13.289 l 3.093,-1.707 0,24.996 -1.32,0.519 c -19,7.504 -33.711,10.844 -48.242,10.832 -22.469,0.012 -41.957,-7.41 -55.848,-20.004 -13.887,-12.586 -22.133,-30.371 -22.121,-50.781 0.008,-14.223 5.883,-30.898 18.441,-44.121 12.536,-13.231 31.836,-22.883 58.309,-22.867 0.031,0 0.063,0 0.09,0 21.957,0 37.187,4.898 50.945,11.672 l 1.168,0.57 0,25.449 z m 39.364,124.512 0,-186.484 -198.168,0 0,186.484 198.168,0"
         id="path3689"
         style="fill:#696566;fill-opacity:1;fill-rule:nonzero;stroke:none" /><path
         d="m 379.766,342.527 c 0.058,16.95 -11.231,29.821 -29.282,34.774 4.868,2.488 8.727,5.531 11.547,9.246 3.781,4.976 5.582,11.082 5.563,18.191 0.019,8.735 -3.418,17.641 -10.801,24.305 -7.379,6.66 -18.59,10.988 -33.879,10.98 l -42.246,0 0,-134.304 49.574,0 c 17.688,0 30.106,4.785 38.098,11.89 8,7.079 11.433,16.368 11.426,24.918 z m 47.082,123.645 0,-186.484 -198.164,0 0,186.484 198.164,0"
         id="path3691"
         style="fill:#696566;fill-opacity:1;fill-rule:nonzero;stroke:none" /><path
         d="m 355.105,345.211 c -0.015,-4.438 -1.378,-8.899 -5.355,-12.383 -3.957,-3.488 -10.812,-6.133 -22.168,-6.133 l -22.859,0 0,36.657 21.839,0 c 10.192,0 17.418,-2.067 21.946,-5.293 4.515,-3.25 6.558,-7.512 6.597,-12.848"
         id="path3693"
         style="fill:#696566;fill-opacity:1;fill-rule:nonzero;stroke:none" /><path
         d="m 336.586,389.105 c 4.258,3.075 6.309,7.399 6.34,13.915 -0.02,4.46 -1.293,8.289 -4.508,11.14 -3.223,2.856 -8.695,4.887 -17.523,4.887 l -16.172,0 0,-34.731 11.101,0 c 9.602,-0.007 16.485,1.711 20.762,4.789"
         id="path3695"
         style="fill:#696566;fill-opacity:1;fill-rule:nonzero;stroke:none" /><path
         d="m 151.438,342.527 c 0.054,16.95 -11.239,29.821 -29.286,34.774 4.868,2.488 8.715,5.531 11.543,9.246 3.782,4.976 5.578,11.082 5.567,18.191 0.011,8.735 -3.422,17.641 -10.793,24.305 -7.383,6.66 -18.598,10.988 -33.887,10.98 l -42.2461,0 0,-134.304 49.5431,0 c 0.019,0 0.031,0 0.031,0 17.695,0 30.102,4.785 38.094,11.89 7.992,7.079 11.441,16.368 11.434,24.918 z m 47.082,123.645 0,-186.484 -198.164531,0 0,186.484 198.164531,0"
         id="path3697"
         style="fill:#696566;fill-opacity:1;fill-rule:nonzero;stroke:none" /><path
         d="m 108.254,389.105 c 4.246,3.075 6.312,7.399 6.348,13.915 -0.012,4.46 -1.301,8.289 -4.52,11.14 -3.227,2.856 -8.695,4.887 -17.5273,4.887 l -16.1563,0 0,-34.731 11.0899,0 c 9.6015,-0.007 16.4887,1.711 20.7657,4.789"
         id="path3699"
         style="fill:#696566;fill-opacity:1;fill-rule:nonzero;stroke:none" /><path
         d="m 120.176,358.059 c -4.531,3.226 -11.762,5.293 -21.9377,5.293 l -21.8399,0 0,-36.657 22.8555,0 c 11.3511,0 18.1951,2.645 22.1721,6.133 3.961,3.484 5.332,7.945 5.351,12.383 -0.043,5.336 -2.082,9.598 -6.601,12.848"
         id="path3701"
         style="fill:#696566;fill-opacity:1;fill-rule:nonzero;stroke:none" /><path
         d="m 1141.67,189.379 40.54,0 0,-186.91806 -46.56,0 0,116.80106 -50.39,-58.7347 -7.13,0 -50.39,58.7347 0,-116.80106 -46.556,0 0,186.91806 40.536,0 59.97,-69.297 59.98,69.297"
         id="path3703"
         style="fill:#696566;fill-opacity:1;fill-rule:nonzero;stroke:none" /><path
         d="m 1314.17,144.742 -27.4,-72.7108 57.52,0 -30.12,72.7108 z m 109.27,-142.28106 -50.11,0 -15.34,36.99216 -83.54,0 -13.98,-36.99216 -49.29,0 75.32,186.91806 53.95,0 82.99,-186.91806"
         id="path3705"
         style="fill:#696566;fill-opacity:1;fill-rule:nonzero;stroke:none" /><path
         d="m 1637.57,2.46094 -39.17,0 -103.26,119.82006 0,-119.82006 -46.56,0 0,186.91806 42.73,0 99.7,-114.3204 0,114.3204 46.56,0 0,-186.91806"
         id="path3707"
         style="fill:#696566;fill-opacity:1;fill-rule:nonzero;stroke:none" /><path
         d="M 1858.55,18.6328 C 1832.52,5.21484 1812.81,0 1785.14,0 c -72.58,0 -108.73,47.1094 -108.73,95.4336 0,49.8554 40.8,96.4184 112.3,96.4184 26.02,0 49.3,-5.481 67.64,-16.438 l 0,-41.629 c -20.53,11.504 -41.35,19.168 -64.35,19.168 -39.73,0 -67.66,-23.555 -67.66,-56.6991 0,-33.5195 27.66,-57.3672 66.56,-57.3672 24.38,0 40.8,7.6758 67.65,20.5469 l 0,-40.8008"
         id="path3709"
         style="fill:#696566;fill-opacity:1;fill-rule:nonzero;stroke:none" /><path
         d="m 2084.73,2.46094 -46.56,0 0,75.60546 -93.13,0 0,-75.60546 -46.56,0 0,186.91806 46.56,0 0,-75.039 93.13,0 0,75.039 46.56,0 0,-186.91806"
         id="path3711"
         style="fill:#696566;fill-opacity:1;fill-rule:nonzero;stroke:none" /><path
         d="m 2275.84,2.46094 -137.77,0 0,186.91806 135.86,0 0,-34.238 -89.3,0 0,-39.161 85.2,0 0,-34.3589 -85.2,0 0,-44.9219 91.21,0 0,-34.23826"
         id="path3713"
         style="fill:#696566;fill-opacity:1;fill-rule:nonzero;stroke:none" /><path
         d="m 2446.98,140.902 c -27.11,12.051 -43.26,16.711 -59.16,16.711 -16.7,0 -27.39,-6.027 -27.39,-15.343 0,-28.204 95.04,-20.262 95.04,-85.5708 C 2455.47,20.8203 2425.36,0 2383.72,0 c -32.6,0 -48.75,8.49609 -67.39,18.0859 l 0,40.2539 c 26.86,-17.7929 43.28,-24.1015 63.83,-24.1015 17.79,0 27.38,6.3086 27.38,17.2656 0,30.6641 -95.04,19.4336 -95.04,86.6641 0,32.316 27.93,53.684 71.22,53.684 20.82,0 39.7,-4.387 63.26,-14.524 l 0,-36.426"
         id="path3715"
         style="fill:#696566;fill-opacity:1;fill-rule:nonzero;stroke:none" /><path
         d="m 2649.34,155.141 -67.64,0 0,-152.68006 -46.56,0 0,152.68006 -67.65,0 0,34.238 181.85,0 0,-34.238"
         id="path3717"
         style="fill:#696566;fill-opacity:1;fill-rule:nonzero;stroke:none" /><path
         d="m 2808.7,2.46094 -137.76,0 0,186.91806 135.84,0 0,-34.238 -89.28,0 0,-39.161 85.18,0 0,-34.3589 -85.18,0 0,-44.9219 91.2,0 0,-34.23826"
         id="path3719"
         style="fill:#696566;fill-opacity:1;fill-rule:nonzero;stroke:none" /><path
         d="m 2902.88,112.699 24.64,0 c 12.88,0 25.47,5.469 25.47,21.36 0,13.972 -9.04,21.082 -26.56,21.082 l -23.55,0 0,-42.442 z m 36.97,76.68 c 38.34,0 61.07,-25.742 61.07,-53.672 0,-20.547 -10.68,-35.8867 -32.03,-45.7422 19.16,-9.7109 24.92,-32.7187 51.21,-87.50386 l -51.21,0 c -20,39.99996 -27.4,75.87886 -52.6,75.87886 l -13.41,0 0,-75.87886 -46.57,0 0,186.91806 83.54,0"
         id="path3721"
         style="fill:#696566;fill-opacity:1;fill-rule:nonzero;stroke:none" /><path
         d="m 45.7812,110.723 24.2305,0 c 12.6485,0 25.0352,5.375 25.0352,20.996 0,13.742 -8.8867,20.726 -26.1172,20.726 l -23.1485,0 0,-41.722 z m 36.3477,75.394 c 37.6991,0 60.0511,-25.32 60.0511,-52.781 0,-20.195 -10.504,-35.2696 -31.504,-44.9688 18.851,-9.4219 24.496,-32.0508 50.347,-85.90626 l -50.347,0 C 91.0195,41.7695 83.7461,77.0625 58.9688,77.0625 l -13.1876,0 0,-74.60156 -45.7812,0 0,183.65606 82.1289,0"
         id="path3723"
         style="fill:#696566;fill-opacity:1;fill-rule:nonzero;stroke:none" /><path
         d="m 266.605,142.227 -26.925,-71.3598 56.55,0 -29.625,71.3598 z m 107.45,-139.76606 -49.285,0 -15.082,36.35546 -82.129,0 -13.731,-36.35546 -48.461,0 74.047,183.65606 53.047,0 81.594,-183.65606"
         id="path3725"
         style="fill:#696566;fill-opacity:1;fill-rule:nonzero;stroke:none" /><path
         d="m 443.555,36.1133 29.879,0 c 46.074,0 59.785,31.25 59.785,58.1797 0,31.504 -16.946,58.152 -60.293,58.152 l -29.371,0 0,-116.3317 z m 35.269,150.0037 c 67.067,0 101.528,-41.726 101.528,-92.0936 C 580.352,41.25 546.953,2.46094 473.73,2.46094 l -75.941,0 0,183.65606 81.035,0"
         id="path3727"
         style="fill:#696566;fill-opacity:1;fill-rule:nonzero;stroke:none" /><path
         d="m 618.367,2.46094 45.7773,0 0,183.656 -45.7773,0 0,-183.656 z"
         id="path3729"
         style="fill:#696566;fill-opacity:1;fill-rule:nonzero;stroke:none" /><path
         d="m 806.594,150.312 c -35,0 -58.18,-22.351 -58.18,-56.019 0,-33.6563 23.18,-56.0118 58.18,-56.0118 34.73,0 57.886,22.3555 57.886,56.0118 0,33.668 -23.156,56.019 -57.886,56.019 z m 0,-150.2729375 c -67.336,0 -105.289,47.3945375 -105.289,94.2539375 0,44.434 36.09,94.246 105.289,94.246 69.191,0 105.023,-50.098 105.023,-94.246 0,-47.1368 -39.055,-94.2539375 -105.023,-94.2539375"
         id="path3731"
         style="fill:#696566;fill-opacity:1;fill-rule:nonzero;stroke:none" /></g></g></svg>
