<?xml version="1.0" encoding="UTF-8" standalone="no"?>
<!-- Created with Inkscape (http://www.inkscape.org/) -->

<svg
   xmlns:dc="http://purl.org/dc/elements/1.1/"
   xmlns:cc="http://creativecommons.org/ns#"
   xmlns:rdf="http://www.w3.org/1999/02/22-rdf-syntax-ns#"
   xmlns:svg="http://www.w3.org/2000/svg"
   xmlns="http://www.w3.org/2000/svg"
   version="1.1"
   width="295.54999"
   height="58.299999"
   id="svg3053"
   xml:space="preserve"><metadata
     id="metadata3059"><rdf:RDF><cc:Work
         rdf:about=""><dc:format>image/svg+xml</dc:format><dc:type
           rdf:resource="http://purl.org/dc/dcmitype/StillImage" /><dc:title></dc:title></cc:Work></rdf:RDF></metadata><defs
     id="defs3057" /><g
     transform="matrix(1.25,0,0,-1.25,0,58.3)"
     id="g3061"><g
       transform="scale(0.1,0.1)"
       id="g3063"><path
         d="m 615.824,341.875 -3.172,-1.941 c -15.347,-9.368 -32.039,-14.391 -47.199,-14.387 -32.445,0.121 -53.82,19.351 -53.91,47.344 0.039,27.375 22.359,47.636 53.09,47.714 15.648,-0.015 29.832,-4.062 46.676,-13.289 l 3.093,-1.707 0,24.996 -1.32,0.52 c -19,7.504 -33.711,10.844 -48.242,10.832 -22.469,0.012 -41.957,-7.41 -55.848,-20.004 -13.887,-12.586 -22.133,-30.371 -22.121,-50.781 0.008,-14.223 5.883,-30.899 18.441,-44.121 12.536,-13.231 31.836,-22.879 58.309,-22.867 0.031,0 0.063,0 0.09,0 21.957,0 37.187,4.898 50.945,11.671 l 1.168,0.571 0,25.449 z m 39.364,124.512 0,-186.485 -198.168,0 0,186.485 198.168,0"
         id="path3065"
         style="fill:#696566;fill-opacity:1;fill-rule:nonzero;stroke:none" /><path
         d="m 379.766,342.742 c 0.058,16.949 -11.231,29.82 -29.282,34.774 4.868,2.488 8.727,5.531 11.547,9.246 3.781,4.976 5.582,11.082 5.563,18.191 0.019,8.735 -3.418,17.641 -10.801,24.305 -7.379,6.66 -18.59,10.988 -33.879,10.98 l -42.246,0 0,-134.304 49.574,0 c 17.688,0 30.106,4.785 38.098,11.89 8,7.078 11.433,16.367 11.426,24.918 z m 47.082,123.645 0,-186.485 -198.164,0 0,186.485 198.164,0"
         id="path3067"
         style="fill:#696566;fill-opacity:1;fill-rule:nonzero;stroke:none" /><path
         d="m 355.105,345.426 c -0.015,-4.438 -1.378,-8.899 -5.355,-12.383 -3.957,-3.488 -10.812,-6.133 -22.168,-6.133 l -22.859,0 0,36.656 21.839,0 c 10.192,0 17.418,-2.066 21.946,-5.293 4.515,-3.25 6.558,-7.511 6.597,-12.847"
         id="path3069"
         style="fill:#696566;fill-opacity:1;fill-rule:nonzero;stroke:none" /><path
         d="m 336.586,389.32 c 4.258,3.075 6.309,7.399 6.34,13.914 -0.02,4.461 -1.293,8.289 -4.508,11.141 -3.223,2.855 -8.695,4.887 -17.523,4.887 l -16.172,0 0,-34.731 11.101,0 c 9.602,-0.008 16.485,1.711 20.762,4.789"
         id="path3071"
         style="fill:#696566;fill-opacity:1;fill-rule:nonzero;stroke:none" /><path
         d="m 151.438,342.742 c 0.054,16.949 -11.239,29.82 -29.286,34.774 4.868,2.488 8.715,5.531 11.543,9.246 3.782,4.976 5.578,11.082 5.567,18.191 0.011,8.735 -3.422,17.641 -10.793,24.305 -7.383,6.66 -18.598,10.988 -33.887,10.98 l -42.2461,0 0,-134.304 49.5431,0 c 0.019,0 0.031,0 0.031,0 17.695,0 30.102,4.785 38.094,11.89 7.992,7.078 11.441,16.367 11.434,24.918 z m 47.082,123.645 0,-186.485 -198.164531,0 0,186.485 198.164531,0"
         id="path3073"
         style="fill:#696566;fill-opacity:1;fill-rule:nonzero;stroke:none" /><path
         d="m 108.254,389.32 c 4.246,3.075 6.312,7.399 6.348,13.914 -0.012,4.461 -1.301,8.289 -4.52,11.141 -3.227,2.855 -8.695,4.887 -17.5273,4.887 l -16.1563,0 0,-34.731 11.0899,0 c 9.6015,-0.008 16.4887,1.711 20.7657,4.789"
         id="path3075"
         style="fill:#696566;fill-opacity:1;fill-rule:nonzero;stroke:none" /><path
         d="m 120.176,358.273 c -4.531,3.227 -11.762,5.293 -21.9377,5.293 l -21.8399,0 0,-36.656 22.8555,0 c 11.3511,0 18.1951,2.645 22.1721,6.133 3.961,3.484 5.332,7.945 5.351,12.383 -0.043,5.336 -2.082,9.597 -6.601,12.847"
         id="path3077"
         style="fill:#696566;fill-opacity:1;fill-rule:nonzero;stroke:none" /><path
         d="M 1163.42,18.6328 C 1137.41,5.21484 1117.68,0 1090.01,0 1017.45,0 981.289,47.1094 981.289,95.332 c 0,49.844 40.811,96.406 112.291,96.406 26.02,0 49.3,-5.476 67.66,-16.433 l 0,-41.633 c -20.55,11.504 -41.36,19.172 -64.37,19.172 -39.73,0 -67.65,-23.559 -67.65,-56.6917 0,-33.4179 27.65,-57.2656 66.56,-57.2656 24.37,0 40.81,7.6758 67.64,20.5469 l 0,-40.8008"
         id="path3079"
         style="fill:#696566;fill-opacity:1;fill-rule:nonzero;stroke:none" /><path
         d="m 1388.5,189.277 0,-105.9958 C 1388.5,21.3672 1346.33,0 1295.11,0 c -54.23,0 -93.4,25.1953 -93.4,83.0078 l 0,106.2692 46.57,0 0,-107.3708 c 0,-26.8476 19.44,-43.0195 46.28,-43.0195 24.64,0 47.38,12.8906 47.38,46.3086 l 0,104.0817 46.56,0"
         id="path3081"
         style="fill:#696566;fill-opacity:1;fill-rule:nonzero;stroke:none" /><path
         d="m 1596.33,189.277 40.53,0 0,-186.81606 -46.56,0 0,116.69906 -50.39,-58.6327 -7.13,0 -50.39,58.6327 0,-116.69906 -46.56,0 0,186.81606 40.54,0 59.98,-69.297 59.98,69.297"
         id="path3083"
         style="fill:#696566;fill-opacity:1;fill-rule:nonzero;stroke:none" /><path
         d="m 1733.48,36.6992 26.29,0 c 25.74,0 34.79,6.8555 34.79,23.0078 0,13.6914 -12.06,21.1055 -28.5,21.1055 l -32.58,0 0,-44.1133 z m 0,78.3518 24.38,0 c 16.97,0 23.82,10.41 23.82,20.261 0,9.59 -6.85,19.727 -23.82,19.727 l -24.38,0 0,-39.988 z m 34.24,74.226 c 44.08,0 61.89,-26.023 61.89,-46.836 0,-15.617 -9.86,-29.578 -25.46,-37.253 26.56,-6.8482 39.7,-26.0161 39.7,-47.9419 0,-21.3672 -11.5,-54.78516 -66.01,-54.78516 l -90.92,0 0,186.81606 80.8,0"
         id="path3085"
         style="fill:#696566;fill-opacity:1;fill-rule:nonzero;stroke:none" /><path
         d="m 1931.18,112.59 24.65,0 c 12.87,0 25.46,5.476 25.46,21.355 0,13.977 -9.04,21.094 -26.56,21.094 l -23.55,0 0,-42.449 z m 36.97,76.687 c 38.34,0 61.07,-25.75 61.07,-53.679 0,-20.547 -10.68,-35.891 -32.05,-45.7425 19.18,-9.5899 24.92,-32.6094 51.23,-87.39456 l -51.23,0 c -19.98,39.99996 -27.38,75.89066 -52.58,75.89066 l -13.41,0 0,-75.89066 -46.57,0 0,186.81606 83.54,0"
         id="path3087"
         style="fill:#696566;fill-opacity:1;fill-rule:nonzero;stroke:none" /><path
         d="m 2081.76,2.46094 46.5664,0 0,186.816 -46.5664,0 0,-186.816 z"
         id="path3089"
         style="fill:#696566;fill-opacity:1;fill-rule:nonzero;stroke:none" /><path
         d="m 2255.12,144.629 -27.4,-72.5978 57.52,0 -30.12,72.5978 z M 2364.4,2.46094 l -50.12,0 -15.35,36.99216 -83.53,0 -13.97,-36.99216 -49.3,0 75.32,186.81606 53.96,0 82.99,-186.81606"
         id="path3091"
         style="fill:#696566;fill-opacity:1;fill-rule:nonzero;stroke:none" /><path
         d="m 45.7812,110.719 24.2305,0 c 12.6485,0 25.0352,5.375 25.0352,20.996 0,13.738 -8.8867,20.726 -26.1172,20.726 l -23.1485,0 0,-41.722 z m 36.3477,75.394 c 37.6991,0 60.0511,-25.324 60.0511,-52.785 0,-20.191 -10.504,-35.2655 -31.504,-44.9647 18.851,-9.418 24.496,-32.043 50.347,-85.90236 l -50.347,0 C 91.0195,41.7695 83.7461,77.0625 58.9688,77.0625 l -13.1876,0 0,-74.60156 -45.7812,0 0,183.65206 82.1289,0"
         id="path3093"
         style="fill:#696566;fill-opacity:1;fill-rule:nonzero;stroke:none" /><path
         d="m 266.605,142.223 -26.925,-71.3558 56.55,0 -29.625,71.3558 z m 107.45,-139.76206 -49.285,0 -15.082,36.35936 -82.129,0 -13.731,-36.35936 -48.461,0 74.047,183.65206 53.047,0 81.594,-183.65206"
         id="path3095"
         style="fill:#696566;fill-opacity:1;fill-rule:nonzero;stroke:none" /><path
         d="m 443.555,36.1133 29.879,0 c 46.074,0 59.785,31.25 59.785,58.1719 0,31.5038 -16.946,58.1558 -60.293,58.1558 l -29.371,0 0,-116.3277 z m 35.269,149.9997 c 67.067,0 101.528,-41.726 101.528,-92.0935 C 580.352,41.25 546.953,2.46094 473.73,2.46094 l -75.941,0 0,183.65206 81.035,0"
         id="path3097"
         style="fill:#696566;fill-opacity:1;fill-rule:nonzero;stroke:none" /><path
         d="m 618.367,2.46094 45.7773,0 0,183.652 -45.7773,0 0,-183.652 z"
         id="path3099"
         style="fill:#696566;fill-opacity:1;fill-rule:nonzero;stroke:none" /><path
         d="m 806.594,150.309 c -35,0 -58.18,-22.356 -58.18,-56.0238 0,-33.6485 23.18,-56.004 58.18,-56.004 34.73,0 57.886,22.3555 57.886,56.004 0,33.6678 -23.156,56.0238 -57.886,56.0238 z m 0,-150.2699375 c -67.336,0 -105.289,47.3945375 -105.289,94.2461375 0,44.4378 36.09,94.2498 105.289,94.2498 69.191,0 105.023,-50.097 105.023,-94.2498 0,-47.129 -39.055,-94.2461375 -105.023,-94.2461375"
         id="path3101"
         style="fill:#696566;fill-opacity:1;fill-rule:nonzero;stroke:none" /></g></g></svg>
