<?xml version="1.0" encoding="UTF-8" standalone="no"?>
<!-- Created with Inkscape (http://www.inkscape.org/) -->

<svg
   xmlns:dc="http://purl.org/dc/elements/1.1/"
   xmlns:cc="http://creativecommons.org/ns#"
   xmlns:rdf="http://www.w3.org/1999/02/22-rdf-syntax-ns#"
   xmlns:svg="http://www.w3.org/2000/svg"
   xmlns="http://www.w3.org/2000/svg"
   version="1.1"
   width="189.625"
   height="23.3125"
   id="svg4513"
   xml:space="preserve"><metadata
     id="metadata4519"><rdf:RDF><cc:Work
         rdf:about=""><dc:format>image/svg+xml</dc:format><dc:type
           rdf:resource="http://purl.org/dc/dcmitype/StillImage" /><dc:title></dc:title></cc:Work></rdf:RDF></metadata><defs
     id="defs4517" /><g
     transform="matrix(1.25,0,0,-1.25,0,23.3125)"
     id="g4521"><g
       transform="scale(0.1,0.1)"
       id="g4523"><path
         d="m 615.469,61.9727 -3.172,-1.9454 c -15.348,-9.3632 -32.039,-14.3867 -47.199,-14.3828 -32.446,0.1211 -53.825,19.3516 -53.91,47.3438 0.039,27.3707 22.359,47.6367 53.089,47.7147 15.649,-0.015 29.828,-4.062 46.676,-13.293 l 3.094,-1.703 0,24.996 -1.32,0.516 c -19,7.508 -33.711,10.847 -48.247,10.836 -22.464,0.011 -41.957,-7.41 -55.843,-20.004 -13.887,-12.59 -22.133,-30.371 -22.121,-50.7815 0.007,-14.2226 5.882,-30.8984 18.441,-44.1211 12.531,-13.2343 31.836,-22.8828 58.309,-22.8672 0.031,0 0.058,0 0.089,0 21.957,0 37.188,4.8985 50.946,11.6719 l 1.168,0.5703 0,25.4493 z m 39.359,124.5113 0,-186.484 -198.164,0 0,186.484 198.164,0"
         id="path4525"
         style="fill:#3e464a;fill-opacity:1;fill-rule:nonzero;stroke:none" /><path
         d="m 379.41,62.8398 c 0.059,16.9493 -11.23,29.8204 -29.281,34.7735 4.867,2.4887 8.723,5.5317 11.547,9.2457 3.777,4.977 5.582,11.079 5.558,18.188 0.024,8.738 -3.418,17.644 -10.796,24.308 -7.379,6.661 -18.59,10.985 -33.879,10.981 l -42.247,0 0,-134.3048 49.575,0 c 17.687,0 30.101,4.7852 38.097,11.8907 7.996,7.0781 11.434,16.3633 11.426,24.9179 z m 47.078,123.6442 0,-186.484 -198.164,0 0,186.484 198.164,0"
         id="path4527"
         style="fill:#3e464a;fill-opacity:1;fill-rule:nonzero;stroke:none" /><path
         d="m 354.75,65.5234 c -0.02,-4.4375 -1.383,-8.8984 -5.355,-12.3828 -3.961,-3.4883 -10.817,-6.1328 -22.168,-6.1328 l -22.864,0 0,36.6524 21.844,0 c 10.188,0 17.414,-2.0625 21.941,-5.293 4.52,-3.2461 6.563,-7.5078 6.602,-12.8438"
         id="path4529"
         style="fill:#3e464a;fill-opacity:1;fill-rule:nonzero;stroke:none" /><path
         d="m 336.23,109.418 c 4.258,3.07 6.309,7.398 6.336,13.91 -0.015,4.465 -1.293,8.293 -4.504,11.145 -3.222,2.855 -8.699,4.886 -17.527,4.886 l -16.172,0 0,-34.73 11.106,0 c 9.597,-0.012 16.484,1.707 20.761,4.789"
         id="path4531"
         style="fill:#3e464a;fill-opacity:1;fill-rule:nonzero;stroke:none" /><path
         d="m 151.078,62.8398 c 0.059,16.9493 -11.234,29.8204 -29.281,34.7735 4.867,2.4887 8.715,5.5317 11.543,9.2457 3.777,4.977 5.574,11.079 5.566,18.188 0.008,8.738 -3.422,17.644 -10.797,24.308 -7.382,6.661 -18.593,10.985 -33.8863,10.981 l -42.2461,0 0,-134.3048 49.5464,0 c 0.02,0 0.032,0 0.032,0 17.691,0 30.101,4.7852 38.093,11.8907 7.993,7.0781 11.442,16.3633 11.43,24.9179 z M 198.164,186.484 198.164,0 0,0 l 0,186.484 198.164,0"
         id="path4533"
         style="fill:#3e464a;fill-opacity:1;fill-rule:nonzero;stroke:none" /><path
         d="m 107.895,109.418 c 4.25,3.07 6.316,7.398 6.347,13.91 -0.008,4.465 -1.297,8.293 -4.515,11.145 -3.227,2.855 -8.696,4.886 -17.5278,4.886 l -16.1601,0 0,-34.73 11.0937,0 c 9.6016,-0.012 16.4842,1.707 20.7622,4.789"
         id="path4535"
         style="fill:#3e464a;fill-opacity:1;fill-rule:nonzero;stroke:none" /><path
         d="m 119.82,78.3672 c -4.531,3.2305 -11.761,5.293 -21.9372,5.293 l -21.8437,0 0,-36.6524 22.8593,0 c 11.3516,0 18.1956,2.6445 22.1716,6.1328 3.957,3.4844 5.332,7.9453 5.352,12.3828 -0.043,5.336 -2.082,9.5977 -6.602,12.8438"
         id="path4537"
         style="fill:#3e464a;fill-opacity:1;fill-rule:nonzero;stroke:none" /><path
         d="m 798.227,125.332 c -19.473,8.652 -31.075,11.996 -42.485,11.996 -11.996,0 -19.668,-4.324 -19.668,-11.016 0,-20.257 68.25,-14.55 68.25,-61.3628 0,-25.7656 -21.633,-40.7148 -51.531,-40.7148 -23.402,0 -35.012,6.0976 -48.383,12.9804 l 0,28.9141 c 19.278,-12.7851 31.074,-17.3047 45.828,-17.3047 12.785,0 19.668,4.5196 19.668,12.3867 0,22.0313 -68.25,13.9649 -68.25,62.1521 0,23.207 20.063,38.551 51.137,38.551 14.949,0 28.519,-3.144 45.434,-10.426 l 0,-26.156"
         id="path4539"
         style="fill:#3e464a;fill-opacity:1;fill-rule:nonzero;stroke:none" /><path
         d="m 959.941,160.145 0,-76.1177 c 0,-44.4531 -30.293,-59.7929 -67.07,-59.7929 -38.945,0 -67.07,18.0937 -67.07,59.5976 l 0,76.313 33.437,0 0,-77.0981 c 0,-19.2774 13.961,-30.8828 33.239,-30.8828 17.699,0 34.027,9.2461 34.027,33.2421 l 0,74.7388 33.437,0"
         id="path4541"
         style="fill:#3e464a;fill-opacity:1;fill-rule:nonzero;stroke:none" /><path
         d="m 1079.97,125.332 c -19.47,8.652 -31.07,11.996 -42.48,11.996 -12,0 -19.67,-4.324 -19.67,-11.016 0,-20.257 68.24,-14.55 68.24,-61.3628 0,-25.7656 -21.63,-40.7148 -51.52,-40.7148 -23.41,0 -35.013,6.0976 -48.388,12.9804 l 0,28.9141 c 19.278,-12.7851 31.078,-17.3047 45.828,-17.3047 12.79,0 19.67,4.5196 19.67,12.3867 0,22.0313 -68.252,13.9649 -68.252,62.1521 0,23.207 20.062,38.551 51.142,38.551 14.94,0 28.52,-3.144 45.43,-10.426 l 0,-26.156"
         id="path4543"
         style="fill:#3e464a;fill-opacity:1;fill-rule:nonzero;stroke:none" /><path
         d="m 1206.57,125.332 c -19.47,8.652 -31.07,11.996 -42.48,11.996 -12,0 -19.67,-4.324 -19.67,-11.016 0,-20.257 68.25,-14.55 68.25,-61.3628 0,-25.7656 -21.63,-40.7148 -51.53,-40.7148 -23.41,0 -35.01,6.0976 -48.39,12.9804 l 0,28.9141 c 19.28,-12.7851 31.08,-17.3047 45.83,-17.3047 12.79,0 19.67,4.5196 19.67,12.3867 0,22.0313 -68.25,13.9649 -68.25,62.1521 0,23.207 20.06,38.551 51.14,38.551 14.94,0 28.52,-3.144 45.43,-10.426 l 0,-26.156"
         id="path4545"
         style="fill:#3e464a;fill-opacity:1;fill-rule:nonzero;stroke:none" /><path
         d="m 1337.61,26.0039 -98.94,0 0,134.1411 97.56,0 0,-24.583 -64.12,0 0,-28.132 61.17,0 0,-24.5823 -61.17,0 0,-32.2579 65.5,0 0,-24.5859"
         id="path4547"
         style="fill:#3e464a;fill-opacity:1;fill-rule:nonzero;stroke:none" /><path
         d="m 1458.81,95.4336 58.22,-69.4297 -43.27,0 -36.39,44.2539 -35.8,-44.2539 -42.67,0 56.83,69.4297 -53.69,64.7114 43.27,0 32.06,-39.536 31.47,39.536 42.49,0 -52.52,-64.7114"
         id="path4549"
         style="fill:#3e464a;fill-opacity:1;fill-rule:nonzero;stroke:none" /></g></g></svg>