<?xml version="1.0" encoding="UTF-8" standalone="no"?>
<svg width="115px" height="115px" viewBox="0 0 115 115" version="1.1" xmlns="http://www.w3.org/2000/svg" xmlns:xlink="http://www.w3.org/1999/xlink" xmlns:sketch="http://www.bohemiancoding.com/sketch/ns">
    <title>Slice 1</title>
    <description>Created with Sketch (http://www.bohemiancoding.com/sketch)</description>
    <defs></defs>
    <g id="Page 1" fill="#D8D8D8" fill-rule="evenodd">
        <g id="Layer_1" fill="#000000">
            <g id="Group">
                <path d="M58.8069992,104.693001 C85.5928109,104.693001 107.306999,82.9788125 107.306999,56.1930008 C107.306999,29.4071891 85.5928109,7.69300079 58.8069992,7.69300079 C32.0211875,7.69300079 10.3069992,29.4071891 10.3069992,56.1930008 C10.3069992,82.9788125 32.0211875,104.693001 58.8069992,104.693001 Z M58.8069992,104.693001" id="Oval" fill="#FFFFFF"></path>
                <g>
                    <path d="M57.123,0 C25.576,0 0,25.589 0,57.152 C0,88.718 25.575,114.3 57.123,114.3 C88.674,114.3 114.243,88.718 114.243,57.152 C114.243,25.589 88.672,0 57.123,0 L57.123,0 Z M57.123,0" id="Shape" fill="#FFFFFF"></path>
                    <path d="M57.123,0 C25.576,0 0,25.589 0,57.152 C0,88.718 25.575,114.3 57.123,114.3 C88.674,114.3 114.243,88.718 114.243,57.152 C114.243,25.589 88.672,0 57.123,0 L57.123,0 Z M44.693,19.01 C55.972,12.621 77.156,16.83 77.918,32.255 C78.586,45.841 61.801,55.009 51.707,60.547 C51.428,60.274 49.478,58.342 49.064,57.934 C58.123,51.09 68.252,38.868 63.775,26.729 C60.689,18.368 46.826,18.541 43.192,26.346 C46.663,25.143 51.604,24.964 54.267,27.966 C57.058,31.117 55.409,36.037 51.928,37.829 C46.5,40.629 36.953,38.238 36.504,31.168 C36.367,25.838 40.09,21.302 44.693,19.01 L44.693,19.01 Z M78.701,92.135 C68.209,100.231 47.914,101.811 37.049,93.899 C32.494,90.583 28.607,86.657 28.748,81.268 C29.141,66.932 53.135,73.02 47.369,83.793 C45.004,87.574 39.282,87.566 35.565,86.154 C42.005,95.511 59.428,95.283 66.786,87.082 C70.476,82.969 70.916,77.502 70.457,72.117 C69.907,65.658 66.791,61.596 62.869,56.878 C65.291,55.143 66.719,54.179 69.036,52.3 C86.018,56.414 95.393,79.264 78.701,92.135 L78.701,92.135 Z M84.84,42.888 C79.947,42.888 79.936,35.407 84.84,35.407 C89.643,35.406 89.627,42.888 84.84,42.888 L84.84,42.888 Z M84.84,30.222 C79.947,30.222 79.936,22.743 84.84,22.743 C89.643,22.742 89.627,30.222 84.84,30.222 L84.84,30.222 Z M84.84,30.222" id="Shape" fill="#CD202C"></path>
                </g>
            </g>
        </g>
    </g>
</svg>