<?xml version="1.0" encoding="UTF-8" standalone="no"?>
<!-- Created with Inkscape (http://www.inkscape.org/) -->

<svg
   xmlns:dc="http://purl.org/dc/elements/1.1/"
   xmlns:cc="http://creativecommons.org/ns#"
   xmlns:rdf="http://www.w3.org/1999/02/22-rdf-syntax-ns#"
   xmlns:svg="http://www.w3.org/2000/svg"
   xmlns="http://www.w3.org/2000/svg"
   version="1.1"
   width="143.1125"
   height="58.612499"
   id="svg4467"
   xml:space="preserve"><metadata
     id="metadata4473"><rdf:RDF><cc:Work
         rdf:about=""><dc:format>image/svg+xml</dc:format><dc:type
           rdf:resource="http://purl.org/dc/dcmitype/StillImage" /><dc:title></dc:title></cc:Work></rdf:RDF></metadata><defs
     id="defs4471"><clipPath
       id="clipPath4483"><path
         d="M 0,468.945 0,0 l 1144.95,0 0,468.945 -1144.95,0 z"
         id="path4485" /></clipPath></defs><g
     transform="matrix(1.25,0,0,-1.25,0,58.6125)"
     id="g4475"><g
       transform="scale(0.1,0.1)"
       id="g4477"><g
         id="g4479"><g
           clip-path="url(#clipPath4483)"
           id="g4481"><path
             d="m 619.359,344.434 -3.171,-1.946 c -15.348,-9.363 -32.04,-14.386 -47.2,-14.383 -32.445,0.122 -53.82,19.352 -53.91,47.344 0.039,27.371 22.36,47.637 53.09,47.715 15.648,-0.016 29.828,-4.062 46.676,-13.293 l 3.094,-1.703 0,24.996 -1.321,0.516 c -19,7.508 -33.711,10.847 -48.242,10.836 -22.469,0.011 -41.957,-7.411 -55.848,-20.004 -13.882,-12.59 -22.132,-30.371 -22.121,-50.782 0.008,-14.222 5.883,-30.898 18.442,-44.121 12.535,-13.23 31.836,-22.882 58.308,-22.867 0.032,0 0.063,0 0.09,0 21.957,0 37.188,4.899 50.945,11.672 l 1.168,0.57 0,25.45 z m 39.364,124.511 0,-186.484 -198.164,0 0,186.484 198.164,0"
             id="path4487"
             style="fill:#3e464a;fill-opacity:1;fill-rule:nonzero;stroke:none" /><path
             d="m 383.301,345.301 c 0.058,16.949 -11.231,29.82 -29.281,34.773 4.867,2.488 8.722,5.531 11.546,9.246 3.782,4.977 5.582,11.078 5.563,18.188 0.019,8.738 -3.418,17.644 -10.801,24.308 -7.379,6.661 -18.59,10.985 -33.879,10.981 l -42.246,0 0,-134.305 49.574,0 c 17.688,0 30.106,4.785 38.098,11.891 7.996,7.078 11.437,16.363 11.426,24.918 z m 47.082,123.644 0,-186.484 -198.164,0 0,186.484 198.164,0"
             id="path4489"
             style="fill:#3e464a;fill-opacity:1;fill-rule:nonzero;stroke:none" /><path
             d="m 358.645,347.984 c -0.024,-4.437 -1.383,-8.898 -5.36,-12.382 -3.961,-3.489 -10.812,-6.133 -22.168,-6.133 l -22.859,0 0,36.652 21.84,0 c 10.191,0 17.418,-2.062 21.945,-5.293 4.516,-3.246 6.562,-7.508 6.602,-12.844"
             id="path4491"
             style="fill:#3e464a;fill-opacity:1;fill-rule:nonzero;stroke:none" /><path
             d="m 340.121,391.879 c 4.258,3.07 6.309,7.398 6.34,13.91 -0.02,4.465 -1.293,8.293 -4.508,11.145 -3.223,2.855 -8.695,4.886 -17.523,4.886 l -16.172,0 0,-34.73 11.101,0 c 9.602,-0.012 16.485,1.707 20.762,4.789"
             id="path4493"
             style="fill:#3e464a;fill-opacity:1;fill-rule:nonzero;stroke:none" /><path
             d="m 154.973,345.301 c 0.054,16.949 -11.239,29.82 -29.285,34.773 4.871,2.488 8.714,5.531 11.542,9.246 3.782,4.977 5.579,11.078 5.567,18.188 0.012,8.738 -3.422,17.644 -10.793,24.308 -7.387,6.661 -18.598,10.985 -33.8907,10.981 l -42.2461,0 0,-134.305 49.5468,0 c 0.02,0 0.031,0 0.031,0 17.696,0 30.102,4.785 38.094,11.891 7.992,7.078 11.441,16.363 11.434,24.918 z m 47.082,123.644 0,-186.484 -198.16438,0 0,186.484 198.16438,0"
             id="path4495"
             style="fill:#3e464a;fill-opacity:1;fill-rule:nonzero;stroke:none" /><path
             d="m 111.785,391.879 c 4.25,3.07 6.317,7.398 6.352,13.91 -0.012,4.465 -1.301,8.293 -4.52,11.145 -3.226,2.855 -8.695,4.886 -17.5272,4.886 l -16.1601,0 0,-34.73 11.0976,0 c 9.5977,-0.012 16.4847,1.707 20.7577,4.789"
             id="path4497"
             style="fill:#3e464a;fill-opacity:1;fill-rule:nonzero;stroke:none" /><path
             d="m 123.711,360.828 c -4.531,3.231 -11.762,5.293 -21.938,5.293 l -21.8433,0 0,-36.652 22.8593,0 c 11.352,0 18.195,2.644 22.172,6.133 3.961,3.484 5.332,7.945 5.351,12.382 -0.042,5.336 -2.082,9.598 -6.601,12.844"
             id="path4499"
             style="fill:#3e464a;fill-opacity:1;fill-rule:nonzero;stroke:none" /><path
             d="m 134.48,140.785 c -27.113,12.051 -43.273,16.711 -59.1558,16.711 -16.7109,0 -27.3945,-6.027 -27.3945,-15.34 0,-28.211 95.0433,-20.265 95.0433,-85.4568 C 142.973,20.8203 112.848,0 71.2109,0 38.6172,0 22.4609,8.49609 3.83203,18.0859 l 0,40.2539 C 30.6797,40.5469 47.1094,34.2383 67.6523,34.2383 c 17.8008,0 27.3907,6.3086 27.3907,17.2656 C 95.043,82.168 0,70.9375 0,138.047 c 0,32.32 27.9414,53.687 71.2109,53.687 20.8203,0 39.7191,-4.386 63.2691,-14.519 l 0,-36.43"
             id="path4501"
             style="fill:#3e464a;fill-opacity:1;fill-rule:nonzero;stroke:none" /><path
             d="m 363.688,189.266 0,-105.9965 C 363.688,21.3672 321.504,0 270.289,0 216.055,0 176.891,25.2031 176.891,82.9961 l 0,106.2699 46.562,0 0,-107.3715 c 0,-26.8359 19.442,-43 46.281,-43 24.657,0 47.391,12.8828 47.391,46.2891 l 0,104.0824 46.563,0"
             id="path4503"
             style="fill:#3e464a;fill-opacity:1;fill-rule:nonzero;stroke:none" /><path
             d="m 450.449,112.578 24.653,0 c 12.871,0 25.468,5.477 25.468,21.363 0,13.969 -9.039,21.086 -26.566,21.086 l -23.555,0 0,-42.449 z m 36.977,76.688 c 38.344,0 61.082,-25.746 61.082,-53.68 0,-20.543 -10.688,-35.8829 -32.047,-45.7422 19.168,-9.5899 24.922,-32.5977 51.215,-87.37505 l -51.215,0 C 496.465,42.4609 489.066,78.3398 463.871,78.3398 l -13.422,0 0,-75.87105 -46.562,0 0,186.79725 83.539,0"
             id="path4505"
             style="fill:#3e464a;fill-opacity:1;fill-rule:nonzero;stroke:none" /><path
             d="m 644.895,112.578 24.652,0 c 12.871,0 25.469,5.477 25.469,21.363 0,13.969 -9.039,21.086 -26.571,21.086 l -23.55,0 0,-42.449 z m 36.976,76.688 c 38.344,0 61.078,-25.746 61.078,-53.68 0,-20.543 -10.683,-35.8829 -32.047,-45.7422 19.172,-9.5899 24.922,-32.5977 51.215,-87.37505 l -51.215,0 C 690.906,42.4609 683.512,78.3398 658.316,78.3398 l -13.421,0 0,-75.87105 -46.567,0 0,186.79725 83.543,0"
             id="path4507"
             style="fill:#3e464a;fill-opacity:1;fill-rule:nonzero;stroke:none" /><path
             d="m 930.812,2.46875 -137.769,0 0,186.79725 135.852,0 0,-34.239 -89.29,0 0,-39.164 85.18,0 0,-34.2419 -85.18,0 0,-44.9102 91.207,0 0,-34.24215"
             id="path4509"
             style="fill:#3e464a;fill-opacity:1;fill-rule:nonzero;stroke:none" /><path
             d="m 1024.71,89.8438 -73.679,99.4222 56.419,0 40.54,-58.614 40.8,58.614 56.16,0 -73.68,-99.4222 0,-87.37505 -46.56,0 0,87.37505"
             id="path4511"
             style="fill:#3e464a;fill-opacity:1;fill-rule:nonzero;stroke:none" /></g></g></g></g></svg>
