<?xml version="1.0" encoding="UTF-8" standalone="no"?>
<!-- Created with Inkscape (http://www.inkscape.org/) -->

<svg
   xmlns:dc="http://purl.org/dc/elements/1.1/"
   xmlns:cc="http://creativecommons.org/ns#"
   xmlns:rdf="http://www.w3.org/1999/02/22-rdf-syntax-ns#"
   xmlns:svg="http://www.w3.org/2000/svg"
   xmlns="http://www.w3.org/2000/svg"
   version="1.1"
   width="443.125"
   height="58.287498"
   id="svg4645"
   xml:space="preserve"><metadata
     id="metadata4651"><rdf:RDF><cc:Work
         rdf:about=""><dc:format>image/svg+xml</dc:format><dc:type
           rdf:resource="http://purl.org/dc/dcmitype/StillImage" /><dc:title></dc:title></cc:Work></rdf:RDF></metadata><defs
     id="defs4649"><clipPath
       id="clipPath4661"><path
         d="m 0,0 3544.96,0 0,466 L 0,466 0,0 z"
         id="path4663" /></clipPath></defs><g
     transform="matrix(1.25,0,0,-1.25,0,58.2875)"
     id="g4653"><g
       transform="scale(0.1,0.1)"
       id="g4655"><g
         id="g4657"><g
           clip-path="url(#clipPath4661)"
           id="g4659"><path
             d="m 615.824,341.836 -3.172,-1.941 c -15.347,-9.368 -32.039,-14.391 -47.199,-14.387 -32.445,0.121 -53.82,19.351 -53.91,47.344 0.039,27.375 22.359,47.636 53.09,47.714 15.648,-0.015 29.832,-4.062 46.676,-13.289 l 3.093,-1.707 0,24.996 -1.32,0.52 c -19,7.504 -33.711,10.844 -48.242,10.832 -22.469,0.012 -41.957,-7.41 -55.848,-20.004 -13.887,-12.586 -22.133,-30.371 -22.121,-50.781 0.008,-14.223 5.883,-30.899 18.441,-44.121 12.536,-13.231 31.836,-22.879 58.309,-22.867 0.031,0 0.063,0 0.09,0 21.957,0 37.187,4.898 50.945,11.671 l 1.168,0.571 0,25.449 z m 39.364,124.512 0,-186.485 -198.168,0 0,186.485 198.168,0"
             id="path4665"
             style="fill:#696566;fill-opacity:1;fill-rule:nonzero;stroke:none" /><path
             d="m 379.766,342.703 c 0.058,16.949 -11.231,29.82 -29.282,34.774 4.868,2.488 8.727,5.531 11.547,9.246 3.781,4.976 5.582,11.082 5.563,18.191 0.019,8.734 -3.418,17.641 -10.801,24.305 -7.379,6.66 -18.59,10.988 -33.879,10.98 l -42.246,0 0,-134.304 49.574,0 c 17.688,0 30.106,4.785 38.098,11.89 8,7.078 11.433,16.367 11.426,24.918 z m 47.082,123.645 0,-186.485 -198.164,0 0,186.485 198.164,0"
             id="path4667"
             style="fill:#696566;fill-opacity:1;fill-rule:nonzero;stroke:none" /><path
             d="m 355.105,345.387 c -0.015,-4.438 -1.378,-8.899 -5.355,-12.383 -3.957,-3.488 -10.812,-6.133 -22.168,-6.133 l -22.859,0 0,36.656 21.839,0 c 10.192,0 17.418,-2.066 21.946,-5.293 4.515,-3.25 6.558,-7.511 6.597,-12.847"
             id="path4669"
             style="fill:#696566;fill-opacity:1;fill-rule:nonzero;stroke:none" /><path
             d="m 336.586,389.281 c 4.258,3.074 6.309,7.399 6.34,13.914 -0.02,4.461 -1.293,8.289 -4.508,11.141 -3.223,2.855 -8.695,4.887 -17.523,4.887 l -16.172,0 0,-34.731 11.101,0 c 9.602,-0.008 16.485,1.711 20.762,4.789"
             id="path4671"
             style="fill:#696566;fill-opacity:1;fill-rule:nonzero;stroke:none" /><path
             d="m 151.438,342.703 c 0.054,16.949 -11.239,29.82 -29.286,34.774 4.868,2.488 8.715,5.531 11.543,9.246 3.782,4.976 5.578,11.082 5.567,18.191 0.011,8.734 -3.422,17.641 -10.793,24.305 -7.383,6.66 -18.598,10.988 -33.887,10.98 l -42.2461,0 0,-134.304 49.5431,0 c 0.019,0 0.031,0 0.031,0 17.695,0 30.102,4.785 38.094,11.89 7.992,7.078 11.441,16.367 11.434,24.918 z m 47.082,123.645 0,-186.485 -198.164531,0 0,186.485 198.164531,0"
             id="path4673"
             style="fill:#696566;fill-opacity:1;fill-rule:nonzero;stroke:none" /><path
             d="m 108.254,389.281 c 4.246,3.074 6.312,7.399 6.348,13.914 -0.012,4.461 -1.301,8.289 -4.52,11.141 -3.227,2.855 -8.695,4.887 -17.5273,4.887 l -16.1563,0 0,-34.731 11.0899,0 c 9.6015,-0.008 16.4887,1.711 20.7657,4.789"
             id="path4675"
             style="fill:#696566;fill-opacity:1;fill-rule:nonzero;stroke:none" /><path
             d="m 120.176,358.234 c -4.531,3.227 -11.762,5.293 -21.9377,5.293 l -21.8399,0 0,-36.656 22.8555,0 c 11.3511,0 18.1951,2.645 22.1721,6.133 3.961,3.484 5.332,7.945 5.351,12.383 -0.043,5.336 -2.082,9.597 -6.601,12.847"
             id="path4677"
             style="fill:#696566;fill-opacity:1;fill-rule:nonzero;stroke:none" /><path
             d="m 181.836,155.133 -67.648,0 0,-152.46503 -46.5591,0 0,152.46503 -67.6289,0 0,34.238 181.836,0 0,-34.238"
             id="path4679"
             style="fill:#696566;fill-opacity:1;fill-rule:nonzero;stroke:none" /><path
             d="m 392.141,2.66797 -46.567,0 0,75.59373 -93.125,0 0,-75.59373 -46.558,0 0,186.70303 46.558,0 0,-75.051 93.125,0 0,75.051 46.567,0 0,-186.70303"
             id="path4681"
             style="fill:#696566;fill-opacity:1;fill-rule:nonzero;stroke:none" /><path
             d="m 491.492,112.68 24.66,0 c 12.871,0 25.469,5.48 25.469,21.359 0,13.973 -9.031,21.094 -26.57,21.094 l -23.559,0 0,-42.453 z m 36.985,76.691 c 38.347,0 61.085,-25.742 61.085,-53.683 0,-20.536 -10.683,-35.8872 -32.05,-45.7427 19.168,-9.4961 24.922,-32.5039 51.211,-87.27733 l -51.211,0 c -20,39.98823 -27.395,75.86723 -52.59,75.86723 l -13.43,0 0,-75.86723 -46.558,0 0,186.70303 83.543,0"
             id="path4683"
             style="fill:#696566;fill-opacity:1;fill-rule:nonzero;stroke:none" /><path
             d="m 777.41,2.66797 -137.762,0 0,186.70303 135.848,0 0,-34.238 -89.285,0 0,-39.16 85.184,0 0,-34.1566 -85.184,0 0,-44.9102 91.199,0 0,-34.23823"
             id="path4685"
             style="fill:#696566;fill-opacity:1;fill-rule:nonzero;stroke:none" /><path
             d="m 961.562,2.66797 -137.761,0 0,186.70303 135.847,0 0,-34.238 -89.289,0 0,-39.16 85.176,0 0,-34.1566 -85.176,0 0,-44.9102 91.203,0 0,-34.23823"
             id="path4687"
             style="fill:#696566;fill-opacity:1;fill-rule:nonzero;stroke:none" /><path
             d="m 2679.12,110.68 24.22,0 c 12.65,0 25.04,5.375 25.04,20.996 0,13.738 -8.88,20.726 -26.12,20.726 l -23.14,0 0,-41.722 z m 36.34,75.394 c 37.7,0 60.05,-25.32 60.05,-52.781 0,-20.195 -10.5,-35.2696 -31.5,-44.9688 18.86,-9.418 24.5,-32.043 50.35,-85.90232 l -50.35,0 C 2724.35,41.7305 2717.08,77.0234 2692.3,77.0234 l -13.18,0 0,-74.60152 -45.79,0 0,183.65212 82.13,0"
             id="path4689"
             style="fill:#696566;fill-opacity:1;fill-rule:nonzero;stroke:none" /><path
             d="m 2899.94,142.184 -26.93,-71.3559 56.56,0 -29.63,71.3559 z m 107.45,-139.76212 -49.29,0 -15.08,36.35932 -82.13,0 -13.73,-36.35932 -48.45,0 74.04,183.65212 53.05,0 81.59,-183.65212"
             id="path4691"
             style="fill:#696566;fill-opacity:1;fill-rule:nonzero;stroke:none" /><path
             d="m 3076.89,36.0742 29.88,0 c 46.08,0 59.79,31.25 59.79,58.1719 0,31.5079 -16.96,58.1559 -60.3,58.1559 l -29.37,0 0,-116.3278 z m 35.27,149.9998 c 67.06,0 101.53,-41.726 101.53,-92.0935 0,-52.7696 -33.4,-91.55862 -106.62,-91.55862 l -75.94,0 0,183.65212 81.03,0"
             id="path4693"
             style="fill:#696566;fill-opacity:1;fill-rule:nonzero;stroke:none" /><path
             d="m 3251.7,2.42188 45.7812,0 0,183.652 -45.7812,0 0,-183.652 z"
             id="path4695"
             style="fill:#696566;fill-opacity:1;fill-rule:nonzero;stroke:none" /><path
             d="m 3439.93,150.27 c -35,0 -58.18,-22.356 -58.18,-56.0239 0,-33.6484 23.18,-56.0039 58.18,-56.0039 34.73,0 57.89,22.3555 57.89,56.0039 0,33.6679 -23.16,56.0239 -57.89,56.0239 z m 0,-150.27 c -67.34,0 -105.29,47.3945 -105.29,94.2461 0,44.4379 36.09,94.2499 105.29,94.2499 69.19,0 105.03,-50.098 105.03,-94.2499 C 3544.96,47.1172 3505.89,0 3439.93,0"
             id="path4697"
             style="fill:#696566;fill-opacity:1;fill-rule:nonzero;stroke:none" /><path
             d="M 1218.58,18.8281 C 1192.54,5.41016 1172.84,0.195312 1145.16,0.195312 c -72.54,0 -108.7,47.109388 -108.7,95.324188 0,49.8515 40.81,96.4145 112.28,96.4145 26.01,0 49.29,-5.489 67.63,-16.446 l 0,-41.621 c -20.53,11.504 -41.35,19.16 -64.35,19.16 -39.73,0 -67.62,-23.554 -67.62,-56.6872 0,-33.4101 27.62,-57.246 66.52,-57.246 24.38,0 40.8,7.664 67.66,20.5468 l 0,-40.8125"
             id="path4699"
             style="fill:#696566;fill-opacity:1;fill-rule:nonzero;stroke:none" /><path
             d="m 1351.63,153.027 c -35.61,0 -59.16,-22.722 -59.16,-56.9606 0,-34.2383 23.55,-56.9726 59.16,-56.9726 35.33,0 58.88,22.7343 58.88,56.9726 0,34.2386 -23.55,56.9606 -58.88,56.9606 z m 0,-152.831688 c -68.48,0 -107.09,48.214888 -107.09,95.871088 0,45.1836 36.7,95.8676 107.09,95.8676 70.39,0 106.81,-50.957 106.81,-95.8676 0,-47.9297 -39.7,-95.871088 -106.81,-95.871088"
             id="path4701"
             style="fill:#696566;fill-opacity:1;fill-rule:nonzero;stroke:none" /><path
             d="m 1678.6,189.465 0,-105.9962 c 0,-61.9063 -42.19,-83.273488 -93.4,-83.273488 -54.24,0 -93.4,25.206988 -93.4,82.999988 l 0,106.2697 46.56,0 0,-107.3752 c 0,-26.8359 19.46,-42.996 46.29,-42.996 24.65,0 47.39,12.8789 47.39,46.289 l 0,104.0822 46.56,0"
             id="path4703"
             style="fill:#696566;fill-opacity:1;fill-rule:nonzero;stroke:none" /><path
             d="m 1916.33,2.66797 -39.16,0 -103.26,119.69503 0,-119.69503 -46.56,0 0,186.79703 42.71,0 99.71,-114.2111 0,114.2111 46.56,0 0,-186.79703"
             id="path4705"
             style="fill:#696566;fill-opacity:1;fill-rule:nonzero;stroke:none" /><path
             d="m 2121.16,155.227 -67.66,0 0,-152.55903 -46.56,0 0,152.55903 -67.66,0 0,34.238 181.88,0 0,-34.238"
             id="path4707"
             style="fill:#696566;fill-opacity:1;fill-rule:nonzero;stroke:none" /><path
             d="m 2145.2,2.66797 46.5625,0 0,186.797 -46.5625,0 0,-186.797 z"
             id="path4709"
             style="fill:#696566;fill-opacity:1;fill-rule:nonzero;stroke:none" /><path
             d="m 2384.28,2.66797 -137.77,0 0,186.79703 135.86,0 0,-34.238 -89.3,0 0,-39.172 85.2,0 0,-34.2386 -85.2,0 0,-44.9102 91.21,0 0,-34.23823"
             id="path4711"
             style="fill:#696566;fill-opacity:1;fill-rule:nonzero;stroke:none" /><path
             d="m 2549.95,140.977 c -27.11,12.05 -43.28,16.718 -59.16,16.718 -16.72,0 -27.41,-6.035 -27.41,-15.34 0,-28.214 95.06,-20.265 95.06,-85.4605 0,-35.8789 -30.13,-56.699188 -71.77,-56.699188 -32.58,0 -48.75,8.496098 -67.37,18.085888 l 0,40.254 c 26.84,-17.793 43.26,-24.1016 63.81,-24.1016 17.81,0 27.4,6.3086 27.4,17.2656 0,30.6641 -95.06,19.4336 -95.06,86.5428 0,32.324 27.95,53.692 71.22,53.692 20.82,0 39.72,-4.395 63.28,-14.524 l 0,-36.433"
             id="path4713"
             style="fill:#696566;fill-opacity:1;fill-rule:nonzero;stroke:none" /></g></g></g></g></svg>