<?xml version="1.0" encoding="UTF-8" standalone="no"?>
<!-- Created with Inkscape (http://www.inkscape.org/) -->

<svg
   xmlns:dc="http://purl.org/dc/elements/1.1/"
   xmlns:cc="http://creativecommons.org/ns#"
   xmlns:rdf="http://www.w3.org/1999/02/22-rdf-syntax-ns#"
   xmlns:svg="http://www.w3.org/2000/svg"
   xmlns="http://www.w3.org/2000/svg"
   version="1.1"
   width="265.78751"
   height="58.299999"
   id="svg4265"
   xml:space="preserve"><metadata
     id="metadata4271"><rdf:RDF><cc:Work
         rdf:about=""><dc:format>image/svg+xml</dc:format><dc:type
           rdf:resource="http://purl.org/dc/dcmitype/StillImage" /><dc:title></dc:title></cc:Work></rdf:RDF></metadata><defs
     id="defs4269" /><g
     transform="matrix(1.25,0,0,-1.25,0,58.3)"
     id="g4273"><g
       transform="scale(0.1,0.1)"
       id="g4275"><path
         d="m 615.824,341.934 -3.172,-1.946 c -15.347,-9.363 -32.039,-14.386 -47.199,-14.383 -32.445,0.122 -53.82,19.352 -53.91,47.344 0.039,27.371 22.359,47.637 53.09,47.715 15.648,-0.016 29.832,-4.062 46.676,-13.293 l 3.093,-1.703 0,24.996 -1.32,0.516 c -19,7.508 -33.711,10.847 -48.242,10.836 -22.469,0.011 -41.957,-7.411 -55.848,-20.004 -13.887,-12.59 -22.133,-30.371 -22.121,-50.782 0.008,-14.222 5.883,-30.898 18.441,-44.121 12.536,-13.23 31.836,-22.882 58.309,-22.867 0.031,0 0.063,0 0.09,0 21.957,0 37.187,4.899 50.945,11.672 l 1.168,0.57 0,25.45 z m 39.364,124.511 0,-186.484 -198.168,0 0,186.484 198.168,0"
         id="path4277"
         style="fill:#696566;fill-opacity:1;fill-rule:nonzero;stroke:none" /><path
         d="m 379.766,342.801 c 0.058,16.949 -11.231,29.82 -29.282,34.773 4.868,2.488 8.727,5.531 11.547,9.246 3.781,4.977 5.582,11.078 5.563,18.188 0.019,8.738 -3.418,17.644 -10.801,24.308 -7.379,6.661 -18.59,10.985 -33.879,10.981 l -42.246,0 0,-134.305 49.574,0 c 17.688,0 30.106,4.785 38.098,11.891 8,7.078 11.433,16.363 11.426,24.918 z m 47.082,123.644 0,-186.484 -198.164,0 0,186.484 198.164,0"
         id="path4279"
         style="fill:#696566;fill-opacity:1;fill-rule:nonzero;stroke:none" /><path
         d="m 355.105,345.484 c -0.015,-4.437 -1.378,-8.898 -5.355,-12.382 -3.957,-3.489 -10.812,-6.133 -22.168,-6.133 l -22.859,0 0,36.652 21.839,0 c 10.192,0 17.418,-2.062 21.946,-5.293 4.515,-3.246 6.558,-7.508 6.597,-12.844"
         id="path4281"
         style="fill:#696566;fill-opacity:1;fill-rule:nonzero;stroke:none" /><path
         d="m 336.586,389.379 c 4.258,3.07 6.309,7.398 6.34,13.91 -0.02,4.465 -1.293,8.293 -4.508,11.145 -3.223,2.855 -8.695,4.886 -17.523,4.886 l -16.172,0 0,-34.73 11.101,0 c 9.602,-0.012 16.485,1.707 20.762,4.789"
         id="path4283"
         style="fill:#696566;fill-opacity:1;fill-rule:nonzero;stroke:none" /><path
         d="m 151.438,342.801 c 0.054,16.949 -11.239,29.82 -29.286,34.773 4.868,2.488 8.715,5.531 11.543,9.246 3.782,4.977 5.578,11.078 5.567,18.188 0.011,8.738 -3.422,17.644 -10.793,24.308 -7.383,6.661 -18.598,10.985 -33.887,10.981 l -42.2461,0 0,-134.305 49.5431,0 c 0.019,0 0.031,0 0.031,0 17.695,0 30.102,4.785 38.094,11.891 7.992,7.078 11.441,16.363 11.434,24.918 z m 47.082,123.644 0,-186.484 -198.164531,0 0,186.484 198.164531,0"
         id="path4285"
         style="fill:#696566;fill-opacity:1;fill-rule:nonzero;stroke:none" /><path
         d="m 108.254,389.379 c 4.246,3.07 6.312,7.398 6.348,13.91 -0.012,4.465 -1.301,8.293 -4.52,11.145 -3.227,2.855 -8.695,4.886 -17.5273,4.886 l -16.1563,0 0,-34.73 11.0899,0 c 9.6015,-0.012 16.4887,1.707 20.7657,4.789"
         id="path4287"
         style="fill:#696566;fill-opacity:1;fill-rule:nonzero;stroke:none" /><path
         d="m 120.176,358.328 c -4.531,3.231 -11.762,5.293 -21.9377,5.293 l -21.8399,0 0,-36.652 22.8555,0 c 11.3511,0 18.1951,2.644 22.1721,6.133 3.961,3.484 5.332,7.945 5.351,12.382 -0.043,5.336 -2.082,9.598 -6.601,12.844"
         id="path4289"
         style="fill:#696566;fill-opacity:1;fill-rule:nonzero;stroke:none" /><path
         d="m 1112.04,140.781 c -27.11,12.051 -43.28,16.719 -59.16,16.719 -16.71,0 -27.39,-6.035 -27.39,-15.344 0,-28.211 95.04,-20.261 95.04,-85.4568 C 1120.53,20.8203 1090.41,0 1048.77,0 c -32.59,0 -48.75,8.49609 -67.379,18.0859 l 0,40.2539 c 26.849,-17.7929 43.279,-24.1015 63.819,-24.1015 17.8,0 27.39,6.3086 27.39,17.2656 0,30.6641 -95.041,19.4336 -95.041,86.5431 0,32.324 27.941,53.691 71.211,53.691 20.82,0 39.71,-4.394 63.27,-14.523 l 0,-36.434"
         id="path4291"
         style="fill:#696566;fill-opacity:1;fill-rule:nonzero;stroke:none" /><path
         d="m 1252.23,152.832 c -35.6,0 -59.16,-22.727 -59.16,-56.9648 0,-34.2344 23.56,-56.9727 59.16,-56.9727 35.33,0 58.89,22.7383 58.89,56.9727 0,34.2378 -23.56,56.9648 -58.89,56.9648 z M 1252.23,0 c -68.48,0 -107.1,48.2148 -107.1,95.8672 0,45.1878 36.71,95.8708 107.1,95.8708 70.39,0 106.82,-50.957 106.82,-95.8708 C 1359.05,47.9375 1319.33,0 1252.23,0"
         id="path4293"
         style="fill:#696566;fill-opacity:1;fill-rule:nonzero;stroke:none" /><path
         d="m 1533.46,2.46875 -142.43,0 0,186.79725 46.56,0 0,-152.5551 95.87,0 0,-34.24215"
         id="path4295"
         style="fill:#696566;fill-opacity:1;fill-rule:nonzero;stroke:none" /><path
         d="m 1695.83,2.46875 -137.78,0 0,186.79725 135.86,0 0,-34.239 -89.3,0 0,-39.168 85.19,0 0,-34.2379 -85.19,0 0,-44.9102 91.22,0 0,-34.24215"
         id="path4297"
         style="fill:#696566;fill-opacity:1;fill-rule:nonzero;stroke:none" /><path
         d="m 1922.84,2.46875 -39.16,0 -103.26,119.69925 0,-119.69925 -46.57,0 0,186.79725 42.74,0 99.68,-114.2074 0,114.2074 46.57,0 0,-186.79725"
         id="path4299"
         style="fill:#696566;fill-opacity:1;fill-rule:nonzero;stroke:none" /><path
         d="m 2126.29,155.027 -67.65,0 0,-152.55825 -46.56,0 0,152.55825 -67.66,0 0,34.239 181.87,0 0,-34.239"
         id="path4301"
         style="fill:#696566;fill-opacity:1;fill-rule:nonzero;stroke:none" /><path
         d="m 45.7812,110.777 24.2305,0 c 12.6485,0 25.0352,5.375 25.0352,20.996 0,13.739 -8.8867,20.727 -26.1172,20.727 l -23.1485,0 0,-41.723 z m 36.3477,75.395 c 37.6991,0 60.0511,-25.324 60.0511,-52.785 0,-20.196 -10.504,-35.2659 -31.504,-44.9651 18.851,-9.418 24.496,-32.043 50.347,-85.90237 l -50.347,0 C 91.0195,41.8242 83.7461,77.1172 58.9688,77.1172 l -13.1876,0 0,-74.59767 -45.7812,0 0,183.65247 82.1289,0"
         id="path4303"
         style="fill:#696566;fill-opacity:1;fill-rule:nonzero;stroke:none" /><path
         d="m 266.605,142.281 -26.925,-71.3552 56.55,0 -29.625,71.3552 z m 107.45,-139.76147 -49.285,0 -15.082,36.35937 -82.129,0 -13.731,-36.35937 -48.461,0 74.047,183.65247 53.047,0 81.594,-183.65247"
         id="path4305"
         style="fill:#696566;fill-opacity:1;fill-rule:nonzero;stroke:none" /><path
         d="m 443.555,36.1719 29.879,0 c 46.074,0 59.785,31.25 59.785,58.1719 0,31.5042 -16.946,58.1562 -60.293,58.1562 l -29.371,0 0,-116.3281 z m 35.269,150.0001 c 67.067,0 101.528,-41.731 101.528,-92.0939 0,-52.7695 -33.399,-91.55857 -106.622,-91.55857 l -75.941,0 0,183.65247 81.035,0"
         id="path4307"
         style="fill:#696566;fill-opacity:1;fill-rule:nonzero;stroke:none" /><path
         d="m 618.367,2.51953 45.7773,0 0,183.652 -45.7773,0 0,-183.652 z"
         id="path4309"
         style="fill:#696566;fill-opacity:1;fill-rule:nonzero;stroke:none" /><path
         d="m 806.594,150.367 c -35,0 -58.18,-22.355 -58.18,-56.0232 0,-33.6524 23.18,-56.004 58.18,-56.004 34.73,0 57.886,22.3516 57.886,56.004 0,33.6682 -23.156,56.0232 -57.886,56.0232 z m 0,-150.2693438 c -67.336,0 -105.289,47.3906438 -105.289,94.2461438 0,44.4332 36.09,94.2502 105.289,94.2502 69.191,0 105.023,-50.098 105.023,-94.2502 0,-47.129 -39.055,-94.2461438 -105.023,-94.2461438"
         id="path4311"
         style="fill:#696566;fill-opacity:1;fill-rule:nonzero;stroke:none" /></g></g></svg>
