<?xml version="1.0" encoding="UTF-8" standalone="no"?>
<!-- Created with Inkscape (http://www.inkscape.org/) -->

<svg
   xmlns:dc="http://purl.org/dc/elements/1.1/"
   xmlns:cc="http://creativecommons.org/ns#"
   xmlns:rdf="http://www.w3.org/1999/02/22-rdf-syntax-ns#"
   xmlns:svg="http://www.w3.org/2000/svg"
   xmlns="http://www.w3.org/2000/svg"
   version="1.1"
   width="297.20001"
   height="93.612503"
   id="svg2"
   xml:space="preserve"><metadata
     id="metadata8"><rdf:RDF><cc:Work
         rdf:about=""><dc:format>image/svg+xml</dc:format><dc:type
           rdf:resource="http://purl.org/dc/dcmitype/StillImage" /><dc:title></dc:title></cc:Work></rdf:RDF></metadata><defs
     id="defs6"><clipPath
       id="clipPath18"><path
         d="M 0,748.945 0,0 l 2377.63,0 0,748.945 -2377.63,0 z"
         id="path20" /></clipPath></defs><g
     transform="matrix(1.25,0,0,-1.25,0,93.6125)"
     id="g10"><g
       transform="scale(0.1,0.1)"
       id="g12"><g
         id="g14"><g
           clip-path="url(#clipPath18)"
           id="g16"><path
             d="m 628.961,624.434 -3.176,-1.946 c -15.347,-9.363 -32.035,-14.386 -47.195,-14.383 -32.445,0.122 -53.824,19.352 -53.91,47.344 0.039,27.371 22.355,47.637 53.09,47.715 15.648,-0.016 29.828,-4.062 46.671,-13.293 l 3.098,-1.703 0,24.996 -1.324,0.516 c -18.996,7.508 -33.711,10.847 -48.242,10.836 -22.465,0.011 -41.957,-7.411 -55.844,-20.004 -13.887,-12.59 -22.133,-30.371 -22.125,-50.782 0.012,-14.222 5.887,-30.898 18.441,-44.121 12.535,-13.23 31.836,-22.882 58.313,-22.867 0.027,0 0.058,0 0.09,0 21.957,0 37.183,4.899 50.945,11.672 l 1.168,0.57 0,25.45 z m 39.359,124.511 0,-186.484 -198.164,0 0,186.484 198.164,0"
             id="path22"
             style="fill:#696566;fill-opacity:1;fill-rule:nonzero;stroke:none" /><path
             d="m 392.898,625.301 c 0.063,16.949 -11.226,29.82 -29.281,34.773 4.867,2.488 8.727,5.531 11.551,9.246 3.777,4.977 5.578,11.078 5.559,18.188 0.019,8.738 -3.418,17.644 -10.801,24.308 -7.375,6.661 -18.586,10.985 -33.875,10.981 l -42.246,0 0,-134.305 49.574,0 c 17.683,0 30.101,4.785 38.098,11.891 7.996,7.078 11.433,16.367 11.421,24.918 z m 47.082,123.644 0,-186.484 -198.164,0 0,186.484 198.164,0"
             id="path24"
             style="fill:#696566;fill-opacity:1;fill-rule:nonzero;stroke:none" /><path
             d="m 368.242,627.984 c -0.019,-4.437 -1.383,-8.898 -5.355,-12.382 -3.961,-3.489 -10.817,-6.133 -22.168,-6.133 l -22.864,0 0,36.652 21.84,0 c 10.192,0 17.418,-2.062 21.946,-5.293 4.515,-3.246 6.562,-7.508 6.601,-12.844"
             id="path26"
             style="fill:#696566;fill-opacity:1;fill-rule:nonzero;stroke:none" /><path
             d="m 349.723,671.879 c 4.257,3.07 6.308,7.398 6.336,13.91 -0.02,4.465 -1.293,8.293 -4.504,11.145 -3.227,2.855 -8.7,4.886 -17.528,4.886 l -16.172,0 0,-34.73 11.106,0 c 9.598,-0.012 16.484,1.707 20.762,4.789"
             id="path28"
             style="fill:#696566;fill-opacity:1;fill-rule:nonzero;stroke:none" /><path
             d="m 164.57,625.301 c 0.059,16.949 -11.234,29.82 -29.281,34.773 4.867,2.488 8.715,5.531 11.543,9.246 3.777,4.977 5.574,11.078 5.566,18.188 0.008,8.738 -3.421,17.644 -10.796,24.308 -7.383,6.661 -18.594,10.985 -33.887,10.981 l -42.2462,0 0,-134.305 49.5472,0 c 0.019,0 0.027,0 0.027,0 17.695,0 30.102,4.785 38.098,11.891 7.992,7.078 11.437,16.367 11.429,24.918 z m 47.086,123.644 0,-186.484 -198.1638,0 0,186.484 198.1638,0"
             id="path30"
             style="fill:#696566;fill-opacity:1;fill-rule:nonzero;stroke:none" /><path
             d="m 121.387,671.879 c 4.25,3.07 6.312,7.398 6.347,13.91 -0.007,4.465 -1.296,8.293 -4.515,11.145 -3.231,2.855 -8.699,4.886 -17.531,4.886 l -16.1568,0 0,-34.73 11.0938,0 c 9.602,-0.012 16.484,1.707 20.762,4.789"
             id="path32"
             style="fill:#696566;fill-opacity:1;fill-rule:nonzero;stroke:none" /><path
             d="m 133.312,640.828 c -4.535,3.231 -11.765,5.293 -21.941,5.293 l -21.8398,0 0,-36.652 22.8558,0 c 11.351,0 18.199,2.644 22.175,6.133 3.958,3.484 5.333,7.945 5.348,12.382 -0.043,5.336 -2.078,9.598 -6.598,12.844"
             id="path34"
             style="fill:#696566;fill-opacity:1;fill-rule:nonzero;stroke:none" /><path
             d="M 192.551,298.633 C 166.527,285.215 146.809,280 119.145,280 46.5625,280 10.4062,327.109 10.4062,375.32 c 0,49.852 40.8086,96.414 112.2968,96.414 26.024,0 49.305,-5.48 67.652,-16.437 l 0,-41.629 c -20.543,11.504 -41.355,19.168 -64.363,19.168 -39.7186,0 -67.6522,-23.555 -67.6522,-56.695 0,-33.407 27.6602,-57.246 66.5582,-57.246 24.375,0 40.809,7.667 67.653,20.546 l 0,-40.808"
             id="path36"
             style="fill:#696566;fill-opacity:1;fill-rule:nonzero;stroke:none" /><path
             d="m 328.344,432.836 c -35.606,0 -59.16,-22.731 -59.16,-56.969 0,-34.234 23.554,-56.972 59.16,-56.972 35.332,0 58.886,22.738 58.886,56.972 0,34.238 -23.554,56.969 -58.886,56.969 z m 0,-152.836 c -68.473,0 -107.094,48.215 -107.094,95.867 0,45.192 36.703,95.867 107.094,95.867 70.39,0 106.824,-50.949 106.824,-95.867 C 435.168,327.938 395.449,280 328.344,280"
             id="path38"
             style="fill:#696566;fill-opacity:1;fill-rule:nonzero;stroke:none" /><path
             d="m 544.664,280 -20.269,0 -90.387,189.266 50.672,0 49.3,-106.551 46.836,106.551 50.122,0 L 544.664,280"
             id="path40"
             style="fill:#696566;fill-opacity:1;fill-rule:nonzero;stroke:none" /><path
             d="m 792.211,282.469 -137.77,0 0,186.797 135.856,0 0,-34.239 -89.289,0 0,-39.164 85.18,0 0,-34.242 -85.18,0 0,-44.91 91.203,0 0,-34.242"
             id="path42"
             style="fill:#696566;fill-opacity:1;fill-rule:nonzero;stroke:none" /><path
             d="m 1028.81,282.469 -39.169,0 -103.258,119.695 0,-119.695 -46.563,0 0,186.797 42.731,0 99.695,-114.207 0,114.207 46.564,0 0,-186.797"
             id="path44"
             style="fill:#696566;fill-opacity:1;fill-rule:nonzero;stroke:none" /><path
             d="m 1235,435.027 -67.66,0 0,-152.558 -46.56,0 0,152.558 -67.65,0 0,34.239 181.87,0 0,-34.239"
             id="path46"
             style="fill:#696566;fill-opacity:1;fill-rule:nonzero;stroke:none" /><path
             d="m 1304.23,392.578 24.65,0 c 12.88,0 25.48,5.477 25.48,21.363 0,13.969 -9.03,21.086 -26.57,21.086 l -23.56,0 0,-42.449 z m 36.99,76.688 c 38.35,0 61.08,-25.746 61.08,-53.68 0,-20.543 -10.68,-35.883 -32.05,-45.742 19.17,-9.59 24.92,-32.598 51.21,-87.375 l -51.21,0 c -20,39.992 -27.39,75.871 -52.59,75.871 l -13.43,0 0,-75.871 -46.56,0 0,186.797 83.55,0"
             id="path48"
             style="fill:#696566;fill-opacity:1;fill-rule:nonzero;stroke:none" /><path
             d="m 1484.14,369.844 -73.68,99.422 56.43,0 40.53,-58.614 40.82,58.614 56.14,0 -73.68,-99.422 0,-87.375 -46.56,0 0,87.375"
             id="path50"
             style="fill:#696566;fill-opacity:1;fill-rule:nonzero;stroke:none" /><path
             d="m 1763.45,425.172 c 0,9.039 -7.13,15.609 -17.25,15.609 -10.14,0 -17.26,-6.023 -17.26,-14.242 0,-6.848 6.85,-16.98 15.88,-24.922 13.43,7.942 18.63,14.516 18.63,23.555 z m -36.7,-67.106 c -13.14,-8.496 -19.18,-16.433 -19.18,-25.195 0,-12.051 10.69,-21.914 23.56,-21.914 8.49,0 19.72,4.102 28.77,10.41 l -33.15,36.699 z m 125.17,21.364 c -10.96,-25.192 -22.74,-42.731 -37.53,-55.875 l 37.53,-41.086 -56.69,0 -13.7,14.797 C 1762.91,285.488 1744,280 1722.92,280 c -33.97,0 -59.17,21.094 -59.17,49.305 0,21.359 13.15,38.078 41.91,52.863 -10.68,15.062 -16.98,26.02 -16.98,41.355 0,27.942 24.1,48.211 57.24,48.211 31.77,0 53.96,-18.355 53.96,-44.371 0,-18.082 -12.05,-34.511 -34.79,-47.933 l 25.47,-29.313 c 8.5,8.496 15.62,18.633 21.37,29.313 l 39.99,0"
             id="path52"
             style="fill:#696566;fill-opacity:1;fill-rule:nonzero;stroke:none" /><path
             d="M 102.164,0 82.168,0 0,189.266 l 49.3008,0 44.0976,-103.2504 47.9296,103.2504 37.524,0 47.933,-103.2504 43.824,103.2504 49.297,0 L 238.012,0 218.023,0 159.957,121.895 102.164,0"
             id="path54"
             style="fill:#696566;fill-opacity:1;fill-rule:nonzero;stroke:none" /><path
             d="m 405.836,144.629 -27.395,-72.586 57.52,0 -30.125,72.586 z M 515.117,2.46875 l -50.121,0 -15.34,36.98435 -83.539,0 -13.969,-36.98435 -49.3,0 75.32,186.79725 53.961,0 82.988,-186.79725"
             id="path56"
             style="fill:#696566;fill-opacity:1;fill-rule:nonzero;stroke:none" /><path
             d="m 584.078,112.578 24.652,0 c 12.872,0 25.469,5.477 25.469,21.367 0,13.965 -9.039,21.082 -26.566,21.082 l -23.555,0 0,-42.449 z m 36.977,76.688 c 38.343,0 61.078,-25.75 61.078,-53.68 0,-20.547 -10.684,-35.879 -32.043,-45.7422 19.168,-9.5899 24.922,-32.5977 51.215,-87.37505 l -51.215,0 C 630.094,42.4609 622.695,78.3398 597.5,78.3398 l -13.422,0 0,-75.87105 -46.562,0 0,186.79725 83.539,0"
             id="path58"
             style="fill:#696566;fill-opacity:1;fill-rule:nonzero;stroke:none" /><path
             d="m 798.492,0 -19.996,0 -82.168,189.266 49.301,0 44.098,-103.2504 47.929,103.2504 37.524,0 47.933,-103.2504 43.825,103.2504 49.302,0 L 934.34,0 914.352,0 856.285,121.895 798.492,0"
             id="path60"
             style="fill:#696566;fill-opacity:1;fill-rule:nonzero;stroke:none" /><path
             d="m 1036.69,2.46875 46.5703,0 0,186.797 -46.5703,0 0,-186.797 z"
             id="path62"
             style="fill:#696566;fill-opacity:1;fill-rule:nonzero;stroke:none" /><path
             d="M 1302.07,18.6328 C 1276.05,5.21484 1256.32,0 1228.67,0 c -72.58,0 -108.74,47.1094 -108.74,95.3203 0,49.8557 40.81,96.4177 112.29,96.4177 26.03,0 49.31,-5.488 67.66,-16.445 l 0,-41.621 c -20.55,11.504 -41.36,19.16 -64.37,19.16 -39.71,0 -67.64,-23.555 -67.64,-56.6914 0,-33.4062 27.65,-57.2461 66.55,-57.2461 24.37,0 40.81,7.668 67.65,20.5469 l 0,-40.8086"
             id="path64"
             style="fill:#696566;fill-opacity:1;fill-rule:nonzero;stroke:none" /><path
             d="m 1436.77,101.621 82.44,-99.15225 -58.34,0 -73.94,87.64845 0,-87.64845 -46.56,0 0,186.79725 46.56,0 0,-84.637 0.55,0 58.88,84.637 51.21,0 -60.8,-87.645"
             id="path66"
             style="fill:#696566;fill-opacity:1;fill-rule:nonzero;stroke:none" /><path
             d="m 1660.49,140.781 c -27.12,12.051 -43.27,16.719 -59.16,16.719 -16.71,0 -27.39,-6.035 -27.39,-15.344 0,-28.211 95.04,-20.261 95.04,-85.4568 C 1668.98,20.8203 1638.86,0 1597.22,0 c -32.6,0 -48.75,8.49609 -67.38,18.0859 l 0,40.2539 c 26.85,-17.7929 43.28,-24.1015 63.83,-24.1015 17.79,0 27.38,6.3086 27.38,17.2656 0,30.6641 -95.04,19.4336 -95.04,86.5431 0,32.324 27.94,53.691 71.21,53.691 20.82,0 39.72,-4.394 63.27,-14.523 l 0,-36.434"
             id="path68"
             style="fill:#696566;fill-opacity:1;fill-rule:nonzero;stroke:none" /><path
             d="m 1895.99,2.46875 -46.56,0 0,75.59765 -93.13,0 0,-75.59765 -46.56,0 0,186.79725 46.56,0 0,-75.047 93.13,0 0,75.047 46.56,0 0,-186.79725"
             id="path70"
             style="fill:#696566;fill-opacity:1;fill-rule:nonzero;stroke:none" /><path
             d="m 1949.62,2.46875 46.5703,0 0,186.797 -46.5703,0 0,-186.797 z"
             id="path72"
             style="fill:#696566;fill-opacity:1;fill-rule:nonzero;stroke:none" /><path
             d="m 2095.85,112.578 24.65,0 c 12.87,0 25.47,5.477 25.47,21.367 0,13.965 -9.04,21.082 -26.56,21.082 l -23.56,0 0,-42.449 z m 36.98,76.688 c 38.34,0 61.07,-25.75 61.07,-53.68 0,-20.547 -10.68,-35.879 -32.04,-45.7422 19.17,-9.5899 24.92,-32.5977 51.22,-87.37505 l -51.22,0 c -19.99,39.99215 -27.39,75.87105 -52.59,75.87105 l -13.42,0 0,-75.87105 -46.56,0 0,186.79725 83.54,0"
             id="path74"
             style="fill:#696566;fill-opacity:1;fill-rule:nonzero;stroke:none" /><path
             d="m 2377.63,2.46875 -137.77,0 0,186.79725 135.86,0 0,-34.239 -89.3,0 0,-39.168 85.19,0 0,-34.2379 -85.19,0 0,-44.9102 91.21,0 0,-34.24215"
             id="path76"
             style="fill:#696566;fill-opacity:1;fill-rule:nonzero;stroke:none" /></g></g></g></g></svg>