<?xml version="1.0" encoding="UTF-8" standalone="no"?>
<svg width="115px" height="115px" viewBox="0 0 115 115" version="1.1" xmlns="http://www.w3.org/2000/svg" xmlns:xlink="http://www.w3.org/1999/xlink" xmlns:sketch="http://www.bohemiancoding.com/sketch/ns">
    <title>Slice 1</title>
    <description>Created with Sketch (http://www.bohemiancoding.com/sketch)</description>
    <defs></defs>
    <g id="Page 1" fill="#D8D8D8" fill-rule="evenodd">
        <g id="Layer_1" fill="#000000">
            <g id="Group">
                <path d="M55.8709984,108.207001 C82.1045253,108.207001 103.370998,86.9405276 103.370998,60.7070007 C103.370998,34.4734738 82.1045253,13.2070007 55.8709984,13.2070007 C29.6374715,13.2070007 8.37099838,34.4734738 8.37099838,60.7070007 C8.37099838,86.9405276 29.6374715,108.207001 55.8709984,108.207001 Z M55.8709984,108.207001" id="Oval" fill="#FFFFFF"></path>
                <path d="M57.121,0 C25.576,0 0,25.588 0,57.15 C0,88.714 25.576,114.3 57.121,114.3 C88.673,114.3 114.242,88.714 114.242,57.15 C114.244,25.588 88.673,0 57.121,0 L57.121,0 Z M87.783,92.849 L24.707,92.849 L57.266,54.621 C61.903,49.384 64.416,45.821 64.416,42.017 C64.416,38.591 62.07,34.896 58.277,34.896 C53.736,34.896 51.445,39.384 51.272,42.572 L51.106,45.581 L30.211,45.581 L30.39,42.228 C30.7,36.341 31.688,33.105 34.453,28.906 C40.053,20.385 47.897,16.247 58.439,16.247 C76.195,16.247 87.222,25.611 87.222,40.689 C87.222,47.048 85.034,52.185 79.99,57.775 L67.039,72.57 L87.783,72.57 L87.783,92.849 L87.783,92.849 Z M87.783,92.849" id="Shape" fill="#EC7A08"></path>
            </g>
        </g>
    </g>
</svg>