<?xml version="1.0" encoding="UTF-8" standalone="no"?>
<svg width="131px" height="115px" viewBox="0 0 131 115" version="1.1" xmlns="http://www.w3.org/2000/svg" xmlns:xlink="http://www.w3.org/1999/xlink" xmlns:sketch="http://www.bohemiancoding.com/sketch/ns">
    <title>Slice 1</title>
    <description>Created with Sketch (http://www.bohemiancoding.com/sketch)</description>
    <defs></defs>
    <g id="Page 1" fill="#D8D8D8" fill-rule="evenodd">
        <g id="Layer_1" fill="#000000">
            <g id="Group">
                <path d="M57.0569992,110.195 C85.361594,110.195 108.306999,87.2495945 108.306999,58.9449997 C108.306999,30.6404049 85.361594,7.69499969 57.0569992,7.69499969 C28.7524044,7.69499969 5.80699921,30.6404049 5.80699921,58.9449997 C5.80699921,87.2495945 28.7524044,110.195 57.0569992,110.195 Z M57.0569992,110.195" id="Oval" fill="#FFFFFF"></path>
                <path d="M57.1220016,114.304001 C88.6701656,114.304001 114.245003,88.7161802 114.245003,57.1520004 C114.245003,25.5878206 88.6701656,0 57.1220016,0 C25.5738377,0 -0.000999450684,25.5878206 -0.000999450684,57.1520004 C-0.000999450684,88.7161802 25.5738377,114.304001 57.1220016,114.304001 Z M57.1220016,114.304001" id="Oval" fill="#FFFFFF"></path>
                <g>
                    <g>
                        <path d="M119.738,1.548 L119.738,3.115 C119.738,3.115 122.451,4.269 122.621,4.343 L122.621,8.481 C122.447,8.552 119.738,9.681 119.738,9.681 L119.738,11.259 L130.906,6.468 L119.738,1.548 L119.738,1.548 Z M123.973,4.929 C124.317,5.075 126.985,6.214 127.506,6.437 C126.985,6.656 124.315,7.768 123.973,7.912 L123.973,4.929 L123.973,4.929 Z M123.973,4.929" id="Shape" fill="#D10074"></path>
                        <path d="M122.855,17.931 C124.593,17.931 125.285,16.683 125.847,15.404 L126.142,14.73 C126.443,14.06 126.818,13.231 127.597,13.231 C128.396,13.231 129.021,13.905 129.021,14.764 C129.021,15.494 128.722,15.963 127.992,16.385 L127.855,16.463 L128.597,17.615 L128.716,17.55 C129.767,16.98 130.368,15.976 130.368,14.791 C130.368,13.083 129.192,11.796 127.634,11.796 C126.072,11.796 125.425,12.934 124.896,14.097 C124.896,14.098 124.626,14.718 124.626,14.718 C124.183,15.694 123.814,16.499 122.743,16.499 C121.731,16.499 120.913,15.629 120.913,14.561 C120.913,13.597 121.638,12.825 122.671,12.675 L122.837,12.651 L122.444,11.25 L122.303,11.278 C120.637,11.618 119.561,12.918 119.561,14.589 C119.564,16.463 121.01,17.931 122.855,17.931 L122.855,17.931 Z M122.855,17.931" id="Shape" fill="#D10074"></path>
                        <path d="M119.738,19.213 L119.738,20.644 L130.197,20.644 L130.197,19.213 L119.738,19.213 L119.738,19.213 Z M119.738,19.213" id="Shape" fill="#D10074"></path>
                        <path d="M119.738,21.33 L119.738,22.897 C119.738,22.897 122.451,24.049 122.621,24.123 L122.621,28.265 C122.447,28.334 119.738,29.461 119.738,29.461 L119.738,31.04 L130.906,26.248 L119.738,21.33 L119.738,21.33 Z M123.973,24.708 C124.317,24.854 126.985,25.995 127.506,26.219 C126.985,26.438 124.315,27.55 123.973,27.694 L123.973,24.708 L123.973,24.708 Z M123.973,24.708" id="Shape" fill="#D10074"></path>
                        <path d="M130.197,39.673 L122.551,39.673 C123.061,39.193 130.854,31.752 130.854,31.752 L119.74,31.752 L119.74,33.186 L127.344,33.186 C126.838,33.667 119.061,41.106 119.061,41.106 L130.2,41.106 L130.197,39.673 L130.197,39.673 Z M130.197,39.673" id="Shape" fill="#D10074"></path>
                        <path d="M130.197,55.058 L122.551,55.058 C123.061,54.576 130.854,47.137 130.854,47.137 L119.74,47.137 L119.74,48.568 L127.344,48.568 C126.838,49.051 119.061,56.489 119.061,56.489 L130.2,56.489 L130.197,55.058 L130.197,55.058 Z M130.197,55.058" id="Shape" fill="#D10074"></path>
                        <path d="M130.197,57.539 L119.738,57.539 L119.738,63.105 L121.088,63.105 L121.088,58.97 L124.777,58.97 L124.777,62.985 L126.129,62.985 L126.129,58.97 L128.85,58.97 L128.85,63.105 L130.202,63.105 L130.202,57.539 L130.197,57.539 L130.197,57.539 Z M130.197,57.539" id="Shape" fill="#D10074"></path>
                        <path d="M130.197,70.193 L130.197,63.832 L128.847,63.832 L128.847,66.285 L119.738,66.285 L119.738,67.715 L128.847,67.715 L128.847,70.194 L130.197,70.193 L130.197,70.193 Z M130.197,70.193" id="Shape" fill="#D10074"></path>
                        <path d="M130.197,85.458 L130.197,83.913 C130.197,83.913 123.537,81.579 122.859,81.343 C123.531,81.072 130.972,78.069 130.972,78.069 C130.972,78.069 123.531,75.06 122.859,74.791 C123.537,74.555 130.197,72.221 130.197,72.221 L130.197,70.676 L118.947,74.776 C118.947,74.776 126.506,77.817 127.138,78.072 C126.505,78.326 118.947,81.364 118.947,81.364 L130.197,85.458 L130.197,85.458 Z M130.197,85.458" id="Shape" fill="#D10074"></path>
                        <path d="M124.955,84.989 C121.984,84.989 119.564,87.429 119.564,90.429 C119.564,93.429 121.984,95.874 124.955,95.874 C127.941,95.874 130.371,93.429 130.371,90.429 C130.371,87.429 127.941,84.989 124.955,84.989 L124.955,84.989 Z M124.969,94.443 C122.735,94.443 120.914,92.643 120.914,90.429 C120.914,88.218 122.732,86.417 124.969,86.417 C127.199,86.417 129.022,88.218 129.022,90.429 C129.021,92.643 127.201,94.443 124.969,94.443 L124.969,94.443 Z M124.969,94.443" id="Shape" fill="#D10074"></path>
                        <path d="M119.738,97.147 L119.738,98.576 L124.197,98.576 L124.197,98.631 C124.072,98.721 119.738,101.702 119.738,101.702 L119.738,103.462 C119.738,103.462 124.031,100.411 124.355,100.182 C124.587,101.669 125.679,102.632 127.246,102.632 C129.23,102.632 130.197,101.37 130.197,98.766 L130.197,97.15 L119.738,97.147 L119.738,97.147 Z M128.848,98.763 C128.848,100.309 128.573,101.201 127.164,101.201 C125.99,101.201 125.49,100.476 125.49,98.776 L125.49,98.576 L128.844,98.576 C128.848,98.667 128.848,98.763 128.848,98.763 L128.848,98.763 Z M128.848,98.763" id="Shape" fill="#D10074"></path>
                        <path d="M119.738,105.709 L124.205,105.709 C124.238,105.742 124.271,105.771 124.33,105.834 C124.109,106.035 119.738,109.936 119.738,109.936 L119.738,111.907 C119.738,111.907 125.109,107.032 125.314,106.845 C125.505,107.036 130.197,111.771 130.197,111.771 L130.197,109.82 C130.197,109.82 126.513,106.162 126.058,105.715 L130.197,105.715 L130.197,104.279 L119.738,104.279 L119.738,105.709 L119.738,105.709 Z M119.738,105.709" id="Shape" fill="#D10074"></path>
                    </g>
                    <path d="M57.122,0 C25.575,0 0.001,25.589 0.001,57.152 C0.001,88.718 25.575,114.305 57.122,114.305 C88.673,114.305 114.243,88.719 114.243,57.152 C114.242,25.588 88.672,0 57.122,0 L57.122,0 Z M70.276,27.472 C66.282,36.781 59.826,44.999 52.318,51.257 C59.823,43.496 65.573,36.148 69.441,25.371 L70.276,27.472 L70.276,27.472 Z M68.918,24.072 C65.098,35.29 58.588,44.654 47.655,54.641 C56.465,45.415 64.22,33.81 67.893,21.485 L68.918,24.072 L68.918,24.072 Z M67.331,20.072 C63.157,34.623 54.257,47.33 42.865,57.893 C53.415,46.534 62.861,32.702 66.236,17.304 L67.331,20.072 L67.331,20.072 Z M50.669,16.255 L65.665,16.255 C62.947,28.856 55.335,40.675 49.423,48.372 C45.22,53.844 41.274,58.052 39.021,60.33 C38.573,60.746 37.277,61.992 37.277,61.992 C32.823,66.338 29.994,70.104 27.262,74.584 L50.669,16.255 L50.669,16.255 Z M20.434,91.47 C26.307,81.949 35.372,74.208 45.69,68.05 C43.851,69.404 41.783,71.033 39.857,72.61 C31.774,79.211 25.774,85.468 22.185,91.47 L20.434,91.47 L20.434,91.47 Z M23.743,91.47 C27.3,85.718 32.672,80.11 40.433,73.63 C45.564,69.347 47.676,67.819 51.518,65.359 C41.67,73.683 32.179,81.212 25.456,91.47 L23.743,91.47 L23.743,91.47 Z M27.277,91.47 C34.307,80.376 50.094,67.369 59.71,60.116 C48.915,68.988 34.8,82.229 29.127,91.47 L27.277,91.47 L27.277,91.47 Z M74.868,91.485 L71.206,80.61 L45.077,80.61 L41.115,91.485 L30.75,91.485 C38.232,79.526 63.128,58.293 64.304,57.234 C65.488,56.17 73.828,49.022 76.3,42.605 L95.708,91.485 L74.868,91.485 L74.868,91.485 Z M74.868,91.485" id="Shape" fill="#D10074"></path>
                </g>
            </g>
        </g>
    </g>
</svg>