<?xml version="1.0" encoding="UTF-8" standalone="no"?>
<!-- Created with Inkscape (http://www.inkscape.org/) -->

<svg
   xmlns:dc="http://purl.org/dc/elements/1.1/"
   xmlns:cc="http://creativecommons.org/ns#"
   xmlns:rdf="http://www.w3.org/1999/02/22-rdf-syntax-ns#"
   xmlns:svg="http://www.w3.org/2000/svg"
   xmlns="http://www.w3.org/2000/svg"
   version="1.1"
   width="196.10001"
   height="58.612499"
   id="svg4313"
   xml:space="preserve"><metadata
     id="metadata4319"><rdf:RDF><cc:Work
         rdf:about=""><dc:format>image/svg+xml</dc:format><dc:type
           rdf:resource="http://purl.org/dc/dcmitype/StillImage" /><dc:title></dc:title></cc:Work></rdf:RDF></metadata><defs
     id="defs4317"><clipPath
       id="clipPath4329"><path
         d="M 0,468.945 0,0 l 1568.82,0 0,468.945 -1568.82,0 z"
         id="path4331" /></clipPath></defs><g
     transform="matrix(1.25,0,0,-1.25,0,58.6125)"
     id="g4321"><g
       transform="scale(0.1,0.1)"
       id="g4323"><g
         id="g4325"><g
           clip-path="url(#clipPath4329)"
           id="g4327"><path
             d="m 619.359,344.434 -3.171,-1.946 c -15.348,-9.363 -32.04,-14.386 -47.2,-14.383 -32.445,0.122 -53.82,19.352 -53.91,47.344 0.039,27.371 22.36,47.637 53.09,47.715 15.648,-0.016 29.828,-4.062 46.676,-13.293 l 3.094,-1.703 0,24.996 -1.321,0.516 c -19,7.508 -33.711,10.847 -48.242,10.836 -22.469,0.011 -41.957,-7.411 -55.848,-20.004 -13.882,-12.59 -22.132,-30.371 -22.121,-50.782 0.008,-14.222 5.883,-30.898 18.442,-44.121 12.535,-13.23 31.836,-22.882 58.308,-22.867 0.032,0 0.063,0 0.09,0 21.957,0 37.188,4.899 50.945,11.672 l 1.168,0.57 0,25.45 z m 39.364,124.511 0,-186.484 -198.164,0 0,186.484 198.164,0"
             id="path4333"
             style="fill:#696566;fill-opacity:1;fill-rule:nonzero;stroke:none" /><path
             d="m 383.301,345.301 c 0.058,16.949 -11.231,29.82 -29.281,34.773 4.867,2.488 8.722,5.531 11.546,9.246 3.782,4.977 5.582,11.078 5.563,18.188 0.019,8.738 -3.418,17.644 -10.801,24.308 -7.379,6.661 -18.59,10.985 -33.879,10.981 l -42.246,0 0,-134.305 49.574,0 c 17.688,0 30.106,4.785 38.098,11.891 7.996,7.078 11.437,16.363 11.426,24.918 z m 47.082,123.644 0,-186.484 -198.164,0 0,186.484 198.164,0"
             id="path4335"
             style="fill:#696566;fill-opacity:1;fill-rule:nonzero;stroke:none" /><path
             d="m 358.645,347.984 c -0.024,-4.437 -1.383,-8.898 -5.36,-12.382 -3.961,-3.489 -10.812,-6.133 -22.168,-6.133 l -22.859,0 0,36.652 21.84,0 c 10.191,0 17.418,-2.062 21.945,-5.293 4.516,-3.246 6.562,-7.508 6.602,-12.844"
             id="path4337"
             style="fill:#696566;fill-opacity:1;fill-rule:nonzero;stroke:none" /><path
             d="m 340.121,391.879 c 4.258,3.07 6.309,7.398 6.34,13.91 -0.02,4.465 -1.293,8.293 -4.508,11.145 -3.223,2.855 -8.695,4.886 -17.523,4.886 l -16.172,0 0,-34.73 11.101,0 c 9.602,-0.012 16.485,1.707 20.762,4.789"
             id="path4339"
             style="fill:#696566;fill-opacity:1;fill-rule:nonzero;stroke:none" /><path
             d="m 154.973,345.301 c 0.054,16.949 -11.239,29.82 -29.285,34.773 4.871,2.488 8.714,5.531 11.542,9.246 3.782,4.977 5.579,11.078 5.567,18.188 0.012,8.738 -3.422,17.644 -10.793,24.308 -7.387,6.661 -18.598,10.985 -33.8907,10.981 l -42.2461,0 0,-134.305 49.5468,0 c 0.02,0 0.031,0 0.031,0 17.696,0 30.102,4.785 38.094,11.891 7.992,7.078 11.441,16.363 11.434,24.918 z m 47.082,123.644 0,-186.484 -198.16438,0 0,186.484 198.16438,0"
             id="path4341"
             style="fill:#696566;fill-opacity:1;fill-rule:nonzero;stroke:none" /><path
             d="m 111.785,391.879 c 4.25,3.07 6.317,7.398 6.352,13.91 -0.012,4.465 -1.301,8.293 -4.52,11.145 -3.226,2.855 -8.695,4.886 -17.5272,4.886 l -16.1601,0 0,-34.73 11.0976,0 c 9.5977,-0.012 16.4847,1.707 20.7577,4.789"
             id="path4343"
             style="fill:#696566;fill-opacity:1;fill-rule:nonzero;stroke:none" /><path
             d="m 123.711,360.828 c -4.531,3.231 -11.762,5.293 -21.938,5.293 l -21.8433,0 0,-36.652 22.8593,0 c 11.352,0 18.195,2.644 22.172,6.133 3.961,3.484 5.332,7.945 5.351,12.382 -0.042,5.336 -2.082,9.598 -6.601,12.844"
             id="path4345"
             style="fill:#696566;fill-opacity:1;fill-rule:nonzero;stroke:none" /><path
             d="m 134.48,140.785 c -27.113,12.051 -43.273,16.711 -59.1558,16.711 -16.7109,0 -27.3945,-6.027 -27.3945,-15.34 0,-28.211 95.0433,-20.265 95.0433,-85.4568 C 142.973,20.8203 112.848,0 71.2109,0 38.6172,0 22.4609,8.49609 3.83203,18.0859 l 0,40.2539 C 30.6797,40.5469 47.1094,34.2383 67.6523,34.2383 c 17.8008,0 27.3907,6.3086 27.3907,17.2656 C 95.043,82.168 0,70.9375 0,138.047 c 0,32.32 27.9414,53.687 71.2109,53.687 20.8203,0 39.7191,-4.386 63.2691,-14.519 l 0,-36.43"
             id="path4347"
             style="fill:#696566;fill-opacity:1;fill-rule:nonzero;stroke:none" /><path
             d="m 280.035,152.836 c -35.605,0 -59.16,-22.731 -59.16,-56.9688 0,-34.2344 23.555,-56.9727 59.16,-56.9727 35.332,0 58.887,22.7383 58.887,56.9727 0,34.2378 -23.555,56.9688 -58.887,56.9688 z M 280.035,0 c -68.473,0 -107.097,48.2148 -107.097,95.8672 0,45.1918 36.707,95.8668 107.097,95.8668 70.391,0 106.82,-50.949 106.82,-95.8668 C 386.855,47.9375 347.141,0 280.035,0"
             id="path4349"
             style="fill:#696566;fill-opacity:1;fill-rule:nonzero;stroke:none" /><path
             d="m 587.555,189.266 40.535,0 0,-186.79725 -46.563,0 0,116.67925 -50.394,-58.6128 -7.125,0 -50.395,58.6128 0,-116.67925 -46.562,0 0,186.79725 40.539,0 59.984,-69.297 59.981,69.297"
             id="path4351"
             style="fill:#696566;fill-opacity:1;fill-rule:nonzero;stroke:none" /><path
             d="m 817.559,2.46875 -137.77,0 0,186.79725 135.856,0 0,-34.239 -89.293,0 0,-39.164 85.179,0 0,-34.2419 -85.179,0 0,-44.9102 91.207,0 0,-34.24215"
             id="path4353"
             style="fill:#696566;fill-opacity:1;fill-rule:nonzero;stroke:none" /><path
             d="m 910.254,112.578 24.652,0 c 12.871,0 25.469,5.477 25.469,21.363 0,13.969 -9.035,21.086 -26.566,21.086 l -23.555,0 0,-42.449 z m 36.976,76.688 c 38.344,0 61.08,-25.746 61.08,-53.68 0,-20.543 -10.681,-35.8829 -32.044,-45.7422 19.168,-9.5899 24.924,-32.5977 51.214,-87.37505 l -51.214,0 C 956.27,42.4609 948.871,78.3398 923.676,78.3398 l -13.422,0 0,-75.87105 -46.563,0 0,186.79725 83.539,0"
             id="path4355"
             style="fill:#696566;fill-opacity:1;fill-rule:nonzero;stroke:none" /><path
             d="m 1182.45,140.785 c -27.11,12.051 -43.28,16.711 -59.16,16.711 -16.7,0 -27.39,-6.027 -27.39,-15.34 0,-28.211 95.04,-20.265 95.04,-85.4568 C 1190.94,20.8203 1160.82,0 1119.18,0 c -32.59,0 -48.75,8.49609 -67.38,18.0859 l 0,40.2539 c 26.85,-17.7929 43.28,-24.1015 63.82,-24.1015 17.8,0 27.39,6.3086 27.39,17.2656 0,30.6641 -95.04,19.4336 -95.04,86.5431 0,32.32 27.93,53.687 71.21,53.687 20.82,0 39.71,-4.386 63.27,-14.519 l 0,-36.43"
             id="path4357"
             style="fill:#696566;fill-opacity:1;fill-rule:nonzero;stroke:none" /><path
             d="m 1369.48,2.46875 -137.78,0 0,186.79725 135.86,0 0,-34.239 -89.29,0 0,-39.164 85.17,0 0,-34.2419 -85.17,0 0,-44.9102 91.21,0 0,-34.24215"
             id="path4359"
             style="fill:#696566;fill-opacity:1;fill-rule:nonzero;stroke:none" /><path
             d="m 1568.82,155.027 -67.64,0 0,-152.55825 -46.57,0 0,152.55825 -67.65,0 0,34.239 181.86,0 0,-34.239"
             id="path4361"
             style="fill:#696566;fill-opacity:1;fill-rule:nonzero;stroke:none" /></g></g></g></g></svg>