<?xml version="1.0" encoding="UTF-8" standalone="no"?>
<!-- Created with Inkscape (http://www.inkscape.org/) -->

<svg
   xmlns:dc="http://purl.org/dc/elements/1.1/"
   xmlns:cc="http://creativecommons.org/ns#"
   xmlns:rdf="http://www.w3.org/1999/02/22-rdf-syntax-ns#"
   xmlns:svg="http://www.w3.org/2000/svg"
   xmlns="http://www.w3.org/2000/svg"
   version="1.1"
   width="154.6125"
   height="58.612499"
   id="svg4101"
   xml:space="preserve"><metadata
     id="metadata4107"><rdf:RDF><cc:Work
         rdf:about=""><dc:format>image/svg+xml</dc:format><dc:type
           rdf:resource="http://purl.org/dc/dcmitype/StillImage" /><dc:title></dc:title></cc:Work></rdf:RDF></metadata><defs
     id="defs4105"><clipPath
       id="clipPath4117"><path
         d="M 0,468.945 0,0 l 1236.91,0 0,468.945 -1236.91,0 z"
         id="path4119" /></clipPath></defs><g
     transform="matrix(1.25,0,0,-1.25,0,58.6125)"
     id="g4109"><g
       transform="scale(0.1,0.1)"
       id="g4111"><g
         id="g4113"><g
           clip-path="url(#clipPath4117)"
           id="g4115"><path
             d="m 618.375,344.434 -3.176,-1.946 c -15.344,-9.363 -32.035,-14.386 -47.195,-14.383 -32.445,0.122 -53.824,19.352 -53.91,47.344 0.039,27.371 22.355,47.637 53.09,47.715 15.648,-0.016 29.828,-4.062 46.671,-13.293 l 3.098,-1.703 0,24.996 -1.324,0.516 c -18.996,7.508 -33.711,10.847 -48.242,10.836 -22.465,0.011 -41.957,-7.411 -55.844,-20.004 -13.887,-12.59 -22.133,-30.371 -22.125,-50.782 0.012,-14.222 5.887,-30.898 18.441,-44.121 12.536,-13.23 31.836,-22.882 58.313,-22.867 0.027,0 0.058,0 0.09,0 21.957,0 37.183,4.899 50.945,11.672 l 1.168,0.57 0,25.45 z m 39.359,124.511 0,-186.484 -198.164,0 0,186.484 198.164,0"
             id="path4121"
             style="fill:#696566;fill-opacity:1;fill-rule:nonzero;stroke:none" /><path
             d="m 382.312,345.301 c 0.059,16.949 -11.226,29.82 -29.281,34.773 4.867,2.488 8.727,5.531 11.547,9.246 3.781,4.977 5.582,11.078 5.563,18.188 0.019,8.738 -3.418,17.644 -10.801,24.308 -7.375,6.661 -18.586,10.985 -33.875,10.981 l -42.246,0 0,-134.305 49.574,0 c 17.687,0 30.102,4.785 38.098,11.891 7.996,7.078 11.433,16.363 11.421,24.918 z m 47.083,123.644 0,-186.484 -198.165,0 0,186.484 198.165,0"
             id="path4123"
             style="fill:#696566;fill-opacity:1;fill-rule:nonzero;stroke:none" /><path
             d="m 357.656,347.984 c -0.019,-4.437 -1.383,-8.898 -5.355,-12.382 -3.961,-3.489 -10.817,-6.133 -22.168,-6.133 l -22.863,0 0,36.652 21.839,0 c 10.192,0 17.418,-2.062 21.946,-5.293 4.515,-3.246 6.562,-7.508 6.601,-12.844"
             id="path4125"
             style="fill:#696566;fill-opacity:1;fill-rule:nonzero;stroke:none" /><path
             d="m 339.137,391.879 c 4.258,3.07 6.308,7.398 6.336,13.91 -0.02,4.465 -1.293,8.293 -4.504,11.145 -3.227,2.855 -8.699,4.886 -17.528,4.886 l -16.171,0 0,-34.73 11.105,0 c 9.598,-0.012 16.484,1.707 20.762,4.789"
             id="path4127"
             style="fill:#696566;fill-opacity:1;fill-rule:nonzero;stroke:none" /><path
             d="m 153.984,345.301 c 0.059,16.949 -11.234,29.82 -29.281,34.773 4.867,2.488 8.715,5.531 11.543,9.246 3.777,4.977 5.574,11.078 5.566,18.188 0.008,8.738 -3.421,17.644 -10.796,24.308 -7.383,6.661 -18.594,10.985 -33.8871,10.981 l -42.2461,0 0,-134.305 49.5472,0 c 0.019,0 0.027,0 0.027,0 17.695,0 30.105,4.785 38.098,11.891 7.992,7.078 11.437,16.363 11.429,24.918 z m 47.086,123.644 0,-186.484 -198.16375,0 0,186.484 198.16375,0"
             id="path4129"
             style="fill:#696566;fill-opacity:1;fill-rule:nonzero;stroke:none" /><path
             d="m 110.801,391.879 c 4.25,3.07 6.312,7.398 6.347,13.91 -0.007,4.465 -1.296,8.293 -4.515,11.145 -3.231,2.855 -8.695,4.886 -17.5314,4.886 l -16.1563,0 0,-34.73 11.0938,0 c 9.6015,-0.012 16.4839,1.707 20.7619,4.789"
             id="path4131"
             style="fill:#696566;fill-opacity:1;fill-rule:nonzero;stroke:none" /><path
             d="m 122.727,360.828 c -4.536,3.231 -11.766,5.293 -21.942,5.293 l -21.8397,0 0,-36.652 22.8557,0 c 11.351,0 18.199,2.644 22.176,6.133 3.957,3.484 5.332,7.945 5.347,12.382 -0.043,5.336 -2.078,9.598 -6.597,12.844"
             id="path4133"
             style="fill:#696566;fill-opacity:1;fill-rule:nonzero;stroke:none" /><path
             d="m 107.094,152.836 c -35.6057,0 -59.1604,-22.731 -59.1604,-56.9688 0,-34.2344 23.5547,-56.9727 59.1604,-56.9727 35.332,0 58.886,22.7383 58.886,56.9727 0,34.2378 -23.554,56.9688 -58.886,56.9688 z M 107.094,0 C 38.6211,0 0,48.2148 0,95.8672 c 0,45.1918 36.7031,95.8668 107.094,95.8668 70.39,0 106.82,-50.949 106.82,-95.8668 C 213.914,47.9375 174.199,0 107.094,0"
             id="path4135"
             style="fill:#696566;fill-opacity:1;fill-rule:nonzero;stroke:none" /><path
             d="m 351.625,99.1562 81.074,-96.68745 -60.258,0 -50.668,61.63285 -49.847,-61.63285 -59.442,0 79.157,96.68745 -74.77,90.1098 60.254,0 44.648,-55.051 43.825,55.051 59.16,0 -73.133,-90.1098"
             id="path4137"
             style="fill:#696566;fill-opacity:1;fill-rule:nonzero;stroke:none" /><path
             d="m 585.469,155.027 -82.168,0 0,-41.629 82.168,0 0,-34.2378 -82.168,0 0,-76.69145 -46.563,0 0,186.79725 128.731,0 0,-34.239"
             id="path4139"
             style="fill:#696566;fill-opacity:1;fill-rule:nonzero;stroke:none" /><path
             d="m 719.359,152.836 c -35.605,0 -59.16,-22.731 -59.16,-56.9688 0,-34.2344 23.555,-56.9727 59.16,-56.9727 35.332,0 58.887,22.7383 58.887,56.9727 0,34.2378 -23.555,56.9688 -58.887,56.9688 z M 719.359,0 c -68.468,0 -107.093,48.2148 -107.093,95.8672 0,45.1918 36.703,95.8668 107.093,95.8668 70.391,0 106.825,-50.949 106.825,-95.8668 C 826.184,47.9375 786.465,0 719.359,0"
             id="path4141"
             style="fill:#696566;fill-opacity:1;fill-rule:nonzero;stroke:none" /><path
             d="m 906.09,112.578 24.648,0 c 12.875,0 25.473,5.477 25.473,21.363 0,13.969 -9.039,21.086 -26.566,21.086 l -23.555,0 0,-42.449 z m 36.976,76.688 c 38.344,0 61.084,-25.746 61.084,-53.68 0,-20.543 -10.689,-35.8829 -32.048,-45.7422 19.168,-9.5899 24.918,-32.5977 51.218,-87.37505 l -51.218,0 C 952.105,42.4609 944.707,78.3398 919.512,78.3398 l -13.422,0 0,-75.87105 -46.563,0 0,186.79725 83.539,0"
             id="path4143"
             style="fill:#696566;fill-opacity:1;fill-rule:nonzero;stroke:none" /><path
             d="m 1097.77,36.7109 30.39,0 c 46.84,0 60.81,31.7657 60.81,59.1563 0,32.0468 -17.26,59.1598 -61.36,59.1598 l -29.84,0 0,-118.3161 z m 35.88,152.5551 c 68.2,0 103.26,-42.454 103.26,-93.6722 0,-53.6797 -33.97,-93.12505 -108.48,-93.12505 l -77.22,0 0,186.79725 82.44,0"
             id="path4145"
             style="fill:#696566;fill-opacity:1;fill-rule:nonzero;stroke:none" /></g></g></g></g></svg>