<?xml version="1.0" encoding="UTF-8" standalone="no"?>
<!-- Created with Inkscape (http://www.inkscape.org/) -->

<svg
   xmlns:dc="http://purl.org/dc/elements/1.1/"
   xmlns:cc="http://creativecommons.org/ns#"
   xmlns:rdf="http://www.w3.org/1999/02/22-rdf-syntax-ns#"
   xmlns:svg="http://www.w3.org/2000/svg"
   xmlns="http://www.w3.org/2000/svg"
   version="1.1"
   width="88.974998"
   height="58.612499"
   id="svg4603"
   xml:space="preserve"><metadata
     id="metadata4609"><rdf:RDF><cc:Work
         rdf:about=""><dc:format>image/svg+xml</dc:format><dc:type
           rdf:resource="http://purl.org/dc/dcmitype/StillImage" /><dc:title></dc:title></cc:Work></rdf:RDF></metadata><defs
     id="defs4607"><clipPath
       id="clipPath4619"><path
         d="M 0,468.945 0,0 l 711.84,0 0,468.945 -711.84,0 z"
         id="path4621" /></clipPath></defs><g
     transform="matrix(1.25,0,0,-1.25,0,58.6125)"
     id="g4611"><g
       transform="scale(0.1,0.1)"
       id="g4613"><g
         id="g4615"><g
           clip-path="url(#clipPath4619)"
           id="g4617"><path
             d="m 615.496,344.434 -3.172,-1.946 c -15.347,-9.363 -32.035,-14.386 -47.195,-14.383 -32.449,0.122 -53.824,19.352 -53.914,47.344 0.039,27.371 22.359,47.637 53.094,47.715 15.648,-0.016 29.828,-4.062 46.671,-13.293 l 3.098,-1.703 0,24.996 -1.324,0.516 c -19,7.508 -33.711,10.847 -48.242,10.836 -22.465,0.011 -41.957,-7.411 -55.844,-20.004 -13.887,-12.59 -22.137,-30.371 -22.125,-50.782 0.012,-14.222 5.883,-30.898 18.441,-44.121 12.536,-13.23 31.836,-22.882 58.313,-22.867 0.027,0 0.058,0 0.086,0 21.961,0 37.187,4.899 50.949,11.672 l 1.164,0.57 0,25.45 z m 39.363,124.511 0,-186.484 -198.164,0 0,186.484 198.164,0"
             id="path4623"
             style="fill:#696566;fill-opacity:1;fill-rule:nonzero;stroke:none" /><path
             d="m 379.438,345.301 c 0.058,16.949 -11.231,29.82 -29.282,34.773 4.867,2.488 8.727,5.531 11.547,9.246 3.781,4.977 5.582,11.078 5.563,18.188 0.019,8.738 -3.418,17.644 -10.801,24.308 -7.379,6.661 -18.59,10.985 -33.875,10.981 l -42.246,0 0,-134.305 49.574,0 c 17.684,0 30.102,4.785 38.094,11.891 8,7.078 11.437,16.363 11.426,24.918 z m 47.082,123.644 0,-186.484 -198.165,0 0,186.484 198.165,0"
             id="path4625"
             style="fill:#696566;fill-opacity:1;fill-rule:nonzero;stroke:none" /><path
             d="m 354.781,347.984 c -0.019,-4.437 -1.383,-8.898 -5.355,-12.382 -3.961,-3.489 -10.817,-6.133 -22.168,-6.133 l -22.863,0 0,36.652 21.839,0 c 10.192,0 17.418,-2.062 21.946,-5.293 4.515,-3.246 6.562,-7.508 6.601,-12.844"
             id="path4627"
             style="fill:#696566;fill-opacity:1;fill-rule:nonzero;stroke:none" /><path
             d="m 336.262,391.879 c 4.258,3.07 6.304,7.398 6.336,13.91 -0.02,4.465 -1.293,8.293 -4.508,11.145 -3.223,2.855 -8.695,4.886 -17.524,4.886 l -16.171,0 0,-34.73 11.101,0 c 9.602,-0.012 16.484,1.707 20.766,4.789"
             id="path4629"
             style="fill:#696566;fill-opacity:1;fill-rule:nonzero;stroke:none" /><path
             d="m 151.109,345.301 c 0.059,16.949 -11.238,29.82 -29.285,34.773 4.871,2.488 8.719,5.531 11.543,9.246 3.781,4.977 5.578,11.078 5.571,18.188 0.007,8.738 -3.426,17.644 -10.797,24.308 -7.383,6.661 -18.594,10.985 -33.8871,10.981 l -42.2461,0 0,-134.305 49.5472,0 c 0.015,0 0.027,0 0.027,0 17.695,0 30.102,4.785 38.098,11.891 7.992,7.078 11.437,16.363 11.429,24.918 z m 47.082,123.644 0,-186.484 -198.15975,0 0,186.484 198.15975,0"
             id="path4631"
             style="fill:#696566;fill-opacity:1;fill-rule:nonzero;stroke:none" /><path
             d="m 107.926,391.879 c 4.246,3.07 6.312,7.398 6.347,13.91 -0.011,4.465 -1.3,8.293 -4.515,11.145 -3.231,2.855 -8.699,4.886 -17.5314,4.886 l -16.1563,0 0,-34.73 11.0938,0 c 9.5976,-0.012 16.4839,1.707 20.7619,4.789"
             id="path4633"
             style="fill:#696566;fill-opacity:1;fill-rule:nonzero;stroke:none" /><path
             d="m 119.848,360.828 c -4.532,3.231 -11.762,5.293 -21.9378,5.293 l -21.8399,0 0,-36.652 22.8555,0 c 11.3512,0 18.1992,2.644 22.1722,6.133 3.961,3.484 5.332,7.945 5.351,12.382 -0.043,5.336 -2.078,9.598 -6.601,12.844"
             id="path4635"
             style="fill:#696566;fill-opacity:1;fill-rule:nonzero;stroke:none" /><path
             d="m 181.863,155.027 -67.648,0 0,-152.55825 -46.5627,0 0,152.55825 -67.6523,0 0,34.239 181.863,0 0,-34.239"
             id="path4637"
             style="fill:#696566;fill-opacity:1;fill-rule:nonzero;stroke:none" /><path
             d="m 348.066,2.46875 -137.769,0 0,186.79725 135.855,0 0,-34.239 -89.293,0 0,-39.164 85.184,0 0,-34.2419 -85.184,0 0,-44.9102 91.207,0 0,-34.24215"
             id="path4639"
             style="fill:#696566;fill-opacity:1;fill-rule:nonzero;stroke:none" /><path
             d="m 532.211,2.46875 -137.77,0 0,186.79725 135.856,0 0,-34.239 -89.289,0 0,-39.164 85.18,0 0,-34.2419 -85.18,0 0,-44.9102 91.203,0 0,-34.24215"
             id="path4641"
             style="fill:#696566;fill-opacity:1;fill-rule:nonzero;stroke:none" /><path
             d="m 703.352,140.785 c -27.118,12.051 -43.278,16.711 -59.164,16.711 -16.708,0 -27.391,-6.027 -27.391,-15.34 0,-28.211 95.043,-20.265 95.043,-85.4568 C 711.84,20.8203 681.715,0 640.078,0 607.484,0 591.328,8.49609 572.699,18.0859 l 0,40.2539 c 26.848,-17.7929 43.278,-24.1015 63.821,-24.1015 17.8,0 27.39,6.3086 27.39,17.2656 0,30.6641 -95.043,19.4336 -95.043,86.5431 0,32.32 27.942,53.687 71.211,53.687 20.82,0 39.719,-4.386 63.274,-14.519 l 0,-36.43"
             id="path4643"
             style="fill:#696566;fill-opacity:1;fill-rule:nonzero;stroke:none" /></g></g></g></g></svg>