<?xml version="1.0" encoding="UTF-8" standalone="no"?>
<!-- Created with Inkscape (http://www.inkscape.org/) -->

<svg
   xmlns:dc="http://purl.org/dc/elements/1.1/"
   xmlns:cc="http://creativecommons.org/ns#"
   xmlns:rdf="http://www.w3.org/1999/02/22-rdf-syntax-ns#"
   xmlns:svg="http://www.w3.org/2000/svg"
   xmlns="http://www.w3.org/2000/svg"
   version="1.1"
   width="231.14999"
   height="93.612503"
   id="svg3311"
   xml:space="preserve"><metadata
     id="metadata3317"><rdf:RDF><cc:Work
         rdf:about=""><dc:format>image/svg+xml</dc:format><dc:type
           rdf:resource="http://purl.org/dc/dcmitype/StillImage" /><dc:title></dc:title></cc:Work></rdf:RDF></metadata><defs
     id="defs3315"><clipPath
       id="clipPath3327"><path
         d="m 0,0 1849,0 0,748.945 -1849,0 L 0,0 z"
         id="path3329" /></clipPath></defs><g
     transform="matrix(1.25,0,0,-1.25,0,93.6125)"
     id="g3319"><g
       transform="scale(0.1,0.1)"
       id="g3321"><g
         id="g3323"><g
           clip-path="url(#clipPath3327)"
           id="g3325"><path
             d="m 621.664,624.434 -3.172,-1.946 c -15.347,-9.363 -32.039,-14.386 -47.199,-14.383 -32.445,0.122 -53.82,19.352 -53.91,47.344 0.039,27.371 22.359,47.637 53.09,47.715 15.648,-0.016 29.832,-4.062 46.675,-13.293 l 3.094,-1.703 0,24.996 -1.32,0.516 c -19,7.508 -33.711,10.847 -48.242,10.836 -22.465,0.011 -41.957,-7.411 -55.844,-20.004 -13.891,-12.59 -22.137,-30.371 -22.125,-50.782 0.008,-14.222 5.883,-30.898 18.441,-44.121 12.536,-13.23 31.836,-22.882 58.313,-22.867 0.027,0 0.055,0 0.086,0 21.957,0 37.187,4.899 50.945,11.672 l 1.168,0.57 0,25.45 z m 39.359,124.511 0,-186.484 -198.164,0 0,186.484 198.164,0"
             id="path3331"
             style="fill:#696566;fill-opacity:1;fill-rule:nonzero;stroke:none" /><path
             d="m 385.605,625.301 c 0.059,16.949 -11.23,29.82 -29.281,34.773 4.867,2.488 8.727,5.531 11.547,9.246 3.777,4.977 5.582,11.078 5.563,18.188 0.019,8.738 -3.418,17.644 -10.801,24.308 -7.379,6.661 -18.59,10.985 -33.879,10.981 l -42.246,0 0,-134.305 49.578,0 c 17.684,0 30.102,4.785 38.094,11.891 8,7.078 11.433,16.367 11.425,24.918 z m 47.083,123.644 0,-186.484 -198.168,0 0,186.484 198.168,0"
             id="path3333"
             style="fill:#696566;fill-opacity:1;fill-rule:nonzero;stroke:none" /><path
             d="m 360.945,627.984 c -0.015,-4.437 -1.379,-8.898 -5.355,-12.382 -3.957,-3.489 -10.817,-6.133 -22.168,-6.133 l -22.86,0 0,36.652 21.84,0 c 10.192,0 17.418,-2.062 21.946,-5.293 4.515,-3.246 6.558,-7.508 6.597,-12.844"
             id="path3335"
             style="fill:#696566;fill-opacity:1;fill-rule:nonzero;stroke:none" /><path
             d="m 342.426,671.879 c 4.258,3.07 6.308,7.398 6.34,13.91 -0.02,4.465 -1.293,8.293 -4.508,11.145 -3.223,2.855 -8.696,4.886 -17.524,4.886 l -16.172,0 0,-34.73 11.102,0 c 9.602,-0.012 16.484,1.707 20.762,4.789"
             id="path3337"
             style="fill:#696566;fill-opacity:1;fill-rule:nonzero;stroke:none" /><path
             d="m 157.273,625.301 c 0.063,16.949 -11.234,29.82 -29.281,34.773 4.867,2.488 8.719,5.531 11.543,9.246 3.781,4.977 5.578,11.078 5.567,18.188 0.011,8.738 -3.422,17.644 -10.793,24.308 -7.383,6.661 -18.594,10.985 -33.887,10.981 l -42.2501,0 0,-134.305 49.5471,0 c 0.019,0 0.031,0 0.031,0 17.695,0 30.102,4.785 38.094,11.891 7.996,7.078 11.441,16.367 11.429,24.918 z m 47.086,123.644 0,-186.484 -198.16369,0 0,186.484 198.16369,0"
             id="path3339"
             style="fill:#696566;fill-opacity:1;fill-rule:nonzero;stroke:none" /><path
             d="m 114.094,671.879 c 4.246,3.07 6.312,7.398 6.344,13.91 -0.008,4.465 -1.297,8.293 -4.516,11.145 -3.227,2.855 -8.695,4.886 -17.5275,4.886 l -16.1601,0 0,-34.73 11.0976,0 c 9.598,-0.012 16.48,1.707 20.762,4.789"
             id="path3341"
             style="fill:#696566;fill-opacity:1;fill-rule:nonzero;stroke:none" /><path
             d="m 126.016,640.828 c -4.532,3.231 -11.762,5.293 -21.938,5.293 l -21.8436,0 0,-36.652 22.8596,0 c 11.351,0 18.195,2.644 22.172,6.133 3.961,3.484 5.332,7.945 5.351,12.382 -0.043,5.336 -2.082,9.598 -6.601,12.844"
             id="path3343"
             style="fill:#696566;fill-opacity:1;fill-rule:nonzero;stroke:none" /><path
             d="m 192.555,282.469 -46.563,0 0,75.597 -93.1248,0 0,-75.597 -46.56251,0 0,186.797 46.56251,0 0,-75.047 93.1248,0 0,75.047 46.563,0 0,-186.797"
             id="path3345"
             style="fill:#696566;fill-opacity:1;fill-rule:nonzero;stroke:none" /><path
             d="m 380.93,282.469 -137.77,0 0,186.797 135.856,0 0,-34.239 -89.293,0 0,-39.164 85.179,0 0,-34.242 -85.179,0 0,-44.91 91.207,0 0,-34.242"
             id="path3347"
             style="fill:#696566;fill-opacity:1;fill-rule:nonzero;stroke:none" /><path
             d="m 473.734,392.578 24.649,0 c 12.879,0 25.472,5.477 25.472,21.363 0,13.969 -9.035,21.086 -26.566,21.086 l -23.555,0 0,-42.449 z m 36.981,76.688 c 38.344,0 61.078,-25.746 61.078,-53.68 0,-20.543 -10.684,-35.883 -32.047,-45.742 19.172,-9.59 24.922,-32.598 51.215,-87.375 l -51.215,0 c -19.996,39.992 -27.391,75.871 -52.59,75.871 l -13.422,0 0,-75.871 -46.562,0 0,186.797 83.543,0"
             id="path3349"
             style="fill:#696566;fill-opacity:1;fill-rule:nonzero;stroke:none" /><path
             d="m 758.258,282.469 -137.77,0 0,186.797 135.856,0 0,-34.239 -89.293,0 0,-39.164 85.179,0 0,-34.242 -85.179,0 0,-44.91 91.207,0 0,-34.242"
             id="path3351"
             style="fill:#696566;fill-opacity:1;fill-rule:nonzero;stroke:none" /><path
             d="m 933.227,435.027 -82.168,0 0,-41.629 82.168,0 0,-34.238 -82.168,0 0,-76.691 -46.563,0 0,186.797 128.731,0 0,-34.239"
             id="path3353"
             style="fill:#696566;fill-opacity:1;fill-rule:nonzero;stroke:none" /><path
             d="m 1064.38,432.836 c -35.61,0 -59.17,-22.731 -59.17,-56.969 0,-34.234 23.56,-56.972 59.17,-56.972 35.33,0 58.89,22.738 58.89,56.972 0,34.238 -23.56,56.969 -58.89,56.969 z m 0,-152.836 c -68.478,0 -107.099,48.215 -107.099,95.867 0,45.192 36.703,95.867 107.099,95.867 70.39,0 106.82,-50.949 106.82,-95.867 0,-47.929 -39.72,-95.867 -106.82,-95.867"
             id="path3355"
             style="fill:#696566;fill-opacity:1;fill-rule:nonzero;stroke:none" /><path
             d="m 1253.85,392.578 24.65,0 c 12.87,0 25.47,5.477 25.47,21.363 0,13.969 -9.04,21.086 -26.56,21.086 l -23.56,0 0,-42.449 z m 36.98,76.688 c 38.34,0 61.07,-25.746 61.07,-53.68 0,-20.543 -10.68,-35.883 -32.04,-45.742 19.17,-9.59 24.92,-32.598 51.22,-87.375 l -51.22,0 c -19.99,39.992 -27.39,75.871 -52.59,75.871 l -13.42,0 0,-75.871 -46.56,0 0,186.797 83.54,0"
             id="path3357"
             style="fill:#696566;fill-opacity:1;fill-rule:nonzero;stroke:none" /><path
             d="m 1445.52,316.711 30.4,0 c 46.84,0 60.8,31.766 60.8,59.156 0,32.047 -17.24,59.16 -61.34,59.16 l -29.86,0 0,-118.316 z m 35.88,152.555 c 68.2,0 103.26,-42.454 103.26,-93.672 0,-53.68 -33.96,-93.125 -108.46,-93.125 l -77.24,0 0,186.797 82.44,0"
             id="path3359"
             style="fill:#696566;fill-opacity:1;fill-rule:nonzero;stroke:none" /><path
             d="m 1759.89,425.172 c 0,9.039 -7.13,15.609 -17.27,15.609 -10.13,0 -17.24,-6.023 -17.24,-14.242 0,-6.848 6.83,-16.98 15.87,-24.922 13.42,7.942 18.64,14.516 18.64,23.555 z m -36.71,-67.106 c -13.15,-8.496 -19.17,-16.433 -19.17,-25.195 0,-12.051 10.68,-21.914 23.55,-21.914 8.5,0 19.72,4.102 28.76,10.41 l -33.14,36.699 z m 125.16,21.364 c -10.95,-25.192 -22.73,-42.731 -37.51,-55.875 l 37.51,-41.086 -56.68,0 -13.71,14.797 C 1759.34,285.488 1740.43,280 1719.34,280 c -33.96,0 -59.16,21.094 -59.16,49.305 0,21.359 13.15,38.078 41.91,52.863 -10.68,15.062 -16.99,26.02 -16.99,41.355 0,27.942 24.1,48.211 57.25,48.211 31.78,0 53.96,-18.355 53.96,-44.371 0,-18.082 -12.05,-34.511 -34.78,-47.933 L 1787,350.117 c 8.49,8.496 15.6,18.633 21.36,29.313 l 39.98,0"
             id="path3361"
             style="fill:#696566;fill-opacity:1;fill-rule:nonzero;stroke:none" /><path
             d="M 102.164,0 82.168,0 0,189.266 l 49.3008,0 44.0976,-103.2504 47.9296,103.2504 37.524,0 47.933,-103.2504 43.824,103.2504 49.297,0 L 238.012,0 218.023,0 159.957,121.895 102.164,0"
             id="path3363"
             style="fill:#696566;fill-opacity:1;fill-rule:nonzero;stroke:none" /><path
             d="m 427.191,152.832 c -35.605,0 -59.16,-22.727 -59.16,-56.9648 0,-34.2344 23.555,-56.9727 59.16,-56.9727 35.332,0 58.887,22.7383 58.887,56.9727 0,34.2378 -23.555,56.9648 -58.887,56.9648 z M 427.191,0 c -68.468,0 -107.093,48.2148 -107.093,95.8672 0,45.1878 36.703,95.8708 107.093,95.8708 70.391,0 106.825,-50.957 106.825,-95.8708 C 534.016,47.9375 494.297,0 427.191,0"
             id="path3365"
             style="fill:#696566;fill-opacity:1;fill-rule:nonzero;stroke:none" /><path
             d="m 616.664,112.578 24.648,0 c 12.876,0 25.473,5.477 25.473,21.367 0,13.965 -9.035,21.082 -26.566,21.082 l -23.555,0 0,-42.449 z m 36.981,76.688 c 38.343,0 61.078,-25.75 61.078,-53.68 0,-20.547 -10.684,-35.879 -32.047,-45.7422 19.172,-9.5899 24.922,-32.5977 51.215,-87.37505 l -51.215,0 C 662.68,42.4609 655.281,78.3398 630.09,78.3398 l -13.426,0 0,-75.87105 -46.562,0 0,186.79725 83.543,0"
             id="path3367"
             style="fill:#696566;fill-opacity:1;fill-rule:nonzero;stroke:none" /><path
             d="M 932.145,18.6328 C 906.121,5.21484 886.402,0 858.738,0 786.156,0 750,47.1094 750,95.3203 c 0,49.8557 40.812,96.4177 112.301,96.4177 26.019,0 49.301,-5.488 67.648,-16.445 l 0,-41.621 c -20.539,11.504 -41.355,19.16 -64.363,19.16 -39.719,0 -67.652,-23.555 -67.652,-56.6914 0,-33.4062 27.664,-57.2461 66.558,-57.2461 24.375,0 40.813,7.668 67.653,20.5469 l 0,-40.8086"
             id="path3369"
             style="fill:#696566;fill-opacity:1;fill-rule:nonzero;stroke:none" /><path
             d="m 1111.22,2.46875 -137.779,0 0,186.79725 135.859,0 0,-34.239 -89.3,0 0,-39.168 85.18,0 0,-34.2379 -85.18,0 0,-44.9102 91.22,0 0,-34.24215"
             id="path3371"
             style="fill:#696566;fill-opacity:1;fill-rule:nonzero;stroke:none" /><path
             d="m 1281.53,140.781 c -27.11,12.051 -43.28,16.719 -59.16,16.719 -16.71,0 -27.39,-6.035 -27.39,-15.344 0,-28.211 95.04,-20.261 95.04,-85.4568 C 1290.02,20.8203 1259.89,0 1218.26,0 c -32.59,0 -48.75,8.49609 -67.38,18.0859 l 0,40.2539 c 26.84,-17.7929 43.28,-24.1015 63.81,-24.1015 17.81,0 27.4,6.3086 27.4,17.2656 0,30.6641 -95.04,19.4336 -95.04,86.5431 0,32.324 27.94,53.691 71.21,53.691 20.82,0 39.71,-4.394 63.27,-14.523 l 0,-36.434"
             id="path3373"
             style="fill:#696566;fill-opacity:1;fill-rule:nonzero;stroke:none" /><path
             d="m 1483.89,155.027 -67.65,0 0,-152.55825 -46.57,0 0,152.55825 -67.64,0 0,34.239 181.86,0 0,-34.239"
             id="path3375"
             style="fill:#696566;fill-opacity:1;fill-rule:nonzero;stroke:none" /><path
             d="m 1643.25,2.46875 -137.78,0 0,186.79725 135.86,0 0,-34.239 -89.29,0 0,-39.168 85.18,0 0,-34.2379 -85.18,0 0,-44.9102 91.21,0 0,-34.24215"
             id="path3377"
             style="fill:#696566;fill-opacity:1;fill-rule:nonzero;stroke:none" /><path
             d="m 1731.94,112.578 24.66,0 c 12.87,0 25.47,5.477 25.47,21.367 0,13.965 -9.04,21.082 -26.58,21.082 l -23.55,0 0,-42.449 z m 36.98,76.688 c 38.35,0 61.08,-25.75 61.08,-53.68 0,-20.547 -10.68,-35.879 -32.05,-45.7422 19.17,-9.5899 24.93,-32.5977 51.22,-87.37505 l -51.22,0 c -20,39.99215 -27.39,75.87105 -52.58,75.87105 l -13.43,0 0,-75.87105 -46.56,0 0,186.79725 83.54,0"
             id="path3379"
             style="fill:#696566;fill-opacity:1;fill-rule:nonzero;stroke:none" /></g></g></g></g></svg>