<?xml version="1.0" encoding="UTF-8" standalone="no"?>
<!-- Created with Inkscape (http://www.inkscape.org/) -->

<svg
   xmlns:dc="http://purl.org/dc/elements/1.1/"
   xmlns:cc="http://creativecommons.org/ns#"
   xmlns:rdf="http://www.w3.org/1999/02/22-rdf-syntax-ns#"
   xmlns:svg="http://www.w3.org/2000/svg"
   xmlns="http://www.w3.org/2000/svg"
   version="1.1"
   width="344.86249"
   height="58.299999"
   id="svg3733"
   xml:space="preserve"><metadata
     id="metadata3739"><rdf:RDF><cc:Work
         rdf:about=""><dc:format>image/svg+xml</dc:format><dc:type
           rdf:resource="http://purl.org/dc/dcmitype/StillImage" /><dc:title></dc:title></cc:Work></rdf:RDF></metadata><defs
     id="defs3737"><clipPath
       id="clipPath3749"><path
         d="m 0,0 2758.9,0 0,466 L 0,466 0,0 z"
         id="path3751" /></clipPath></defs><g
     transform="matrix(1.25,0,0,-1.25,0,58.3)"
     id="g3741"><g
       transform="scale(0.1,0.1)"
       id="g3743"><g
         id="g3745"><g
           clip-path="url(#clipPath3749)"
           id="g3747"><path
             d="m 615.824,341.855 -3.172,-1.945 c -15.347,-9.363 -32.039,-14.387 -47.199,-14.383 -32.445,0.121 -53.82,19.352 -53.91,47.344 0.039,27.371 22.359,47.637 53.09,47.715 15.648,-0.016 29.832,-4.063 46.676,-13.293 l 3.093,-1.703 0,24.996 -1.32,0.516 c -19,7.507 -33.711,10.847 -48.242,10.836 -22.469,0.011 -41.957,-7.411 -55.848,-20.004 -13.887,-12.59 -22.133,-30.372 -22.121,-50.782 0.008,-14.222 5.883,-30.898 18.441,-44.121 12.536,-13.23 31.836,-22.883 58.309,-22.867 0.031,0 0.063,0 0.09,0 21.957,0 37.187,4.898 50.945,11.672 l 1.168,0.57 0,25.449 z m 39.364,124.512 0,-186.484 -198.168,0 0,186.484 198.168,0"
             id="path3753"
             style="fill:#696566;fill-opacity:1;fill-rule:nonzero;stroke:none" /><path
             d="m 379.766,342.723 c 0.058,16.949 -11.231,29.82 -29.282,34.773 4.868,2.488 8.727,5.531 11.547,9.246 3.781,4.977 5.582,11.078 5.563,18.188 0.019,8.738 -3.418,17.644 -10.801,24.308 -7.379,6.66 -18.59,10.985 -33.879,10.981 l -42.246,0 0,-134.305 49.574,0 c 17.688,0 30.106,4.785 38.098,11.891 8,7.078 11.433,16.367 11.426,24.918 z m 47.082,123.644 0,-186.484 -198.164,0 0,186.484 198.164,0"
             id="path3755"
             style="fill:#696566;fill-opacity:1;fill-rule:nonzero;stroke:none" /><path
             d="m 355.105,345.406 c -0.015,-4.437 -1.378,-8.898 -5.355,-12.383 -3.957,-3.488 -10.812,-6.132 -22.168,-6.132 l -22.859,0 0,36.656 21.839,0 c 10.192,0 17.418,-2.067 21.946,-5.293 4.515,-3.25 6.558,-7.512 6.597,-12.848"
             id="path3757"
             style="fill:#696566;fill-opacity:1;fill-rule:nonzero;stroke:none" /><path
             d="m 336.586,389.301 c 4.258,3.07 6.309,7.398 6.34,13.91 -0.02,4.465 -1.293,8.293 -4.508,11.144 -3.223,2.856 -8.695,4.887 -17.523,4.887 l -16.172,0 0,-34.73 11.101,0 c 9.602,-0.012 16.485,1.707 20.762,4.789"
             id="path3759"
             style="fill:#696566;fill-opacity:1;fill-rule:nonzero;stroke:none" /><path
             d="m 151.438,342.723 c 0.054,16.949 -11.239,29.82 -29.286,34.773 4.868,2.488 8.715,5.531 11.543,9.246 3.782,4.977 5.578,11.078 5.567,18.188 0.011,8.738 -3.422,17.644 -10.793,24.308 -7.383,6.66 -18.598,10.985 -33.887,10.981 l -42.2461,0 0,-134.305 49.5431,0 c 0.019,0 0.031,0 0.031,0 17.695,0 30.102,4.785 38.094,11.891 7.992,7.078 11.441,16.367 11.434,24.918 z m 47.082,123.644 0,-186.484 -198.164531,0 0,186.484 198.164531,0"
             id="path3761"
             style="fill:#696566;fill-opacity:1;fill-rule:nonzero;stroke:none" /><path
             d="m 108.254,389.301 c 4.246,3.07 6.312,7.398 6.348,13.91 -0.012,4.465 -1.301,8.293 -4.52,11.144 -3.227,2.856 -8.695,4.887 -17.5273,4.887 l -16.1563,0 0,-34.73 11.0899,0 c 9.6015,-0.012 16.4887,1.707 20.7657,4.789"
             id="path3763"
             style="fill:#696566;fill-opacity:1;fill-rule:nonzero;stroke:none" /><path
             d="m 120.176,358.254 c -4.531,3.226 -11.762,5.293 -21.9377,5.293 l -21.8399,0 0,-36.656 22.8555,0 c 11.3511,0 18.1951,2.644 22.1721,6.132 3.961,3.485 5.332,7.946 5.351,12.383 -0.043,5.336 -2.082,9.598 -6.601,12.848"
             id="path3765"
             style="fill:#696566;fill-opacity:1;fill-rule:nonzero;stroke:none" /><path
             d="m 1142.01,189.266 40.52,0 0,-186.79334 -46.56,0 0,116.67534 -50.39,-58.6128 -7.13,0 -50.42,58.6128 0,-116.67534 -46.565,0 0,186.79334 40.535,0 60.03,-69.293 59.98,69.293"
             id="path3767"
             style="fill:#696566;fill-opacity:1;fill-rule:nonzero;stroke:none" /><path
             d="m 1376.11,2.47266 -137.77,0 0,186.79334 135.85,0 0,-34.239 -89.28,0 0,-39.168 85.18,0 0,-34.2379 -85.18,0 0,-44.9102 91.2,0 0,-34.23824"
             id="path3769"
             style="fill:#696566;fill-opacity:1;fill-rule:nonzero;stroke:none" /><path
             d="m 1470.29,112.578 24.65,0 c 12.87,0 25.47,5.477 25.47,21.356 0,13.976 -9.04,21.093 -26.57,21.093 l -23.55,0 0,-42.449 z m 36.97,76.688 c 38.35,0 61.08,-25.75 61.08,-53.68 0,-20.547 -10.68,-35.8907 -32.04,-45.7422 19.16,-9.5899 24.93,-32.5977 51.21,-87.37114 l -51.21,0 c -20,39.98824 -27.4,75.86714 -52.59,75.86714 l -13.42,0 0,-75.86714 -46.56,0 0,186.79334 83.53,0"
             id="path3771"
             style="fill:#696566;fill-opacity:1;fill-rule:nonzero;stroke:none" /><path
             d="m 1742.49,140.781 c -27.12,12.051 -43.28,16.707 -59.16,16.707 -16.71,0 -27.4,-6.023 -27.4,-15.332 0,-28.211 95.04,-20.269 95.04,-85.4568 C 1750.97,20.8203 1720.85,0 1679.21,0 c -32.59,0 -48.75,8.49609 -67.38,18.0859 l 0,40.2539 c 26.86,-17.7929 43.28,-24.1015 63.83,-24.1015 17.79,0 27.38,6.3086 27.38,17.2656 0,30.6641 -95.04,19.4336 -95.04,86.5431 0,32.312 27.94,53.68 71.21,53.68 20.82,0 39.72,-4.383 63.28,-14.508 l 0,-36.438"
             id="path3773"
             style="fill:#696566;fill-opacity:1;fill-rule:nonzero;stroke:none" /><path
             d="m 1929.51,2.47266 -137.78,0 0,186.79334 135.86,0 0,-34.239 -89.29,0 0,-39.168 85.17,0 0,-34.2379 -85.17,0 0,-44.9102 91.21,0 0,-34.23824"
             id="path3775"
             style="fill:#696566;fill-opacity:1;fill-rule:nonzero;stroke:none" /><path
             d="m 2009.99,89.8438 -73.69,99.4222 56.43,0 40.54,-58.614 40.81,58.614 56.15,0 -73.68,-99.4222 0,-87.37114 -46.56,0 0,87.37114"
             id="path3777"
             style="fill:#696566;fill-opacity:1;fill-rule:nonzero;stroke:none" /><path
             d="m 2257.27,140.781 c -27.12,12.051 -43.27,16.707 -59.16,16.707 -16.71,0 -27.39,-6.023 -27.39,-15.332 0,-28.211 95.04,-20.269 95.04,-85.4568 C 2265.76,20.8203 2235.64,0 2194,0 c -32.6,0 -48.75,8.49609 -67.38,18.0859 l 0,40.2539 c 26.85,-17.7929 43.28,-24.1015 63.82,-24.1015 17.8,0 27.39,6.3086 27.39,17.2656 0,30.6641 -95.04,19.4336 -95.04,86.5431 0,32.312 27.94,53.68 71.21,53.68 20.82,0 39.72,-4.383 63.27,-14.508 l 0,-36.438"
             id="path3779"
             style="fill:#696566;fill-opacity:1;fill-rule:nonzero;stroke:none" /><path
             d="m 2307.07,2.47266 46.5586,0 0,186.793 -46.5586,0 0,-186.793 z"
             id="path3781"
             style="fill:#696566;fill-opacity:1;fill-rule:nonzero;stroke:none" /><path
             d="m 2453.02,36.7109 30.41,0 c 46.84,0 60.8,31.7657 60.8,59.1563 0,32.0428 -17.25,59.1598 -61.34,59.1598 l -29.87,0 0,-118.3161 z m 35.88,152.5551 c 68.2,0 103.26,-42.461 103.26,-93.6683 0,-53.6836 -33.96,-93.12504 -108.45,-93.12504 l -77.25,0 0,186.79334 82.44,0"
             id="path3783"
             style="fill:#696566;fill-opacity:1;fill-rule:nonzero;stroke:none" /><path
             d="m 2758.9,2.47266 -137.76,0 0,186.79334 135.85,0 0,-34.239 -89.29,0 0,-39.168 85.19,0 0,-34.2379 -85.19,0 0,-44.9102 91.2,0 0,-34.23824"
             id="path3785"
             style="fill:#696566;fill-opacity:1;fill-rule:nonzero;stroke:none" /><path
             d="m 45.7812,110.699 24.2305,0 c 12.6485,0 25.0352,5.375 25.0352,20.996 0,13.739 -8.8867,20.727 -26.1172,20.727 l -23.1485,0 0,-41.723 z m 36.3477,75.395 c 37.6991,0 60.0511,-25.324 60.0511,-52.785 0,-20.196 -10.504,-35.266 -31.504,-44.9652 18.851,-9.418 24.496,-32.043 50.347,-85.90239 l -50.347,0 C 91.0195,41.7461 83.7461,77.043 58.9688,77.043 l -13.1876,0 0,-74.60159 -45.7812,0 0,183.65259 82.1289,0"
             id="path3787"
             style="fill:#696566;fill-opacity:1;fill-rule:nonzero;stroke:none" /><path
             d="m 266.605,142.203 -26.925,-71.3553 56.55,0 -29.625,71.3553 z m 107.45,-139.76159 -49.285,0 -15.082,36.35939 -82.129,0 -13.731,-36.35939 -48.461,0 74.047,183.65259 53.047,0 81.594,-183.65259"
             id="path3789"
             style="fill:#696566;fill-opacity:1;fill-rule:nonzero;stroke:none" /><path
             d="m 443.555,36.0938 29.879,0 c 46.074,0 59.785,31.25 59.785,58.1718 0,31.5044 -16.946,58.1564 -60.293,58.1564 l -29.371,0 0,-116.3282 z m 35.269,150.0002 c 67.067,0 101.528,-41.731 101.528,-92.094 0,-52.7695 -33.399,-91.55859 -106.622,-91.55859 l -75.941,0 0,183.65259 81.035,0"
             id="path3791"
             style="fill:#696566;fill-opacity:1;fill-rule:nonzero;stroke:none" /><path
             d="m 618.367,2.44141 45.7773,0 0,183.652 -45.7773,0 0,-183.652 z"
             id="path3793"
             style="fill:#696566;fill-opacity:1;fill-rule:nonzero;stroke:none" /><path
             d="m 806.594,150.289 c -35,0 -58.18,-22.355 -58.18,-56.0234 0,-33.6523 23.18,-56.0039 58.18,-56.0039 34.73,0 57.886,22.3516 57.886,56.0039 0,33.6684 -23.156,56.0234 -57.886,56.0234 z m 0,-150.2694688 c -67.336,0 -105.289,47.3906688 -105.289,94.2460688 0,44.4334 36.09,94.2504 105.289,94.2504 69.191,0 105.023,-50.098 105.023,-94.2504 0,-47.1289 -39.055,-94.2460688 -105.023,-94.2460688"
             id="path3795"
             style="fill:#696566;fill-opacity:1;fill-rule:nonzero;stroke:none" /></g></g></g></g></svg>