<?xml version="1.0" encoding="UTF-8" standalone="no"?>
<!-- Created with Inkscape (http://www.inkscape.org/) -->

<svg
   xmlns:dc="http://purl.org/dc/elements/1.1/"
   xmlns:cc="http://creativecommons.org/ns#"
   xmlns:rdf="http://www.w3.org/1999/02/22-rdf-syntax-ns#"
   xmlns:svg="http://www.w3.org/2000/svg"
   xmlns="http://www.w3.org/2000/svg"
   version="1.1"
   width="479.25"
   height="58.287498"
   id="svg3203"
   xml:space="preserve"><metadata
     id="metadata3209"><rdf:RDF><cc:Work
         rdf:about=""><dc:format>image/svg+xml</dc:format><dc:type
           rdf:resource="http://purl.org/dc/dcmitype/StillImage" /><dc:title></dc:title></cc:Work></rdf:RDF></metadata><defs
     id="defs3207" /><g
     transform="matrix(1.25,0,0,-1.25,0,58.2875)"
     id="g3211"><g
       transform="scale(0.1,0.1)"
       id="g3213"><path
         d="m 615.824,341.836 -3.172,-1.941 c -15.347,-9.368 -32.039,-14.391 -47.199,-14.387 -32.445,0.121 -53.82,19.351 -53.91,47.344 0.039,27.375 22.359,47.636 53.09,47.714 15.648,-0.015 29.832,-4.062 46.676,-13.289 l 3.093,-1.707 0,24.996 -1.32,0.52 c -19,7.504 -33.711,10.844 -48.242,10.832 -22.469,0.012 -41.957,-7.41 -55.848,-20.004 -13.887,-12.586 -22.133,-30.371 -22.121,-50.781 0.008,-14.223 5.883,-30.899 18.441,-44.121 12.536,-13.231 31.836,-22.879 58.309,-22.867 0.031,0 0.063,0 0.09,0 21.957,0 37.187,4.898 50.945,11.671 l 1.168,0.571 0,25.449 z m 39.364,124.512 0,-186.485 -198.168,0 0,186.485 198.168,0"
         id="path3215"
         style="fill:#696566;fill-opacity:1;fill-rule:nonzero;stroke:none" /><path
         d="m 379.766,342.703 c 0.058,16.949 -11.231,29.82 -29.282,34.774 4.868,2.488 8.727,5.531 11.547,9.246 3.781,4.976 5.582,11.082 5.563,18.191 0.019,8.734 -3.418,17.641 -10.801,24.305 -7.379,6.66 -18.59,10.988 -33.879,10.98 l -42.246,0 0,-134.304 49.574,0 c 17.688,0 30.106,4.785 38.098,11.89 8,7.078 11.433,16.367 11.426,24.918 z m 47.082,123.645 0,-186.485 -198.164,0 0,186.485 198.164,0"
         id="path3217"
         style="fill:#696566;fill-opacity:1;fill-rule:nonzero;stroke:none" /><path
         d="m 355.105,345.387 c -0.015,-4.438 -1.378,-8.899 -5.355,-12.383 -3.957,-3.488 -10.812,-6.133 -22.168,-6.133 l -22.859,0 0,36.656 21.839,0 c 10.192,0 17.418,-2.066 21.946,-5.293 4.515,-3.25 6.558,-7.511 6.597,-12.847"
         id="path3219"
         style="fill:#696566;fill-opacity:1;fill-rule:nonzero;stroke:none" /><path
         d="m 336.586,389.281 c 4.258,3.074 6.309,7.399 6.34,13.914 -0.02,4.461 -1.293,8.289 -4.508,11.141 -3.223,2.855 -8.695,4.887 -17.523,4.887 l -16.172,0 0,-34.731 11.101,0 c 9.602,-0.008 16.485,1.711 20.762,4.789"
         id="path3221"
         style="fill:#696566;fill-opacity:1;fill-rule:nonzero;stroke:none" /><path
         d="m 151.438,342.703 c 0.054,16.949 -11.239,29.82 -29.286,34.774 4.868,2.488 8.715,5.531 11.543,9.246 3.782,4.976 5.578,11.082 5.567,18.191 0.011,8.734 -3.422,17.641 -10.793,24.305 -7.383,6.66 -18.598,10.988 -33.887,10.98 l -42.2461,0 0,-134.304 49.5431,0 c 0.019,0 0.031,0 0.031,0 17.695,0 30.102,4.785 38.094,11.89 7.992,7.078 11.441,16.367 11.434,24.918 z m 47.082,123.645 0,-186.485 -198.164531,0 0,186.485 198.164531,0"
         id="path3223"
         style="fill:#696566;fill-opacity:1;fill-rule:nonzero;stroke:none" /><path
         d="m 108.254,389.281 c 4.246,3.074 6.312,7.399 6.348,13.914 -0.012,4.461 -1.301,8.289 -4.52,11.141 -3.227,2.855 -8.695,4.887 -17.5273,4.887 l -16.1563,0 0,-34.731 11.0899,0 c 9.6015,-0.008 16.4887,1.711 20.7657,4.789"
         id="path3225"
         style="fill:#696566;fill-opacity:1;fill-rule:nonzero;stroke:none" /><path
         d="m 120.176,358.234 c -4.531,3.227 -11.762,5.293 -21.9377,5.293 l -21.8399,0 0,-36.656 22.8555,0 c 11.3511,0 18.1951,2.645 22.1721,6.133 3.961,3.484 5.332,7.945 5.351,12.383 -0.043,5.336 -2.082,9.597 -6.601,12.847"
         id="path3227"
         style="fill:#696566;fill-opacity:1;fill-rule:nonzero;stroke:none" /><path
         d="m 1167.3,135.668 c -23.83,11.504 -46.84,17.246 -69.84,17.246 -50.68,0 -68.44,-31.219 -68.44,-58.8867 0,-33.1757 25.98,-55.0898 64.6,-55.0898 11.5,0 17.25,1.1133 30.95,6.582 l 0,21.9141 -27.11,0 0,34.2694 73.67,0 0,-76.4608 c -13.97,-14.5078 -48.48,-25.1914188 -78.61,-25.1914188 -65.14,0 -111.43,39.7265188 -111.43,95.6172188 0,56.973 46.01,96.144 112.53,96.144 27.94,0 55.05,-6.3 73.68,-15.343 l 0,-40.801"
         id="path3229"
         style="fill:#696566;fill-opacity:1;fill-rule:nonzero;stroke:none" /><path
         d="m 1363.34,2.51172 -142.43,0 0,186.82828 46.57,0 0,-152.5939 95.86,0 0,-34.23438"
         id="path3231"
         style="fill:#696566;fill-opacity:1;fill-rule:nonzero;stroke:none" /><path
         d="m 1476.97,152.914 c -35.61,0 -59.16,-22.734 -59.16,-56.9726 0,-34.2695 23.55,-57.0039 59.16,-57.0039 35.33,0 58.88,22.7344 58.88,57.0039 0,34.2386 -23.55,56.9726 -58.88,56.9726 z m 0,-152.8632188 c -68.48,0 -107.1,48.2031188 -107.1,95.8906188 0,45.1956 36.71,95.8706 107.1,95.8706 70.39,0 106.81,-50.949 106.81,-95.8706 0,-47.9609 -39.71,-95.8906188 -106.81,-95.8906188"
         id="path3233"
         style="fill:#696566;fill-opacity:1;fill-rule:nonzero;stroke:none" /><path
         d="m 1808.04,189.34 0,-106.0275 c 0,-61.8945 -42.19,-83.2617188 -93.4,-83.2617188 -54.23,0 -93.39,25.1914188 -93.39,82.9844188 l 0,106.3048 46.56,0 0,-107.3947 c 0,-26.8359 19.44,-43.0078 46.29,-43.0078 24.65,0 47.38,12.8906 47.38,46.2891 l 0,104.1134 46.56,0"
         id="path3235"
         style="fill:#696566;fill-opacity:1;fill-rule:nonzero;stroke:none" /><path
         d="m 2026.27,18.6836 c -26.02,-13.41798 -45.74,-18.6328188 -73.4,-18.6328188 -72.58,0 -108.73,47.1094188 -108.73,95.3437188 0,49.8555 40.8,96.4175 112.29,96.4175 26.03,0 49.31,-5.48 67.65,-16.437 l 0,-41.629 c -20.54,11.504 -41.35,19.168 -64.36,19.168 -39.72,0 -67.65,-23.555 -67.65,-56.6992 0,-33.4296 27.65,-57.2773 66.56,-57.2773 24.37,0 40.8,7.6758 67.64,20.5469 l 0,-40.8008"
         id="path3237"
         style="fill:#696566;fill-opacity:1;fill-rule:nonzero;stroke:none" /><path
         d="m 2209.45,2.51172 -137.78,0 0,186.82828 135.86,0 0,-34.238 -89.29,0 0,-39.161 85.18,0 0,-34.2691 -85.18,0 0,-44.9258 91.21,0 0,-34.23438"
         id="path3239"
         style="fill:#696566;fill-opacity:1;fill-rule:nonzero;stroke:none" /><path
         d="m 2380.58,140.863 c -27.11,12.051 -43.27,16.711 -59.16,16.711 -16.7,0 -27.38,-6.027 -27.38,-15.344 0,-28.203 95.04,-20.261 95.04,-85.4839 0,-35.8789 -30.13,-56.6953188 -71.76,-56.6953188 -32.6,0 -48.75,8.4960988 -67.38,18.0859188 l 0,40.2539 c 26.84,-17.7929 43.28,-24.1054 63.81,-24.1054 17.81,0 27.4,6.3125 27.4,17.2695 0,30.6641 -95.04,19.4336 -95.04,86.5743 0,32.316 27.93,53.683 71.21,53.683 20.82,0 39.71,-4.386 63.26,-14.523 l 0,-36.426"
         id="path3241"
         style="fill:#696566;fill-opacity:1;fill-rule:nonzero;stroke:none" /><path
         d="m 2584.32,155.102 -67.65,0 0,-152.59028 -46.56,0 0,152.59028 -67.65,0 0,34.238 181.86,0 0,-34.238"
         id="path3243"
         style="fill:#696566;fill-opacity:1;fill-rule:nonzero;stroke:none" /><path
         d="m 2745.04,2.51172 -137.76,0 0,186.82828 135.85,0 0,-34.238 -89.29,0 0,-39.161 85.18,0 0,-34.2691 -85.18,0 0,-44.9258 91.2,0 0,-34.23438"
         id="path3245"
         style="fill:#696566;fill-opacity:1;fill-rule:nonzero;stroke:none" /><path
         d="m 2837.74,112.66 24.65,0 c 12.88,0 25.48,5.469 25.48,21.36 0,13.972 -9.05,21.082 -26.58,21.082 l -23.55,0 0,-42.442 z m 36.98,76.68 c 38.34,0 61.08,-25.742 61.08,-53.672 0,-20.547 -10.69,-35.8868 -32.05,-45.7422 19.17,-9.6211 24.92,-32.6289 51.22,-87.41408 l -51.22,0 c -20,39.99998 -27.39,75.87888 -52.58,75.87888 l -13.43,0 0,-75.87888 -46.56,0 0,186.82828 83.54,0"
         id="path3247"
         style="fill:#696566;fill-opacity:1;fill-rule:nonzero;stroke:none" /><path
         d="m 3111.42,140.863 c -27.12,12.051 -43.28,16.711 -59.16,16.711 -16.72,0 -27.4,-6.027 -27.4,-15.344 0,-28.203 95.05,-20.261 95.05,-85.4839 0,-35.8789 -30.13,-56.6953188 -71.77,-56.6953188 -32.59,0 -48.75,8.4960988 -67.37,18.0859188 l 0,40.2539 c 26.84,-17.7929 43.27,-24.1054 63.81,-24.1054 17.81,0 27.4,6.3125 27.4,17.2695 0,30.6641 -95.05,19.4336 -95.05,86.5743 0,32.316 27.95,53.683 71.21,53.683 20.82,0 39.73,-4.386 63.28,-14.523 l 0,-36.426"
         id="path3249"
         style="fill:#696566;fill-opacity:1;fill-rule:nonzero;stroke:none" /><path
         d="m 3346.92,2.51172 -46.56,0 0,75.60548 -93.13,0 0,-75.60548 -46.56,0 0,186.82828 46.56,0 0,-75.039 93.13,0 0,75.039 46.56,0 0,-186.82828"
         id="path3251"
         style="fill:#696566;fill-opacity:1;fill-rule:nonzero;stroke:none" /><path
         d="m 3401.91,2.51172 46.5586,0 0,186.828 -46.5586,0 0,-186.828 z"
         id="path3253"
         style="fill:#696566;fill-opacity:1;fill-rule:nonzero;stroke:none" /><path
         d="m 3550.87,112.66 24.66,0 c 12.87,0 25.47,5.469 25.47,21.36 0,13.972 -9.03,21.082 -26.57,21.082 l -23.56,0 0,-42.442 z m 36.99,76.68 c 38.35,0 61.08,-25.742 61.08,-53.672 0,-20.547 -10.68,-35.8868 -32.05,-45.7422 19.17,-9.6211 24.92,-32.6289 51.21,-87.41408 l -51.21,0 c -20,39.99998 -27.39,75.87888 -52.59,75.87888 l -13.43,0 0,-75.87888 -46.56,0 0,186.82828 83.55,0"
         id="path3255"
         style="fill:#696566;fill-opacity:1;fill-rule:nonzero;stroke:none" /><path
         d="m 3834.03,2.51172 -137.77,0 0,186.82828 135.85,0 0,-34.238 -89.28,0 0,-39.161 85.17,0 0,-34.2691 -85.17,0 0,-44.9258 91.2,0 0,-34.23438"
         id="path3257"
         style="fill:#696566;fill-opacity:1;fill-rule:nonzero;stroke:none" /><path
         d="m 45.7812,110.68 24.2305,0 c 12.6485,0 25.0352,5.375 25.0352,20.996 0,13.738 -8.8867,20.726 -26.1172,20.726 l -23.1485,0 0,-41.722 z m 36.3477,75.394 c 37.6991,0 60.0511,-25.32 60.0511,-52.781 0,-20.195 -10.504,-35.2696 -31.504,-44.9688 18.851,-9.418 24.496,-32.043 50.347,-85.90232 l -50.347,0 C 91.0195,41.7305 83.7461,77.0234 58.9688,77.0234 l -13.1876,0 0,-74.60152 -45.7812,0 0,183.65212 82.1289,0"
         id="path3259"
         style="fill:#696566;fill-opacity:1;fill-rule:nonzero;stroke:none" /><path
         d="m 266.605,142.184 -26.925,-71.3559 56.55,0 -29.625,71.3559 z m 107.45,-139.76212 -49.285,0 -15.082,36.35932 -82.129,0 -13.731,-36.35932 -48.461,0 74.047,183.65212 53.047,0 81.594,-183.65212"
         id="path3261"
         style="fill:#696566;fill-opacity:1;fill-rule:nonzero;stroke:none" /><path
         d="m 443.555,36.0742 29.879,0 c 46.074,0 59.785,31.25 59.785,58.1719 0,31.5079 -16.946,58.1559 -60.293,58.1559 l -29.371,0 0,-116.3278 z m 35.269,149.9998 c 67.067,0 101.528,-41.726 101.528,-92.0935 0,-52.7696 -33.399,-91.55862 -106.622,-91.55862 l -75.941,0 0,183.65212 81.035,0"
         id="path3263"
         style="fill:#696566;fill-opacity:1;fill-rule:nonzero;stroke:none" /><path
         d="m 618.367,2.42188 45.7773,0 0,183.652 -45.7773,0 0,-183.652 z"
         id="path3265"
         style="fill:#696566;fill-opacity:1;fill-rule:nonzero;stroke:none" /><path
         d="m 806.594,150.27 c -35,0 -58.18,-22.356 -58.18,-56.0239 0,-33.6484 23.18,-56.0039 58.18,-56.0039 34.73,0 57.886,22.3555 57.886,56.0039 0,33.6679 -23.156,56.0239 -57.886,56.0239 z m 0,-150.27 c -67.336,0 -105.289,47.3945 -105.289,94.2461 0,44.4379 36.09,94.2499 105.289,94.2499 69.191,0 105.023,-50.098 105.023,-94.2499 C 911.617,47.1172 872.562,0 806.594,0"
         id="path3267"
         style="fill:#696566;fill-opacity:1;fill-rule:nonzero;stroke:none" /></g></g></svg>