<?xml version="1.0" encoding="UTF-8" standalone="no"?>
<!-- Created with Inkscape (http://www.inkscape.org/) -->

<svg
   xmlns:dc="http://purl.org/dc/elements/1.1/"
   xmlns:cc="http://creativecommons.org/ns#"
   xmlns:rdf="http://www.w3.org/1999/02/22-rdf-syntax-ns#"
   xmlns:svg="http://www.w3.org/2000/svg"
   xmlns="http://www.w3.org/2000/svg"
   version="1.1"
   width="393.89999"
   height="58.337502"
   id="svg3609"
   xml:space="preserve"><metadata
     id="metadata3615"><rdf:RDF><cc:Work
         rdf:about=""><dc:format>image/svg+xml</dc:format><dc:type
           rdf:resource="http://purl.org/dc/dcmitype/StillImage" /><dc:title></dc:title></cc:Work></rdf:RDF></metadata><defs
     id="defs3613"><clipPath
       id="clipPath3625"><path
         d="m 0,0 3151,0 0,466.672 -3151,0 L 0,0 z"
         id="path3627" /></clipPath></defs><g
     transform="matrix(1.25,0,0,-1.25,0,58.3375)"
     id="g3617"><g
       transform="scale(0.1,0.1)"
       id="g3619"><g
         id="g3621"><g
           clip-path="url(#clipPath3625)"
           id="g3623"><path
             d="m 615.469,342.156 -3.172,-1.941 c -15.348,-9.363 -32.039,-14.391 -47.199,-14.387 -32.446,0.125 -53.825,19.352 -53.91,47.348 0.039,27.371 22.359,47.636 53.089,47.715 15.649,-0.016 29.828,-4.063 46.676,-13.293 l 3.094,-1.703 0,24.996 -1.32,0.515 c -19,7.504 -33.711,10.844 -48.247,10.836 -22.464,0.008 -41.957,-7.414 -55.843,-20.004 -13.887,-12.59 -22.133,-30.371 -22.121,-50.781 0.007,-14.227 5.882,-30.898 18.441,-44.121 12.531,-13.234 31.836,-22.883 58.309,-22.867 0.031,0 0.058,0 0.089,0 21.957,0 37.188,4.894 50.946,11.668 l 1.168,0.574 0,25.445 z m 39.359,124.516 0,-186.484 -198.164,0 0,186.484 198.164,0"
             id="path3629"
             style="fill:#696566;fill-opacity:1;fill-rule:nonzero;stroke:none" /><path
             d="m 379.41,343.027 c 0.059,16.95 -11.23,29.821 -29.281,34.77 4.867,2.492 8.723,5.535 11.547,9.25 3.777,4.976 5.582,11.078 5.558,18.187 0.024,8.735 -3.418,17.641 -10.796,24.309 -7.379,6.66 -18.59,10.984 -33.879,10.98 l -42.247,0 0,-134.308 49.575,0 c 17.687,0 30.101,4.785 38.097,11.89 7.996,7.083 11.434,16.368 11.426,24.922 z m 47.078,123.645 0,-186.484 -198.164,0 0,186.484 198.164,0"
             id="path3631"
             style="fill:#696566;fill-opacity:1;fill-rule:nonzero;stroke:none" /><path
             d="m 354.75,345.707 c -0.02,-4.437 -1.383,-8.895 -5.355,-12.383 -3.961,-3.484 -10.817,-6.133 -22.168,-6.133 l -22.864,0 0,36.657 21.844,0 c 10.188,0 17.414,-2.067 21.941,-5.293 4.52,-3.246 6.563,-7.508 6.602,-12.848"
             id="path3633"
             style="fill:#696566;fill-opacity:1;fill-rule:nonzero;stroke:none" /><path
             d="m 336.23,389.605 c 4.258,3.071 6.309,7.399 6.336,13.911 -0.015,4.464 -1.293,8.293 -4.504,11.144 -3.222,2.856 -8.699,4.887 -17.527,4.887 l -16.172,0 0,-34.731 11.106,0 c 9.597,-0.011 16.484,1.707 20.761,4.789"
             id="path3635"
             style="fill:#696566;fill-opacity:1;fill-rule:nonzero;stroke:none" /><path
             d="m 151.078,343.027 c 0.059,16.95 -11.234,29.821 -29.281,34.77 4.867,2.492 8.715,5.535 11.543,9.25 3.777,4.976 5.574,11.078 5.566,18.187 0.008,8.735 -3.422,17.641 -10.797,24.309 -7.382,6.66 -18.593,10.984 -33.8863,10.98 l -42.2461,0 0,-134.308 49.5464,0 c 0.02,0 0.032,0 0.032,0 17.691,0 30.101,4.785 38.093,11.89 7.993,7.083 11.442,16.368 11.43,24.922 z m 47.086,123.645 0,-186.484 -198.164,0 0,186.484 198.164,0"
             id="path3637"
             style="fill:#696566;fill-opacity:1;fill-rule:nonzero;stroke:none" /><path
             d="m 107.895,389.605 c 4.25,3.071 6.316,7.399 6.347,13.911 -0.008,4.464 -1.297,8.293 -4.515,11.144 -3.227,2.856 -8.696,4.887 -17.5278,4.887 l -16.1601,0 0,-34.731 11.0937,0 c 9.6016,-0.011 16.4842,1.707 20.7622,4.789"
             id="path3639"
             style="fill:#696566;fill-opacity:1;fill-rule:nonzero;stroke:none" /><path
             d="m 119.82,358.555 c -4.531,3.226 -11.761,5.293 -21.9372,5.293 l -21.8437,0 0,-36.657 22.8593,0 c 11.3516,0 18.1956,2.649 22.1716,6.133 3.957,3.488 5.332,7.946 5.352,12.383 -0.043,5.34 -2.082,9.602 -6.602,12.848"
             id="path3641"
             style="fill:#696566;fill-opacity:1;fill-rule:nonzero;stroke:none" /><path
             d="m 45.8945,111 24.2266,0 c 12.6523,0 25.0391,5.379 25.0391,20.996 0,13.742 -8.8868,20.731 -26.1172,20.731 l -23.1485,0 0,-41.727 z m 36.3477,75.398 c 37.6988,0 60.0468,-25.324 60.0468,-52.785 0,-20.195 -10.504,-35.2692 -31.504,-44.9646 18.856,-9.4179 24.496,-32.0468 50.352,-85.90621 l -50.352,0 C 91.1328,42.0508 83.8555,77.3438 59.082,77.3438 l -13.1875,0 0,-74.60161 -45.781219,0 0,183.65581 82.128919,0"
             id="path3643"
             style="fill:#696566;fill-opacity:1;fill-rule:nonzero;stroke:none" /><path
             d="m 266.719,142.504 -26.93,-71.3517 56.555,0 -29.625,71.3517 z M 374.164,2.74219 l -49.281,0 -15.082,36.35941 -82.129,0 -13.731,-36.35941 -48.461,0 74.047,183.65581 53.047,0 81.59,-183.65581"
             id="path3645"
             style="fill:#696566;fill-opacity:1;fill-rule:nonzero;stroke:none" /><path
             d="m 443.668,36.3984 29.879,0 c 46.07,0 59.781,31.25 59.781,58.1719 0,31.5037 -16.941,58.1567 -60.293,58.1567 l -29.367,0 0,-116.3286 z m 35.27,149.9996 c 67.062,0 101.527,-41.73 101.527,-92.0972 0,-52.7696 -33.399,-91.55861 -106.621,-91.55861 l -75.946,0 0,183.65581 81.04,0"
             id="path3647"
             style="fill:#696566;fill-opacity:1;fill-rule:nonzero;stroke:none" /><path
             d="m 618.48,2.74219 45.7773,0 0,183.656 -45.7773,0 0,-183.656 z"
             id="path3649"
             style="fill:#696566;fill-opacity:1;fill-rule:nonzero;stroke:none" /><path
             d="m 806.703,150.59 c -35,0 -58.18,-22.352 -58.18,-56.0197 0,-33.6523 23.18,-56.0039 58.18,-56.0039 34.735,0 57.891,22.3516 57.891,56.0039 0,33.6677 -23.156,56.0197 -57.891,56.0197 z m 0,-150.269688 c -67.332,0 -105.285,47.394488 -105.285,94.249988 0,44.4337 36.086,94.2457 105.285,94.2457 69.195,0 105.027,-50.093 105.027,-94.2457 0,-47.1289 -39.054,-94.249988 -105.027,-94.249988"
             id="path3651"
             style="fill:#696566;fill-opacity:1;fill-rule:nonzero;stroke:none" /><path
             d="m 1121.31,2.42188 -140.294,0 0,183.99212 45.864,0 0,-150.2617 94.43,0 0,-33.73042"
             id="path3653"
             style="fill:#696566;fill-opacity:1;fill-rule:nonzero;stroke:none" /><path
             d="m 1150.21,2.42188 45.8711,0 0,183.992 -45.8711,0 0,-183.992 z"
             id="path3655"
             style="fill:#696566;fill-opacity:1;fill-rule:nonzero;stroke:none" /><path
             d="m 1434.6,2.42188 -38.58,0 -101.71,117.89812 0,-117.89812 -45.85,0 0,183.99212 42.08,0 98.18,-112.496 0,112.496 45.88,0 0,-183.99212"
             id="path3657"
             style="fill:#696566;fill-opacity:1;fill-rule:nonzero;stroke:none" /><path
             d="M 1651.02,18.3398 C 1625.4,5.12891 1605.98,0 1578.72,0 c -71.49,0 -107.09,46.418 -107.09,93.8789 0,49.1091 40.2,94.9611 110.6,94.9611 25.63,0 48.56,-5.395 66.63,-16.192 l 0,-40.992 c -20.23,11.332 -40.73,18.879 -63.38,18.879 -39.13,0 -66.65,-23.207 -66.65,-55.8514 0,-32.8984 27.23,-56.3828 65.56,-56.3828 24.01,0 40.2,7.5664 66.63,20.2344 l 0,-40.1954"
             id="path3659"
             style="fill:#696566;fill-opacity:1;fill-rule:nonzero;stroke:none" /><path
             d="m 1780.85,150.535 c -35.08,0 -58.28,-22.394 -58.28,-56.1209 0,-33.711 23.2,-56.1133 58.28,-56.1133 34.8,0 58.01,22.4023 58.01,56.1133 0,33.7269 -23.21,56.1209 -58.01,56.1209 z M 1780.85,0 c -67.45,0 -105.47,47.4805 -105.47,94.4141 0,44.5239 36.13,94.4259 105.47,94.4259 69.33,0 105.2,-50.172 105.2,-94.4259 C 1886.05,47.207 1846.94,0 1780.85,0"
             id="path3661"
             style="fill:#696566;fill-opacity:1;fill-rule:nonzero;stroke:none" /><path
             d="m 2060.66,2.42188 -140.27,0 0,183.99212 45.87,0 0,-150.2617 94.4,0 0,-33.73042"
             id="path3663"
             style="fill:#696566;fill-opacity:1;fill-rule:nonzero;stroke:none" /><path
             d="m 2271.14,2.42188 -38.58,0 -101.69,117.89812 0,-117.89812 -45.87,0 0,183.99212 42.09,0 98.19,-112.496 0,112.496 45.86,0 0,-183.99212"
             id="path3665"
             style="fill:#696566;fill-opacity:1;fill-rule:nonzero;stroke:none" /><path
             d="m 2444.41,138.668 c -26.7,11.867 -42.61,16.449 -58.27,16.449 -16.45,0 -26.96,-5.937 -26.96,-15.117 0,-27.773 93.59,-19.949 93.59,-84.1602 C 2452.77,20.5195 2423.11,0 2382.09,0 c -32.1,0 -48.01,8.36719 -66.37,17.8047 l 0,39.668 c 26.46,-17.5508 42.64,-23.7422 62.86,-23.7422 17.54,0 27,6.1914 27,16.9922 0,30.2148 -93.63,19.1601 -93.63,85.2463 0,31.824 27.52,52.871 70.14,52.871 20.51,0 39.12,-4.313 62.32,-14.301 l 0,-35.871"
             id="path3667"
             style="fill:#696566;fill-opacity:1;fill-rule:nonzero;stroke:none" /><path
             d="m 2675.12,2.42188 -45.84,0 0,74.47262 -91.73,0 0,-74.47262 -45.87,0 0,183.99212 45.87,0 0,-73.918 91.73,0 0,73.918 45.84,0 0,-183.99212"
             id="path3669"
             style="fill:#696566;fill-opacity:1;fill-rule:nonzero;stroke:none" /><path
             d="m 2729.41,2.42188 45.8516,0 0,183.992 -45.8516,0 0,-183.992 z"
             id="path3671"
             style="fill:#696566;fill-opacity:1;fill-rule:nonzero;stroke:none" /><path
             d="m 2874.87,110.879 24.26,0 c 12.71,0 25.1,5.391 25.1,21.047 0,13.742 -8.89,20.765 -26.15,20.765 l -23.21,0 0,-41.812 z m 36.43,75.535 c 37.75,0 60.15,-25.359 60.15,-52.875 0,-20.238 -10.53,-35.3476 -31.59,-45.0429 18.89,-9.4531 24.56,-32.1289 50.46,-86.07422 l -50.46,0 C 2920.19,41.8164 2912.9,77.1562 2888.08,77.1562 l -13.21,0 0,-74.73432 -45.87,0 0,183.99212 82.3,0"
             id="path3673"
             style="fill:#696566;fill-opacity:1;fill-rule:nonzero;stroke:none" /><path
             d="m 3151.16,2.42188 -135.7,0 0,183.99212 133.81,0 0,-33.723 -87.95,0 0,-38.586 83.89,0 0,-33.7144 -83.89,0 0,-44.2383 89.84,0 0,-33.73042"
             id="path3675"
             style="fill:#696566;fill-opacity:1;fill-rule:nonzero;stroke:none" /></g></g></g></g></svg>