<?xml version="1.0" encoding="UTF-8" standalone="no"?>
<!-- Created with Inkscape (http://www.inkscape.org/) -->

<svg
   xmlns:dc="http://purl.org/dc/elements/1.1/"
   xmlns:cc="http://creativecommons.org/ns#"
   xmlns:rdf="http://www.w3.org/1999/02/22-rdf-syntax-ns#"
   xmlns:svg="http://www.w3.org/2000/svg"
   xmlns="http://www.w3.org/2000/svg"
   version="1.1"
   width="128.5"
   height="65.125"
   id="svg3445"
   xml:space="preserve"><metadata
     id="metadata3451"><rdf:RDF><cc:Work
         rdf:about=""><dc:format>image/svg+xml</dc:format><dc:type
           rdf:resource="http://purl.org/dc/dcmitype/StillImage" /><dc:title></dc:title></cc:Work></rdf:RDF></metadata><defs
     id="defs3449"><clipPath
       id="clipPath3461"><path
         d="M 0,520.984 0,0 l 1027.97,0 0,520.984 -1027.97,0 z"
         id="path3463" /></clipPath></defs><g
     transform="matrix(1.25,0,0,-1.25,0,65.125)"
     id="g3453"><g
       transform="scale(0.1,0.1)"
       id="g3455"><g
         id="g3457"><g
           clip-path="url(#clipPath3461)"
           id="g3459"><path
             d="m 648.652,396.473 -3.172,-1.942 c -15.347,-9.367 -32.039,-14.39 -47.199,-14.386 -32.445,0.125 -53.824,19.351 -53.91,47.343 0.039,27.375 22.359,47.637 53.09,47.715 15.648,-0.012 29.828,-4.062 46.676,-13.289 l 3.093,-1.703 0,24.992 -1.324,0.52 c -18.996,7.504 -33.711,10.843 -48.238,10.836 -22.469,0.007 -41.961,-7.414 -55.848,-20.008 -13.886,-12.586 -22.132,-30.371 -22.125,-50.781 0.012,-14.223 5.887,-30.899 18.446,-44.122 12.535,-13.23 31.836,-22.878 58.308,-22.863 0.031,0 0.059,0 0.09,0 21.957,0 37.188,4.895 50.945,11.668 l 1.168,0.57 0,25.45 z m 39.36,124.511 0,-186.48 -198.164,0 0,186.48 198.164,0"
             id="path3465"
             style="fill:#696566;fill-opacity:1;fill-rule:nonzero;stroke:none" /><path
             d="m 412.594,397.344 c 0.058,16.949 -11.231,29.82 -29.282,34.769 4.868,2.492 8.723,5.532 11.547,9.25 3.778,4.973 5.579,11.078 5.563,18.188 0.016,8.734 -3.418,17.64 -10.805,24.304 -7.375,6.661 -18.586,10.989 -33.875,10.985 l -42.246,0 0,-134.309 49.574,0 c 17.688,0 30.106,4.785 38.098,11.891 7.996,7.082 11.434,16.367 11.426,24.922 z m 47.078,123.64 0,-186.48 -198.164,0 0,186.48 198.164,0"
             id="path3467"
             style="fill:#696566;fill-opacity:1;fill-rule:nonzero;stroke:none" /><path
             d="m 387.934,400.023 c -0.02,-4.437 -1.379,-8.894 -5.356,-12.382 -3.961,-3.485 -10.816,-6.133 -22.168,-6.133 l -22.859,0 0,36.656 21.84,0 c 10.187,0 17.418,-2.066 21.941,-5.293 4.52,-3.246 6.563,-7.512 6.602,-12.848"
             id="path3469"
             style="fill:#696566;fill-opacity:1;fill-rule:nonzero;stroke:none" /><path
             d="m 369.414,443.922 c 4.258,3.07 6.309,7.394 6.34,13.91 -0.024,4.461 -1.297,8.289 -4.508,11.141 -3.223,2.859 -8.695,4.89 -17.523,4.89 l -16.172,0 0,-34.734 11.101,0 c 9.602,-0.008 16.485,1.711 20.762,4.793"
             id="path3471"
             style="fill:#696566;fill-opacity:1;fill-rule:nonzero;stroke:none" /><path
             d="m 184.262,397.344 c 0.058,16.949 -11.235,29.82 -29.282,34.769 4.868,2.492 8.715,5.532 11.543,9.25 3.782,4.973 5.579,11.078 5.567,18.188 0.012,8.734 -3.422,17.64 -10.797,24.304 -7.383,6.661 -18.594,10.989 -33.887,10.985 l -42.2458,0 0,-134.309 49.5468,0 c 0.02,0 0.027,0 0.027,0 17.7,0 30.106,4.785 38.098,11.891 7.992,7.082 11.441,16.367 11.43,24.922 z m 47.086,123.64 0,-186.48 -198.1644,0 0,186.48 198.1644,0"
             id="path3473"
             style="fill:#696566;fill-opacity:1;fill-rule:nonzero;stroke:none" /><path
             d="m 141.078,443.922 c 4.25,3.07 6.317,7.394 6.348,13.91 -0.008,4.461 -1.297,8.289 -4.516,11.141 -3.226,2.859 -8.695,4.89 -17.527,4.89 l -16.16,0 0,-34.734 11.093,0 c 9.602,-0.008 16.485,1.711 20.762,4.793"
             id="path3475"
             style="fill:#696566;fill-opacity:1;fill-rule:nonzero;stroke:none" /><path
             d="m 153.004,412.871 c -4.531,3.227 -11.766,5.293 -21.942,5.293 l -21.839,0 0,-36.656 22.855,0 c 11.356,0 18.199,2.648 22.176,6.133 3.961,3.488 5.332,7.945 5.351,12.382 -0.043,5.336 -2.082,9.602 -6.601,12.848"
             id="path3477"
             style="fill:#696566;fill-opacity:1;fill-rule:nonzero;stroke:none" /><path
             d="M 79.7031,71.7656 C 79.7031,49.3047 75.0469,29.8633 61.3516,16.1602 49.0273,3.83984 32.0469,-1.90625 0,0.554688 L 0,37.2578 c 23.0078,-3.832 33.1406,10.4063 33.1406,33.6875 l 0,170.3637 46.5625,0 0,-169.5434"
             id="path3479"
             style="fill:#696566;fill-opacity:1;fill-rule:nonzero;stroke:none" /><path
             d="m 271.121,54.5117 -137.766,0 0,186.7973 135.856,0 0,-34.239 -89.293,0 0,-39.164 85.18,0 0,-34.246 -85.18,0 0,-44.91 91.203,0 0,-34.2383"
             id="path3481"
             style="fill:#696566;fill-opacity:1;fill-rule:nonzero;stroke:none" /><path
             d="m 363.93,164.617 24.656,0 c 12.867,0 25.469,5.481 25.469,21.363 0,13.969 -9.039,21.09 -26.571,21.09 l -23.554,0 0,-42.453 z m 36.976,76.692 c 38.348,0 61.082,-25.747 61.082,-53.68 0,-20.543 -10.683,-35.887 -32.047,-45.746 19.168,-9.586 24.922,-32.598 51.215,-87.3713 l -51.215,0 c -19.996,39.9922 -27.39,75.8713 -52.586,75.8713 l -13.425,0 0,-75.8713 -46.563,0 0,186.7973 83.539,0"
             id="path3483"
             style="fill:#696566;fill-opacity:1;fill-rule:nonzero;stroke:none" /><path
             d="m 638.867,192.828 c -27.113,12.051 -43.277,16.707 -59.16,16.707 -16.711,0 -27.395,-6.023 -27.395,-15.336 0,-28.215 95.047,-20.269 95.047,-85.461 0,-35.8786 -30.129,-56.6989 -71.761,-56.6989 -32.594,0 -48.75,8.4961 -67.379,18.0898 l 0,40.2541 c 26.843,-17.7932 43.273,-24.1057 63.816,-24.1057 17.805,0 27.395,6.3125 27.395,17.2697 0,30.66 -95.043,19.43 -95.043,86.543 0,32.316 27.937,53.683 71.211,53.683 20.82,0 39.714,-4.382 63.269,-14.515 l 0,-36.43"
             id="path3485"
             style="fill:#696566;fill-opacity:1;fill-rule:nonzero;stroke:none" /><path
             d="m 823.145,54.5117 -137.77,0 0,186.7973 135.855,0 0,-34.239 -89.292,0 0,-39.164 85.179,0 0,-34.246 -85.179,0 0,-44.91 91.207,0 0,-34.2383"
             id="path3487"
             style="fill:#696566;fill-opacity:1;fill-rule:nonzero;stroke:none" /><path
             d="m 907.734,141.883 -73.675,99.426 56.421,0 40.536,-58.614 40.808,58.614 56.146,0 -73.673,-99.426 0,-87.3713 -46.563,0 0,87.3713"
             id="path3489"
             style="fill:#696566;fill-opacity:1;fill-rule:nonzero;stroke:none" /></g></g></g></g></svg>