<?xml version="1.0" encoding="utf-8"?>
<!-- Generator: Adobe Illustrator 15.1.0, SVG Export Plug-In . SVG Version: 6.00 Build 0)  -->
<!DOCTYPE svg PUBLIC "-//W3C//DTD SVG 1.1//EN" "http://www.w3.org/Graphics/SVG/1.1/DTD/svg11.dtd">
<svg version="1.1" id="Layer_1" xmlns="http://www.w3.org/2000/svg" xmlns:xlink="http://www.w3.org/1999/xlink" x="0px" y="0px"
	 width="114.243px" height="114.305px" viewBox="0 0 114.243 114.305" enable-background="new 0 0 114.243 114.305"
	 xml:space="preserve">
<g>
	<circle fill="#FFFFFF" cx="56.927" cy="57.67" r="48.045"/>
	<g>
		<path fill="#1C305D" d="M57.122,0C25.575,0,0,25.588,0,57.152c0,31.566,25.575,57.152,57.122,57.152
			c31.551,0,57.121-25.586,57.121-57.152C114.243,25.588,88.673,0,57.122,0z M88.122,79.861l-11.625-0.006l0.033,14.721
			l-20.812,0.025l-0.029-13.236c0,0-0.021-1.467-1.766-1.529l-29.768,0.023l0.005-12.215c0.008-1.779,0.885-4.4,1.949-5.826
			L57.938,19.14c1.062-1.425,3.387-2.592,5.166-2.589l13.434,0.01l-0.029,46.17l11.621-0.029L88.122,79.861z"/>
		<path fill="#1C305D" d="M57.472,49.826c-4.518,0.092-8.117,3.842-8.021,8.359c0.105,3.92,3.039,7.146,6.867,7.828l2.941,0.525
			c-0.758,5.213-2.707,9.109-7.088,12.33c5.91-2.617,10.434-8.275,12.525-14.268C66.792,58.605,65.604,49.66,57.472,49.826z"/>
	</g>
</g>
</svg>
