<?xml version="1.0" encoding="utf-8"?>
<!-- Generator: Adobe Illustrator 15.1.0, SVG Export Plug-In . SVG Version: 6.00 Build 0)  -->
<!DOCTYPE svg PUBLIC "-//W3C//DTD SVG 1.1//EN" "http://www.w3.org/Graphics/SVG/1.1/DTD/svg11.dtd">
<svg version="1.1" id="Layer_1" xmlns="http://www.w3.org/2000/svg" xmlns:xlink="http://www.w3.org/1999/xlink" x="0px" y="0px"
	  viewBox="0 0 114.375 114.725" enable-background="new 0 0 114.375 114.725"
	 xml:space="preserve">
<g>
	<g>
		<path fill="#FFFFFF" d="M57.188,112.876C26.481,112.876,1.5,87.895,1.5,57.188C1.5,26.481,26.481,1.5,57.188,1.5
			s55.688,24.981,55.688,55.688C112.875,87.895,87.894,112.876,57.188,112.876z"/>
		<path fill="#477F81" d="M57.188,3c29.879,0,54.188,24.309,54.188,54.188c0,29.88-24.309,54.188-54.188,54.188S3,87.067,3,57.188
			C3,27.309,27.309,3,57.188,3 M57.188,0C25.603,0,0,25.604,0,57.188c0,31.584,25.603,57.188,57.188,57.188
			c31.584,0,57.188-25.604,57.188-57.188C114.375,25.604,88.771,0,57.188,0L57.188,0z"/>
	</g>
	<g>
		<path fill="#477F81" d="M57.188,3c29.879,0,54.188,24.309,54.188,54.188c0,29.88-24.309,54.188-54.188,54.188S3,87.067,3,57.188
			C3,27.309,27.309,3,57.188,3 M57.188,0C25.603,0,0,25.604,0,57.188c0,31.584,25.603,57.188,57.188,57.188
			c31.584,0,57.188-25.604,57.188-57.188C114.375,25.604,88.771,0,57.188,0L57.188,0z"/>
	</g>
	<g>
		<path fill="#477F81" d="M63.348,49.487c6.658,3.84,8.934,12.349,5.1,19.008c-3.848,6.66-12.357,8.943-19.01,5.095
			c-6.661-3.839-8.943-12.35-5.099-19.011C48.178,47.925,56.693,45.644,63.348,49.487 M57.326,114.725
			c19.803,0,37.926-10.056,48.475-26.894c0.002-0.004,0.006-0.007,0.012-0.012v0.001v-0.002c0.059-0.092,0.08-0.19,0.08-0.291
			c0-0.181-0.09-0.358-0.252-0.46c-0.256-0.162-0.59-0.089-0.752,0.169c-9.443,14.862-28.113,24.47-47.562,24.47
			c-29.857,0-54.148-24.29-54.148-54.148c0-28.196,21.666-51.417,49.221-53.914l-25.1,43.498
			C19.74,62.381,25.203,81.057,40.14,89.686c15.55,8.975,35.413,3.649,44.396-11.895c8.977-15.546,3.646-35.423-11.896-44.4
			c-4.771-2.749-9.941-4.139-15.08-4.32L71.324,5.2c23.461,6.111,41.805,27.198,41.805,52.205c0,0.301,0.242,0.547,0.545,0.547
			s0.545-0.246,0.545-0.547v-0.324c0-31.791-25.547-56.693-56.893-56.693c-31.521,0-57.17,25.646-57.17,57.17
			C0.156,89.079,25.805,114.725,57.326,114.725"/>
	</g>
</g>
</svg>
