<svg xmlns="http://www.w3.org/2000/svg" width="114.16" height="114.219" viewBox="0 0 114.16 114.219"><circle fill="#fff" cx="58.375" cy="56.361" r="55.334"/><path d="M107.795 30.907c4.06 7.85 6.365 16.754 6.365 26.2 0 .41-.02.813-.03 1.22l-12.147-18.59 5.812-8.83zm-12.95 19.746L87.404 62.05h-14.34S86.13 42.13 87.706 39.733L73.86 18.693H88.14l6.703 10.19c1.633-2.482 4.314-6.56 5.738-8.728C90.115 7.83 74.518 0 57.083 0 25.556 0 0 25.57 0 57.108c0 31.544 25.557 57.11 57.082 57.11 29.86 0 54.348-22.94 56.854-52.168H102.29l-7.444-11.397zm-27.26 44.745H47.48v-54.64h-8.598l11.866-22.02h16.834v76.66z"/></svg>