<svg xmlns="http://www.w3.org/2000/svg" width="114.242" height="114.305" viewBox="0 0 114.242 114.305"><circle fill="#fff" cx="57.057" cy="58.945" r="51.25"/><path fill="#fff" d="M57.12 0C25.575 0 0 25.59 0 57.152c0 31.566 25.574 57.152 57.12 57.152 31.552 0 57.122-25.586 57.122-57.152C114.242 25.59 88.672 0 57.122 0z"/><path fill="#D01875" d="M57.12 0C25.575 0 0 25.59 0 57.152c0 31.566 25.574 57.152 57.12 57.152 31.552 0 57.122-25.586 57.122-57.152C114.242 25.59 88.672 0 57.122 0zm13.155 27.473C66.28 36.783 59.825 45 52.315 51.26c7.507-7.762 13.257-15.11 17.124-25.887l.835 2.1zm-1.357-3.4c-3.82 11.217-10.33 20.58-21.264 30.568 8.81-9.224 16.566-20.83 20.238-33.155l1.026 2.587zm-1.588-4c-4.174 14.55-13.074 27.257-24.467 37.82 10.55-11.358 19.996-25.19 23.37-40.588l1.097 2.767zm-16.662-3.817h14.996c-2.717 12.6-10.33 24.42-16.242 32.117-4.203 5.47-8.15 9.68-10.402 11.958-.45.417-1.744 1.662-1.744 1.662-4.455 4.347-7.283 8.113-10.016 12.593l23.408-58.33zM20.434 91.472c5.872-9.52 14.938-17.262 25.256-23.42-1.84 1.354-3.908 2.983-5.834 4.56-8.084 6.6-14.082 12.857-17.672 18.86h-1.75zm3.308 0c3.557-5.753 8.928-11.36 16.69-17.84 5.132-4.284 7.243-5.81 11.085-8.272-9.847 8.325-19.337 15.854-26.062 26.112h-1.713zm3.534 0c7.03-11.095 22.817-24.1 32.433-31.354-10.796 8.87-24.91 22.112-30.585 31.354h-1.85zm47.59.013l-3.66-10.875h-26.13l-3.963 10.875H30.748c7.482-11.96 32.38-33.192 33.553-34.25 1.185-1.066 9.526-8.213 11.997-14.63l19.408 48.88H74.867z"/></svg>