<?xml version="1.0" encoding="utf-8"?>
<!-- Generator: Adobe Illustrator 15.1.0, SVG Export Plug-In . SVG Version: 6.00 Build 0)  -->
<!DOCTYPE svg PUBLIC "-//W3C//DTD SVG 1.1//EN" "http://www.w3.org/Graphics/SVG/1.1/DTD/svg11.dtd">
<svg version="1.1" id="Layer_1" xmlns="http://www.w3.org/2000/svg" xmlns:xlink="http://www.w3.org/1999/xlink" x="0px" y="0px"
	 width="114.243px" height="114.303px" viewBox="0 0 114.243 114.303" enable-background="new 0 0 114.243 114.303"
	 xml:space="preserve">
<g>
	<circle fill="#FFFFFF" cx="56.428" cy="56.317" r="51.835"/>
	<path fill="#FFFFFF" d="M57.122,0C25.576,0,0,25.589,0,57.151c0,31.565,25.576,57.151,57.122,57.151
		c31.551,0,57.121-25.586,57.121-57.151C114.243,25.589,88.673,0,57.122,0z"/>
	<g>
		<path fill="none" d="M60.435,43.734c-4.092,0-7.57,0.768-10.621,2.367c0.667-3.793,2.117-10.438,2.117-10.438l30.684-0.001
			l3.371-16.974H37.311l-9.371,46.558h18.229l0.613-0.829c2.573-3.495,4.812-4.675,8.857-4.675c6.763,0,9.792,5.43,9.792,10.809
			c0,5.438-3.43,11.216-9.792,11.216c-3.283,0-5.95-1.43-7.571-3.855H27.26c2.367,14.385,15.621,20.885,28.688,20.885
			c7.746,0.166,15.092-2.73,20.634-8.15c5.433-5.322,8.428-12.459,8.428-20.095C85.009,54.763,74.901,43.734,60.435,43.734z"/>
		<path fill="#5B903F" d="M105.743,27.156c-1.74,2.128-3.197,3.909-3.359,4.104c0.304,0.592,6.373,12.278,6.373,12.278h-6.762
			c0,0-2.952-6.015-3.558-7.25c-0.87,1.105-5.702,7.25-5.702,7.25H85.8c0,0,9.7-11.889,10.125-12.408
			c-0.309-0.584-6.135-11.774-6.135-11.774h6.769c0,0,2.684,5.725,3.277,6.994c0.415-0.542,1.646-2.154,2.823-3.695
			C92.229,8.894,75.718,0,57.122,0C25.576,0,0,25.589,0,57.151c0,31.565,25.576,57.151,57.122,57.151
			c31.551,0,57.121-25.586,57.121-57.151C114.243,46.148,111.128,35.876,105.743,27.156z M76.581,90.646
			c-5.542,5.42-12.888,8.316-20.634,8.15c-13.066,0-26.32-6.5-28.688-20.885h20.808c1.621,2.426,4.288,3.855,7.571,3.855
			c6.362,0,9.792-5.778,9.792-11.216c0-5.379-3.029-10.809-9.792-10.809c-4.046,0-6.284,1.18-8.857,4.675l-0.613,0.829H27.939
			l9.371-46.558h48.675l-3.371,16.974l-30.684,0.001c0,0-1.45,6.645-2.117,10.438c3.051-1.6,6.529-2.367,10.621-2.367
			c14.467,0,24.574,11.028,24.574,26.817C85.009,78.188,82.014,85.324,76.581,90.646z"/>
		<path fill="#F9F9FA" d="M96.559,19.356H89.79c0,0,5.826,11.19,6.135,11.774C95.5,31.65,85.8,43.539,85.8,43.539h6.936
			c0,0,4.832-6.145,5.702-7.25c0.605,1.235,3.558,7.25,3.558,7.25h6.762c0,0-6.069-11.687-6.373-12.278
			c0.162-0.195,1.619-1.977,3.359-4.104c-0.957-1.551-1.986-3.053-3.084-4.501c-1.177,1.541-2.408,3.153-2.823,3.695
			C99.242,25.081,96.559,19.356,96.559,19.356z"/>
	</g>
</g>
</svg>
