<svg xmlns="http://www.w3.org/2000/svg" width="114.244" height="114.305" viewBox="0 0 114.244 114.305">
    <circle fill="#fff" cx="55.807" cy="55.695" r="52"/>
    <ellipse fill="#fff" cx="57.123" cy="57.152" rx="57.123" ry="57.152"/>
    <path fill="#00AFD8" d="M57.123 0C25.573 0 0 25.59 0 57.152c0 31.566 25.573 57.152 57.123 57.152 31.55 0 57.12-25.586 57.12-57.152C114.243 25.59 88.673 0 57.123 0zm3.313 43.734c14.467 0 24.57 11.027 24.57 26.817 0 7.64-2.992 14.776-8.426 20.098-5.54 5.42-12.887 8.316-20.633 8.15-13.07 0-26.32-6.5-28.687-20.884h20.804c1.62 2.425 4.29 3.854 7.574 3.854 6.36 0 9.79-5.78 9.79-11.217 0-5.38-3.026-10.81-9.79-10.81-4.05 0-6.287 1.18-8.857 4.677l-.61.83H27.94L37.31 18.69H85.99l-3.37 16.97-30.688.002s-1.45 6.643-2.12 10.438c3.05-1.598 6.528-2.366 10.624-2.366z"/>
</svg>
