<svg xmlns="http://www.w3.org/2000/svg" width="114.375" height="114.725" viewBox="0 0 114.375 114.725">
    <path fill="#fff" d="M57.188 112.876C26.48 112.876 1.5 87.896 1.5 57.188 1.5 26.48 26.48 1.5 57.188 1.5s55.688 24.98 55.688 55.688c0 30.707-24.982 55.688-55.688 55.688z"/>
    <path fill="#477F81" d="M57.188 3c29.88 0 54.188 24.31 54.188 54.188 0 29.88-24.31 54.188-54.188 54.188S3 87.066 3 57.188C3 27.308 27.31 3 57.188 3m0-3C25.603 0 0 25.604 0 57.188c0 31.584 25.603 57.188 57.188 57.188 31.584 0 57.188-25.604 57.188-57.188C114.376 25.604 88.77 0 57.188 0zm0 3c29.88 0 54.188 24.31 54.188 54.188 0 29.88-24.31 54.188-54.188 54.188S3 87.066 3 57.188C3 27.308 27.31 3 57.188 3m0-3C25.603 0 0 25.604 0 57.188c0 31.584 25.603 57.188 57.188 57.188 31.584 0 57.188-25.604 57.188-57.188C114.376 25.604 88.77 0 57.188 0zm6.16 49.487c6.658 3.84 8.934 12.35 5.1 19.008-3.848 6.66-12.357 8.943-19.01 5.095-6.66-3.84-8.943-12.35-5.1-19.01 3.84-6.655 12.355-8.936 19.01-5.093m-6.022 65.238c19.803 0 37.926-10.056 48.475-26.894l.014-.01c.06-.093.08-.19.08-.29 0-.183-.09-.36-.252-.46-.255-.164-.59-.09-.75.167-9.444 14.862-28.114 24.47-47.563 24.47-29.858 0-54.15-24.29-54.15-54.148C3.18 29.36 24.845 6.14 52.4 3.643L27.3 47.142c-7.56 15.24-2.097 33.915 12.84 42.544 15.55 8.975 35.413 3.65 44.396-11.895 8.977-15.544 3.646-35.42-11.896-44.4-4.77-2.747-9.94-4.137-15.08-4.32L71.324 5.2c23.46 6.11 41.805 27.198 41.805 52.205 0 .3.24.547.543.547s.545-.246.545-.547v-.324C114.22 25.29 88.67.39 57.325.39 25.805.388.155 26.034.155 57.558c0 31.52 25.65 57.167 57.17 57.167"/>
</svg>
