<?xml version="1.0" encoding="utf-8"?>
<!-- Generator: Adobe Illustrator 15.1.0, SVG Export Plug-In . SVG Version: 6.00 Build 0)  -->
<!DOCTYPE svg PUBLIC "-//W3C//DTD SVG 1.1//EN" "http://www.w3.org/Graphics/SVG/1.1/DTD/svg11.dtd">
<svg version="1.1" id="Layer_1" xmlns="http://www.w3.org/2000/svg" xmlns:xlink="http://www.w3.org/1999/xlink" x="0px" y="0px"
	  viewBox="0 0 82.412 38.14" enable-background="new 0 0 82.412 38.14" xml:space="preserve">
<g>
	<path fill="#A71E22" d="M21.718,0.225h2.24l-6.344,15.759h-0.493L11.99,3.224l-5.184,12.76H6.324L0,0.225h2.264l4.324,10.816
		L10.94,0.225h2.124l4.373,10.816L21.718,0.225z"/>
	<path fill="#A71E22" d="M32.253,0c2.427,0,4.446,0.768,6.061,2.303c1.613,1.535,2.42,3.46,2.42,5.773s-0.814,4.229-2.442,5.745
		c-1.629,1.517-3.683,2.274-6.161,2.274c-2.366,0-4.338-0.758-5.914-2.274s-2.364-3.416-2.364-5.7c0-2.344,0.794-4.283,2.381-5.818
		C27.82,0.768,29.827,0,32.253,0z M32.343,2.134c-1.797,0-3.273,0.562-4.431,1.686s-1.735,2.557-1.735,4.302
		c0,1.692,0.58,3.1,1.741,4.223c1.16,1.124,2.613,1.686,4.357,1.686c1.753,0,3.215-0.573,4.387-1.719s1.758-2.572,1.758-4.279
		c0-1.662-0.586-3.061-1.758-4.195S34.051,2.134,32.343,2.134z"/>
	<path fill="#A71E22" d="M43.323,15.916V0.225h3.932c1.587,0,2.848,0.394,3.779,1.18c0.933,0.786,1.398,1.85,1.398,3.189
		c0,0.914-0.229,1.704-0.686,2.37c-0.456,0.667-1.111,1.165-1.965,1.494c0.501,0.329,0.992,0.778,1.471,1.348
		c0.479,0.569,1.153,1.562,2.022,2.977c0.546,0.892,0.984,1.562,1.313,2.011l0.832,1.123h-2.674l-0.685-1.034
		c-0.022-0.037-0.067-0.101-0.134-0.19l-0.438-0.618l-0.696-1.146l-0.751-1.225c-0.464-0.645-0.889-1.157-1.274-1.539
		c-0.387-0.381-0.735-0.655-1.046-0.824c-0.312-0.168-0.834-0.252-1.569-0.252H45.57v6.829H43.323z M46.244,2.134H45.57v4.954h0.854
		c1.138,0,1.919-0.098,2.342-0.292c0.423-0.195,0.752-0.489,0.988-0.882c0.235-0.394,0.354-0.841,0.354-1.343
		c0-0.494-0.131-0.941-0.393-1.342c-0.263-0.4-0.631-0.684-1.106-0.848C48.133,2.217,47.345,2.134,46.244,2.134z"/>
	<path fill="#A71E22" d="M56.92,0.225h2.247v13.647h7.064v2.044H56.92V0.225z"/>
	<path fill="#A71E22" d="M67.99,15.894V0.225h5.291c2.134,0,3.822,0.32,5.065,0.961c1.243,0.64,2.231,1.582,2.965,2.824
		c0.734,1.243,1.101,2.599,1.101,4.066c0,1.048-0.202,2.052-0.606,3.01c-0.404,0.959-0.98,1.802-1.729,2.527
		c-0.764,0.749-1.651,1.314-2.662,1.696c-0.592,0.232-1.135,0.388-1.629,0.466c-0.494,0.079-1.438,0.118-2.83,0.118H67.99z
		 M73.045,2.224h-2.808v11.671h2.875c1.123,0,1.995-0.077,2.617-0.23c0.621-0.153,1.14-0.349,1.556-0.584
		c0.415-0.236,0.796-0.526,1.14-0.871c1.108-1.123,1.663-2.542,1.663-4.257c0-1.685-0.569-3.059-1.708-4.122
		c-0.419-0.396-0.9-0.723-1.443-0.977c-0.543-0.255-1.058-0.424-1.544-0.506C74.905,2.266,74.123,2.224,73.045,2.224z"/>
	<path fill="#A71E22" d="M7.289,31.386l-1.707-1.037c-1.071-0.654-1.833-1.298-2.286-1.931s-0.68-1.36-0.68-2.185
		c0-1.235,0.429-2.238,1.286-3.01s1.972-1.157,3.342-1.157c1.311,0,2.512,0.368,3.605,1.104v2.55
		c-1.131-1.088-2.348-1.632-3.65-1.632c-0.734,0-1.337,0.17-1.809,0.51c-0.472,0.339-0.708,0.773-0.708,1.303
		c0,0.471,0.174,0.91,0.521,1.32c0.348,0.411,0.906,0.842,1.677,1.293l1.716,1.015c1.913,1.144,2.87,2.599,2.87,4.365
		c0,1.259-0.421,2.28-1.264,3.066c-0.842,0.786-1.938,1.18-3.285,1.18c-1.55,0-2.961-0.477-4.234-1.43v-2.853
		c1.213,1.537,2.617,2.306,4.212,2.306c0.704,0,1.29-0.196,1.758-0.588s0.702-0.882,0.702-1.472
		C9.355,33.148,8.667,32.242,7.289,31.386z"/>
	<path fill="#A71E22" d="M13.708,22.269h8.896v1.999h-6.649v4.785h6.425v2.011h-6.425v4.875h6.862v1.999h-9.109V22.269z"/>
	<path fill="#A71E22" d="M25.048,37.96V22.269h3.932c1.587,0,2.848,0.394,3.779,1.18c0.933,0.786,1.398,1.85,1.398,3.189
		c0,0.914-0.229,1.704-0.686,2.37c-0.456,0.667-1.111,1.165-1.965,1.494c0.501,0.329,0.992,0.778,1.471,1.348
		c0.479,0.569,1.153,1.562,2.022,2.977c0.546,0.892,0.984,1.562,1.313,2.011l0.832,1.123h-2.674l-0.685-1.034
		c-0.022-0.037-0.067-0.101-0.134-0.19l-0.438-0.618l-0.696-1.146l-0.751-1.225c-0.464-0.645-0.889-1.157-1.274-1.539
		c-0.387-0.381-0.735-0.655-1.046-0.824c-0.312-0.168-0.834-0.252-1.569-0.252h-0.584v6.829H25.048z M27.969,24.178h-0.674v4.954
		h0.854c1.138,0,1.919-0.098,2.342-0.292c0.423-0.195,0.752-0.489,0.988-0.882c0.235-0.394,0.354-0.841,0.354-1.343
		c0-0.494-0.131-0.941-0.393-1.342c-0.263-0.4-0.631-0.684-1.106-0.848C29.857,24.261,29.069,24.178,27.969,24.178z"/>
	<path fill="#A71E22" d="M46.741,22.269h2.237l-6.634,15.759h-0.509l-6.763-15.759h2.262l4.719,11.019L46.741,22.269z"/>
	<path fill="#A71E22" d="M50.49,22.269h2.247V37.96H50.49V22.269z"/>
	<path fill="#A71E22" d="M69.512,34.32v2.472c-1.647,0.898-3.549,1.348-5.706,1.348c-1.752,0-3.238-0.352-4.459-1.056
		s-2.187-1.674-2.897-2.909c-0.712-1.235-1.067-2.572-1.067-4.01c0-2.284,0.814-4.205,2.443-5.762
		c1.629-1.558,3.637-2.337,6.025-2.337c1.647,0,3.479,0.431,5.493,1.292v2.415c-1.835-1.049-3.628-1.573-5.381-1.573
		c-1.797,0-3.289,0.567-4.476,1.702s-1.78,2.556-1.78,4.263c0,1.723,0.584,3.138,1.752,4.245c1.168,1.108,2.662,1.663,4.481,1.663
		C65.843,36.073,67.7,35.489,69.512,34.32z"/>
	<path fill="#A71E22" d="M72.045,22.269h8.896v1.999h-6.649v4.785h6.425v2.011h-6.425v4.875h6.862v1.999h-9.109V22.269z"/>
</g>
</svg>
