<svg xmlns="http://www.w3.org/2000/svg" width="82.412" height="38.14" viewBox="0 0 82.412 38.14">
    <path d="M21.718.225h2.24l-6.344 15.76h-.493l-5.13-12.76-5.183 12.76h-.482L0 .225h2.264L6.588 11.04 10.94.226h2.124l4.373 10.816L21.717.226zM32.253 0c2.427 0 4.446.768 6.06 2.303 1.614 1.535 2.42 3.46 2.42 5.773s-.813 4.23-2.44 5.745c-1.63 1.52-3.684 2.276-6.162 2.276-2.364 0-4.336-.758-5.912-2.274s-2.364-3.415-2.364-5.7c0-2.343.794-4.282 2.38-5.817C27.82.768 29.828 0 32.254 0zm.09 2.134c-1.797 0-3.273.562-4.43 1.686s-1.736 2.557-1.736 4.302c0 1.692.58 3.1 1.74 4.223 1.16 1.124 2.614 1.686 4.358 1.686 1.753 0 3.215-.57 4.387-1.717s1.758-2.572 1.758-4.28c0-1.66-.586-3.06-1.758-4.194s-2.61-1.705-4.32-1.705zm10.98 13.782V.226h3.932c1.587 0 2.848.393 3.78 1.18.932.785 1.397 1.85 1.397 3.188 0 .914-.23 1.704-.686 2.37-.456.667-1.11 1.165-1.965 1.494.503.33.994.778 1.473 1.348.48.57 1.153 1.562 2.022 2.977.546.892.984 1.562 1.313 2.01l.832 1.124h-2.675l-.685-1.034c-.022-.037-.067-.1-.134-.19l-.438-.618-.696-1.146-.75-1.227c-.465-.645-.89-1.157-1.275-1.54-.387-.38-.735-.654-1.046-.823-.31-.167-.832-.25-1.567-.25h-.582v6.828h-2.246zm2.92-13.782h-.673v4.954h.854c1.138 0 1.92-.098 2.342-.292.423-.195.752-.49.988-.882.235-.394.354-.84.354-1.343 0-.492-.13-.94-.393-1.34-.263-.4-.63-.684-1.106-.85-.478-.162-1.266-.245-2.367-.245zM56.92.224h2.247v13.648h7.064v2.044h-9.31V.226zm11.07 15.67V.224h5.29c2.135 0 3.823.32 5.066.962 1.243.64 2.23 1.582 2.965 2.824.736 1.243 1.103 2.6 1.103 4.066 0 1.048-.202 2.052-.606 3.01-.404.96-.98 1.802-1.73 2.527-.763.75-1.65 1.314-2.66 1.696-.593.23-1.136.386-1.63.464-.494.08-1.438.118-2.83.118H67.99zm5.055-13.67h-2.808v11.67h2.875c1.123 0 1.995-.076 2.617-.23.62-.152 1.14-.348 1.554-.583.415-.234.796-.524 1.14-.87 1.108-1.122 1.663-2.54 1.663-4.256 0-1.685-.57-3.06-1.708-4.122-.42-.395-.9-.722-1.444-.976-.543-.255-1.058-.424-1.544-.506-.488-.082-1.27-.124-2.348-.124zM7.29 31.386L5.58 30.35c-1.07-.655-1.833-1.3-2.286-1.932s-.68-1.36-.68-2.185c0-1.235.43-2.238 1.286-3.01s1.972-1.157 3.342-1.157c1.31 0 2.512.368 3.605 1.104v2.55c-1.132-1.088-2.35-1.632-3.65-1.632-.735 0-1.338.17-1.81.51-.472.34-.708.773-.708 1.303 0 .473.173.91.52 1.32.35.413.906.844 1.677 1.295l1.716 1.015c1.913 1.143 2.87 2.598 2.87 4.364 0 1.26-.42 2.28-1.264 3.066-.843.786-1.94 1.18-3.286 1.18-1.55 0-2.96-.477-4.234-1.43v-2.853c1.213 1.537 2.617 2.306 4.212 2.306.704 0 1.29-.196 1.758-.588s.702-.882.702-1.472c0-.955-.688-1.86-2.066-2.717zm6.418-9.116h8.896v1.998h-6.65v4.785h6.426v2.01h-6.425v4.876h6.862v1.997h-9.11v-15.67zm11.34 15.69V22.27h3.932c1.587 0 2.848.393 3.78 1.18.932.785 1.397 1.85 1.397 3.188 0 .914-.23 1.704-.686 2.37-.454.667-1.11 1.165-1.963 1.494.5.33.992.778 1.47 1.348.48.57 1.154 1.562 2.023 2.977.545.892.983 1.562 1.312 2.01l.832 1.124H34.47l-.685-1.032c-.022-.037-.067-.1-.134-.19l-.436-.618-.696-1.147-.75-1.225c-.465-.645-.89-1.157-1.275-1.54-.387-.38-.735-.654-1.046-.823-.312-.168-.834-.252-1.57-.252h-.583v6.83H25.05zm2.92-13.782h-.673v4.954h.854c1.136 0 1.917-.098 2.34-.292.423-.195.752-.49.99-.882.233-.394.352-.84.352-1.343 0-.494-.13-.94-.393-1.342-.264-.4-.63-.684-1.107-.848-.477-.164-1.265-.247-2.365-.247zM46.74 22.27h2.238l-6.634 15.758h-.51l-6.762-15.76h2.262l4.72 11.02 4.687-11.02zm3.75 0h2.247v15.69H50.49V22.27zm19.022 12.05v2.472c-1.647.898-3.55 1.348-5.706 1.348-1.752 0-3.238-.352-4.46-1.056s-2.186-1.674-2.896-2.91c-.712-1.234-1.067-2.57-1.067-4.01 0-2.283.814-4.204 2.443-5.76 1.63-1.56 3.637-2.338 6.025-2.338 1.65 0 3.48.43 5.495 1.292v2.415c-1.835-1.05-3.628-1.573-5.38-1.573-1.798 0-3.29.567-4.477 1.702s-1.78 2.556-1.78 4.263c0 1.723.584 3.138 1.752 4.245 1.167 1.108 2.66 1.663 4.48 1.663 1.903 0 3.76-.584 5.572-1.753zm2.533-12.05h8.896v1.998h-6.647v4.785h6.425v2.01h-6.425v4.876h6.862v1.997h-9.11v-15.67z" fill="#A71E22"/>
</svg>
