<?xml version="1.0" encoding="utf-8"?>
<!-- Generator: Adobe Illustrator 15.1.0, SVG Export Plug-In . SVG Version: 6.00 Build 0)  -->
<!DOCTYPE svg PUBLIC "-//W3C//DTD SVG 1.1//EN" "http://www.w3.org/Graphics/SVG/1.1/DTD/svg11.dtd">
<svg version="1.1" id="Layer_1" xmlns="http://www.w3.org/2000/svg" xmlns:xlink="http://www.w3.org/1999/xlink" x="0px" y="0px"
	  viewBox="0 0 114.244 114.302" enable-background="new 0 0 114.244 114.302"
	 xml:space="preserve">
<g>
	<circle fill="#FFFFFF" cx="58.808" cy="56.194" r="48.5"/>
	<g>
		<path fill="#FFFFFF" d="M57.123,0C25.576,0,0,25.589,0,57.152c0,31.566,25.576,57.149,57.123,57.149
			c31.551,0,57.121-25.583,57.121-57.149C114.244,25.589,88.674,0,57.123,0z"/>
		<g>
			<path fill="#CD202D" d="M57.123,0C25.576,0,0,25.589,0,57.152c0,31.566,25.576,57.149,57.123,57.149
				c31.551,0,57.121-25.583,57.121-57.149C114.244,25.589,88.674,0,57.123,0z M44.694,19.01c11.279-6.389,32.463-2.18,33.225,13.246
				c0.667,13.586-16.117,22.754-26.212,28.292c-0.279-0.275-2.229-2.205-2.642-2.613c9.058-6.845,19.188-19.067,14.712-31.205
				c-3.087-8.362-16.95-8.188-20.583-0.383c3.471-1.203,8.412-1.382,11.075,1.62c2.791,3.152,1.142,8.07-2.338,9.863
				c-5.429,2.799-14.975,0.409-15.424-6.662C36.369,25.838,40.09,21.302,44.694,19.01z M78.702,92.135
				c-10.492,8.096-30.787,9.675-41.653,1.763c-4.555-3.316-8.441-7.241-8.301-12.63c0.393-14.337,24.388-8.249,18.621,2.525
				c-2.366,3.783-8.087,3.774-11.804,2.363c6.44,9.357,23.862,9.129,31.221,0.927c3.691-4.114,4.129-9.581,3.671-14.965
				c-0.55-6.458-3.667-10.521-7.588-15.239c2.421-1.735,3.85-2.699,6.167-4.577C86.02,56.414,95.395,79.264,78.702,92.135z
				 M84.84,42.889c-4.892,0-4.904-7.482,0-7.482C89.644,35.406,89.628,42.889,84.84,42.889z M84.84,30.223
				c-4.892,0-4.904-7.48,0-7.48C89.644,22.742,89.628,30.223,84.84,30.223z"/>
		</g>
	</g>
</g>
</svg>
