<?xml version="1.0" encoding="utf-8"?>
<!-- Generator: Adobe Illustrator 15.1.0, SVG Export Plug-In . SVG Version: 6.00 Build 0)  -->
<!DOCTYPE svg PUBLIC "-//W3C//DTD SVG 1.1//EN" "http://www.w3.org/Graphics/SVG/1.1/DTD/svg11.dtd">
<svg version="1.1" id="Layer_1" xmlns="http://www.w3.org/2000/svg" xmlns:xlink="http://www.w3.org/1999/xlink" x="0px" y="0px"
	  viewBox="0 0 114.242 114.304" enable-background="new 0 0 114.242 114.304"
	 xml:space="preserve">
<g>
	<g>
		<g>
			<g>
				<path fill="#FFFFFF" d="M57.121,111.804C27.003,111.804,2.5,87.287,2.5,57.151C2.5,27.017,27.003,2.5,57.121,2.5
					s54.621,24.517,54.621,54.651C111.742,87.287,87.239,111.804,57.121,111.804z"/>
				<path fill="#B11F24" d="M57.121,5c28.739,0,52.121,23.395,52.121,52.151c0,28.757-23.382,52.152-52.121,52.152
					C28.381,109.304,5,85.908,5,57.151C5,28.395,28.381,5,57.121,5 M57.121,0C25.576,0,0,25.588,0,57.151
					c0,31.566,25.576,57.152,57.121,57.152c31.551,0,57.121-25.586,57.121-57.152C114.242,25.588,88.672,0,57.121,0L57.121,0z"/>
			</g>
		</g>
	</g>
	<path fill="#B11F24" d="M80.685,38.927c0.163-0.315,0.084-1.018,0.084-1.342V22.696c0-0.574-0.466-1.039-1.04-1.039l-39.243,9.984
		c-0.574,0-1.04,0.466-1.04,1.039v14.674v27.162c-2.545-0.918-5.741-0.91-8.879,0.242c-5.871,2.157-9.309,7.503-7.678,11.939
		c1.63,4.438,7.711,6.287,13.582,4.13c4.972-1.826,8.197-5.94,8.078-9.852c0.001-0.015,0.005-0.028,0.005-0.044V47.381l31.022-7.724
		v29.377c-2.545-0.918-5.741-0.91-8.879,0.242c-5.871,2.156-9.309,7.502-7.678,11.939s7.711,6.287,13.582,4.129
		c4.972-1.826,8.197-5.939,8.078-9.852c0.001-0.015,0.005-0.028,0.005-0.043V38.927z"/>
</g>
</svg>
