<svg xmlns="http://www.w3.org/2000/svg" width="114.242" height="114.304" viewBox="0 0 114.242 114.304"><path fill="#fff" d="M57.12 111.804c-30.117 0-54.62-24.517-54.62-54.653C2.5 27.018 27.003 2.5 57.12 2.5s54.622 24.517 54.622 54.65c0 30.137-24.503 54.654-54.62 54.654z"/><path fill="#B11F24" d="M57.12 5c28.74 0 52.122 23.395 52.122 52.15 0 28.758-23.382 52.153-52.12 52.153C28.38 109.303 5 85.908 5 57.15 5 28.396 28.38 5 57.12 5m0-5C25.577 0 0 25.588 0 57.15c0 31.567 25.576 57.153 57.12 57.153 31.552 0 57.122-25.586 57.122-57.152C114.242 25.59 88.672 0 57.122 0zM80.685 38.927c.163-.315.084-1.018.084-1.342v-14.89c0-.573-.467-1.038-1.04-1.038L40.485 31.64c-.574 0-1.04.467-1.04 1.04v41.836c-2.545-.918-5.74-.91-8.88.242-5.87 2.157-9.308 7.503-7.677 11.94 1.63 4.437 7.71 6.286 13.58 4.13 4.973-1.827 8.198-5.94 8.08-9.853 0-.015.004-.028.004-.044V47.38l31.022-7.723v29.377c-2.545-.918-5.74-.91-8.88.242-5.87 2.156-9.308 7.502-7.677 11.94s7.71 6.286 13.58 4.128c4.973-1.826 8.198-5.94 8.08-9.852 0-.015.004-.028.004-.043V38.926z"/></svg>